  0
SECTION
  2
HEADER
  9
$ACADVER
  1
AC1032
  9
$ACADMAINTVER
 90
      266
  9
$DWGCODEPAGE
  3
ANSI_1252
  9
$REQUIREDVERSIONS
160
                 0
  9
$INSBASE
 10
0.0
 20
0.0
 30
0.0
  9
$EXTMIN
 10
1.000000000000000E+20
 20
1.000000000000000E+20
 30
1.000000000000000E+20
  9
$EXTMAX
 10
-1.000000000000000E+20
 20
-1.000000000000000E+20
 30
-1.000000000000000E+20
  9
$LIMMIN
 10
0.0
 20
0.0
  9
$LIMMAX
 10
12.0
 20
9.0
  9
$ORTHOMODE
 70
     0
  9
$REGENMODE
 70
     1
  9
$FILLMODE
 70
     1
  9
$QTEXTMODE
 70
     0
  9
$MIRRTEXT
 70
     0
  9
$LTSCALE
 40
1.0
  9
$ATTMODE
 70
     1
  9
$TEXTSIZE
 40
0.2
  9
$TRACEWID
 40
0.05
  9
$TEXTSTYLE
  7
Standard
  9
$CLAYER
  8
0
  9
$CELTYPE
  6
ByLayer
  9
$CECOLOR
 62
   256
  9
$CELTSCALE
 40
1.0
  9
$DISPSILH
 70
     0
  9
$DIMSCALE
 40
1.0
  9
$DIMASZ
 40
0.18
  9
$DIMEXO
 40
0.0625
  9
$DIMDLI
 40
0.38
  9
$DIMRND
 40
0.0
  9
$DIMDLE
 40
0.0
  9
$DIMEXE
 40
0.18
  9
$DIMTP
 40
0.0
  9
$DIMTM
 40
0.0
  9
$DIMTXT
 40
0.18
  9
$DIMCEN
 40
0.09
  9
$DIMTSZ
 40
0.0
  9
$DIMTOL
 70
     0
  9
$DIMLIM
 70
     0
  9
$DIMTIH
 70
     1
  9
$DIMTOH
 70
     1
  9
$DIMSE1
 70
     0
  9
$DIMSE2
 70
     0
  9
$DIMTAD
 70
     0
  9
$DIMZIN
 70
     0
  9
$DIMBLK
  1

  9
$DIMASO
 70
     1
  9
$DIMSHO
 70
     1
  9
$DIMPOST
  1

  9
$DIMAPOST
  1

  9
$DIMALT
 70
     0
  9
$DIMALTD
 70
     2
  9
$DIMALTF
 40
25.4
  9
$DIMLFAC
 40
1.0
  9
$DIMTOFL
 70
     0
  9
$DIMTVP
 40
0.0
  9
$DIMTIX
 70
     0
  9
$DIMSOXD
 70
     0
  9
$DIMSAH
 70
     0
  9
$DIMBLK1
  1

  9
$DIMBLK2
  1

  9
$DIMSTYLE
  2
Standard
  9
$DIMCLRD
 70
     0
  9
$DIMCLRE
 70
     0
  9
$DIMCLRT
 70
     0
  9
$DIMTFAC
 40
1.0
  9
$DIMGAP
 40
0.09
  9
$DIMJUST
 70
     0
  9
$DIMSD1
 70
     0
  9
$DIMSD2
 70
     0
  9
$DIMTOLJ
 70
     1
  9
$DIMTZIN
 70
     0
  9
$DIMALTZ
 70
     0
  9
$DIMALTTZ
 70
     0
  9
$DIMUPT
 70
     0
  9
$DIMDEC
 70
     4
  9
$DIMTDEC
 70
     4
  9
$DIMALTU
 70
     2
  9
$DIMALTTD
 70
     2
  9
$DIMTXSTY
  7
Standard
  9
$DIMAUNIT
 70
     0
  9
$DIMADEC
 70
     0
  9
$DIMALTRND
 40
0.0
  9
$DIMAZIN
 70
     0
  9
$DIMDSEP
 70
    46
  9
$DIMATFIT
 70
     3
  9
$DIMFRAC
 70
     0
  9
$DIMLDRBLK
  1

  9
$DIMLUNIT
 70
     2
  9
$DIMLWD
 70
    -2
  9
$DIMLWE
 70
    -2
  9
$DIMTMOVE
 70
     0
  9
$DIMFXL
 40
1.0
  9
$DIMFXLON
 70
     0
  9
$DIMJOGANG
 40
0.7853981633974483
  9
$DIMTFILL
 70
     0
  9
$DIMTFILLCLR
 70
     0
  9
$DIMARCSYM
 70
     0
  9
$DIMLTYPE
  6

  9
$DIMLTEX1
  6

  9
$DIMLTEX2
  6

  9
$DIMTXTDIRECTION
 70
     0
  9
$LUNITS
 70
     2
  9
$LUPREC
 70
     4
  9
$SKETCHINC
 40
0.1
  9
$FILLETRAD
 40
0.0
  9
$AUNITS
 70
     0
  9
$AUPREC
 70
     0
  9
$MENU
  1
.
  9
$ELEVATION
 40
0.0
  9
$PELEVATION
 40
0.0
  9
$THICKNESS
 40
0.0
  9
$LIMCHECK
 70
     0
  9
$CHAMFERA
 40
0.0
  9
$CHAMFERB
 40
0.0
  9
$CHAMFERC
 40
0.0
  9
$CHAMFERD
 40
0.0
  9
$SKPOLY
 70
     0
  9
$TDCREATE
 40
2461164.456805556
  9
$TDUCREATE
 40
2461164.665138889
  9
$TDUPDATE
 40
2461164.456805556
  9
$TDUUPDATE
 40
2461164.665138889
  9
$TDINDWG
 40
0.0000000000
  9
$TDUSRTIMER
 40
0.0000000000
  9
$USRTIMER
 70
     1
  9
$ANGBASE
 50
0.0
  9
$ANGDIR
 70
     0
  9
$PDMODE
 70
     0
  9
$PDSIZE
 40
0.0
  9
$PLINEWID
 40
0.0
  9
$SPLFRAME
 70
     0
  9
$SPLINETYPE
 70
     6
  9
$SPLINESEGS
 70
     8
  9
$HANDSEED
  5
A4
  9
$SURFTAB1
 70
     6
  9
$SURFTAB2
 70
     6
  9
$SURFTYPE
 70
     6
  9
$SURFU
 70
     6
  9
$SURFV
 70
     6
  9
$UCSBASE
  2

  9
$UCSNAME
  2

  9
$UCSORG
 10
0.0
 20
0.0
 30
0.0
  9
$UCSXDIR
 10
1.0
 20
0.0
 30
0.0
  9
$UCSYDIR
 10
0.0
 20
1.0
 30
0.0
  9
$UCSORTHOREF
  2

  9
$UCSORTHOVIEW
 70
     0
  9
$UCSORGTOP
 10
0.0
 20
0.0
 30
0.0
  9
$UCSORGBOTTOM
 10
0.0
 20
0.0
 30
0.0
  9
$UCSORGLEFT
 10
0.0
 20
0.0
 30
0.0
  9
$UCSORGRIGHT
 10
0.0
 20
0.0
 30
0.0
  9
$UCSORGFRONT
 10
0.0
 20
0.0
 30
0.0
  9
$UCSORGBACK
 10
0.0
 20
0.0
 30
0.0
  9
$PUCSBASE
  2

  9
$PUCSNAME
  2

  9
$PUCSORG
 10
0.0
 20
0.0
 30
0.0
  9
$PUCSXDIR
 10
1.0
 20
0.0
 30
0.0
  9
$PUCSYDIR
 10
0.0
 20
1.0
 30
0.0
  9
$PUCSORTHOREF
  2

  9
$PUCSORTHOVIEW
 70
     0
  9
$PUCSORGTOP
 10
0.0
 20
0.0
 30
0.0
  9
$PUCSORGBOTTOM
 10
0.0
 20
0.0
 30
0.0
  9
$PUCSORGLEFT
 10
0.0
 20
0.0
 30
0.0
  9
$PUCSORGRIGHT
 10
0.0
 20
0.0
 30
0.0
  9
$PUCSORGFRONT
 10
0.0
 20
0.0
 30
0.0
  9
$PUCSORGBACK
 10
0.0
 20
0.0
 30
0.0
  9
$USERI1
 70
     0
  9
$USERI2
 70
     0
  9
$USERI3
 70
     0
  9
$USERI4
 70
     0
  9
$USERI5
 70
     0
  9
$USERR1
 40
0.0
  9
$USERR2
 40
0.0
  9
$USERR3
 40
0.0
  9
$USERR4
 40
0.0
  9
$USERR5
 40
0.0
  9
$WORLDVIEW
 70
     1
  9
$SHADEDGE
 70
     3
  9
$SHADEDIF
 70
    70
  9
$TILEMODE
 70
     1
  9
$MAXACTVP
 70
    64
  9
$PINSBASE
 10
0.0
 20
0.0
 30
0.0
  9
$PLIMCHECK
 70
     0
  9
$PEXTMIN
 10
1.000000000000000E+20
 20
1.000000000000000E+20
 30
1.000000000000000E+20
  9
$PEXTMAX
 10
-1.000000000000000E+20
 20
-1.000000000000000E+20
 30
-1.000000000000000E+20
  9
$PLIMMIN
 10
0.0
 20
0.0
  9
$PLIMMAX
 10
12.0
 20
9.0
  9
$UNITMODE
 70
     0
  9
$VISRETAIN
 70
     1
  9
$PLINEGEN
 70
     0
  9
$PSLTSCALE
 70
     1
  9
$TREEDEPTH
 70
  3020
  9
$CMLSTYLE
  2
Standard
  9
$CMLJUST
 70
     0
  9
$CMLSCALE
 40
1.0
  9
$PROXYGRAPHICS
 70
     1
  9
$MEASUREMENT
 70
     0
  9
$CELWEIGHT
370
    -1
  9
$ENDCAPS
280
     0
  9
$JOINSTYLE
280
     0
  9
$LWDISPLAY
290
     1
  9
$INSUNITS
 70
     0
  9
$HYPERLINKBASE
  1

  9
$STYLESHEET
  1

  9
$XEDIT
290
     1
  9
$CEPSNTYPE
380
     0
  9
$PSTYLEMODE
290
     1
  9
$FINGERPRINTGUID
  2
{A528E983-AE97-144C-A659-256C23123106}
  9
$VERSIONGUID
  2
{B20A3200-04BA-1240-A019-A9CEB3023D9C}
  9
$EXTNAMES
290
     1
  9
$PSVPSCALE
 40
0.0
  9
$OLESTARTUP
290
     0
  9
$SORTENTS
280
   127
  9
$INDEXCTL
280
     0
  9
$HIDETEXT
280
     1
  9
$XCLIPFRAME
280
     2
  9
$HALOGAP
280
     0
  9
$OBSCOLOR
 70
   257
  9
$OBSLTYPE
280
     0
  9
$INTERSECTIONDISPLAY
280
     0
  9
$INTERSECTIONCOLOR
 70
   257
  9
$DIMASSOC
280
     2
  9
$PROJECTNAME
  1

  9
$CAMERADISPLAY
290
     0
  9
$LENSLENGTH
 40
50.0
  9
$CAMERAHEIGHT
 40
0.0
  9
$STEPSPERSEC
 40
2.0
  9
$STEPSIZE
 40
6.0
  9
$3DDWFPREC
 40
2.0
  9
$PSOLWIDTH
 40
0.25
  9
$PSOLHEIGHT
 40
4.0
  9
$LOFTANG1
 40
1.570796326794896
  9
$LOFTANG2
 40
1.570796326794896
  9
$LOFTMAG1
 40
0.0
  9
$LOFTMAG2
 40
0.0
  9
$LOFTPARAM
 70
     7
  9
$LOFTNORMALS
280
     1
  9
$LATITUDE
 40
37.795
  9
$LONGITUDE
 40
-122.394
  9
$NORTHDIRECTION
 40
0.0
  9
$TIMEZONE
 70
 -8000
  9
$LIGHTGLYPHDISPLAY
280
     1
  9
$TILEMODELIGHTSYNCH
280
     1
  9
$CMATERIAL
347
11
  9
$SOLIDHIST
280
     0
  9
$SHOWHIST
280
     1
  9
$DWFFRAME
280
     2
  9
$DGNFRAME
280
     0
  9
$REALWORLDSCALE
290
     1
  9
$INTERFERECOLOR
 62
     1
  9
$INTERFEREOBJVS
345
33
  9
$INTERFEREVPVS
346
30
  9
$CSHADOW
280
     0
  9
$SHADOWPLANELOCATION
 40
0.0
  0
ENDSEC
  0
SECTION
  2
CLASSES
  0
CLASS
  1
ACDBDICTIONARYWDFLT
  2
AcDbDictionaryWithDefault
  3
ObjectDBX Classes
 90
        0
 91
        1
280
     0
281
     0
  0
CLASS
  1
MATERIAL
  2
AcDbMaterial
  3
ObjectDBX Classes
 90
     1153
 91
        3
280
     0
281
     0
  0
CLASS
  1
VISUALSTYLE
  2
AcDbVisualStyle
  3
ObjectDBX Classes
 90
     4095
 91
       24
280
     0
281
     0
  0
CLASS
  1
SCALE
  2
AcDbScale
  3
ObjectDBX Classes
 90
     1153
 91
       17
280
     0
281
     0
  0
CLASS
  1
TABLESTYLE
  2
AcDbTableStyle
  3
ObjectDBX Classes
 90
     4095
 91
        1
280
     0
281
     0
  0
CLASS
  1
MLEADERSTYLE
  2
AcDbMLeaderStyle
  3
ACDB_MLEADERSTYLE_CLASS
 90
     4095
 91
        1
280
     0
281
     0
  0
CLASS
  1
ACDBSECTIONVIEWSTYLE
  2
AcDbSectionViewStyle
  3
ObjectDBX Classes
 90
     1025
 91
        1
280
     0
281
     0
  0
CLASS
  1
ACDBDETAILVIEWSTYLE
  2
AcDbDetailViewStyle
  3
ObjectDBX Classes
 90
     1025
 91
        1
280
     0
281
     0
  0
CLASS
  1
DICTIONARYVAR
  2
AcDbDictionaryVar
  3
ObjectDBX Classes
 90
        0
 91
        5
280
     0
281
     0
  0
CLASS
  1
CELLSTYLEMAP
  2
AcDbCellStyleMap
  3
ObjectDBX Classes
 90
     1152
 91
        1
280
     0
281
     0
  0
ENDSEC
  0
SECTION
  2
TABLES
  0
TABLE
  2
VPORT
  5
8
330
0
100
AcDbSymbolTable
 70
     1
  0
VPORT
  5
57
330
8
100
AcDbSymbolTableRecord
100
AcDbViewportTableRecord
  2
*Active
 70
     0
 10
0.0
 20
0.0
 11
1.0
 21
1.0
 12
0.0
 22
0.0
 13
0.0
 23
0.0
 14
1.0
 24
1.0
 15
0.0
 25
0.0
 16
0.0
 26
0.0
 36
1.0
 17
683.0
 27
383.8302024195223
 37
0.0
 40
784.4397775301183
 41
1.776197536013532
 42
50.0
 43
0.0
 44
0.0
 50
0.0
 51
0.0
 71
     0
 72
   100
 73
     1
 74
     1
 75
     0
 76
     0
 77
     0
 78
     0
281
     0
 65
     1
110
0.0
120
0.0
130
0.0
111
1.0
121
0.0
131
0.0
112
0.0
122
1.0
132
0.0
 79
     0
146
0.0
 60
     3
 61
     5
292
     1
282
     1
141
0.0
142
0.0
 63
   250
421
  3355443
  0
ENDTAB
  0
TABLE
  2
LTYPE
  5
5
330
0
100
AcDbSymbolTable
 70
     1
  0
LTYPE
  5
5B
330
5
100
AcDbSymbolTableRecord
100
AcDbLinetypeTableRecord
  2
ByBlock
 70
     0
  3

 72
    65
 73
     0
 40
0.0
  0
LTYPE
  5
5C
330
5
100
AcDbSymbolTableRecord
100
AcDbLinetypeTableRecord
  2
ByLayer
 70
     0
  3

 72
    65
 73
     0
 40
0.0
  0
LTYPE
  5
5D
330
5
100
AcDbSymbolTableRecord
100
AcDbLinetypeTableRecord
  2
Continuous
 70
     0
  3
Solid line
 72
    65
 73
     0
 40
0.0
  0
ENDTAB
  0
TABLE
  2
LAYER
  5
2
330
0
100
AcDbSymbolTable
 70
     1
  0
LAYER
  5
54
330
2
100
AcDbSymbolTableRecord
100
AcDbLayerTableRecord
  2
0
 70
     0
 62
     7
  6
Continuous
370
     0
390
F
347
21
348
0
  0
ENDTAB
  0
TABLE
  2
STYLE
  5
3
330
0
100
AcDbSymbolTable
 70
     2
  0
STYLE
  5
55
330
3
100
AcDbSymbolTableRecord
100
AcDbTextStyleTableRecord
  2
Standard
 70
     0
 40
0.0
 41
1.0
 50
0.0
 71
     0
 42
0.2
  3
txt
  4

  0
STYLE
  5
5A
330
3
100
AcDbSymbolTableRecord
100
AcDbTextStyleTableRecord
  2
Annotative
 70
     0
 40
0.0
 41
1.0
 50
0.0
 71
     0
 42
0.2
  3
txt
  4

1001
AcadAnnotative
1000
AnnotativeData
1002
{
1070
     1
1070
     1
1002
}
  0
ENDTAB
  0
TABLE
  2
VIEW
  5
6
330
0
100
AcDbSymbolTable
 70
     0
  0
ENDTAB
  0
TABLE
  2
UCS
  5
7
330
0
100
AcDbSymbolTable
 70
     0
  0
ENDTAB
  0
TABLE
  2
APPID
  5
9
330
0
100
AcDbSymbolTable
 70
     2
  0
APPID
  5
56
330
9
100
AcDbSymbolTableRecord
100
AcDbRegAppTableRecord
  2
ACAD
 70
     0
  0
APPID
  5
5E
330
9
100
AcDbSymbolTableRecord
100
AcDbRegAppTableRecord
  2
AcadAnnotative
 70
     0
  0
ENDTAB
  0
TABLE
  2
DIMSTYLE
  5
A
330
0
100
AcDbSymbolTable
 70
     2
100
AcDbDimStyleTable
 71
     0
  0
DIMSTYLE
105
58
330
A
100
AcDbSymbolTableRecord
100
AcDbDimStyleTableRecord
  2
Standard
 70
     0
340
55
  0
DIMSTYLE
105
59
330
A
100
AcDbSymbolTableRecord
100
AcDbDimStyleTableRecord
  2
Annotative
 70
     0
340
55
1001
AcadAnnotative
1000
AnnotativeData
1002
{
1070
     1
1070
     1
1002
}
  0
ENDTAB
  0
TABLE
  2
BLOCK_RECORD
  5
1
330
0
100
AcDbSymbolTable
 70
     1
  0
BLOCK_RECORD
  5
70
330
1
100
AcDbSymbolTableRecord
100
AcDbBlockTableRecord
  2
*Model_Space
340
73
 70
     0
280
     1
281
     0
  0
BLOCK_RECORD
  5
6C
330
1
100
AcDbSymbolTableRecord
100
AcDbBlockTableRecord
  2
*Paper_Space
340
6F
 70
     0
280
     1
281
     0
  0
BLOCK_RECORD
  5
74
330
1
100
AcDbSymbolTableRecord
100
AcDbBlockTableRecord
  2
*Paper_Space0
340
77
 70
     0
280
     1
281
     0
  0
ENDTAB
  0
ENDSEC
  0
SECTION
  2
BLOCKS
  0
BLOCK
  5
71
330
70
100
AcDbEntity
  8
0
100
AcDbBlockBegin
  2
*Model_Space
 70
     0
 10
0.0
 20
0.0
 30
0.0
  3
*Model_Space
  1

  0
ENDBLK
  5
72
330
70
100
AcDbEntity
  8
0
100
AcDbBlockEnd
  0
BLOCK
  5
6D
330
6C
100
AcDbEntity
 67
     1
  8
0
100
AcDbBlockBegin
  2
*Paper_Space
 70
     0
 10
0.0
 20
0.0
 30
0.0
  3
*Paper_Space
  1

  0
ENDBLK
  5
6E
330
6C
100
AcDbEntity
 67
     1
  8
0
100
AcDbBlockEnd
  0
BLOCK
  5
75
330
74
100
AcDbEntity
 67
     1
  8
0
100
AcDbBlockBegin
  2
*Paper_Space0
 70
     0
 10
0.0
 20
0.0
 30
0.0
  3
*Paper_Space0
  1

  0
ENDBLK
  5
76
330
74
100
AcDbEntity
 67
     1
  8
0
100
AcDbBlockEnd
  0
ENDSEC
  0
SECTION
  2
ENTITIES
  0
SPLINE
  5
78
330
70
100
AcDbEntity
  8
0
 62
    18
420
        0
370
    25
100
AcDbSpline
210
0.0
220
0.0
230
1.0
 70
     9
 71
     3
 72
   233
 73
   229
 74
     0
 42
0.0000000001
 43
0.0000000001
 40
0.0
 40
0.0
 40
0.0
 40
0.0
 40
1.0
 40
1.0
 40
1.0
 40
2.0
 40
2.0
 40
2.0
 40
3.0
 40
3.0
 40
3.0
 40
4.0
 40
4.0
 40
4.0
 40
5.0
 40
5.0
 40
5.0
 40
6.0
 40
6.0
 40
6.0
 40
7.0
 40
7.0
 40
7.0
 40
8.0
 40
8.0
 40
8.0
 40
9.0
 40
9.0
 40
9.0
 40
10.0
 40
10.0
 40
10.0
 40
11.0
 40
11.0
 40
11.0
 40
12.0
 40
12.0
 40
12.0
 40
13.0
 40
13.0
 40
13.0
 40
14.0
 40
14.0
 40
14.0
 40
15.0
 40
15.0
 40
15.0
 40
16.0
 40
16.0
 40
16.0
 40
17.0
 40
17.0
 40
17.0
 40
18.0
 40
18.0
 40
18.0
 40
19.0
 40
19.0
 40
19.0
 40
20.0
 40
20.0
 40
20.0
 40
21.0
 40
21.0
 40
21.0
 40
22.0
 40
22.0
 40
22.0
 40
23.0
 40
23.0
 40
23.0
 40
24.0
 40
24.0
 40
24.0
 40
25.0
 40
25.0
 40
25.0
 40
26.0
 40
26.0
 40
26.0
 40
27.0
 40
27.0
 40
27.0
 40
28.0
 40
28.0
 40
28.0
 40
29.0
 40
29.0
 40
29.0
 40
30.0
 40
30.0
 40
30.0
 40
31.0
 40
31.0
 40
31.0
 40
32.0
 40
32.0
 40
32.0
 40
33.0
 40
33.0
 40
33.0
 40
34.0
 40
34.0
 40
34.0
 40
35.0
 40
35.0
 40
35.0
 40
36.0
 40
36.0
 40
36.0
 40
37.0
 40
37.0
 40
37.0
 40
38.0
 40
38.0
 40
38.0
 40
39.0
 40
39.0
 40
39.0
 40
40.0
 40
40.0
 40
40.0
 40
41.0
 40
41.0
 40
41.0
 40
42.0
 40
42.0
 40
42.0
 40
43.0
 40
43.0
 40
43.0
 40
44.0
 40
44.0
 40
44.0
 40
45.0
 40
45.0
 40
45.0
 40
46.0
 40
46.0
 40
46.0
 40
47.0
 40
47.0
 40
47.0
 40
48.0
 40
48.0
 40
48.0
 40
49.0
 40
49.0
 40
49.0
 40
50.0
 40
50.0
 40
50.0
 40
51.0
 40
51.0
 40
51.0
 40
52.0
 40
52.0
 40
52.0
 40
53.0
 40
53.0
 40
53.0
 40
54.0
 40
54.0
 40
54.0
 40
55.0
 40
55.0
 40
55.0
 40
56.0
 40
56.0
 40
56.0
 40
57.0
 40
57.0
 40
57.0
 40
58.0
 40
58.0
 40
58.0
 40
59.0
 40
59.0
 40
59.0
 40
60.0
 40
60.0
 40
60.0
 40
61.0
 40
61.0
 40
61.0
 40
62.0
 40
62.0
 40
62.0
 40
63.0
 40
63.0
 40
63.0
 40
64.0
 40
64.0
 40
64.0
 40
65.0
 40
65.0
 40
65.0
 40
66.0
 40
66.0
 40
66.0
 40
67.0
 40
67.0
 40
67.0
 40
68.0
 40
68.0
 40
68.0
 40
69.0
 40
69.0
 40
69.0
 40
70.0
 40
70.0
 40
70.0
 40
71.0
 40
71.0
 40
71.0
 40
72.0
 40
72.0
 40
72.0
 40
73.0
 40
73.0
 40
73.0
 40
74.0
 40
74.0
 40
74.0
 40
75.0
 40
75.0
 40
75.0
 40
76.0
 40
76.0
 40
76.0
 40
76.0
 10
679.8176791608184
 20
767.9755760048101
 30
0.0
 10
673.2036368815442
 20
767.6309730931371
 30
0.0
 10
667.1788192113781
 20
763.1770595901025
 30
0.0
 10
664.6620860689954
 20
757.0891498935853
 30
0.0
 10
657.3967499369764
 20
741.8831902923994
 30
0.0
 10
650.1315405676132
 20
726.6770042176358
 30
0.0
 10
642.8664400652051
 20
711.4708896339871
 30
0.0
 10
634.8045142388436
 20
694.597029807569
 30
0.0
 10
626.7435667779063
 20
677.7227017261611
 30
0.0
 10
618.6835983721539
 20
660.8479068301384
 30
0.0
 10
584.3432015968446
 20
588.941060433689
 30
0.0
 10
550.0033225187707
 20
517.0339857303297
 30
0.0
 10
515.623765885316
 20
445.145852194847
 30
0.0
 10
495.9308234546215
 20
438.7431732602781
 30
0.0
 10
475.6471645160872
 20
433.2306708589048
 30
0.0
 10
455.8769891880437
 20
426.7364582483369
 30
0.0
 10
455.7238728585826
 20
425.9007578213158
 30
0.0
 10
459.1867009514289
 20
425.4622821017456
 30
0.0
 10
460.2407964911508
 20
424.7855190616482
 30
0.0
 10
462.3285128466132
 20
424.2546516971378
 30
0.0
 10
464.409786913111
 20
422.4633812793144
 30
0.0
 10
466.5576698434788
 20
423.4580459702328
 30
0.0
 10
481.2898991380798
 20
427.9857701416394
 30
0.0
 10
496.0950513724465
 20
432.2860062923673
 30
0.0
 10
511.0552979701696
 20
435.9998591173144
 30
0.0
 10
510.1111184028796
 20
432.6806617274887
 30
0.0
 10
507.6265560549982
 20
428.7851567697189
 30
0.0
 10
506.1745132894839
 20
425.2862525528517
 30
0.0
 10
503.1808801272054
 20
419.6321649595229
 30
0.0
 10
502.3607589658186
 20
412.8689667886192
 30
0.0
 10
494.7797544765481
 20
412.4070630632477
 30
0.0
 10
463.4613407639571
 20
402.9933110281099
 30
0.0
 10
431.485349777844
 20
394.6224689073115
 30
0.0
 10
401.9108962252257
 20
380.4267118180888
 30
0.0
 10
399.9363935351876
 20
379.2795740400343
 30
0.0
 10
403.2260856163702
 20
379.7603698106723
 30
0.0
 10
403.9951806008593
 20
379.3374286385351
 30
0.0
 10
406.4795345905013
 20
378.5348297934324
 30
0.0
 10
407.9858309916025
 20
375.716745419757
 30
0.0
 10
407.4821810550393
 20
373.194315784649
 30
0.0
 10
424.2945576560014
 20
382.5726579649945
 30
0.0
 10
453.1209892164061
 20
394.1526493874781
 30
0.0
 10
466.494081488735
 20
397.2402773851009
 30
0.0
 10
458.4327755515496
 20
391.6731723972152
 30
0.0
 10
444.2106622592336
 20
385.0755454966129
 30
0.0
 10
446.4556975330269
 20
373.4086111163251
 30
0.0
 10
446.8892117596551
 20
372.2957173486429
 30
0.0
 10
447.210743440718
 20
371.5925958516691
 30
0.0
 10
448.4636446571876
 20
372.3398747858409
 30
0.0
 10
445.0202824354928
 20
387.3445402795187
 30
0.0
 10
469.9241529079873
 20
395.708912847309
 30
0.0
 10
480.8506691048023
 20
401.2121664376399
 30
0.0
 10
486.1798852103166
 20
403.4323824605207
 30
0.0
 10
491.7850284446021
 20
405.7218488160833
 30
0.0
 10
497.3492859802818
 20
406.8841564754065
 30
0.0
 10
492.7119804633584
 20
396.5782534300151
 30
0.0
 10
486.8082106642214
 20
385.761150000415
 30
0.0
 10
482.8035015381219
 20
375.7055759255873
 30
0.0
 10
501.4711608138277
 20
377.533816279285
 30
0.0
 10
520.1487037917841
 20
379.2732490758845
 30
0.0
 10
538.7796214561849
 20
381.4484896455724
 30
0.0
 10
553.6581204875237
 20
383.1707671580916
 30
0.0
 10
568.5158587444675
 20
385.0711702045582
 30
0.0
 10
583.3510596849009
 20
387.1331261131736
 30
0.0
 10
591.8716763026732
 20
388.3155702026534
 30
0.0
 10
600.3838132858027
 20
389.5578482809651
 30
0.0
 10
608.8903596780737
 20
390.8374014491173
 30
0.0
 10
613.8397947190132
 20
390.5117210194412
 30
0.0
 10
614.561559810796
 20
393.9500843537826
 30
0.0
 10
616.3582431178201
 20
397.8170955565602
 30
0.0
 10
622.9869171101845
 20
409.4790047467331
 30
0.0
 10
627.3384054888484
 20
424.9208361432675
 30
0.0
 10
635.2828721006853
 20
434.8951883893914
 30
0.0
 10
625.5401059303376
 20
444.7876687110201
 30
0.0
 10
613.6948678726922
 20
454.1631988169265
 30
0.0
 10
603.2415566262534
 20
463.8688119896596
 30
0.0
 10
591.568984661636
 20
473.3817108241956
 30
0.0
 10
602.1446335392847
 20
466.5178872828964
 30
0.0
 10
607.7658299821877
 20
465.5622560979755
 30
0.0
 10
627.2534137186357
 20
459.3137372298634
 30
0.0
 10
646.824767774593
 20
452.1968903483802
 30
0.0
 10
666.2808533511825
 20
446.4068919302026
 30
0.0
 10
667.2519090196646
 20
451.8441389102973
 30
0.0
 10
669.3505555954561
 20
458.2514289674463
 30
0.0
 10
669.3656596408937
 20
463.2890707019932
 30
0.0
 10
661.4708326944747
 20
461.9941131351115
 30
0.0
 10
653.5902819327329
 20
460.6243927250634
 30
0.0
 10
645.7285924201423
 20
459.1477149795837
 30
0.0
 10
646.249036770896
 20
460.1368534740777
 30
0.0
 10
646.6523495438277
 20
461.3210145865914
 30
0.0
 10
647.1873619364842
 20
462.3048932979509
 30
0.0
 10
654.8243612084625
 20
463.6192799207001
 30
0.0
 10
662.8662562479275
 20
464.3683937401929
 30
0.0
 10
670.3226364015026
 20
465.9781977807488
 30
0.0
 10
674.1679667059407
 20
488.1593656059849
 30
0.0
 10
679.504007003833
 20
485.4048550122151
 30
0.0
 10
656.3590083926755
 20
480.9434983507235
 30
0.0
 10
663.7216780103654
 20
498.0166065295252
 30
0.0
 10
672.8463212710021
 20
515.4179114186281
 30
0.0
 10
680.7886960242448
 20
532.5968521188615
 30
0.0
 10
687.9012955289545
 20
518.6500918043948
 30
0.0
 10
694.5762449313151
 20
503.7456540618814
 30
0.0
 10
701.5515545004873
 20
489.4865630951617
 30
0.0
 10
680.4195885436056
 20
486.2278491089182
 30
0.0
 10
688.3405131450163
 20
488.5506558411898
 30
0.0
 10
690.7477409374969
 20
469.0298983849634
 30
0.0
 10
696.925833491141
 20
469.2560123425801
 30
0.0
 10
703.7410288030969
 20
470.8806793854237
 30
0.0
 10
710.1213296069218
 20
471.5977569864171
 30
0.0
 10
710.5621221408236
 20
470.7534504036284
 30
0.0
 10
711.0853609387922
 20
469.6103277092934
 30
0.0
 10
711.3145256967145
 20
468.809513677801
 30
0.0
 10
704.8574196990776
 20
468.0163147575676
 30
0.0
 10
698.3710614796855
 20
467.4262625957235
 30
0.0
 10
691.9367033413073
 20
466.4681095835531
 30
0.0
 10
690.7460861063482
 20
463.9645250798085
 30
0.0
 10
693.3018853430913
 20
459.2527585450552
 30
0.0
 10
693.43654290419
 20
456.0472714083871
 30
0.0
 10
695.7510236243615
 20
443.6693746045884
 30
0.0
 10
694.1772401013513
 20
445.9136306028104
 30
0.0
 10
705.5756529536811
 20
449.5106422180206
 30
0.0
 10
721.7065324686009
 20
454.8481384101378
 30
0.0
 10
737.8251339185335
 20
460.2249396150964
 30
0.0
 10
753.9591229491434
 20
465.555317956695
 30
0.0
 10
757.2895408614968
 20
466.5961408358862
 30
0.0
 10
760.7981206885979
 20
467.9336630792704
 30
0.0
 10
764.0483787346911
 20
468.8264005795063
 30
0.0
 10
751.793213685196
 20
457.8737904046874
 30
0.0
 10
739.4689412099542
 20
446.9989321694302
 30
0.0
 10
727.2195904625605
 20
436.0398976165525
 30
0.0
 10
730.400656435042
 20
428.8297412755764
 30
0.0
 10
734.0673086465776
 20
420.7456796338228
 30
0.0
 10
737.9283616881293
 20
414.0932274673805
 30
0.0
 10
747.6740335420909
 20
416.128292137042
 30
0.0
 10
757.4118639340922
 20
418.1960011570708
 30
0.0
 10
767.1393351819715
 20
420.3116374558148
 30
0.0
 10
793.358677469605
 20
425.9879983506007
 30
0.0
 10
819.4723342066009
 20
432.1358612631729
 30
0.0
 10
845.5554839540363
 20
438.4045965302739
 30
0.0
 10
846.5848943963155
 20
438.7729045508977
 30
0.0
 10
848.0174073292982
 20
438.7024120781734
 30
0.0
 10
848.785571340737
 20
439.4171971144196
 30
0.0
 10
847.5094468757561
 20
442.207077654938
 30
0.0
 10
846.153465936759
 20
444.964117509473
 30
0.0
 10
844.8451811196829
 20
447.7401605856239
 30
0.0
 10
842.4008945336245
 20
453.7611573757103
 30
0.0
 10
837.9682480354876
 20
460.4362533279199
 30
0.0
 10
836.5156869718466
 20
466.1690728518897
 30
0.0
 10
849.7645041818032
 20
467.4254038581839
 30
0.0
 10
863.0651770180593
 20
470.7341243694836
 30
0.0
 10
876.3818486056552
 20
470.1059607106026
 30
0.0
 10
995.5770025092425
 20
456.5386120664716
 30
0.0
 10
759.0469015765993
 20
400.5597292150532
 30
0.0
 10
736.6877343375453
 20
397.2303980169891
 30
0.0
 10
745.775116214696
 20
389.0346529721573
 30
0.0
 10
755.0199558706117
 20
380.9871879169859
 30
0.0
 10
764.1020294780956
 20
372.7965137938663
 30
0.0
 10
745.4913634522126
 20
378.8289597251551
 30
0.0
 10
726.4853603535357
 20
385.2539991430931
 30
0.0
 10
707.8481320842074
 20
391.4402640526068
 30
0.0
 10
687.9303120560361
 20
388.0269236509803
 30
0.0
 10
695.6291478286457
 20
389.9884901973401
 30
0.0
 10
690.4039758195449
 20
370.8816720511149
 30
0.0
 10
685.0957934942453
 20
345.3937348606814
 30
0.0
 10
683.9333946720907
 20
354.2023449925837
 30
0.0
 10
707.5360537884444
 20
356.7821451523814
 30
0.0
 10
748.7156831343709
 20
364.4597758402415
 30
0.0
 10
789.6105583061853
 20
373.8198062860574
 30
0.0
 10
829.8115613217669
 20
385.6239694259985
 30
0.0
 10
877.3676787999283
 20
398.1370946037532
 30
0.0
 10
1127.798763188468
 20
484.3335500269977
 30
0.0
 10
950.0505878905714
 20
499.4470799374139
 30
0.0
 10
951.1699290699652
 20
498.5009577830242
 30
0.0
 10
952.313755549294
 20
497.3970998055274
 30
0.0
 10
953.3253964752603
 20
496.3356765282823
 30
0.0
 10
1012.736495941122
 20
493.7106403858033
 30
0.0
 10
1036.821073005008
 20
473.127020389179
 30
0.0
 10
970.0154247973296
 20
443.5313012280048
 30
0.0
 10
932.8551674663886
 20
427.518143759844
 30
0.0
 10
893.3408348710491
 20
417.7360949540707
 30
0.0
 10
853.9881965127042
 20
408.7693231843795
 30
0.0
 10
875.4202232141324
 20
416.5456000114
 30
0.0
 10
898.5819054636667
 20
424.7362104227595
 30
0.0
 10
920.0854928054996
 20
433.9502729838359
 30
0.0
 10
918.7954403463173
 20
434.4255066943506
 30
0.0
 10
916.1975374512913
 20
435.3825307341804
 30
0.0
 10
914.9078054316124
 20
435.8576465415126
 30
0.0
 10
910.0761814029793
 20
434.2506643830829
 30
0.0
 10
905.0045605690556
 20
432.6062411399943
 30
0.0
 10
900.1474865752333
 20
431.1228992261821
 30
0.0
 10
878.0207025861546
 20
423.9045589332572
 30
0.0
 10
937.7324138021721
 20
446.7121846629424
 30
0.0
 10
916.627188677705
 20
467.0944939546879
 30
0.0
 10
913.7055938405229
 20
469.8548099362406
 30
0.0
 10
909.8119506982001
 20
471.2162504399129
 30
0.0
 10
906.1973756723418
 20
472.6921726530936
 30
0.0
 10
912.2361220534402
 20
472.8718217676268
 30
0.0
 10
918.516463371554
 20
472.7955757999516
 30
0.0
 10
924.6294799574515
 20
472.6322471232524
 30
0.0
 10
954.5122010608865
 20
471.9063752977408
 30
0.0
 10
976.7570382453104
 20
462.9616612016998
 30
0.0
 10
937.351063858321
 20
444.8775963886737
 30
0.0
 10
934.1410016666214
 20
442.8173424093674
 30
0.0
 10
928.8429372613009
 20
442.8644947151278
 30
0.0
 10
935.425620147229
 20
440.9529129002922
 30
0.0
 10
1024.252594179184
 20
485.3437945290779
 30
0.0
 10
854.4558218838247
 20
476.2823926487563
 30
0.0
 10
830.7792594380389
 20
477.1750890513003
 30
0.0
 10
822.9020081905472
 20
493.0185765734859
 30
0.0
 10
824.5292217971982
 20
486.5270129432474
 30
0.0
 10
842.7280231303283
 20
490.0459193960268
 30
0.0
 10
869.6589241442724
 20
493.2018798628205
 30
0.0
 10
896.6830062300832
 20
496.0498719943425
 30
0.0
 10
923.8104617452846
 20
496.6565921865067
 30
0.0
 10
927.1157414386252
 20
499.7057123423683
 30
0.0
 10
927.6945421092168
 20
498.9753377671022
 30
0.0
 10
924.0451482544795
 20
502.1311887709743
 30
0.0
 10
889.0014508351123
 20
503.9309255587204
 30
0.0
 10
853.8360169052284
 20
504.1276815159772
 30
0.0
 10
818.7935514234213
 20
502.2689922015533
 30
0.0
 10
790.5115127030676
 20
561.4522838592511
 30
0.0
 10
741.9131321290351
 20
663.3086685643156
 30
0.0
 10
714.2305703910806
 20
721.141278962822
 30
0.0
 10
708.2500642088707
 20
733.640441535972
 30
0.0
 10
702.2692201638128
 20
746.1398830563994
 30
0.0
 10
696.2882209690287
 20
758.6392635825323
 30
0.0
 10
693.2751960849055
 20
764.6586005364497
 30
0.0
 10
686.5004378214689
 20
768.3773697843862
 30
0.0
 10
679.8176791608184
 20
767.9755760048101
 30
0.0
  0
SPLINE
  5
79
330
70
100
AcDbEntity
  8
0
 62
    18
420
        0
370
    25
100
AcDbSpline
210
0.0
220
0.0
230
1.0
 70
     9
 71
     3
 72
    26
 73
    22
 74
     0
 42
0.0000000001
 43
0.0000000001
 40
0.0
 40
0.0
 40
0.0
 40
0.0
 40
1.0
 40
1.0
 40
1.0
 40
2.0
 40
2.0
 40
2.0
 40
3.0
 40
3.0
 40
3.0
 40
4.0
 40
4.0
 40
4.0
 40
5.0
 40
5.0
 40
5.0
 40
6.0
 40
6.0
 40
6.0
 40
7.0
 40
7.0
 40
7.0
 40
7.0
 10
921.2730324080949
 20
715.9463663746301
 30
0.0
 10
920.1618377399773
 20
715.5175700126583
 30
0.0
 10
919.1954314525338
 20
714.4131379887403
 30
0.0
 10
918.9055764655822
 20
713.3006024375727
 30
0.0
 10
915.0163175169636
 20
713.934066945464
 30
0.0
 10
912.3029667018837
 20
709.7717708388854
 30
0.0
 10
915.0954974566502
 20
706.6987945072296
 30
0.0
 10
912.2147129115418
 20
703.8953369365663
 30
0.0
 10
915.1388790960336
 20
699.1749456338311
 30
0.0
 10
918.9298899744063
 20
700.2993926075714
 30
0.0
 10
919.5945303987537
 20
696.4510624358626
 30
0.0
 10
925.429771483512
 20
696.4915214730027
 30
0.0
 10
926.2211631521678
 20
700.2456952835419
 30
0.0
 10
930.0346131274563
 20
699.2566882685314
 30
0.0
 10
932.9528648144277
 20
704.0015838569789
 30
0.0
 10
929.9518267956392
 20
706.737664932647
 30
0.0
 10
932.9098400196162
 20
709.4636256503145
 30
0.0
 10
930.0515281442804
 20
714.2404430076431
 30
0.0
 10
926.2386068864033
 20
713.2046067447281
 30
0.0
 10
925.7850838358281
 20
715.4723927388622
 30
0.0
 10
923.3950405594406
 20
716.5521214298787
 30
0.0
 10
921.2730324080949
 20
715.9463663746301
 30
0.0
  0
SPLINE
  5
7A
330
70
100
AcDbEntity
  8
0
 62
    18
420
        0
370
    25
100
AcDbSpline
210
0.0
220
0.0
230
1.0
 70
     9
 71
     3
 72
    35
 73
    31
 74
     0
 42
0.0000000001
 43
0.0000000001
 40
0.0
 40
0.0
 40
0.0
 40
0.0
 40
1.0
 40
1.0
 40
1.0
 40
2.0
 40
2.0
 40
2.0
 40
3.0
 40
3.0
 40
3.0
 40
4.0
 40
4.0
 40
4.0
 40
5.0
 40
5.0
 40
5.0
 40
6.0
 40
6.0
 40
6.0
 40
7.0
 40
7.0
 40
7.0
 40
8.0
 40
8.0
 40
8.0
 40
9.0
 40
9.0
 40
9.0
 40
10.0
 40
10.0
 40
10.0
 40
10.0
 10
468.0644067561133
 20
706.6278595435705
 30
0.0
 10
447.4041692261298
 20
705.437837162507
 30
0.0
 10
429.1967343766637
 20
692.6936464490782
 30
0.0
 10
418.833572457177
 20
675.264056757619
 30
0.0
 10
406.4946617984605
 20
675.6973478621375
 30
0.0
 10
378.8012355046067
 20
683.8075425846027
 30
0.0
 10
371.4782851204
 20
671.460918591827
 30
0.0
 10
368.4178344055772
 20
656.7755732690348
 30
0.0
 10
401.3299252716833
 20
649.70040898171
 30
0.0
 10
411.7011060492359
 20
644.8481449632573
 30
0.0
 10
412.0089516240714
 20
601.3945525756498
 30
0.0
 10
461.2872909582929
 20
571.6781148889313
 30
0.0
 10
499.7097154136663
 20
592.2501977256297
 30
0.0
 10
510.5709971739352
 20
597.7270184903
 30
0.0
 10
519.5674400922617
 20
606.575704769084
 30
0.0
 10
525.4661914226799
 20
617.1926665325318
 30
0.0
 10
538.7384005294324
 20
615.7394749764062
 30
0.0
 10
552.3852213009131
 20
613.1587014095266
 30
0.0
 10
565.6983511087982
 20
615.4114085450219
 30
0.0
 10
576.9312460989867
 20
617.4790513338466
 30
0.0
 10
574.6775890006865
 20
629.4306208635216
 30
0.0
 10
565.9156996442034
 20
633.4525006201238
 30
0.0
 10
556.2826625010102
 20
639.1238572475604
 30
0.0
 10
545.7521948863659
 20
643.0295104816805
 30
0.0
 10
535.2610873071771
 20
646.7888115297519
 30
0.0
 10
532.808115970156
 20
647.1053291224897
 30
0.0
 10
532.6323752413645
 20
648.6615167732589
 30
0.0
 10
532.6509203075666
 20
650.805918584856
 30
0.0
 10
530.8866545396931
 20
683.1972386657962
 30
0.0
 10
500.3060184595051
 20
709.4082612393249
 30
0.0
 10
468.0644067561133
 20
706.6278595435705
 30
0.0
  0
SPLINE
  5
7B
330
70
100
AcDbEntity
  8
0
 62
    18
420
        0
370
    25
100
AcDbSpline
210
0.0
220
0.0
230
1.0
 70
     9
 71
     3
 72
    14
 73
    10
 74
     0
 42
0.0000000001
 43
0.0000000001
 40
0.0
 40
0.0
 40
0.0
 40
0.0
 40
1.0
 40
1.0
 40
1.0
 40
2.0
 40
2.0
 40
2.0
 40
3.0
 40
3.0
 40
3.0
 40
3.0
 10
397.5544387648142
 20
666.7446267129735
 30
0.0
 10
403.285879583128
 20
666.2553599668663
 30
0.0
 10
409.0251772321998
 20
665.7257859293349
 30
0.0
 10
414.7133606793004
 20
664.8596824729074
 30
0.0
 10
411.3755009923843
 20
651.7744039566251
 30
0.0
 10
414.0146312253882
 20
656.4404441184414
 30
0.0
 10
400.1472533187707
 20
660.7198417220542
 30
0.0
 10
391.5490617199566
 20
664.8467641172346
 30
0.0
 10
377.9817675189652
 20
668.4783535155984
 30
0.0
 10
397.5544387648142
 20
666.7446267129735
 30
0.0
  0
SPLINE
  5
7C
330
70
100
AcDbEntity
  8
0
 62
    18
420
        0
370
    25
100
AcDbSpline
210
0.0
220
0.0
230
1.0
 70
     9
 71
     3
 72
    17
 73
    13
 74
     0
 42
0.0000000001
 43
0.0000000001
 40
0.0
 40
0.0
 40
0.0
 40
0.0
 40
1.0
 40
1.0
 40
1.0
 40
2.0
 40
2.0
 40
2.0
 40
3.0
 40
3.0
 40
3.0
 40
4.0
 40
4.0
 40
4.0
 40
4.0
 10
537.0243168185324
 20
634.5914716620373
 30
0.0
 10
544.1831745528488
 20
631.8871098909903
 30
0.0
 10
551.4029719717163
 20
629.162325682576
 30
0.0
 10
558.0818843711941
 20
625.3966020867628
 30
0.0
 10
550.2300383198198
 20
625.3763529772241
 30
0.0
 10
542.2595306189359
 20
625.9375778323065
 30
0.0
 10
534.492304536675
 20
626.9903421049985
 30
0.0
 10
529.492598559118
 20
627.3772275510809
 30
0.0
 10
529.7179028587997
 20
627.2425608856565
 30
0.0
 10
531.1280107516958
 20
631.9878668846422
 30
0.0
 10
532.0730742943778
 20
637.934475906557
 30
0.0
 10
532.1250348711656
 20
636.1992151509903
 30
0.0
 10
537.0243168185324
 20
634.5914716620373
 30
0.0
  0
SPLINE
  5
7D
330
70
100
AcDbEntity
  8
0
 62
    18
420
        0
370
    25
100
AcDbSpline
210
0.0
220
0.0
230
1.0
 70
     9
 71
     3
 72
    23
 73
    19
 74
     0
 42
0.0000000001
 43
0.0000000001
 40
0.0
 40
0.0
 40
0.0
 40
0.0
 40
1.0
 40
1.0
 40
1.0
 40
2.0
 40
2.0
 40
2.0
 40
3.0
 40
3.0
 40
3.0
 40
4.0
 40
4.0
 40
4.0
 40
5.0
 40
5.0
 40
5.0
 40
6.0
 40
6.0
 40
6.0
 40
6.0
 10
807.2327719170425
 20
671.8694398010438
 30
0.0
 10
805.6716007914584
 20
667.6695922446524
 30
0.0
 10
803.5486333513217
 20
661.9126036202388
 30
0.0
 10
801.9737960059901
 20
657.6567811430741
 30
0.0
 10
783.8909013073407
 20
650.6293435655025
 30
0.0
 10
783.6376960184534
 20
653.7129084823427
 30
0.0
 10
801.9708405438269
 20
646.6340600008233
 30
0.0
 10
808.9284644886721
 20
628.6243829902759
 30
0.0
 10
805.9806324034198
 20
628.6073076878283
 30
0.0
 10
813.0603932227513
 20
646.6576069051498
 30
0.0
 10
831.016419334599
 20
653.6033499691884
 30
0.0
 10
831.0561277629313
 20
650.6182883019882
 30
0.0
 10
813.0582470088903
 20
657.7069413972131
 30
0.0
 10
811.0915123777486
 20
662.5288123794016
 30
0.0
 10
809.4366693344746
 20
667.5078295300518
 30
0.0
 10
807.523566002461
 20
672.3514720274051
 30
0.0
 10
807.3319351199897
 20
672.3660372618333
 30
0.0
 10
807.3244418861067
 20
672.010063838743
 30
0.0
 10
807.2327719170425
 20
671.8694398010438
 30
0.0
  0
SPLINE
  5
7E
330
70
100
AcDbEntity
  8
0
 62
    18
420
        0
370
    25
100
AcDbSpline
210
0.0
220
0.0
230
1.0
 70
     9
 71
     3
 72
    11
 73
     7
 74
     0
 42
0.0000000001
 43
0.0000000001
 40
0.0
 40
0.0
 40
0.0
 40
0.0
 40
1.0
 40
1.0
 40
1.0
 40
2.0
 40
2.0
 40
2.0
 40
2.0
 10
875.4884245474441
 20
633.5871107019684
 30
0.0
 10
817.6650502855263
 20
625.4452199115267
 30
0.0
 10
829.4124079315915
 20
541.0310120828935
 30
0.0
 10
887.2828296658807
 20
549.0777594814453
 30
0.0
 10
940.6004476488924
 20
559.5951655990283
 30
0.0
 10
929.7119138590096
 20
637.9945433846605
 30
0.0
 10
875.4884245474441
 20
633.5871107019684
 30
0.0
  0
SPLINE
  5
7F
330
70
100
AcDbEntity
  8
0
 62
    18
420
        0
370
    25
100
AcDbSpline
210
0.0
220
0.0
230
1.0
 70
     9
 71
     3
 72
    26
 73
    22
 74
     0
 42
0.0000000001
 43
0.0000000001
 40
0.0
 40
0.0
 40
0.0
 40
0.0
 40
1.0
 40
1.0
 40
1.0
 40
2.0
 40
2.0
 40
2.0
 40
3.0
 40
3.0
 40
3.0
 40
4.0
 40
4.0
 40
4.0
 40
5.0
 40
5.0
 40
5.0
 40
6.0
 40
6.0
 40
6.0
 40
7.0
 40
7.0
 40
7.0
 40
7.0
 10
369.2572242863289
 20
612.6490912736844
 30
0.0
 10
368.1733949407016
 20
610.1763841192514
 30
0.0
 10
367.5841829970114
 20
607.2590321329653
 30
0.0
 10
366.1503065823754
 20
605.0356868280914
 30
0.0
 10
364.0493488066859
 20
603.5138343981024
 30
0.0
 10
347.5427227851333
 20
599.7569263901578
 30
0.0
 10
354.0324756874061
 20
598.6477083598129
 30
0.0
 10
358.1361791163554
 20
597.0229780455784
 30
0.0
 10
362.4747565937441
 20
595.7170784885629
 30
0.0
 10
366.4577388182224
 20
593.9174994678824
 30
0.0
 10
373.4634175621823
 20
575.6654535189891
 30
0.0
 10
370.6271602864881
 20
576.4757507648319
 30
0.0
 10
377.4743884987683
 20
594.0511186904641
 30
0.0
 10
392.1046106193617
 20
600.6622433337743
 30
0.0
 10
398.9416289232358
 20
597.3990239291133
 30
0.0
 10
379.8571637081323
 20
604.2008480560926
 30
0.0
 10
374.5903000594817
 20
606.4313637586082
 30
0.0
 10
374.8722470627681
 20
614.8236418771885
 30
0.0
 10
372.0983585374988
 20
619.5675251142201
 30
0.0
 10
370.9996963114599
 20
618.2423375188363
 30
0.0
 10
370.206270357492
 20
614.725232402614
 30
0.0
 10
369.2572242863289
 20
612.6490912736844
 30
0.0
  0
SPLINE
  5
80
330
70
100
AcDbEntity
  8
0
 62
    18
420
        0
370
    25
100
AcDbSpline
210
0.0
220
0.0
230
1.0
 70
     9
 71
     3
 72
    11
 73
     7
 74
     0
 42
0.0000000001
 43
0.0000000001
 40
0.0
 40
0.0
 40
0.0
 40
0.0
 40
1.0
 40
1.0
 40
1.0
 40
2.0
 40
2.0
 40
2.0
 40
2.0
 10
413.4135973520869
 20
551.1954680959616
 30
0.0
 10
386.4358334873196
 20
546.6692857025964
 30
0.0
 10
392.7892846708965
 20
505.6315786061122
 30
0.0
 10
419.8819128581744
 20
509.572085817399
 30
0.0
 10
447.3469079223959
 20
514.0992864025093
 30
0.0
 10
440.9979173725023
 20
555.0697124163852
 30
0.0
 10
413.4135973520869
 20
551.1954680959616
 30
0.0
  0
SPLINE
  5
81
330
70
100
AcDbEntity
  8
0
 62
    18
420
        0
370
    25
100
AcDbSpline
210
0.0
220
0.0
230
1.0
 70
     9
 71
     3
 72
    32
 73
    28
 74
     0
 42
0.0000000001
 43
0.0000000001
 40
0.0
 40
0.0
 40
0.0
 40
0.0
 40
1.0
 40
1.0
 40
1.0
 40
2.0
 40
2.0
 40
2.0
 40
3.0
 40
3.0
 40
3.0
 40
4.0
 40
4.0
 40
4.0
 40
5.0
 40
5.0
 40
5.0
 40
6.0
 40
6.0
 40
6.0
 40
7.0
 40
7.0
 40
7.0
 40
8.0
 40
8.0
 40
8.0
 40
9.0
 40
9.0
 40
9.0
 40
9.0
 10
507.0049698600732
 20
545.6259960683337
 30
0.0
 10
504.2549075263377
 20
544.3952026233255
 30
0.0
 10
504.9882839561042
 20
540.6835072963185
 30
0.0
 10
503.8432847276462
 20
538.5184918325067
 30
0.0
 10
494.5443201697689
 20
542.5719866045429
 30
0.0
 10
491.2159317299429
 20
536.3922717292198
 30
0.0
 10
499.1797666434495
 20
530.3511226929449
 30
0.0
 10
497.114183074731
 20
528.2063026215064
 30
0.0
 10
492.6561002492189
 20
525.5323194673165
 30
0.0
 10
495.4882321254144
 20
522.0845197928156
 30
0.0
 10
497.7463942249605
 20
519.2405407390624
 30
0.0
 10
501.2301734740812
 20
521.8910035035169
 30
0.0
 10
503.9614800986346
 20
522.2577807986535
 30
0.0
 10
504.6829076968488
 20
519.1185886140438
 30
0.0
 10
505.0457422454801
 20
513.7312955688494
 30
0.0
 10
509.6589662066371
 20
514.9847980569529
 30
0.0
 10
512.8787354624855
 20
515.8556614089584
 30
0.0
 10
512.3420267520805
 20
519.8610813404229
 30
0.0
 10
513.271865686378
 20
522.3289850483052
 30
0.0
 10
522.3999818956908
 20
518.0117346048518
 30
0.0
 10
526.1326418832195
 20
524.5957513947187
 30
0.0
 10
517.9496589824293
 20
530.3977898860639
 30
0.0
 10
526.1662679442497
 20
536.3067109413513
 30
0.0
 10
522.5057338739352
 20
542.656047353521
 30
0.0
 10
513.2529318018123
 20
538.483373064083
 30
0.0
 10
512.6034240523095
 20
541.8696494945434
 30
0.0
 10
511.7920362268705
 20
547.3859949118978
 30
0.0
 10
507.0049698600732
 20
545.6259960683337
 30
0.0
  0
SPLINE
  5
82
330
70
100
AcDbEntity
  8
0
 62
    18
420
        0
370
    25
100
AcDbSpline
210
0.0
220
0.0
230
1.0
 70
     9
 71
     3
 72
    29
 73
    25
 74
     0
 42
0.0000000001
 43
0.0000000001
 40
0.0
 40
0.0
 40
0.0
 40
0.0
 40
1.0
 40
1.0
 40
1.0
 40
2.0
 40
2.0
 40
2.0
 40
3.0
 40
3.0
 40
3.0
 40
4.0
 40
4.0
 40
4.0
 40
5.0
 40
5.0
 40
5.0
 40
6.0
 40
6.0
 40
6.0
 40
7.0
 40
7.0
 40
7.0
 40
8.0
 40
8.0
 40
8.0
 40
8.0
 10
936.2697120245101
 20
513.0475555664052
 30
0.0
 10
933.9885504023349
 20
512.1975182747719
 30
0.0
 10
934.6080762188831
 20
509.1779358822605
 30
0.0
 10
933.5342815324874
 20
507.6793848686147
 30
0.0
 10
926.5599402173375
 20
510.999697620431
 30
0.0
 10
923.0459340813085
 20
504.3725015879626
 30
0.0
 10
929.3831115950379
 20
500.1684319485648
 30
0.0
 10
922.9802354460735
 20
495.785706437392
 30
0.0
 10
926.5960514509789
 20
489.3230393420763
 30
0.0
 10
933.6922716756635
 20
492.6046259845052
 30
0.0
 10
934.1611947573637
 20
489.5435748805775
 30
0.0
 10
935.7096082811459
 20
485.493839650353
 30
0.0
 10
939.6702105440509
 20
487.1344182839274
 30
0.0
 10
941.8664119430978
 20
488.0811968246507
 30
0.0
 10
941.6650272055521
 20
490.7880064388582
 30
0.0
 10
942.3709471757684
 20
492.6044399758348
 30
0.0
 10
949.3481038334394
 20
489.3218505244294
 30
0.0
 10
953.1698243851788
 20
495.7736498737886
 30
0.0
 10
946.699780539151
 20
500.11157582351
 30
0.0
 10
952.9426119797863
 20
504.5404454134559
 30
0.0
 10
949.6028719072528
 20
510.9014726423274
 30
0.0
 10
942.409366688631
 20
507.6869376234963
 30
0.0
 10
941.888393397161
 20
510.8186015082583
 30
0.0
 10
940.2367534127188
 20
514.9240713117714
 30
0.0
 10
936.2697120245101
 20
513.0475555664052
 30
0.0
  0
SPLINE
  5
83
330
70
100
AcDbEntity
  8
0
 62
    18
420
        0
370
    25
100
AcDbSpline
210
0.0
220
0.0
230
1.0
 70
     9
 71
     3
 72
    62
 73
    58
 74
     0
 42
0.0000000001
 43
0.0000000001
 40
0.0
 40
0.0
 40
0.0
 40
0.0
 40
1.0
 40
1.0
 40
1.0
 40
2.0
 40
2.0
 40
2.0
 40
3.0
 40
3.0
 40
3.0
 40
4.0
 40
4.0
 40
4.0
 40
5.0
 40
5.0
 40
5.0
 40
6.0
 40
6.0
 40
6.0
 40
7.0
 40
7.0
 40
7.0
 40
8.0
 40
8.0
 40
8.0
 40
9.0
 40
9.0
 40
9.0
 40
10.0
 40
10.0
 40
10.0
 40
11.0
 40
11.0
 40
11.0
 40
12.0
 40
12.0
 40
12.0
 40
13.0
 40
13.0
 40
13.0
 40
14.0
 40
14.0
 40
14.0
 40
15.0
 40
15.0
 40
15.0
 40
16.0
 40
16.0
 40
16.0
 40
17.0
 40
17.0
 40
17.0
 40
18.0
 40
18.0
 40
18.0
 40
19.0
 40
19.0
 40
19.0
 40
19.0
 10
675.0636045062056
 20
469.1702870136132
 30
0.0
 10
673.0558289134105
 20
459.8544616234303
 30
0.0
 10
671.3622048157631
 20
450.247675341423
 30
0.0
 10
669.1872609176243
 20
441.0742529290537
 30
0.0
 10
650.9889977283838
 20
446.9664380490648
 30
0.0
 10
632.8591912827696
 20
453.0659887541569
 30
0.0
 10
614.6919695761035
 20
459.0518807385751
 30
0.0
 10
628.8257780323947
 20
446.3334306411598
 30
0.0
 10
643.3106906290577
 20
433.509055974644
 30
0.0
 10
657.6443529399257
 20
420.8523626242286
 30
0.0
 10
645.2783401229798
 20
409.5368856298928
 30
0.0
 10
626.7597560551703
 20
393.9167587472648
 30
0.0
 10
615.0447589584455
 20
382.7944381524394
 30
0.0
 10
631.7992036606556
 20
388.1767507105569
 30
0.0
 10
648.4451330499832
 20
393.889483488847
 30
0.0
 10
665.1793905922877
 20
399.3331051438417
 30
0.0
 10
666.5227374876931
 20
399.7055631814355
 30
0.0
 10
667.9115125106719
 20
400.3286778534038
 30
0.0
 10
669.2374763777534
 20
400.5717705005172
 30
0.0
 10
669.8692637666299
 20
397.8337669518751
 30
0.0
 10
670.3818986349851
 20
395.0560012325878
 30
0.0
 10
670.9739353969125
 20
392.3048973646282
 30
0.0
 10
673.0735557194612
 20
382.1859898422681
 30
0.0
 10
675.1428814146383
 20
372.0608345812288
 30
0.0
 10
677.2314136065306
 20
361.9396395067597
 30
0.0
 10
681.7281195276009
 20
341.2426272825123
 30
0.0
 10
679.9025326238388
 20
340.5062547824146
 30
0.0
 10
684.4624768086869
 20
361.8086506387299
 30
0.0
 10
687.1211515143659
 20
374.6881285826985
 30
0.0
 10
689.7577067221045
 20
387.5725097006398
 30
0.0
 10
692.4359199665759
 20
400.4482982786957
 30
0.0
 10
695.0435523084943
 20
400.1839845131017
 30
0.0
 10
698.1851368176831
 20
398.6212180041576
 30
0.0
 10
700.9549923247432
 20
397.9019848754469
 30
0.0
 10
716.1966365511362
 20
392.8888541452543
 30
0.0
 10
731.3853853225209
 20
387.7143820144129
 30
0.0
 10
746.6592201465846
 20
382.7996303358523
 30
0.0
 10
735.0754529062578
 20
393.877610349974
 30
0.0
 10
716.4200481930565
 20
409.5985677742573
 30
0.0
 10
704.1057556796731
 20
420.8419593140197
 30
0.0
 10
716.7520142711382
 20
432.1543738335649
 30
0.0
 10
734.6488150317981
 20
447.9123337728315
 30
0.0
 10
747.1056982319368
 20
459.068241400736
 30
0.0
 10
741.509799002315
 20
457.2745638757523
 30
0.0
 10
735.8532396456048
 20
455.3376619845621
 30
0.0
 10
730.2372698791677
 20
453.4951002830685
 30
0.0
 10
717.671038799177
 20
449.5070172973455
 30
0.0
 10
704.9599238782466
 20
444.7261593125149
 30
0.0
 10
692.4325534024974
 20
441.2110187283851
 30
0.0
 10
689.7545229948645
 20
454.1088044967237
 30
0.0
 10
687.124480455308
 20
467.0166244927623
 30
0.0
 10
684.4566963815286
 20
479.9162761417428
 30
0.0
 10
683.2477031216731
 20
485.6165685516852
 30
0.0
 10
682.1332216122755
 20
491.3968225964945
 30
0.0
 10
680.8624664296275
 20
497.0541309935088
 30
0.0
 10
678.8462677810294
 20
487.8160247439191
 30
0.0
 10
676.9976200957508
 20
478.4546553549644
 30
0.0
 10
675.0636045062056
 20
469.1702870136132
 30
0.0
  0
SPLINE
  5
84
330
70
100
AcDbEntity
  8
0
 62
    18
420
        0
370
    25
100
AcDbSpline
210
0.0
220
0.0
230
1.0
 70
     9
 71
     3
 72
    20
 73
    16
 74
     0
 42
0.0000000001
 43
0.0000000001
 40
0.0
 40
0.0
 40
0.0
 40
0.0
 40
1.0
 40
1.0
 40
1.0
 40
2.0
 40
2.0
 40
2.0
 40
3.0
 40
3.0
 40
3.0
 40
4.0
 40
4.0
 40
4.0
 40
5.0
 40
5.0
 40
5.0
 40
5.0
 10
923.599565016355
 20
445.7918245229657
 30
0.0
 10
922.9840707797976
 20
440.7840240218375
 30
0.0
 10
918.1599472293273
 20
440.5987265024386
 30
0.0
 10
914.3565693703076
 20
438.8440296240268
 30
0.0
 10
916.518823514405
 20
437.8765947847768
 30
0.0
 10
919.8347993347033
 20
436.7942084801597
 30
0.0
 10
922.0980824244724
 20
435.9263854956716
 30
0.0
 10
925.7614894262824
 20
426.3319483852874
 30
0.0
 10
924.4180350076749
 20
426.4204859679893
 30
0.0
 10
928.0197327558999
 20
435.9038812751805
 30
0.0
 10
934.8713080528359
 20
438.9667153216205
 30
0.0
 10
939.5177368271543
 20
437.910727868526
 30
0.0
 10
929.3361834197003
 20
441.3316180693236
 30
0.0
 10
925.5614877779734
 20
442.033183989648
 30
0.0
 10
926.288810688622
 20
455.1020514527217
 30
0.0
 10
923.599565016355
 20
445.7918245229657
 30
0.0
  0
SPLINE
  5
85
330
70
100
AcDbEntity
  8
0
 62
    18
420
        0
370
    25
100
AcDbSpline
210
0.0
220
0.0
230
1.0
 70
     9
 71
     3
 72
    23
 73
    19
 74
     0
 42
0.0000000001
 43
0.0000000001
 40
0.0
 40
0.0
 40
0.0
 40
0.0
 40
1.0
 40
1.0
 40
1.0
 40
2.0
 40
2.0
 40
2.0
 40
3.0
 40
3.0
 40
3.0
 40
4.0
 40
4.0
 40
4.0
 40
5.0
 40
5.0
 40
5.0
 40
6.0
 40
6.0
 40
6.0
 40
6.0
 10
446.1409418021339
 20
434.7800109079289
 30
0.0
 10
445.0339804492405
 20
431.7918614470709
 30
0.0
 10
443.8021933362624
 20
428.4617493945352
 30
0.0
 10
442.6903631101185
 20
425.4553711243197
 30
0.0
 10
427.5927716522801
 20
419.6455469326338
 30
0.0
 10
427.6190342950167
 20
422.0045805213894
 30
0.0
 10
442.6748617877574
 20
416.2317763688434
 30
0.0
 10
448.3768689137132
 20
401.6128866169419
 30
0.0
 10
446.1357281575665
 20
400.8481768108758
 30
0.0
 10
451.8959672045757
 20
416.1273954318994
 30
0.0
 10
455.8890600792137
 20
417.8204393086507
 30
0.0
 10
460.2021829920622
 20
419.169979857239
 30
0.0
 10
464.2138560060748
 20
420.7972252723757
 30
0.0
 10
460.2672018027142
 20
422.6215702437285
 30
0.0
 10
455.8093803059982
 20
423.6307547618953
 30
0.0
 10
452.0092346010406
 20
425.6411272653058
 30
0.0
 10
450.05434155711
 20
427.9166032623306
 30
0.0
 10
447.7384636790893
 20
442.7298545484155
 30
0.0
 10
446.1409418021339
 20
434.7800109079289
 30
0.0
  0
SPLINE
  5
86
330
70
100
AcDbEntity
  8
0
 62
    18
420
        0
370
    25
100
AcDbSpline
210
0.0
220
0.0
230
1.0
 70
     9
 71
     3
 72
    62
 73
    58
 74
     0
 42
0.0000000001
 43
0.0000000001
 40
0.0
 40
0.0
 40
0.0
 40
0.0
 40
1.0
 40
1.0
 40
1.0
 40
2.0
 40
2.0
 40
2.0
 40
3.0
 40
3.0
 40
3.0
 40
4.0
 40
4.0
 40
4.0
 40
5.0
 40
5.0
 40
5.0
 40
6.0
 40
6.0
 40
6.0
 40
7.0
 40
7.0
 40
7.0
 40
8.0
 40
8.0
 40
8.0
 40
9.0
 40
9.0
 40
9.0
 40
10.0
 40
10.0
 40
10.0
 40
11.0
 40
11.0
 40
11.0
 40
12.0
 40
12.0
 40
12.0
 40
13.0
 40
13.0
 40
13.0
 40
14.0
 40
14.0
 40
14.0
 40
15.0
 40
15.0
 40
15.0
 40
16.0
 40
16.0
 40
16.0
 40
17.0
 40
17.0
 40
17.0
 40
18.0
 40
18.0
 40
18.0
 40
19.0
 40
19.0
 40
19.0
 40
19.0
 10
425.1032118976345
 20
416.1327014502712
 30
0.0
 10
400.3690485303105
 20
406.5260442509634
 30
0.0
 10
374.3295540678482
 20
397.7244767994416
 30
0.0
 10
353.8573853252219
 20
380.2604756997607
 30
0.0
 10
331.6474353292342
 20
359.0830508958043
 30
0.0
 10
358.6802725571706
 20
342.9687953309458
 30
0.0
 10
379.3484795775303
 20
339.2586479837082
 30
0.0
 10
431.5902350792248
 20
328.2976280047151
 30
0.0
 10
485.7229476063148
 20
331.9522858738601
 30
0.0
 10
538.666103025118
 20
334.6911891357049
 30
0.0
 10
577.8487158171874
 20
337.4243974334531
 30
0.0
 10
616.8785859708869
 20
342.0926234919771
 30
0.0
 10
655.6938872106893
 20
348.0673262423188
 30
0.0
 10
662.1985627164431
 20
349.0662857569441
 30
0.0
 10
668.697177514925
 20
350.1040408421723
 30
0.0
 10
675.1954208575489
 20
351.1438639872249
 30
0.0
 10
675.3086212115468
 20
352.5464454501634
 30
0.0
 10
674.5780954108786
 20
354.4571418157375
 30
0.0
 10
674.3690681030539
 20
356.0261834348076
 30
0.0
 10
672.8092265978748
 20
363.7318438560051
 30
0.0
 10
671.2109106415446
 20
371.4296242493511
 30
0.0
 10
669.6363321119588
 20
379.1322565348528
 30
0.0
 10
668.6307370446029
 20
382.1405692084063
 30
0.0
 10
669.9441556262527
 20
385.0567334715543
 30
0.0
 10
665.6520213814028
 20
383.5785138929495
 30
0.0
 10
627.3295153780918
 20
377.0311639014963
 30
0.0
 10
588.9512425893208
 20
370.6509949152533
 30
0.0
 10
550.3815117022513
 20
365.7293269850543
 30
0.0
 10
519.4533572554555
 20
362.7297351355628
 30
0.0
 10
486.8216553914362
 20
357.9166623729343
 30
0.0
 10
456.5986484780251
 20
367.3204487257626
 30
0.0
 10
446.6998281475116
 20
364.6375869772437
 30
0.0
 10
484.4043678056569
 20
358.9228333850515
 30
0.0
 10
486.5912092884063
 20
358.5658897531994
 30
0.0
 10
468.0970701336864
 20
357.7767702719484
 30
0.0
 10
402.7983102939806
 20
350.6178918303722
 30
0.0
 10
391.3756282307186
 20
362.2148033294779
 30
0.0
 10
387.8002452438295
 20
361.6701222373031
 30
0.0
 10
384.9789557800868
 20
364.4774309091572
 30
0.0
 10
384.8850156192875
 20
367.9745647102572
 30
0.0
 10
381.0911695106142
 20
362.8224102160311
 30
0.0
 10
382.3524153750223
 20
355.8628212453787
 30
0.0
 10
387.0136880512391
 20
351.8656490963385
 30
0.0
 10
378.6775459431028
 20
353.1966242507151
 30
0.0
 10
370.0713605172023
 20
354.5594346808466
 30
0.0
 10
362.4813614866016
 20
358.4430792176645
 30
0.0
 10
347.0584857703052
 20
366.2670867542292
 30
0.0
 10
368.6469342920363
 20
379.6356841309826
 30
0.0
 10
376.113037087287
 20
384.8888335711508
 30
0.0
 10
394.5573208958695
 20
396.5604757338551
 30
0.0
 10
414.8632760586906
 20
404.9149712178278
 30
0.0
 10
435.1832794348983
 20
412.7062829095794
 30
0.0
 10
440.9538643800224
 20
414.5590418478113
 30
0.0
 10
438.1422518709505
 20
414.5201431473269
 30
0.0
 10
434.1494353091247
 20
416.0826302196101
 30
0.0
 10
431.0137261288992
 20
417.6784343653553
 30
0.0
 10
428.2365606713947
 20
417.8282625905139
 30
0.0
 10
425.1032118976345
 20
416.1327014502712
 30
0.0
  0
SPLINE
  5
87
330
70
100
AcDbEntity
  8
0
 62
    18
420
        0
370
    25
100
AcDbSpline
210
0.0
220
0.0
230
1.0
 70
     9
 71
     3
 72
    35
 73
    31
 74
     0
 42
0.0000000001
 43
0.0000000001
 40
0.0
 40
0.0
 40
0.0
 40
0.0
 40
1.0
 40
1.0
 40
1.0
 40
2.0
 40
2.0
 40
2.0
 40
3.0
 40
3.0
 40
3.0
 40
4.0
 40
4.0
 40
4.0
 40
5.0
 40
5.0
 40
5.0
 40
6.0
 40
6.0
 40
6.0
 40
7.0
 40
7.0
 40
7.0
 40
8.0
 40
8.0
 40
8.0
 40
9.0
 40
9.0
 40
9.0
 40
10.0
 40
10.0
 40
10.0
 40
10.0
 10
872.5846349469575
 20
382.8434050639662
 30
0.0
 10
836.8486723452843
 20
373.696727350567
 30
0.0
 10
800.3439459803557
 20
366.0009283021136
 30
0.0
 10
764.6320952465412
 20
357.6496039319154
 30
0.0
 10
782.202781175456
 20
320.5693991567496
 30
0.0
 10
799.9064726493361
 20
283.5531185732871
 30
0.0
 10
817.5917107179921
 20
246.5281097602401
 30
0.0
 10
852.6122784828293
 20
173.4808857123207
 30
0.0
 10
845.016070784759
 20
170.4236879825912
 30
0.0
 10
924.7986381015307
 20
144.1707335979408
 30
0.0
 10
938.7949299669999
 20
139.0970317490864
 30
0.0
 10
952.7925830444438
 20
134.0255687037716
 30
0.0
 10
966.7904293799074
 20
128.9546373727498
 30
0.0
 10
976.1664002558809
 20
125.146664421989
 30
0.0
 10
987.5204367143414
 20
132.067627843493
 30
0.0
 10
988.2179633996166
 20
142.2376485438908
 30
0.0
 10
986.8872159023558
 20
157.0730944022198
 30
0.0
 10
975.7375193870302
 20
170.682534636142
 30
0.0
 10
970.4895303938428
 20
184.6606954906292
 30
0.0
 10
957.5373811396948
 20
211.7801846069178
 30
0.0
 10
944.584414606812
 20
238.8989802097349
 30
0.0
 10
931.630798719385
 20
266.0174658106243
 30
0.0
 10
918.6559846919918
 20
293.1802616785808
 30
0.0
 10
905.6817691989508
 20
320.3433429148335
 30
0.0
 10
892.7100584575455
 20
347.5076209487652
 30
0.0
 10
887.3642950560897
 20
358.7022493882105
 30
0.0
 10
882.0185455176979
 20
369.8969062911347
 30
0.0
 10
876.6728268638253
 20
381.0915560964495
 30
0.0
 10
875.9133282132024
 20
383.4028113961085
 30
0.0
 10
875.0145321811942
 20
383.906575984467
 30
0.0
 10
872.5846349469575
 20
382.8434050639662
 30
0.0
  0
SPLINE
  5
88
330
70
100
AcDbEntity
  8
0
 62
    18
420
        0
370
    25
100
AcDbSpline
210
0.0
220
0.0
230
1.0
 70
     9
 71
     3
 72
    26
 73
    22
 74
     0
 42
0.0000000001
 43
0.0000000001
 40
0.0
 40
0.0
 40
0.0
 40
0.0
 40
1.0
 40
1.0
 40
1.0
 40
2.0
 40
2.0
 40
2.0
 40
3.0
 40
3.0
 40
3.0
 40
4.0
 40
4.0
 40
4.0
 40
5.0
 40
5.0
 40
5.0
 40
6.0
 40
6.0
 40
6.0
 40
7.0
 40
7.0
 40
7.0
 40
7.0
 10
395.3799229671213
 20
380.6169351094795
 30
0.0
 10
393.9764496814805
 20
380.3149985044893
 30
0.0
 10
392.686546861577
 20
379.1493785525581
 30
0.0
 10
392.5388127820033
 20
377.6780437557409
 30
0.0
 10
388.7093771888467
 20
378.8245912758575
 30
0.0
 10
385.573779012062
 20
374.0027229948737
 30
0.0
 10
388.7177711442691
 20
371.2575091177569
 30
0.0
 10
385.7056762683551
 20
368.3865169486635
 30
0.0
 10
388.5573771283916
 20
363.6789874003571
 30
0.0
 10
392.4408645526346
 20
364.6591486209636
 30
0.0
 10
393.3592523597281
 20
360.7471323556874
 30
0.0
 10
399.0785758675284
 20
360.849949132069
 30
0.0
 10
399.8887087066068
 20
364.7832394809338
 30
0.0
 10
403.6603573792318
 20
363.3561934066929
 30
0.0
 10
406.7067920033423
 20
368.6756907965318
 30
0.0
 10
403.5518567103581
 20
371.2008347392821
 30
0.0
 10
406.6938812889338
 20
373.9267235162515
 30
0.0
 10
403.7169837259789
 20
378.7922797450228
 30
0.0
 10
399.8327337691444
 20
377.7079517462407
 30
0.0
 10
399.4100665406759
 20
379.6837459341696
 30
0.0
 10
397.3652706245057
 20
381.0444261044231
 30
0.0
 10
395.3799229671213
 20
380.6169351094795
 30
0.0
  0
SPLINE
  5
89
330
70
100
AcDbEntity
  8
0
 62
    18
420
        0
370
    25
100
AcDbSpline
210
0.0
220
0.0
230
1.0
 70
     9
 71
     3
 72
    23
 73
    19
 74
     0
 42
0.0000000001
 43
0.0000000001
 40
0.0
 40
0.0
 40
0.0
 40
0.0
 40
1.0
 40
1.0
 40
1.0
 40
2.0
 40
2.0
 40
2.0
 40
3.0
 40
3.0
 40
3.0
 40
4.0
 40
4.0
 40
4.0
 40
5.0
 40
5.0
 40
5.0
 40
6.0
 40
6.0
 40
6.0
 40
6.0
 10
450.1949322915816
 20
373.3571049100719
 30
0.0
 10
450.1949322915816
 20
373.3571049100719
 30
0.0
 10
449.3759147119572
 20
371.1761498472551
 30
0.0
 10
449.3759147119572
 20
371.1761498472551
 30
0.0
 10
443.9538019972697
 20
369.1624658847359
 30
0.0
 10
444.4622306835208
 20
369.8998246800766
 30
0.0
 10
449.4126933974057
 20
367.7418064732338
 30
0.0
 10
450.1310167896254
 20
366.8076571802339
 30
0.0
 10
450.2534563628732
 20
363.8338514226561
 30
0.0
 10
451.2967771077174
 20
363.909487613073
 30
0.0
 10
451.873279861974
 20
365.1844249107544
 30
0.0
 10
452.1011465851252
 20
366.7401376713296
 30
0.0
 10
452.9231319335795
 20
367.851552253469
 30
0.0
 10
453.7130663308107
 20
368.4676420194028
 30
0.0
 10
457.9484767989133
 20
369.2142861838365
 30
0.0
 10
456.5670098566979
 20
369.7627774487482
 30
0.0
 10
449.9707817819089
 20
370.611857275313
 30
0.0
 10
452.2115117110961
 20
378.9906406561641
 30
0.0
 10
450.1949322915816
 20
373.3571049100719
 30
0.0
  0
SPLINE
  5
8A
330
70
100
AcDbEntity
  8
0
 62
    18
420
        0
370
    25
100
AcDbSpline
210
0.0
220
0.0
230
1.0
 70
     9
 71
     3
 72
    20
 73
    16
 74
     0
 42
0.0000000001
 43
0.0000000001
 40
0.0
 40
0.0
 40
0.0
 40
0.0
 40
1.0
 40
1.0
 40
1.0
 40
2.0
 40
2.0
 40
2.0
 40
3.0
 40
3.0
 40
3.0
 40
4.0
 40
4.0
 40
4.0
 40
5.0
 40
5.0
 40
5.0
 40
5.0
 10
957.7962566377918
 20
355.4307465474776
 30
0.0
 10
951.4245432849456
 20
354.9951518573144
 30
0.0
 10
947.2626427415233
 20
349.7380965746197
 30
0.0
 10
945.095571853184
 20
344.4192801369845
 30
0.0
 10
929.4088359992402
 20
342.7215407189942
 30
0.0
 10
933.3826626973387
 20
335.5331032578233
 30
0.0
 10
946.5568609698676
 20
334.8244322171886
 30
0.0
 10
951.5997833916863
 20
324.4974306096392
 30
0.0
 10
967.1878069798239
 20
324.5564103160796
 30
0.0
 10
972.259058453632
 20
334.8263170000064
 30
0.0
 10
986.0003561519752
 20
335.6220727752934
 30
0.0
 10
988.952091115685
 20
342.9549641684171
 30
0.0
 10
973.340963700315
 20
344.4587723301101
 30
0.0
 10
971.781881024246
 20
351.3466118102042
 30
0.0
 10
964.8231000591312
 20
356.3127492608619
 30
0.0
 10
957.7962566377918
 20
355.4307465474776
 30
0.0
  0
SPLINE
  5
8B
330
70
100
AcDbEntity
  8
0
 62
    18
420
        0
370
    25
100
AcDbSpline
210
0.0
220
0.0
230
1.0
 70
     9
 71
     3
 72
    14
 73
    10
 74
     0
 42
0.0000000001
 43
0.0000000001
 40
0.0
 40
0.0
 40
0.0
 40
0.0
 40
1.0
 40
1.0
 40
1.0
 40
2.0
 40
2.0
 40
2.0
 40
3.0
 40
3.0
 40
3.0
 40
3.0
 10
945.1793749591198
 20
340.5754146229883
 30
0.0
 10
945.99430809986
 20
336.2689839078503
 30
0.0
 10
944.429345783732
 20
338.1441973432302
 30
0.0
 10
941.3482050630246
 20
338.506052921206
 30
0.0
 10
933.8088662996815
 20
339.9086472314902
 30
0.0
 10
942.2671399023384
 20
341.3162787492147
 30
0.0
 10
945.1793749591198
 20
341.5904515516631
 30
0.0
 10
945.1793749591198
 20
341.5904515516631
 30
0.0
 10
945.1793749591198
 20
340.5754146229883
 30
0.0
 10
945.1793749591198
 20
340.5754146229883
 30
0.0
  0
SPLINE
  5
8C
330
70
100
AcDbEntity
  8
0
 62
    18
420
        0
370
    25
100
AcDbSpline
210
0.0
220
0.0
230
1.0
 70
     9
 71
     3
 72
    14
 73
    10
 74
     0
 42
0.0000000001
 43
0.0000000001
 40
0.0
 40
0.0
 40
0.0
 40
0.0
 40
1.0
 40
1.0
 40
1.0
 40
2.0
 40
2.0
 40
2.0
 40
3.0
 40
3.0
 40
3.0
 40
3.0
 10
976.5998675592564
 20
341.1352658536107
 30
0.0
 10
985.2007041762263
 20
339.4984196043788
 30
0.0
 10
977.2622284143926
 20
338.5127885948423
 30
0.0
 10
973.5470952754932
 20
337.7205070813216
 30
0.0
 10
973.0903703033291
 20
338.6005532395993
 30
0.0
 10
973.8848244760902
 20
340.435315897681
 30
0.0
 10
973.6216218151676
 20
341.6288204404973
 30
0.0
 10
974.6088583360451
 20
341.5144198246944
 30
0.0
 10
975.6297456041847
 20
341.3359950062386
 30
0.0
 10
976.5998675592564
 20
341.1352658536107
 30
0.0
  0
SPLINE
  5
8D
330
70
100
AcDbEntity
  8
0
 62
    18
420
        0
370
    25
100
AcDbSpline
210
0.0
220
0.0
230
1.0
 70
     9
 71
     3
 72
    32
 73
    28
 74
     0
 42
0.0000000001
 43
0.0000000001
 40
0.0
 40
0.0
 40
0.0
 40
0.0
 40
1.0
 40
1.0
 40
1.0
 40
2.0
 40
2.0
 40
2.0
 40
3.0
 40
3.0
 40
3.0
 40
4.0
 40
4.0
 40
4.0
 40
5.0
 40
5.0
 40
5.0
 40
6.0
 40
6.0
 40
6.0
 40
7.0
 40
7.0
 40
7.0
 40
8.0
 40
8.0
 40
8.0
 40
9.0
 40
9.0
 40
9.0
 40
9.0
 10
575.2812535433058
 20
324.9082607095043
 30
0.0
 10
534.5496077940424
 20
319.8099069177569
 30
0.0
 10
493.70586662405
 20
315.6372632306957
 30
0.0
 10
452.7267797118356
 20
313.1528395965488
 30
0.0
 10
429.9110766049007
 20
265.79765185617
 30
0.0
 10
397.9206058979453
 20
198.6162449184758
 30
0.0
 10
375.5497815227673
 20
151.8214982442878
 30
0.0
 10
373.5655396185685
 20
148.117533304814
 30
0.0
 10
372.8159144242754
 20
143.7513316553431
 30
0.0
 10
373.9827407038301
 20
139.6661217815654
 30
0.0
 10
376.0345464690754
 20
131.1745500075849
 30
0.0
 10
385.8200879055121
 20
125.7372851393593
 30
0.0
 10
394.0864832183615
 20
128.6837218222826
 30
0.0
 10
408.3822188389603
 20
133.8550463053397
 30
0.0
 10
422.6779166122141
 20
139.0269383826526
 30
0.0
 10
436.9734618123329
 20
144.1992602655664
 30
0.0
 10
456.3694768494324
 20
152.1049707435322
 30
0.0
 10
477.5007299359604
 20
156.6168703247585
 30
0.0
 10
495.4647402217224
 20
167.5912976811578
 30
0.0
 10
525.2092515793056
 20
188.6244805359147
 30
0.0
 10
532.8138542808874
 20
229.2078302551854
 30
0.0
 10
550.3903728031173
 20
259.6240314940551
 30
0.0
 10
560.8489574044942
 20
281.5112328082323
 30
0.0
 10
571.3100379146635
 20
303.3966653654352
 30
0.0
 10
581.771175796166
 20
325.2823304515332
 30
0.0
 10
580.6035962479336
 20
326.1831888611359
 30
0.0
 10
577.2008020675821
 20
324.8397634850735
 30
0.0
 10
575.2812535433058
 20
324.9082607095043
 30
0.0
  0
SPLINE
  5
8E
330
70
100
AcDbEntity
  8
0
 62
    18
420
        0
370
    25
100
AcDbSpline
210
0.0
220
0.0
230
1.0
 70
     9
 71
     3
 72
    11
 73
     7
 74
     0
 42
0.0000000001
 43
0.0000000001
 40
0.0
 40
0.0
 40
0.0
 40
0.0
 40
1.0
 40
1.0
 40
1.0
 40
2.0
 40
2.0
 40
2.0
 40
2.0
 10
709.260185634721
 20
324.2992587448043
 30
0.0
 10
667.7538511974043
 20
318.8301031813026
 30
0.0
 10
674.2322240927514
 20
257.9196389717836
 30
0.0
 10
715.9729678043986
 20
261.3372332342005
 30
0.0
 10
757.2079723112856
 20
266.972087714541
 30
0.0
 10
750.7463065407701
 20
327.4799487819473
 30
0.0
 10
709.260185634721
 20
324.2992587448043
 30
0.0
  0
SPLINE
  5
8F
330
70
100
AcDbEntity
  8
0
 62
    18
420
        0
370
    25
100
AcDbSpline
210
0.0
220
0.0
230
1.0
 70
     9
 71
     3
 72
    23
 73
    19
 74
     0
 42
0.0000000001
 43
0.0000000001
 40
0.0
 40
0.0
 40
0.0
 40
0.0
 40
1.0
 40
1.0
 40
1.0
 40
2.0
 40
2.0
 40
2.0
 40
3.0
 40
3.0
 40
3.0
 40
4.0
 40
4.0
 40
4.0
 40
5.0
 40
5.0
 40
5.0
 40
6.0
 40
6.0
 40
6.0
 40
6.0
 10
1000.26971521027
 20
293.6997139253599
 30
0.0
 10
1000.26971521027
 20
293.6997139253599
 30
0.0
 10
997.537465267942
 20
286.3081037973916
 30
0.0
 10
997.537465267942
 20
286.3081037973916
 30
0.0
 10
979.4145914063374
 20
279.2285209403289
 30
0.0
 10
979.5802370984747
 20
282.1600576648652
 30
0.0
 10
997.5079900165493
 20
275.2293645331156
 30
0.0
 10
1004.617351375551
 20
256.9318809714241
 30
0.0
 10
1001.425674018663
 20
257.0373507890563
 30
0.0
 10
1008.541553164606
 20
275.2291207637008
 30
0.0
 10
1023.024148248874
 20
281.8050308739257
 30
0.0
 10
1030.091803665846
 20
278.5753532050221
 30
0.0
 10
1010.940113061742
 20
285.3781305548892
 30
0.0
 10
1006.021284219876
 20
287.1364304216877
 30
0.0
 10
1006.319546223221
 20
294.6566709905146
 30
0.0
 10
1003.857367855506
 20
298.8794656099162
 30
0.0
 10
1002.726179229394
 20
303.8426736644415
 30
0.0
 10
1001.420784218186
 20
295.6005613383513
 30
0.0
 10
1000.26971521027
 20
293.6997139253599
 30
0.0
  0
SPLINE
  5
90
330
70
100
AcDbEntity
  8
0
 62
    18
420
        0
370
    25
100
AcDbSpline
210
0.0
220
0.0
230
1.0
 70
     9
 71
     3
 72
    11
 73
     7
 74
     0
 42
0.0000000001
 43
0.0000000001
 40
0.0
 40
0.0
 40
0.0
 40
0.0
 40
1.0
 40
1.0
 40
1.0
 40
2.0
 40
2.0
 40
2.0
 40
2.0
 10
390.0723921200543
 20
292.5225253647623
 30
0.0
 10
374.5870443219483
 20
289.1495403511799
 30
0.0
 10
380.4219077411281
 20
264.9227366939849
 30
0.0
 10
395.7685632583134
 20
269.0574236288576
 30
0.0
 10
410.6704267225059
 20
272.7614673225089
 30
0.0
 10
405.0759896463187
 20
296.0283149938405
 30
0.0
 10
390.0723921200543
 20
292.5225253647623
 30
0.0
  0
SPLINE
  5
91
330
70
100
AcDbEntity
  8
0
 62
    18
420
        0
370
    25
100
AcDbSpline
210
0.0
220
0.0
230
1.0
 70
     9
 71
     3
 72
    32
 73
    28
 74
     0
 42
0.0000000001
 43
0.0000000001
 40
0.0
 40
0.0
 40
0.0
 40
0.0
 40
1.0
 40
1.0
 40
1.0
 40
2.0
 40
2.0
 40
2.0
 40
3.0
 40
3.0
 40
3.0
 40
4.0
 40
4.0
 40
4.0
 40
5.0
 40
5.0
 40
5.0
 40
6.0
 40
6.0
 40
6.0
 40
7.0
 40
7.0
 40
7.0
 40
8.0
 40
8.0
 40
8.0
 40
9.0
 40
9.0
 40
9.0
 40
9.0
 10
749.7319980033007
 20
236.1805567897627
 30
0.0
 10
748.6576896407041
 20
235.6877246506083
 30
0.0
 10
748.0436629564573
 20
234.642388779901
 30
0.0
 10
747.6438657420986
 20
233.5970566902815
 30
0.0
 10
745.4238916396771
 20
234.1304446228187
 30
0.0
 10
742.9833420781542
 20
232.7305358435988
 30
0.0
 10
742.7349757569954
 20
230.3226293095085
 30
0.0
 10
742.5069877337191
 20
229.0994542466378
 30
0.0
 10
743.2068631508846
 20
228.0465725863542
 30
0.0
 10
743.87609834473
 20
227.1512666145463
 30
0.0
 10
741.0432228149784
 20
224.2306508367219
 30
0.0
 10
743.8392232777077
 20
219.7586928211785
 30
0.0
 10
747.7094656598238
 20
220.6251426359649
 30
0.0
 10
748.5955469304299
 20
216.7477584204407
 30
0.0
 10
754.1776037719373
 20
216.9719729184781
 30
0.0
 10
755.1029216286751
 20
220.6989759485459
 30
0.0
 10
756.9016842553192
 20
220.2371632429477
 30
0.0
 10
758.9556685962725
 20
220.9908237516775
 30
0.0
 10
759.6766020098239
 20
222.8182829440884
 30
0.0
 10
760.5109066365494
 20
224.41159304955
 30
0.0
 10
759.5172603837636
 20
225.9388914029478
 30
0.0
 10
758.8937746697738
 20
227.2806416098993
 30
0.0
 10
761.6687314181144
 20
229.9357357015542
 30
0.0
 10
758.6617498572959
 20
234.8364382687833
 30
0.0
 10
755.018796090444
 20
233.5186586705749
 30
0.0
 10
754.6083368070813
 20
235.9237482280569
 30
0.0
 10
751.8888124082186
 20
237.0967946944493
 30
0.0
 10
749.7319980033007
 20
236.1805567897627
 30
0.0
  0
SPLINE
  5
92
330
70
100
AcDbEntity
  8
0
 62
    18
420
        0
370
    25
100
AcDbSpline
210
0.0
220
0.0
230
1.0
 70
     9
 71
     3
 72
    20
 73
    16
 74
     0
 42
0.0000000001
 43
0.0000000001
 40
0.0
 40
0.0
 40
0.0
 40
0.0
 40
1.0
 40
1.0
 40
1.0
 40
2.0
 40
2.0
 40
2.0
 40
3.0
 40
3.0
 40
3.0
 40
4.0
 40
4.0
 40
4.0
 40
5.0
 40
5.0
 40
5.0
 40
5.0
 10
568.0758388718896
 20
218.5889023208001
 30
0.0
 10
566.489198790643
 20
214.3239013523016
 30
0.0
 10
564.2617289210311
 20
208.2832529278566
 30
0.0
 10
562.6600541528668
 20
203.9574616581576
 30
0.0
 10
544.91946251444
 20
197.0588424129728
 30
0.0
 10
544.464287626759
 20
199.989759171538
 30
0.0
 10
562.555494182482
 20
192.9016681688172
 30
0.0
 10
569.8193750999889
 20
174.907991171005
 30
0.0
 10
566.5977980679408
 20
174.79862076887
 30
0.0
 10
573.6841601793894
 20
192.935047126306
 30
0.0
 10
591.5911153476399
 20
199.9284254211507
 30
0.0
 10
591.9199453160117
 20
196.8836825063936
 30
0.0
 10
573.7516435276557
 20
203.984354809445
 30
0.0
 10
571.6803479673444
 20
208.6850000163704
 30
0.0
 10
570.2780598153476
 20
214.1752905270769
 30
0.0
 10
568.0758388718896
 20
218.5889023208001
 30
0.0
  0
SPLINE
  5
93
330
70
100
AcDbEntity
  8
0
 62
    18
420
        0
370
    25
100
AcDbSpline
210
0.0
220
0.0
230
1.0
 70
     9
 71
     3
 72
    32
 73
    28
 74
     0
 42
0.0000000001
 43
0.0000000001
 40
0.0
 40
0.0
 40
0.0
 40
0.0
 40
1.0
 40
1.0
 40
1.0
 40
2.0
 40
2.0
 40
2.0
 40
3.0
 40
3.0
 40
3.0
 40
4.0
 40
4.0
 40
4.0
 40
5.0
 40
5.0
 40
5.0
 40
6.0
 40
6.0
 40
6.0
 40
7.0
 40
7.0
 40
7.0
 40
8.0
 40
8.0
 40
8.0
 40
9.0
 40
9.0
 40
9.0
 40
9.0
 10
360.5584452741896
 20
57.20211458104313
 30
0.0
 10
354.5995873771699
 20
38.77641277627117
 30
0.0
 10
348.6849275061832
 20
20.33589209738238
 30
0.0
 10
342.6973344682701
 20
1.919557902683663
 30
0.0
 10
348.0090863141595
 20
1.938605409293813
 30
0.0
 10
358.6987888520925
 20
1.97693780615009
 30
0.0
 10
364.0092214238966
 20
1.995980581950789
 30
0.0
 10
366.2855711256489
 20
9.331359786972825
 30
0.0
 10
369.1943284846793
 20
18.64249180986917
 30
0.0
 10
371.4299057824683
 20
25.89640267826326
 30
0.0
 10
379.5142885066407
 20
25.89640267826326
 30
0.0
 10
395.7828134596939
 20
25.89640267826326
 30
0.0
 10
403.865188265795
 20
25.89640267826326
 30
0.0
 10
406.1415794143467
 20
18.65848793971418
 30
0.0
 10
409.2267272524131
 20
9.298790605074827
 30
0.0
 10
411.5796853528454
 20
1.995980581950789
 30
0.0
 10
417.9567092156721
 20
2.283592047058846
 30
0.0
 10
428.1560771662925
 20
1.35785112861231
 30
0.0
 10
433.8691821520888
 20
2.260525875815801
 30
0.0
 10
423.8116138066061
 20
33.52241583746581
 30
0.0
 10
409.2429728291235
 20
78.79349162366452
 30
0.0
 10
399.0533207525132
 20
110.478581810381
 30
0.0
 10
393.7434807610452
 20
110.4770382826264
 30
0.0
 10
383.0576257588518
 20
110.4739319905711
 30
0.0
 10
377.7491045666248
 20
110.4723888461812
 30
0.0
 10
377.7491045666248
 20
110.4723888461812
 30
0.0
 10
360.5584452741914
 20
57.20211458089579
 30
0.0
 10
360.5584452741896
 20
57.20211458104313
 30
0.0
  0
SPLINE
  5
94
330
70
100
AcDbEntity
  8
0
 62
    18
420
        0
370
    25
100
AcDbSpline
210
0.0
220
0.0
230
1.0
 70
     9
 71
     3
 72
    20
 73
    16
 74
     0
 42
0.0000000001
 43
0.0000000001
 40
0.0
 40
0.0
 40
0.0
 40
0.0
 40
1.0
 40
1.0
 40
1.0
 40
2.0
 40
2.0
 40
2.0
 40
3.0
 40
3.0
 40
3.0
 40
4.0
 40
4.0
 40
4.0
 40
5.0
 40
5.0
 40
5.0
 40
5.0
 10
388.693924628421
 20
79.02086113844416
 30
0.0
 10
392.3987862305457
 20
67.19222949647519
 30
0.0
 10
395.8920640064425
 20
55.29059157398842
 30
0.0
 10
399.5250465822747
 20
43.43730535605391
 30
0.0
 10
394.9831251346968
 20
42.37676975201975
 30
0.0
 10
388.3659433401362
 20
43.34201182080687
 30
0.0
 10
383.1424513279653
 20
43.0294618155658
 30
0.0
 10
380.9481417379666
 20
43.09914274201401
 30
0.0
 10
378.6030752281704
 20
42.9473679788407
 30
0.0
 10
376.4833382354009
 20
43.16380790505536
 30
0.0
 10
378.1470342232924
 20
49.1280817477309
 30
0.0
 10
380.035346176327
 20
55.0490064084006
 30
0.0
 10
381.7739224581992
 20
60.9985397469245
 30
0.0
 10
383.2337837901969
 20
63.3993956973718
 30
0.0
 10
386.0920433486399
 20
81.3815216793264
 30
0.0
 10
388.693924628421
 20
79.02086113844416
 30
0.0
  0
SPLINE
  5
95
330
70
100
AcDbEntity
  8
0
 62
    18
420
        0
370
    25
100
AcDbSpline
210
0.0
220
0.0
230
1.0
 70
    11
 71
     3
 72
    38
 73
    34
 74
     0
 42
0.0000000001
 43
0.0000000001
 40
0.0
 40
0.0
 40
0.0
 40
0.0
 40
1.0
 40
1.0
 40
1.0
 40
2.0
 40
2.0
 40
2.0
 40
3.0
 40
3.0
 40
3.0
 40
4.0
 40
4.0
 40
4.0
 40
5.0
 40
5.0
 40
5.0
 40
6.0
 40
6.0
 40
6.0
 40
7.0
 40
7.0
 40
7.0
 40
8.0
 40
8.0
 40
8.0
 40
9.0
 40
9.0
 40
9.0
 40
10.0
 40
10.0
 40
10.0
 40
11.0
 40
11.0
 40
11.0
 40
11.0
 10
445.578651388244
 20
101.0230987564991
 30
0.0
 10
445.578651388244
 20
101.0230987564991
 30
0.0
 10
445.578651388244
 20
91.56761555370394
 30
0.0
 10
445.578651388244
 20
91.56761555370394
 30
0.0
 10
457.6234666208602
 20
91.5488348054696
 30
0.0
 10
481.861727462081
 20
91.51104141661381
 30
0.0
 10
493.9035511269803
 20
91.49226519181684
 30
0.0
 10
481.227765920823
 20
73.87520317194867
 30
0.0
 10
455.719779267526
 20
38.42368834464287
 30
0.0
 10
443.0471425057685
 20
20.81100175850952
 30
0.0
 10
443.0471425057685
 20
16.10307921018648
 30
0.0
 10
443.0471425057685
 20
6.628277690620961
 30
0.0
 10
443.0471425057685
 20
1.921524438348569
 30
0.0
 10
462.161818636503
 20
1.921524438348569
 30
0.0
 10
500.6270417972728
 20
1.921524438348569
 30
0.0
 10
519.7369704160519
 20
1.921524438348569
 30
0.0
 10
519.7369704160519
 20
6.635025658746599
 30
0.0
 10
519.7369704160519
 20
16.12105437769242
 30
0.0
 10
519.7369704160519
 20
20.83338491331233
 30
0.0
 10
504.8036684385615
 20
20.94388836181497
 30
0.0
 10
483.5033522941503
 20
20.63436937073311
 30
0.0
 10
468.9758127371733
 20
20.96512811073626
 30
0.0
 10
483.4359846422694
 20
41.44882758666972
 30
0.0
 10
504.2985458005932
 20
70.84190307070639
 30
0.0
 10
518.9924089800297
 20
91.59209345764976
 30
0.0
 10
518.9924089800297
 20
96.29927105009484
 30
0.0
 10
518.9924089800297
 20
105.7725733289644
 30
0.0
 10
518.9924089800297
 20
110.478581810381
 30
0.0
 10
500.6942821208995
 20
110.478581810381
 30
0.0
 10
463.8722335417542
 20
110.478581810381
 30
0.0
 10
445.578651388244
 20
110.478581810381
 30
0.0
 10
445.578651388244
 20
110.478581810381
 30
0.0
 10
445.578651388244
 20
101.0230987564991
 30
0.0
 10
445.578651388244
 20
101.0230987564991
 30
0.0
  0
SPLINE
  5
96
330
70
100
AcDbEntity
  8
0
 62
    18
420
        0
370
    25
100
AcDbSpline
210
0.0
220
0.0
230
1.0
 70
    11
 71
     3
 72
    44
 73
    40
 74
     0
 42
0.0000000001
 43
0.0000000001
 40
0.0
 40
0.0
 40
0.0
 40
0.0
 40
1.0
 40
1.0
 40
1.0
 40
2.0
 40
2.0
 40
2.0
 40
3.0
 40
3.0
 40
3.0
 40
4.0
 40
4.0
 40
4.0
 40
5.0
 40
5.0
 40
5.0
 40
6.0
 40
6.0
 40
6.0
 40
7.0
 40
7.0
 40
7.0
 40
8.0
 40
8.0
 40
8.0
 40
9.0
 40
9.0
 40
9.0
 40
10.0
 40
10.0
 40
10.0
 40
11.0
 40
11.0
 40
11.0
 40
12.0
 40
12.0
 40
12.0
 40
13.0
 40
13.0
 40
13.0
 40
13.0
 10
536.2662342957446
 20
101.0226515729009
 30
0.0
 10
536.2662342957446
 20
101.0226515729009
 30
0.0
 10
536.2662342957446
 20
91.56672133541906
 30
0.0
 10
536.2662342957446
 20
91.56672133541906
 30
0.0
 10
543.1326713524158
 20
91.56672133541906
 30
0.0
 10
556.9502757888094
 20
91.56672133541906
 30
0.0
 10
563.815007428565
 20
91.56672133541906
 30
0.0
 10
563.815007428565
 20
73.93668024396538
 30
0.0
 10
563.815007428565
 20
38.45904723160311
 30
0.0
 10
563.815007428565
 20
20.83338491331233
 30
0.0
 10
556.9485703718928
 20
20.83338491331233
 30
0.0
 10
543.1309659355001
 20
20.83338491331233
 30
0.0
 10
536.2662342957446
 20
20.83338491331233
 30
0.0
 10
536.2662342957446
 20
16.1198836929143
 30
0.0
 10
536.2662342957446
 20
6.633854973968482
 30
0.0
 10
536.2662342957446
 20
1.921524438348569
 30
0.0
 10
555.3066786745157
 20
1.921524438348569
 30
0.0
 10
593.6225223278642
 20
1.921524438348569
 30
0.0
 10
612.6582376316191
 20
1.921524438348569
 30
0.0
 10
612.6582376316191
 20
6.635025658746599
 30
0.0
 10
612.6582376316191
 20
16.12105437769242
 30
0.0
 10
612.6582376316191
 20
20.83338491331233
 30
0.0
 10
605.7546846989652
 20
20.83338491331233
 30
0.0
 10
591.8623905088625
 20
20.83338491331233
 30
0.0
 10
584.9605522115943
 20
20.83338491331233
 30
0.0
 10
584.9605522115943
 20
38.46342600476601
 30
0.0
 10
584.9605522115943
 20
73.94105901712828
 30
0.0
 10
584.9605522115943
 20
91.56672133541906
 30
0.0
 10
591.8641051442482
 20
91.56672133541906
 30
0.0
 10
605.756399334351
 20
91.56672133541906
 30
0.0
 10
612.6582376316191
 20
91.56672133541906
 30
0.0
 10
612.6582376316191
 20
96.2802225558171
 30
0.0
 10
612.6582376316191
 20
105.7662512747629
 30
0.0
 10
612.6582376316191
 20
110.478581810381
 30
0.0
 10
593.617793252848
 20
110.478581810381
 30
0.0
 10
555.3019495994995
 20
110.478581810381
 30
0.0
 10
536.2662342957446
 20
110.478581810381
 30
0.0
 10
536.2662342957446
 20
110.478581810381
 30
0.0
 10
536.2662342957446
 20
101.0226515729009
 30
0.0
 10
536.2662342957446
 20
101.0226515729009
 30
0.0
  0
SPLINE
  5
97
330
70
100
AcDbEntity
  8
0
 62
    18
420
        0
370
    25
100
AcDbSpline
210
0.0
220
0.0
230
1.0
 70
    11
 71
     3
 72
    53
 73
    49
 74
     0
 42
0.0000000001
 43
0.0000000001
 40
0.0
 40
0.0
 40
0.0
 40
0.0
 40
1.0
 40
1.0
 40
1.0
 40
2.0
 40
2.0
 40
2.0
 40
3.0
 40
3.0
 40
3.0
 40
4.0
 40
4.0
 40
4.0
 40
5.0
 40
5.0
 40
5.0
 40
6.0
 40
6.0
 40
6.0
 40
7.0
 40
7.0
 40
7.0
 40
8.0
 40
8.0
 40
8.0
 40
9.0
 40
9.0
 40
9.0
 40
10.0
 40
10.0
 40
10.0
 40
11.0
 40
11.0
 40
11.0
 40
12.0
 40
12.0
 40
12.0
 40
13.0
 40
13.0
 40
13.0
 40
14.0
 40
14.0
 40
14.0
 40
15.0
 40
15.0
 40
15.0
 40
16.0
 40
16.0
 40
16.0
 40
16.0
 10
627.2516417776532
 20
56.20005312436479
 30
0.0
 10
627.2516417776532
 20
56.20005312436479
 30
0.0
 10
627.2516417776532
 20
1.921524438348569
 30
0.0
 10
627.2516417776532
 20
1.921524438348569
 30
0.0
 10
632.2621030943355
 20
1.921524438348569
 30
0.0
 10
642.3455836754674
 20
1.921524438348569
 30
0.0
 10
647.3548005502525
 20
1.921524438348569
 30
0.0
 10
647.0852319582427
 20
23.54966090650487
 30
0.0
 10
648.1253659584044
 20
54.87366541813208
 30
0.0
 10
646.4666675715579
 20
76.34383573177911
 30
0.0
 10
647.638074484872
 20
77.41956414693413
 30
0.0
 10
649.9978412316805
 20
71.59044926323076
 30
0.0
 10
651.0865171478135
 20
70.57749615463762
 30
0.0
 10
654.533670395519
 20
65.22613213360455
 30
0.0
 10
661.7885174875018
 20
53.80642213968349
 30
0.0
 10
665.3106931335051
 20
48.30770190252952
 30
0.0
 10
666.2688609608322
 20
48.30770190252952
 30
0.0
 10
668.199134436928
 20
48.30770190252952
 30
0.0
 10
669.1570643045561
 20
48.30770190252952
 30
0.0
 10
672.9168917648449
 20
54.45756761213488
 30
0.0
 10
679.7832200560869
 20
65.70469384758144
 30
0.0
 10
683.4602739540295
 20
71.69971381186769
 30
0.0
 10
684.7829750778656
 20
73.21855997553211
 30
0.0
 10
685.3894775035078
 20
76.24218780546107
 30
0.0
 10
687.4423047042965
 20
76.69660718600244
 30
0.0
 10
686.0444845615147
 20
53.34406575205867
 30
0.0
 10
686.8876927159544
 20
25.49690604954231
 30
0.0
 10
686.6676443722226
 20
1.921524438348569
 30
0.0
 10
691.9750520121724
 20
1.921524438348569
 30
0.0
 10
702.6560119976275
 20
1.921524438348569
 30
0.0
 10
707.9621014424574
 20
1.921524438348569
 30
0.0
 10
707.9621014424574
 20
28.97899802923348
 30
0.0
 10
707.9621014424574
 20
83.42782848399293
 30
0.0
 10
707.9621014424574
 20
110.478581810381
 30
0.0
 10
702.5990072689219
 20
110.4772443064739
 30
0.0
 10
691.8060380885599
 20
110.4745527864725
 30
0.0
 10
686.444275941416
 20
110.473215756112
 30
0.0
 10
680.815528545817
 20
101.6562438726068
 30
0.0
 10
673.5727538750762
 20
88.75404576427536
 30
0.0
 10
667.6924174613396
 20
80.40145718435814
 30
0.0
 10
661.8008408752285
 20
88.72374686869443
 30
0.0
 10
654.420882115135
 20
101.7083766170963
 30
0.0
 10
648.785490240798
 20
110.478581810381
 30
0.0
 10
643.4184025106151
 20
110.478581810381
 30
0.0
 10
632.6173964895351
 20
110.478581810381
 30
0.0
 10
627.2516417776532
 20
110.478581810381
 30
0.0
 10
627.2516417776532
 20
110.478581810381
 30
0.0
 10
627.2516417776532
 20
56.20005312436479
 30
0.0
 10
627.2516417776532
 20
56.20005312436479
 30
0.0
  0
SPLINE
  5
98
330
70
100
AcDbEntity
  8
0
 62
    18
420
        0
370
    25
100
AcDbSpline
210
0.0
220
0.0
230
1.0
 70
     9
 71
     3
 72
    38
 73
    34
 74
     0
 42
0.0000000001
 43
0.0000000001
 40
0.0
 40
0.0
 40
0.0
 40
0.0
 40
1.0
 40
1.0
 40
1.0
 40
2.0
 40
2.0
 40
2.0
 40
3.0
 40
3.0
 40
3.0
 40
4.0
 40
4.0
 40
4.0
 40
5.0
 40
5.0
 40
5.0
 40
6.0
 40
6.0
 40
6.0
 40
7.0
 40
7.0
 40
7.0
 40
8.0
 40
8.0
 40
8.0
 40
9.0
 40
9.0
 40
9.0
 40
10.0
 40
10.0
 40
10.0
 40
11.0
 40
11.0
 40
11.0
 40
11.0
 10
721.8132479744635
 20
73.36219422467912
 30
0.0
 10
723.4525905260452
 20
52.77226759989571
 30
0.0
 10
716.5326907505841
 20
28.4228009715207
 30
0.0
 10
730.3656491912733
 20
10.97152345722679
 30
0.0
 10
745.6788321709373
 20
-4.387372100267384
 30
0.0
 10
776.8421078403243
 20
-4.353986679494482
 30
0.0
 10
791.0468790670038
 20
12.55519663712221
 30
0.0
 10
801.5941957523864
 20
25.67762093966303
 30
0.0
 10
799.0328247539728
 20
43.39406351799334
 30
0.0
 10
799.3828952168824
 20
59.08873220384157
 30
0.0
 10
799.5708605190356
 20
69.75254188134022
 30
0.0
 10
799.2682179292278
 20
99.4307060482297
 30
0.0
 10
799.3942457859794
 20
110.478581810381
 30
0.0
 10
794.3864884853701
 20
110.478581810381
 30
0.0
 10
784.3084496972842
 20
110.478581810381
 30
0.0
 10
779.3019361669776
 20
110.478581810381
 30
0.0
 10
779.2205245811056
 20
95.81003315620364
 30
0.0
 10
779.2851897365017
 20
67.19605817118281
 30
0.0
 10
779.2112428538112
 20
52.94270777597194
 30
0.0
 10
780.1263537631784
 20
38.73896955507007
 30
0.0
 10
779.2006657258098
 20
16.01479278991974
 30
0.0
 10
759.2733398055315
 20
19.00589374149058
 30
0.0
 10
742.2131594125785
 20
19.59637257003669
 30
0.0
 10
742.7592674911102
 20
39.11597460846678
 30
0.0
 10
743.1813020428599
 20
51.74402390735668
 30
0.0
 10
743.0987263208499
 20
66.29928315157304
 30
0.0
 10
743.1566789308035
 20
95.58741008374999
 30
0.0
 10
743.0984760567862
 20
110.478581810381
 30
0.0
 10
737.7927944356233
 20
110.478581810381
 30
0.0
 10
727.1153080040384
 20
110.478581810381
 30
0.0
 10
721.8109441524684
 20
110.478581810381
 30
0.0
 10
721.8109441524684
 20
110.478581810381
 30
0.0
 10
721.8132479744654
 20
73.36219422467729
 30
0.0
 10
721.8132479744635
 20
73.36219422467912
 30
0.0
  0
SPLINE
  5
99
330
70
100
AcDbEntity
  8
0
 62
    18
420
        0
370
    25
100
AcDbSpline
210
0.0
220
0.0
230
1.0
 70
    11
 71
     3
 72
    56
 73
    52
 74
     0
 42
0.0000000001
 43
0.0000000001
 40
0.0
 40
0.0
 40
0.0
 40
0.0
 40
1.0
 40
1.0
 40
1.0
 40
2.0
 40
2.0
 40
2.0
 40
3.0
 40
3.0
 40
3.0
 40
4.0
 40
4.0
 40
4.0
 40
5.0
 40
5.0
 40
5.0
 40
6.0
 40
6.0
 40
6.0
 40
7.0
 40
7.0
 40
7.0
 40
8.0
 40
8.0
 40
8.0
 40
9.0
 40
9.0
 40
9.0
 40
10.0
 40
10.0
 40
10.0
 40
11.0
 40
11.0
 40
11.0
 40
12.0
 40
12.0
 40
12.0
 40
13.0
 40
13.0
 40
13.0
 40
14.0
 40
14.0
 40
14.0
 40
15.0
 40
15.0
 40
15.0
 40
16.0
 40
16.0
 40
16.0
 40
17.0
 40
17.0
 40
17.0
 40
17.0
 10
811.15831647513
 20
92.53465120224792
 30
0.0
 10
811.15831647513
 20
92.53465120224792
 30
0.0
 10
811.15831647513
 20
74.59072059411301
 30
0.0
 10
811.15831647513
 20
74.59072059411301
 30
0.0
 10
815.4263871360381
 20
74.59072059411301
 30
0.0
 10
824.0162188945506
 20
74.59072059411301
 30
0.0
 10
828.2832295036387
 20
74.59072059411301
 30
0.0
 10
828.2832295036387
 20
79.26710763167284
 30
0.0
 10
828.2832295036387
 20
88.67844321109988
 30
0.0
 10
828.2832295036387
 20
93.35366878187233
 30
0.0
 10
831.9945169726961
 20
93.35366878187233
 30
0.0
 10
839.4640925170806
 20
93.35366878187233
 30
0.0
 10
843.1744582240826
 20
93.35366878187233
 30
0.0
 10
843.1744582240826
 20
74.83284666684994
 30
0.0
 10
843.1744582240826
 20
37.56265956544303
 30
0.0
 10
843.1744582240826
 20
19.04643746685906
 30
0.0
 10
838.7579005123551
 20
19.04643746685906
 30
0.0
 10
829.8693568261242
 20
19.04643746685906
 30
0.0
 10
825.4538960467543
 20
19.04643746685906
 30
0.0
 10
825.4538960467543
 20
14.77836680595101
 30
0.0
 10
825.4538960467543
 20
6.188535047436744
 30
0.0
 10
825.4538960467543
 20
1.921524438348569
 30
0.0
 10
839.520813043935
 20
1.921524438348569
 30
0.0
 10
867.8282297001132
 20
1.921524438348569
 30
0.0
 10
881.891652897235
 20
1.921524438348569
 30
0.0
 10
881.891652897235
 20
6.189595099256621
 30
0.0
 10
881.891652897235
 20
14.77942685777088
 30
0.0
 10
881.891652897235
 20
19.04643746685906
 30
0.0
 10
877.5122248799144
 20
19.04643746685906
 30
0.0
 10
868.6983433144542
 20
19.04643746685906
 30
0.0
 10
864.3200030071129
 20
19.04643746685906
 30
0.0
 10
864.3200030071129
 20
37.56725958188145
 30
0.0
 10
864.3200030071129
 20
74.83744668328836
 30
0.0
 10
864.3200030071129
 20
93.35366878187233
 30
0.0
 10
867.9941776014784
 20
93.35366878187233
 30
0.0
 10
875.3890573904209
 20
93.35366878187233
 30
0.0
 10
879.0623194403524
 20
93.35366878187233
 30
0.0
 10
879.0623194403524
 20
88.67728174431249
 30
0.0
 10
879.0623194403524
 20
79.26594616488547
 30
0.0
 10
879.0623194403524
 20
74.59072059411301
 30
0.0
 10
883.3303901012605
 20
74.59072059411301
 30
0.0
 10
891.920221859773
 20
74.59072059411301
 30
0.0
 10
896.1872324688611
 20
74.59072059411301
 30
0.0
 10
896.1872324688611
 20
83.53564670577725
 30
0.0
 10
896.1872324688611
 20
101.5358773499429
 30
0.0
 10
896.1872324688611
 20
110.478581810381
 30
0.0
 10
874.9940672831327
 20
110.478581810381
 30
0.0
 10
832.3462179145916
 20
110.478581810381
 30
0.0
 10
811.15831647513
 20
110.478581810381
 30
0.0
 10
811.15831647513
 20
110.478581810381
 30
0.0
 10
811.15831647513
 20
92.53465120224792
 30
0.0
 10
811.15831647513
 20
92.53465120224792
 30
0.0
  0
SPLINE
  5
9A
330
70
100
AcDbEntity
  8
0
 62
    18
420
        0
370
    25
100
AcDbSpline
210
0.0
220
0.0
230
1.0
 70
    11
 71
     3
 72
    44
 73
    40
 74
     0
 42
0.0000000001
 43
0.0000000001
 40
0.0
 40
0.0
 40
0.0
 40
0.0
 40
1.0
 40
1.0
 40
1.0
 40
2.0
 40
2.0
 40
2.0
 40
3.0
 40
3.0
 40
3.0
 40
4.0
 40
4.0
 40
4.0
 40
5.0
 40
5.0
 40
5.0
 40
6.0
 40
6.0
 40
6.0
 40
7.0
 40
7.0
 40
7.0
 40
8.0
 40
8.0
 40
8.0
 40
9.0
 40
9.0
 40
9.0
 40
10.0
 40
10.0
 40
10.0
 40
11.0
 40
11.0
 40
11.0
 40
12.0
 40
12.0
 40
12.0
 40
13.0
 40
13.0
 40
13.0
 40
13.0
 10
907.9513031580118
 20
56.20005312436479
 30
0.0
 10
907.9513031580118
 20
56.20005312436479
 30
0.0
 10
907.9513031580118
 20
1.921524438348569
 30
0.0
 10
907.9513031580118
 20
1.921524438348569
 30
0.0
 10
913.2587107979615
 20
1.921524438348569
 30
0.0
 10
923.9396707834167
 20
1.921524438348569
 30
0.0
 10
929.2457602282466
 20
1.921524438348569
 30
0.0
 10
929.2457602282448
 20
13.24186661286148
 30
0.0
 10
929.2457602282448
 20
36.02224149448375
 30
0.0
 10
929.2457602282448
 20
47.33977203570248
 30
0.0
 10
937.9679910840168
 20
47.33977203570248
 30
0.0
 10
955.5200832059217
 20
47.33977203570248
 30
0.0
 10
964.240147721288
 20
47.33977203570248
 30
0.0
 10
964.240147721288
 20
36.01942986118956
 30
0.0
 10
964.240147721288
 20
13.2390549795673
 30
0.0
 10
964.240147721288
 20
1.921524438348569
 30
0.0
 10
969.5475553612377
 20
1.921524438348569
 30
0.0
 10
980.2285153466909
 20
1.921524438348569
 30
0.0
 10
985.5346047915208
 20
1.921524438348569
 30
0.0
 10
985.5346047915208
 20
28.97899802923348
 30
0.0
 10
985.5346047915208
 20
83.42782848399293
 30
0.0
 10
985.5346047915208
 20
110.478581810381
 30
0.0
 10
980.2271971515711
 20
110.478581810381
 30
0.0
 10
969.5462371661161
 20
110.478581810381
 30
0.0
 10
964.240147721288
 20
110.478581810381
 30
0.0
 10
964.240147721288
 20
99.45516664372371
 30
0.0
 10
964.240147721288
 20
77.27230979178603
 30
0.0
 10
964.240147721288
 20
66.25163251066442
 30
0.0
 10
955.5179168655158
 20
66.25163251066442
 30
0.0
 10
937.9658247436109
 20
66.25163251066442
 30
0.0
 10
929.2457602282448
 20
66.25163251066442
 30
0.0
 10
929.2457602282448
 20
77.2750476773217
 30
0.0
 10
929.2457602282448
 20
99.4579045292594
 30
0.0
 10
929.2457602282448
 20
110.478581810381
 30
0.0
 10
923.9383525882949
 20
110.478581810381
 30
0.0
 10
913.2573926028417
 20
110.478581810381
 30
0.0
 10
907.9513031580118
 20
110.478581810381
 30
0.0
 10
907.9513031580118
 20
110.478581810381
 30
0.0
 10
907.9513031580118
 20
56.20005312436479
 30
0.0
 10
907.9513031580118
 20
56.20005312436479
 30
0.0
  0
ENDSEC
  0
SECTION
  2
OBJECTS
  0
DICTIONARY
  5
C
330
0
100
AcDbDictionary
281
     1
  3
ACAD_COLOR
350
63
  3
ACAD_DETAILVIEWSTYLE
350
6A
  3
ACAD_GROUP
350
D
  3
ACAD_LAYOUT
350
62
  3
ACAD_MATERIAL
350
10
  3
ACAD_MLEADERSTYLE
350
66
  3
ACAD_MLINESTYLE
350
5F
  3
ACAD_PLOTSETTINGS
350
61
  3
ACAD_PLOTSTYLENAME
350
E
  3
ACAD_SCALELIST
350
42
  3
ACAD_SECTIONVIEWSTYLE
350
68
  3
ACAD_TABLESTYLE
350
64
  3
ACAD_VISUALSTYLE
350
29
  3
ACDB_RECOMPOSE_DATA
350
A3
  3
AcDbVariableDictionary
350
9B
  0
DICTIONARY
  5
63
102
{ACAD_REACTORS
330
C
102
}
330
C
100
AcDbDictionary
281
     1
  0
DICTIONARY
  5
6A
102
{ACAD_REACTORS
330
C
102
}
330
C
100
AcDbDictionary
281
     1
  3
Imperial24
350
6B
  0
DICTIONARY
  5
D
102
{ACAD_REACTORS
330
C
102
}
330
C
100
AcDbDictionary
281
     1
  0
DICTIONARY
  5
62
102
{ACAD_REACTORS
330
C
102
}
330
C
100
AcDbDictionary
281
     1
  3
Layout1
350
6F
  3
Layout2
350
77
  3
Model
350
73
  0
DICTIONARY
  5
10
102
{ACAD_REACTORS
330
C
102
}
330
C
100
AcDbDictionary
281
     1
  3
ByBlock
350
19
  3
ByLayer
350
11
  3
Global
350
21
  0
DICTIONARY
  5
66
102
{ACAD_REACTORS
330
C
102
}
330
C
100
AcDbDictionary
281
     1
  3
Standard
350
67
  0
DICTIONARY
  5
5F
102
{ACAD_REACTORS
330
C
102
}
330
C
100
AcDbDictionary
281
     1
  3
Standard
350
60
  0
DICTIONARY
  5
61
102
{ACAD_REACTORS
330
C
102
}
330
C
100
AcDbDictionary
281
     1
  0
ACDBDICTIONARYWDFLT
  5
E
102
{ACAD_REACTORS
330
C
102
}
330
C
100
AcDbDictionary
281
     1
  3
Normal
350
F
100
AcDbDictionaryWithDefault
340
F
  0
DICTIONARY
  5
42
102
{ACAD_REACTORS
330
C
102
}
330
C
100
AcDbDictionary
281
     1
  3
A0
350
43
  3
A1
350
44
  3
A2
350
45
  3
A3
350
46
  3
A4
350
47
  3
A5
350
48
  3
A6
350
49
  3
A7
350
4A
  3
A8
350
4B
  3
A9
350
4C
  3
B0
350
4D
  3
B1
350
4E
  3
B2
350
4F
  3
B3
350
50
  3
B4
350
51
  3
B5
350
52
  3
B6
350
53
  0
DICTIONARY
  5
68
102
{ACAD_REACTORS
330
C
102
}
330
C
100
AcDbDictionary
281
     1
  3
Imperial24
350
69
  0
DICTIONARY
  5
64
102
{ACAD_REACTORS
330
C
102
}
330
C
100
AcDbDictionary
281
     1
  3
Standard
350
65
  0
DICTIONARY
  5
29
102
{ACAD_REACTORS
330
C
102
}
330
C
100
AcDbDictionary
281
     1
  3
2dWireframe
350
2F
  3
Basic
350
2E
  3
Brighten
350
35
  3
ColorChange
350
39
  3
Conceptual
350
32
  3
Dim
350
34
  3
EdgeColorOff
350
41
  3
Facepattern
350
38
  3
Flat
350
2A
  3
FlatWithEdges
350
2B
  3
Gouraud
350
2C
  3
GouraudWithEdges
350
2D
  3
Hidden
350
31
  3
JitterOff
350
3F
  3
Linepattern
350
37
  3
OverhangOff
350
40
  3
Realistic
350
33
  3
Shaded
350
3E
  3
Shaded with edges
350
3D
  3
Shades of Gray
350
3A
  3
Sketchy
350
3B
  3
Thicken
350
36
  3
Wireframe
350
30
  3
X-Ray
350
3C
  0
XRECORD
  5
A3
102
{ACAD_REACTORS
330
C
102
}
330
C
100
AcDbXrecord
280
     1
 90
        1
330
65
  0
DICTIONARY
  5
9B
102
{ACAD_REACTORS
330
C
102
}
330
C
100
AcDbDictionary
281
     1
  3
CANNOSCALE
350
A0
  3
CMLEADERSTYLE
350
9D
  3
CTABLESTYLE
350
9C
  3
CVIEWDETAILSTYLE
350
9E
  3
CVIEWSECTIONSTYLE
350
9F
  0
ACDBDETAILVIEWSTYLE
  5
6B
102
{ACAD_REACTORS
330
6A
102
}
330
6A
100
AcDbModelDocViewStyle
 70
     0
  3
Imperial24
290
     1
300
Imperial24
 90
        0
100
AcDbDetailViewStyle
 70
     0
 71
     0
 90
        3
 71
     1
340
55
 62
   256
 40
0.24
340
0
 62
   256
 40
0.24
300

 40
0.36
280
     3
 71
     2
340
5D
 90
       25
 62
   256
 71
     3
340
55
 62
   256
 40
0.24
 90
        1
 40
0.75
 90
        1
300
%<\AcVar ViewType \f "%tc1">% %<\AcVar ViewDetailId>%\PSCALE %<\AcVar ViewScale \f "%sn">%
 71
     4
340
5D
 90
       25
 62
   256
340
5D
 90
       25
 62
   256
280
     0
  0
LAYOUT
  5
6F
102
{ACAD_REACTORS
330
62
102
}
330
62
100
AcDbPlotSettings
  1

  2

  4

  6

 40
0.0
 41
0.0
 42
0.0
 43
0.0
 44
0.0
 45
0.0
 46
0.0
 47
0.0
 48
0.0
 49
0.0
140
0.0
141
0.0
142
1.0
143
1.0
 70
   688
 72
     0
 73
     0
 74
     5
  7

 75
    16
147
1.0
 76
     0
 77
     2
 78
   300
148
0.0
149
0.0
100
AcDbLayout
  1
Layout1
 70
     1
 71
     1
 10
0.0
 20
0.0
 11
12.0
 21
9.0
 12
0.0
 22
0.0
 32
0.0
 14
0.0
 24
0.0
 34
0.0
 15
0.0
 25
0.0
 35
0.0
146
0.0
 13
0.0
 23
0.0
 33
0.0
 16
1.0
 26
0.0
 36
0.0
 17
0.0
 27
1.0
 37
0.0
 76
     0
330
6C
  0
LAYOUT
  5
77
102
{ACAD_REACTORS
330
62
102
}
330
62
100
AcDbPlotSettings
  1

  2

  4

  6

 40
0.0
 41
0.0
 42
0.0
 43
0.0
 44
0.0
 45
0.0
 46
0.0
 47
0.0
 48
0.0
 49
0.0
140
0.0
141
0.0
142
1.0
143
1.0
 70
   688
 72
     0
 73
     0
 74
     5
  7

 75
    16
147
1.0
 76
     0
 77
     2
 78
   300
148
0.0
149
0.0
100
AcDbLayout
  1
Layout2
 70
     1
 71
     2
 10
0.0
 20
0.0
 11
12.0
 21
9.0
 12
0.0
 22
0.0
 32
0.0
 14
0.0
 24
0.0
 34
0.0
 15
0.0
 25
0.0
 35
0.0
146
0.0
 13
0.0
 23
0.0
 33
0.0
 16
1.0
 26
0.0
 36
0.0
 17
0.0
 27
1.0
 37
0.0
 76
     0
330
74
  0
LAYOUT
  5
73
102
{ACAD_REACTORS
330
62
102
}
330
62
100
AcDbPlotSettings
  1

  2

  4

  6

 40
0.0
 41
0.0
 42
0.0
 43
0.0
 44
0.0
 45
0.0
 46
0.0
 47
0.0
 48
0.0
 49
0.0
140
0.0
141
0.0
142
1.0
143
1.0
 70
  1712
 72
     0
 73
     0
 74
     0
  7

 75
     0
147
1.0
 76
     0
 77
     2
 78
   300
148
0.0
149
0.0
100
AcDbLayout
  1
Model
 70
     1
 71
     0
 10
0.0
 20
0.0
 11
12.0
 21
9.0
 12
0.0
 22
0.0
 32
0.0
 14
0.0
 24
0.0
 34
0.0
 15
0.0
 25
0.0
 35
0.0
146
0.0
 13
0.0
 23
0.0
 33
0.0
 16
1.0
 26
0.0
 36
0.0
 17
0.0
 27
1.0
 37
0.0
 76
     0
330
70
  0
MATERIAL
  5
19
102
{ACAD_XDICTIONARY
360
1A
102
}
102
{ACAD_REACTORS
330
10
102
}
330
10
100
AcDbMaterial
  1
ByBlock
 72
     0
 43
0.0208333333333333
 43
0.0
 43
0.0
 43
0.0
 43
0.0
 43
0.0208333333333333
 43
0.0
 43
0.0
 43
0.0
 43
0.0
 43
1.0
 43
0.0
 43
0.0
 43
0.0
 43
0.0
 43
1.0
 77
     0
 47
0.0208333333333333
 47
0.0
 47
0.0
 47
0.0
 47
0.0
 47
0.0208333333333333
 47
0.0
 47
0.0
 47
0.0
 47
0.0
 47
1.0
 47
0.0
 47
0.0
 47
0.0
 47
0.0
 47
1.0
171
     0
 49
0.0208333333333333
 49
0.0
 49
0.0
 49
0.0
 49
0.0
 49
0.0208333333333333
 49
0.0
 49
0.0
 49
0.0
 49
0.0
 49
1.0
 49
0.0
 49
0.0
 49
0.0
 49
0.0
 49
1.0
175
     0
142
0.0208333333333333
142
0.0
142
0.0
142
0.0
142
0.0
142
0.0208333333333333
142
0.0
142
0.0
142
0.0
142
0.0
142
1.0
142
0.0
142
0.0
142
0.0
142
0.0
142
1.0
179
     0
144
0.0208333333333333
144
0.0
144
0.0
144
0.0
144
0.0
144
0.0208333333333333
144
0.0
144
0.0
144
0.0
144
0.0
144
1.0
144
0.0
144
0.0
144
0.0
144
0.0
144
1.0
147
0.0208333333333333
147
0.0
147
0.0
147
0.0
147
0.0
147
0.0208333333333333
147
0.0
147
0.0
147
0.0
147
0.0
147
1.0
147
0.0
147
0.0
147
0.0
147
0.0
147
1.0
  0
MATERIAL
  5
11
102
{ACAD_XDICTIONARY
360
12
102
}
102
{ACAD_REACTORS
330
10
102
}
330
10
100
AcDbMaterial
  1
ByLayer
 72
     0
 43
0.0208333333333333
 43
0.0
 43
0.0
 43
0.0
 43
0.0
 43
0.0208333333333333
 43
0.0
 43
0.0
 43
0.0
 43
0.0
 43
1.0
 43
0.0
 43
0.0
 43
0.0
 43
0.0
 43
1.0
 77
     0
 47
0.0208333333333333
 47
0.0
 47
0.0
 47
0.0
 47
0.0
 47
0.0208333333333333
 47
0.0
 47
0.0
 47
0.0
 47
0.0
 47
1.0
 47
0.0
 47
0.0
 47
0.0
 47
0.0
 47
1.0
171
     0
 49
0.0208333333333333
 49
0.0
 49
0.0
 49
0.0
 49
0.0
 49
0.0208333333333333
 49
0.0
 49
0.0
 49
0.0
 49
0.0
 49
1.0
 49
0.0
 49
0.0
 49
0.0
 49
0.0
 49
1.0
175
     0
142
0.0208333333333333
142
0.0
142
0.0
142
0.0
142
0.0
142
0.0208333333333333
142
0.0
142
0.0
142
0.0
142
0.0
142
1.0
142
0.0
142
0.0
142
0.0
142
0.0
142
1.0
179
     0
144
0.0208333333333333
144
0.0
144
0.0
144
0.0
144
0.0
144
0.0208333333333333
144
0.0
144
0.0
144
0.0
144
0.0
144
1.0
144
0.0
144
0.0
144
0.0
144
0.0
144
1.0
147
0.0208333333333333
147
0.0
147
0.0
147
0.0
147
0.0
147
0.0208333333333333
147
0.0
147
0.0
147
0.0
147
0.0
147
1.0
147
0.0
147
0.0
147
0.0
147
0.0
147
1.0
  0
MATERIAL
  5
21
102
{ACAD_XDICTIONARY
360
22
102
}
102
{ACAD_REACTORS
330
10
102
}
330
10
100
AcDbMaterial
  1
Global
 72
     0
 43
0.0208333333333333
 43
0.0
 43
0.0
 43
0.0
 43
0.0
 43
0.0208333333333333
 43
0.0
 43
0.0
 43
0.0
 43
0.0
 43
1.0
 43
0.0
 43
0.0
 43
0.0
 43
0.0
 43
1.0
 77
     0
 47
0.0208333333333333
 47
0.0
 47
0.0
 47
0.0
 47
0.0
 47
0.0208333333333333
 47
0.0
 47
0.0
 47
0.0
 47
0.0
 47
1.0
 47
0.0
 47
0.0
 47
0.0
 47
0.0
 47
1.0
171
     0
 49
0.0208333333333333
 49
0.0
 49
0.0
 49
0.0
 49
0.0
 49
0.0208333333333333
 49
0.0
 49
0.0
 49
0.0
 49
0.0
 49
1.0
 49
0.0
 49
0.0
 49
0.0
 49
0.0
 49
1.0
175
     0
142
0.0208333333333333
142
0.0
142
0.0
142
0.0
142
0.0
142
0.0208333333333333
142
0.0
142
0.0
142
0.0
142
0.0
142
1.0
142
0.0
142
0.0
142
0.0
142
0.0
142
1.0
179
     0
144
0.0208333333333333
144
0.0
144
0.0
144
0.0
144
0.0
144
0.0208333333333333
144
0.0
144
0.0
144
0.0
144
0.0
144
1.0
144
0.0
144
0.0
144
0.0
144
0.0
144
1.0
147
0.0208333333333333
147
0.0
147
0.0
147
0.0
147
0.0
147
0.0208333333333333
147
0.0
147
0.0
147
0.0
147
0.0
147
1.0
147
0.0
147
0.0
147
0.0
147
0.0
147
1.0
  0
MLEADERSTYLE
  5
67
102
{ACAD_REACTORS
330
66
102
}
330
66
100
AcDbMLeaderStyle
179
     2
170
     2
171
     1
172
     0
 90
        2
 40
0.0
 41
0.0
173
     1
 91
-1056964608
340
5B
 92
       -2
290
     1
 42
0.09
291
     1
 43
0.36
  3
Standard
 44
0.18
300

342
55
174
     1
178
     6
175
     1
176
     0
 93
-1056964608
 45
0.18
292
     0
297
     0
 46
0.18
 94
-1056964608
 47
1.0
 49
1.0
140
1.0
293
     1
141
0.0
294
     1
177
     0
142
1.0
295
     1
296
     0
143
0.125
271
     0
272
     9
273
     9
298
     1
  0
MLINESTYLE
  5
60
102
{ACAD_REACTORS
330
5F
102
}
330
5F
100
AcDbMlineStyle
  2
STANDARD
 70
     0
  3

 62
   256
 51
90.0
 52
90.0
 71
     2
 49
0.5
 62
   256
  6
BYLAYER
 49
-0.5
 62
   256
  6
BYLAYER
  0
ACDBPLACEHOLDER
  5
F
102
{ACAD_REACTORS
330
E
102
}
330
E
  0
SCALE
  5
43
102
{ACAD_REACTORS
330
42
102
}
330
42
100
AcDbScale
 70
     0
300
1:1
140
1.0
141
1.0
290
     1
  0
SCALE
  5
44
102
{ACAD_REACTORS
330
42
102
}
330
42
100
AcDbScale
 70
     0
300
1/128" = 1'-0"
140
0.0078125
141
12.0
290
     0
  0
SCALE
  5
45
102
{ACAD_REACTORS
330
42
102
}
330
42
100
AcDbScale
 70
     0
300
1/64" = 1'-0"
140
0.015625
141
12.0
290
     0
  0
SCALE
  5
46
102
{ACAD_REACTORS
330
42
102
}
330
42
100
AcDbScale
 70
     0
300
1/32" = 1'-0"
140
0.03125
141
12.0
290
     0
  0
SCALE
  5
47
102
{ACAD_REACTORS
330
42
102
}
330
42
100
AcDbScale
 70
     0
300
1/16" = 1'-0"
140
0.0625
141
12.0
290
     0
  0
SCALE
  5
48
102
{ACAD_REACTORS
330
42
102
}
330
42
100
AcDbScale
 70
     0
300
3/32" = 1'-0"
140
0.09375
141
12.0
290
     0
  0
SCALE
  5
49
102
{ACAD_REACTORS
330
42
102
}
330
42
100
AcDbScale
 70
     0
300
1/8" = 1'-0"
140
0.125
141
12.0
290
     0
  0
SCALE
  5
4A
102
{ACAD_REACTORS
330
42
102
}
330
42
100
AcDbScale
 70
     0
300
3/16" = 1'-0"
140
0.1875
141
12.0
290
     0
  0
SCALE
  5
4B
102
{ACAD_REACTORS
330
42
102
}
330
42
100
AcDbScale
 70
     0
300
1/4" = 1'-0"
140
0.25
141
12.0
290
     0
  0
SCALE
  5
4C
102
{ACAD_REACTORS
330
42
102
}
330
42
100
AcDbScale
 70
     0
300
3/8" = 1'-0"
140
0.375
141
12.0
290
     0
  0
SCALE
  5
4D
102
{ACAD_REACTORS
330
42
102
}
330
42
100
AcDbScale
 70
     0
300
1/2" = 1'-0"
140
0.5
141
12.0
290
     0
  0
SCALE
  5
4E
102
{ACAD_REACTORS
330
42
102
}
330
42
100
AcDbScale
 70
     0
300
3/4" = 1'-0"
140
0.75
141
12.0
290
     0
  0
SCALE
  5
4F
102
{ACAD_REACTORS
330
42
102
}
330
42
100
AcDbScale
 70
     0
300
1" = 1'-0"
140
1.0
141
12.0
290
     0
  0
SCALE
  5
50
102
{ACAD_REACTORS
330
42
102
}
330
42
100
AcDbScale
 70
     0
300
1-1/2" = 1'-0"
140
1.5
141
12.0
290
     0
  0
SCALE
  5
51
102
{ACAD_REACTORS
330
42
102
}
330
42
100
AcDbScale
 70
     0
300
3" = 1'-0"
140
3.0
141
12.0
290
     0
  0
SCALE
  5
52
102
{ACAD_REACTORS
330
42
102
}
330
42
100
AcDbScale
 70
     0
300
6" = 1'-0"
140
6.0
141
12.0
290
     0
  0
SCALE
  5
53
102
{ACAD_REACTORS
330
42
102
}
330
42
100
AcDbScale
 70
     0
300
1'-0" = 1'-0"
140
12.0
141
12.0
290
     0
  0
ACDBSECTIONVIEWSTYLE
  5
69
102
{ACAD_REACTORS
330
68
102
}
330
68
100
AcDbModelDocViewStyle
 70
     0
  3
Imperial24
290
     1
300
Imperial24
 90
        0
100
AcDbSectionViewStyle
 70
     0
 71
     0
 90
       78
 71
     1
340
55
 62
   256
 40
0.24
340
0
340
0
 62
   256
 40
0.24
300
I, O, Q, S, X, Z
 40
0.48
 90
        3
 40
0.18
 90
        1
 71
     2
340
5D
 90
       25
 62
   256
340
5D
 90
       50
 62
   256
 40
0.24
 40
0.0
 40
0.24
 71
     3
340
55
 62
   256
 40
0.24
 90
        1
 40
0.75
 90
        1
300
%<\AcVar ViewType \f "%tc1">% %<\AcVar ViewSectionStartId>%-%<\AcVar ViewSectionEndId>%\PSCALE %<\AcVar ViewScale \f "%sn">%
 71
     4
 62
   256
 62
   257
300
ANSI31
 40
1.0
 90
        0
290
     0
290
     0
 90
        6
 40
0.0
 40
1.570796326794896
 40
0.2617993877991494
 40
1.308996938995747
 40
-0.2617993877991494
 40
1.832595714594046
  0
TABLESTYLE
  5
65
102
{ACAD_XDICTIONARY
360
A1
102
}
102
{ACAD_REACTORS
330
64
102
}
330
64
100
AcDbTableStyle
280
     0
  3
Standard
 70
     0
 71
     0
 40
0.06
 41
0.06
280
     0
281
     0
  7
Standard
140
0.18
170
     2
 62
     0
 63
     7
283
     0
 90
      512
 91
        0
  1

274
    -2
284
     1
 64
     0
275
    -2
285
     1
 65
     0
276
    -2
286
     1
 66
     0
277
    -2
287
     1
 67
     0
278
    -2
288
     1
 68
     0
279
    -2
289
     1
 69
     0
  7
Standard
140
0.25
170
     5
 62
     0
 63
     7
283
     0
 90
      512
 91
        0
  1

274
    -2
284
     1
 64
     0
275
    -2
285
     1
 65
     0
276
    -2
286
     1
 66
     0
277
    -2
287
     1
 67
     0
278
    -2
288
     1
 68
     0
279
    -2
289
     1
 69
     0
  7
Standard
140
0.18
170
     5
 62
     0
 63
     7
283
     0
 90
      512
 91
        0
  1

274
    -2
284
     1
 64
     0
275
    -2
285
     1
 65
     0
276
    -2
286
     1
 66
     0
277
    -2
287
     1
 67
     0
278
    -2
288
     1
 68
     0
279
    -2
289
     1
 69
     0
  0
VISUALSTYLE
  5
2F
102
{ACAD_REACTORS
330
29
102
}
330
29
100
AcDbVisualStyle
  2
2dWireframe
 70
     4
177
     3
291
     0
 70
    58
 90
        0
176
     1
 90
        2
176
     1
 90
        0
176
     1
 90
        0
176
     1
 40
0.6
176
     1
 40
30.0
176
     1
 62
     7
420
 16777215
176
     1
 90
        1
176
     1
 90
        4
176
     1
 62
     7
176
     1
 62
   257
176
     1
 90
        1
176
     1
 90
        1
176
     1
 40
1.0
176
     1
 90
        0
176
     1
 62
   257
176
     1
 40
1.0
176
     1
 90
        1
176
     1
 90
        6
176
     1
 90
        2
176
     1
 62
     7
176
     1
 90
        5
176
     1
 90
        0
176
     1
 90
        0
176
     1
290
     0
176
     1
 90
        1
176
     1
 40
0.0
176
     1
 90
        0
176
     1
290
     1
176
     1
290
     1
176
     1
290
     0
176
     1
290
     0
176
     1
290
     0
176
     1
290
     0
176
     1
290
     0
176
     1
290
     0
176
     1
290
     0
176
     1
 90
       50
176
     1
 40
0.0
176
     1
 40
1.0
176
     1
 90
        0
176
     1
 62
    18
420
        0
176
     1
 90
       50
176
     1
 90
        3
176
     1
 62
     5
420
      255
176
     1
290
     0
176
     1
 90
       50
176
     1
 90
       50
176
     1
 90
       50
176
     1
290
     0
176
     1
 90
       50
176
     1
 62
   256
176
     0
 40
1.0
176
     0
 90
        2
176
     1
  1
strokes_ogs.tif
176
     1
290
     0
176
     1
 40
1.0
176
     1
 40
1.0
176
     1
  0
VISUALSTYLE
  5
2E
102
{ACAD_REACTORS
330
29
102
}
330
29
100
AcDbVisualStyle
  2
Basic
 70
     7
177
     3
291
     1
 70
    58
 90
        1
176
     1
 90
        0
176
     1
 90
        1
176
     1
 90
        0
176
     1
 40
0.6
176
     1
 40
30.0
176
     1
 62
     7
420
 16777215
176
     1
 90
        0
176
     1
 90
        4
176
     1
 62
     7
176
     1
 62
   257
176
     1
 90
        1
176
     1
 90
        1
176
     1
 40
1.0
176
     1
 90
        8
176
     1
 62
     7
176
     1
 40
1.0
176
     1
 90
        1
176
     1
 90
        6
176
     1
 90
        2
176
     1
 62
     7
176
     1
 90
        5
176
     1
 90
        0
176
     1
 90
        0
176
     1
290
     0
176
     1
 90
        1
176
     1
 40
0.0
176
     1
 90
        0
176
     1
290
     0
176
     1
290
     1
176
     1
290
     1
176
     1
290
     0
176
     1
290
     0
176
     1
290
     0
176
     1
290
     0
176
     1
290
     0
176
     1
290
     0
176
     1
 90
       50
176
     1
 40
0.0
176
     1
 40
1.0
176
     1
 90
        0
176
     1
 62
    18
420
        0
176
     1
 90
       50
176
     1
 90
        3
176
     1
 62
     5
420
      255
176
     1
290
     0
176
     1
 90
       50
176
     1
 90
       50
176
     1
 90
       50
176
     1
290
     0
176
     1
 90
       50
176
     1
 62
   256
176
     0
 40
1.0
176
     0
 90
        2
176
     1
  1
strokes_ogs.tif
176
     1
290
     0
176
     1
 40
1.0
176
     1
 40
1.0
176
     1
  0
VISUALSTYLE
  5
35
102
{ACAD_REACTORS
330
29
102
}
330
29
100
AcDbVisualStyle
  2
Brighten
 70
    12
177
     3
291
     1
 70
    58
 90
        2
176
     1
 90
        2
176
     1
 90
        0
176
     1
 90
        0
176
     1
 40
0.6
176
     1
 40
30.0
176
     1
 62
     7
420
 16777215
176
     1
 90
        1
176
     1
 90
        4
176
     1
 62
     7
176
     1
 62
   257
176
     1
 90
        1
176
     1
 90
        1
176
     1
 40
1.0
176
     1
 90
        8
176
     1
 62
     7
176
     1
 40
1.0
176
     1
 90
        1
176
     1
 90
        6
176
     1
 90
        2
176
     1
 62
     7
176
     1
 90
        5
176
     1
 90
        0
176
     1
 90
        0
176
     1
290
     0
176
     1
 90
        1
176
     1
 40
50.0
176
     1
 90
        0
176
     1
290
     0
176
     1
290
     1
176
     1
290
     1
176
     1
290
     0
176
     1
290
     0
176
     1
290
     0
176
     1
290
     0
176
     1
290
     0
176
     1
290
     0
176
     1
 90
       50
176
     1
 40
0.0
176
     1
 40
1.0
176
     1
 90
        0
176
     1
 62
    18
420
        0
176
     1
 90
       50
176
     1
 90
        3
176
     1
 62
     5
420
      255
176
     1
290
     0
176
     1
 90
       50
176
     1
 90
       50
176
     1
 90
       50
176
     1
290
     0
176
     1
 90
       50
176
     1
 62
   256
176
     0
 40
1.0
176
     0
 90
        2
176
     1
  1
strokes_ogs.tif
176
     1
290
     0
176
     1
 40
1.0
176
     1
 40
1.0
176
     1
  0
VISUALSTYLE
  5
39
102
{ACAD_REACTORS
330
29
102
}
330
29
100
AcDbVisualStyle
  2
ColorChange
 70
    16
177
     3
291
     1
 70
    58
 90
        2
176
     1
 90
        2
176
     1
 90
        3
176
     1
 90
        0
176
     1
 40
0.6
176
     1
 40
30.0
176
     1
 62
     8
420
  8421504
176
     1
 90
        1
176
     1
 90
        4
176
     1
 62
     7
176
     1
 62
   257
176
     1
 90
        1
176
     1
 90
        1
176
     1
 40
1.0
176
     1
 90
        8
176
     1
 62
     8
420
  8421504
176
     1
 40
1.0
176
     1
 90
        1
176
     1
 90
        6
176
     1
 90
        2
176
     1
 62
     7
176
     1
 90
        5
176
     1
 90
        0
176
     1
 90
        0
176
     1
290
     0
176
     1
 90
        1
176
     1
 40
0.0
176
     1
 90
        0
176
     1
290
     0
176
     1
290
     1
176
     1
290
     1
176
     1
290
     0
176
     1
290
     0
176
     1
290
     0
176
     1
290
     0
176
     1
290
     0
176
     1
290
     0
176
     1
 90
       50
176
     1
 40
0.0
176
     1
 40
1.0
176
     1
 90
        0
176
     1
 62
    18
420
        0
176
     1
 90
       50
176
     1
 90
        3
176
     1
 62
     5
420
      255
176
     1
290
     0
176
     1
 90
       50
176
     1
 90
       50
176
     1
 90
       50
176
     1
290
     0
176
     1
 90
       50
176
     1
 62
   256
176
     0
 40
1.0
176
     0
 90
        2
176
     1
  1
strokes_ogs.tif
176
     1
290
     0
176
     1
 40
1.0
176
     1
 40
1.0
176
     1
  0
VISUALSTYLE
  5
32
102
{ACAD_REACTORS
330
29
102
}
330
29
100
AcDbVisualStyle
  2
Conceptual
 70
     9
177
     3
291
     0
 70
    58
 90
        3
176
     1
 90
        2
176
     1
 90
        0
176
     1
 90
        0
176
     1
 40
0.6
176
     1
 40
30.0
176
     1
 62
     7
420
 16777215
176
     1
 90
        2
176
     1
 90
        2
176
     1
 62
     7
176
     1
 62
   257
176
     1
 90
        1
176
     1
 90
        1
176
     1
 40
179.0
176
     1
 90
        8
176
     1
 62
     7
176
     1
 40
1.0
176
     1
 90
        1
176
     1
 90
        6
176
     1
 90
        2
176
     1
 62
     7
176
     1
 90
        3
176
     1
 90
        0
176
     1
 90
        0
176
     1
290
     0
176
     1
 90
        1
176
     1
 40
0.0
176
     1
 90
        0
176
     1
290
     0
176
     1
290
     1
176
     1
290
     1
176
     1
290
     0
176
     1
290
     0
176
     1
290
     0
176
     1
290
     0
176
     1
290
     0
176
     1
290
     0
176
     1
 90
       50
176
     1
 40
0.0
176
     1
 40
1.0
176
     1
 90
        0
176
     1
 62
    18
420
        0
176
     1
 90
       50
176
     1
 90
        3
176
     1
 62
     5
420
      255
176
     1
290
     0
176
     1
 90
       50
176
     1
 90
       50
176
     1
 90
       50
176
     1
290
     0
176
     1
 90
       50
176
     1
 62
   256
176
     0
 40
1.0
176
     0
 90
        2
176
     1
  1
strokes_ogs.tif
176
     1
290
     0
176
     1
 40
1.0
176
     1
 40
1.0
176
     1
  0
VISUALSTYLE
  5
34
102
{ACAD_REACTORS
330
29
102
}
330
29
100
AcDbVisualStyle
  2
Dim
 70
    11
177
     3
291
     1
 70
    58
 90
        2
176
     1
 90
        2
176
     1
 90
        0
176
     1
 90
        0
176
     1
 40
0.6
176
     1
 40
30.0
176
     1
 62
     7
420
 16777215
176
     1
 90
        1
176
     1
 90
        4
176
     1
 62
     7
176
     1
 62
   257
176
     1
 90
        1
176
     1
 90
        1
176
     1
 40
1.0
176
     1
 90
        8
176
     1
 62
     7
176
     1
 40
1.0
176
     1
 90
        1
176
     1
 90
        6
176
     1
 90
        2
176
     1
 62
     7
176
     1
 90
        5
176
     1
 90
        0
176
     1
 90
        0
176
     1
290
     0
176
     1
 90
        1
176
     1
 40
-50.0
176
     1
 90
        0
176
     1
290
     0
176
     1
290
     1
176
     1
290
     1
176
     1
290
     0
176
     1
290
     0
176
     1
290
     0
176
     1
290
     0
176
     1
290
     0
176
     1
290
     0
176
     1
 90
       50
176
     1
 40
0.0
176
     1
 40
1.0
176
     1
 90
        0
176
     1
 62
    18
420
        0
176
     1
 90
       50
176
     1
 90
        3
176
     1
 62
     5
420
      255
176
     1
290
     0
176
     1
 90
       50
176
     1
 90
       50
176
     1
 90
       50
176
     1
290
     0
176
     1
 90
       50
176
     1
 62
   256
176
     0
 40
1.0
176
     0
 90
        2
176
     1
  1
strokes_ogs.tif
176
     1
290
     0
176
     1
 40
1.0
176
     1
 40
1.0
176
     1
  0
VISUALSTYLE
  5
41
102
{ACAD_REACTORS
330
29
102
}
330
29
100
AcDbVisualStyle
  2
EdgeColorOff
 70
    22
177
     3
291
     1
 70
    58
 90
        2
176
     0
 90
        2
176
     0
 90
        0
176
     0
 90
        0
176
     0
 40
0.6
176
     0
 40
30.0
176
     0
 62
     7
420
 16777215
176
     0
 90
        1
176
     0
 90
        4
176
     0
 62
     7
176
     0
 62
   257
176
     0
 90
        1
176
     0
 90
        1
176
     0
 40
1.0
176
     0
 90
        8
176
     2
 62
     7
176
     0
 40
1.0
176
     0
 90
        1
176
     0
 90
        6
176
     0
 90
        2
176
     0
 62
     7
176
     0
 90
        5
176
     0
 90
        0
176
     0
 90
        0
176
     0
290
     0
176
     0
 90
        1
176
     0
 40
0.0
176
     0
 90
        0
176
     0
290
     0
176
     0
290
     1
176
     0
290
     1
176
     0
290
     0
176
     0
290
     0
176
     0
290
     0
176
     0
290
     0
176
     0
290
     0
176
     0
290
     0
176
     0
 90
       50
176
     0
 40
0.0
176
     0
 40
1.0
176
     0
 90
        0
176
     0
 62
    18
420
        0
176
     0
 90
       50
176
     0
 90
        3
176
     0
 62
     5
420
      255
176
     0
290
     0
176
     0
 90
       50
176
     0
 90
       50
176
     0
 90
       50
176
     0
290
     0
176
     0
 90
       50
176
     0
 62
   256
176
     0
 40
1.0
176
     0
 90
        2
176
     0
  1
strokes_ogs.tif
176
     0
290
     0
176
     0
 40
1.0
176
     0
 40
1.0
176
     0
  0
VISUALSTYLE
  5
38
102
{ACAD_REACTORS
330
29
102
}
330
29
100
AcDbVisualStyle
  2
Facepattern
 70
    15
177
     3
291
     1
 70
    58
 90
        2
176
     1
 90
        2
176
     1
 90
        0
176
     1
 90
        0
176
     1
 40
0.6
176
     1
 40
30.0
176
     1
 62
     7
420
 16777215
176
     1
 90
        1
176
     1
 90
        4
176
     1
 62
     7
176
     1
 62
   257
176
     1
 90
        1
176
     1
 90
        1
176
     1
 40
1.0
176
     1
 90
        8
176
     1
 62
     7
176
     1
 40
1.0
176
     1
 90
        1
176
     1
 90
        6
176
     1
 90
        2
176
     1
 62
     7
176
     1
 90
        5
176
     1
 90
        0
176
     1
 90
        0
176
     1
290
     0
176
     1
 90
        1
176
     1
 40
0.0
176
     1
 90
        0
176
     1
290
     0
176
     1
290
     1
176
     1
290
     1
176
     1
290
     0
176
     1
290
     0
176
     1
290
     0
176
     1
290
     0
176
     1
290
     0
176
     1
290
     0
176
     1
 90
       50
176
     1
 40
0.0
176
     1
 40
1.0
176
     1
 90
        0
176
     1
 62
    18
420
        0
176
     1
 90
       50
176
     1
 90
        3
176
     1
 62
     5
420
      255
176
     1
290
     0
176
     1
 90
       50
176
     1
 90
       50
176
     1
 90
       50
176
     1
290
     0
176
     1
 90
       50
176
     1
 62
   256
176
     0
 40
1.0
176
     0
 90
        2
176
     1
  1
strokes_ogs.tif
176
     1
290
     0
176
     1
 40
1.0
176
     1
 40
1.0
176
     1
  0
VISUALSTYLE
  5
2A
102
{ACAD_REACTORS
330
29
102
}
330
29
100
AcDbVisualStyle
  2
Flat
 70
     0
177
     3
291
     1
 70
    58
 90
        2
176
     1
 90
        1
176
     1
 90
        1
176
     1
 90
        2
176
     1
 40
0.6
176
     1
 40
30.0
176
     1
 62
     7
420
 16777215
176
     1
 90
        0
176
     1
 90
        0
176
     1
 62
     7
176
     1
 62
   257
176
     1
 90
        1
176
     1
 90
        1
176
     1
 40
1.0
176
     1
 90
        8
176
     1
 62
     7
176
     1
 40
1.0
176
     1
 90
        1
176
     1
 90
        6
176
     1
 90
        2
176
     1
 62
     7
176
     1
 90
        5
176
     1
 90
        0
176
     1
 90
        0
176
     1
290
     0
176
     1
 90
       13
176
     1
 40
0.0
176
     1
 90
        0
176
     1
290
     0
176
     1
290
     1
176
     1
290
     1
176
     1
290
     0
176
     1
290
     0
176
     1
290
     0
176
     1
290
     0
176
     1
290
     0
176
     1
290
     0
176
     1
 90
       50
176
     1
 40
0.0
176
     1
 40
1.0
176
     1
 90
        0
176
     1
 62
    18
420
        0
176
     1
 90
       50
176
     1
 90
        3
176
     1
 62
     5
420
      255
176
     1
290
     0
176
     1
 90
       50
176
     1
 90
       50
176
     1
 90
       50
176
     1
290
     0
176
     1
 90
       50
176
     1
 62
   256
176
     0
 40
1.0
176
     0
 90
        2
176
     1
  1
strokes_ogs.tif
176
     1
290
     0
176
     1
 40
1.0
176
     1
 40
1.0
176
     1
  0
VISUALSTYLE
  5
2B
102
{ACAD_REACTORS
330
29
102
}
330
29
100
AcDbVisualStyle
  2
FlatWithEdges
 70
     1
177
     3
291
     1
 70
    58
 90
        2
176
     1
 90
        1
176
     1
 90
        1
176
     1
 90
        2
176
     1
 40
0.6
176
     1
 40
30.0
176
     1
 62
     7
420
 16777215
176
     1
 90
        1
176
     1
 90
        0
176
     1
 62
     7
176
     1
 62
   257
176
     1
 90
        1
176
     1
 90
        1
176
     1
 40
1.0
176
     1
 90
        0
176
     1
 62
   257
176
     1
 40
1.0
176
     1
 90
        1
176
     1
 90
        6
176
     1
 90
        2
176
     1
 62
     7
176
     1
 90
        5
176
     1
 90
        0
176
     1
 90
        0
176
     1
290
     0
176
     1
 90
       13
176
     1
 40
0.0
176
     1
 90
        0
176
     1
290
     0
176
     1
290
     1
176
     1
290
     1
176
     1
290
     0
176
     1
290
     0
176
     1
290
     0
176
     1
290
     0
176
     1
290
     0
176
     1
290
     0
176
     1
 90
       50
176
     1
 40
0.0
176
     1
 40
1.0
176
     1
 90
        0
176
     1
 62
    18
420
        0
176
     1
 90
       50
176
     1
 90
        3
176
     1
 62
     5
420
      255
176
     1
290
     0
176
     1
 90
       50
176
     1
 90
       50
176
     1
 90
       50
176
     1
290
     0
176
     1
 90
       50
176
     1
 62
   256
176
     0
 40
1.0
176
     0
 90
        2
176
     1
  1
strokes_ogs.tif
176
     1
290
     0
176
     1
 40
1.0
176
     1
 40
1.0
176
     1
  0
VISUALSTYLE
  5
2C
102
{ACAD_REACTORS
330
29
102
}
330
29
100
AcDbVisualStyle
  2
Gouraud
 70
     2
177
     3
291
     1
 70
    58
 90
        2
176
     1
 90
        2
176
     1
 90
        1
176
     1
 90
        2
176
     1
 40
0.6
176
     1
 40
30.0
176
     1
 62
     7
420
 16777215
176
     1
 90
        0
176
     1
 90
        0
176
     1
 62
     7
176
     1
 62
   257
176
     1
 90
        1
176
     1
 90
        1
176
     1
 40
1.0
176
     1
 90
        0
176
     1
 62
     7
176
     1
 40
1.0
176
     1
 90
        1
176
     1
 90
        6
176
     1
 90
        2
176
     1
 62
     7
176
     1
 90
        5
176
     1
 90
        0
176
     1
 90
        0
176
     1
290
     0
176
     1
 90
       13
176
     1
 40
0.0
176
     1
 90
        0
176
     1
290
     0
176
     1
290
     1
176
     1
290
     1
176
     1
290
     0
176
     1
290
     0
176
     1
290
     0
176
     1
290
     0
176
     1
290
     0
176
     1
290
     0
176
     1
 90
       50
176
     1
 40
0.0
176
     1
 40
1.0
176
     1
 90
        0
176
     1
 62
    18
420
        0
176
     1
 90
       50
176
     1
 90
        3
176
     1
 62
     5
420
      255
176
     1
290
     0
176
     1
 90
       50
176
     1
 90
       50
176
     1
 90
       50
176
     1
290
     0
176
     1
 90
       50
176
     1
 62
   256
176
     0
 40
1.0
176
     0
 90
        2
176
     1
  1
strokes_ogs.tif
176
     1
290
     0
176
     1
 40
1.0
176
     1
 40
1.0
176
     1
  0
VISUALSTYLE
  5
2D
102
{ACAD_REACTORS
330
29
102
}
330
29
100
AcDbVisualStyle
  2
GouraudWithEdges
 70
     3
177
     3
291
     1
 70
    58
 90
        2
176
     1
 90
        2
176
     1
 90
        1
176
     1
 90
        2
176
     1
 40
0.6
176
     1
 40
30.0
176
     1
 62
     7
420
 16777215
176
     1
 90
        1
176
     1
 90
        0
176
     1
 62
     7
176
     1
 62
   257
176
     1
 90
        1
176
     1
 90
        1
176
     1
 40
1.0
176
     1
 90
        0
176
     1
 62
   257
176
     1
 40
1.0
176
     1
 90
        1
176
     1
 90
        6
176
     1
 90
        2
176
     1
 62
     7
176
     1
 90
        5
176
     1
 90
        0
176
     1
 90
        0
176
     1
290
     0
176
     1
 90
       13
176
     1
 40
0.0
176
     1
 90
        0
176
     1
290
     0
176
     1
290
     1
176
     1
290
     1
176
     1
290
     0
176
     1
290
     0
176
     1
290
     0
176
     1
290
     0
176
     1
290
     0
176
     1
290
     0
176
     1
 90
       50
176
     1
 40
0.0
176
     1
 40
1.0
176
     1
 90
        0
176
     1
 62
    18
420
        0
176
     1
 90
       50
176
     1
 90
        3
176
     1
 62
     5
420
      255
176
     1
290
     0
176
     1
 90
       50
176
     1
 90
       50
176
     1
 90
       50
176
     1
290
     0
176
     1
 90
       50
176
     1
 62
   256
176
     0
 40
1.0
176
     0
 90
        2
176
     1
  1
strokes_ogs.tif
176
     1
290
     0
176
     1
 40
1.0
176
     1
 40
1.0
176
     1
  0
VISUALSTYLE
  5
31
102
{ACAD_REACTORS
330
29
102
}
330
29
100
AcDbVisualStyle
  2
Hidden
 70
     6
177
     3
291
     0
 70
    58
 90
        1
176
     1
 90
        2
176
     1
 90
        2
176
     1
 90
        0
176
     1
 40
0.6
176
     1
 40
30.0
176
     1
 62
     7
420
 16777215
176
     1
 90
        2
176
     1
 90
        2
176
     1
 62
     7
176
     1
 62
   257
176
     1
 90
        2
176
     1
 90
        1
176
     1
 40
40.0
176
     1
 90
        0
176
     1
 62
   257
176
     1
 40
1.0
176
     1
 90
        1
176
     1
 90
        6
176
     1
 90
        2
176
     1
 62
     7
176
     1
 90
        3
176
     1
 90
        0
176
     1
 90
        0
176
     1
290
     0
176
     1
 90
        1
176
     1
 40
0.0
176
     1
 90
        0
176
     1
290
     0
176
     1
290
     1
176
     1
290
     1
176
     1
290
     0
176
     1
290
     0
176
     1
290
     0
176
     1
290
     0
176
     1
290
     0
176
     1
290
     0
176
     1
 90
       50
176
     1
 40
0.0
176
     1
 40
1.0
176
     1
 90
        0
176
     1
 62
    18
420
        0
176
     1
 90
       50
176
     1
 90
        3
176
     1
 62
     5
420
      255
176
     1
290
     0
176
     1
 90
       50
176
     1
 90
       50
176
     1
 90
       50
176
     1
290
     0
176
     1
 90
       50
176
     1
 62
   256
176
     0
 40
1.0
176
     0
 90
        2
176
     1
  1
strokes_ogs.tif
176
     1
290
     0
176
     1
 40
1.0
176
     1
 40
1.0
176
     1
  0
VISUALSTYLE
  5
3F
102
{ACAD_REACTORS
330
29
102
}
330
29
100
AcDbVisualStyle
  2
JitterOff
 70
    20
177
     3
291
     1
 70
    58
 90
        2
176
     0
 90
        2
176
     0
 90
        0
176
     0
 90
        0
176
     0
 40
0.6
176
     0
 40
30.0
176
     0
 62
     7
420
 16777215
176
     0
 90
        1
176
     0
 90
        4
176
     0
 62
     7
176
     0
 62
   257
176
     0
 90
        1
176
     0
 90
        1
176
     0
 40
1.0
176
     0
 90
       10
176
     2
 62
     7
176
     0
 40
1.0
176
     0
 90
        1
176
     0
 90
        6
176
     0
 90
        2
176
     0
 62
     7
176
     0
 90
        5
176
     0
 90
        0
176
     0
 90
        0
176
     0
290
     0
176
     0
 90
        1
176
     0
 40
0.0
176
     0
 90
        0
176
     0
290
     0
176
     0
290
     1
176
     0
290
     1
176
     0
290
     0
176
     0
290
     0
176
     0
290
     0
176
     0
290
     0
176
     0
290
     0
176
     0
290
     0
176
     0
 90
       50
176
     0
 40
0.0
176
     0
 40
1.0
176
     0
 90
        0
176
     0
 62
    18
420
        0
176
     0
 90
       50
176
     0
 90
        3
176
     0
 62
     5
420
      255
176
     0
290
     0
176
     0
 90
       50
176
     0
 90
       50
176
     0
 90
       50
176
     0
290
     0
176
     0
 90
       50
176
     0
 62
   256
176
     0
 40
1.0
176
     0
 90
        2
176
     0
  1
strokes_ogs.tif
176
     0
290
     0
176
     0
 40
1.0
176
     0
 40
1.0
176
     0
  0
VISUALSTYLE
  5
37
102
{ACAD_REACTORS
330
29
102
}
330
29
100
AcDbVisualStyle
  2
Linepattern
 70
    14
177
     3
291
     1
 70
    58
 90
        2
176
     1
 90
        2
176
     1
 90
        0
176
     1
 90
        0
176
     1
 40
0.6
176
     1
 40
30.0
176
     1
 62
     7
420
 16777215
176
     1
 90
        1
176
     1
 90
        4
176
     1
 62
     7
176
     1
 62
   257
176
     1
 90
        7
176
     1
 90
        7
176
     1
 40
1.0
176
     1
 90
        8
176
     1
 62
     7
176
     1
 40
1.0
176
     1
 90
        1
176
     1
 90
        6
176
     1
 90
        2
176
     1
 62
     7
176
     1
 90
        5
176
     1
 90
        0
176
     1
 90
        0
176
     1
290
     0
176
     1
 90
        1
176
     1
 40
0.0
176
     1
 90
        0
176
     1
290
     0
176
     1
290
     1
176
     1
290
     1
176
     1
290
     0
176
     1
290
     0
176
     1
290
     0
176
     1
290
     0
176
     1
290
     0
176
     1
290
     0
176
     1
 90
       50
176
     1
 40
0.0
176
     1
 40
1.0
176
     1
 90
        0
176
     1
 62
    18
420
        0
176
     1
 90
       50
176
     1
 90
        3
176
     1
 62
     5
420
      255
176
     1
290
     0
176
     1
 90
       50
176
     1
 90
       50
176
     1
 90
       50
176
     1
290
     0
176
     1
 90
       50
176
     1
 62
   256
176
     0
 40
1.0
176
     0
 90
        2
176
     1
  1
strokes_ogs.tif
176
     1
290
     0
176
     1
 40
1.0
176
     1
 40
1.0
176
     1
  0
VISUALSTYLE
  5
40
102
{ACAD_REACTORS
330
29
102
}
330
29
100
AcDbVisualStyle
  2
OverhangOff
 70
    21
177
     3
291
     1
 70
    58
 90
        2
176
     0
 90
        2
176
     0
 90
        0
176
     0
 90
        0
176
     0
 40
0.6
176
     0
 40
30.0
176
     0
 62
     7
420
 16777215
176
     0
 90
        1
176
     0
 90
        4
176
     0
 62
     7
176
     0
 62
   257
176
     0
 90
        1
176
     0
 90
        1
176
     0
 40
1.0
176
     0
 90
        9
176
     2
 62
     7
176
     0
 40
1.0
176
     0
 90
        1
176
     0
 90
        6
176
     0
 90
        2
176
     0
 62
     7
176
     0
 90
        5
176
     0
 90
        0
176
     0
 90
        0
176
     0
290
     0
176
     0
 90
        1
176
     0
 40
0.0
176
     0
 90
        0
176
     0
290
     0
176
     0
290
     1
176
     0
290
     1
176
     0
290
     0
176
     0
290
     0
176
     0
290
     0
176
     0
290
     0
176
     0
290
     0
176
     0
290
     0
176
     0
 90
       50
176
     0
 40
0.0
176
     0
 40
1.0
176
     0
 90
        0
176
     0
 62
    18
420
        0
176
     0
 90
       50
176
     0
 90
        3
176
     0
 62
     5
420
      255
176
     0
290
     0
176
     0
 90
       50
176
     0
 90
       50
176
     0
 90
       50
176
     0
290
     0
176
     0
 90
       50
176
     0
 62
   256
176
     0
 40
1.0
176
     0
 90
        2
176
     0
  1
strokes_ogs.tif
176
     0
290
     0
176
     0
 40
1.0
176
     0
 40
1.0
176
     0
  0
VISUALSTYLE
  5
33
102
{ACAD_REACTORS
330
29
102
}
330
29
100
AcDbVisualStyle
  2
Realistic
 70
     8
177
     3
291
     0
 70
    58
 90
        2
176
     1
 90
        3
176
     1
 90
        0
176
     1
 90
        2
176
     1
 40
0.6
176
     1
 40
30.0
176
     1
 62
     7
420
 16777215
176
     1
 90
        0
176
     1
 90
        0
176
     1
 62
     7
176
     1
 62
   257
176
     1
 90
        1
176
     1
 90
        1
176
     1
 40
1.0
176
     1
 90
        8
176
     1
 62
   257
176
     1
 40
1.0
176
     1
 90
        1
176
     1
 90
        6
176
     1
 90
        2
176
     1
 62
     7
176
     1
 90
        3
176
     1
 90
        0
176
     1
 90
        0
176
     1
290
     0
176
     1
 90
       13
176
     1
 40
0.0
176
     1
 90
        0
176
     1
290
     0
176
     1
290
     1
176
     1
290
     1
176
     1
290
     0
176
     1
290
     0
176
     1
290
     0
176
     1
290
     0
176
     1
290
     0
176
     1
290
     0
176
     1
 90
       50
176
     1
 40
0.0
176
     1
 40
1.0
176
     1
 90
        0
176
     1
 62
    18
420
        0
176
     1
 90
       50
176
     1
 90
        3
176
     1
 62
     5
420
      255
176
     1
290
     0
176
     1
 90
       50
176
     1
 90
       50
176
     1
 90
       50
176
     1
290
     0
176
     1
 90
       50
176
     1
 62
   256
176
     0
 40
1.0
176
     0
 90
        2
176
     1
  1
strokes_ogs.tif
176
     1
290
     0
176
     1
 40
1.0
176
     1
 40
1.0
176
     1
  0
VISUALSTYLE
  5
3E
102
{ACAD_REACTORS
330
29
102
}
330
29
100
AcDbVisualStyle
  2
Shaded
 70
    27
177
     3
291
     0
 70
    58
 90
        2
176
     1
 90
        2
176
     1
 90
        1
176
     1
 90
        2
176
     1
 40
0.6
176
     1
 40
30.0
176
     1
 62
     7
420
 16777215
176
     1
 90
        0
176
     1
 90
        4
176
     1
 62
     7
176
     1
 62
   257
176
     1
 90
        1
176
     1
 90
        1
176
     1
 40
1.0
176
     1
 90
        8
176
     1
 62
   257
176
     1
 40
1.0
176
     1
 90
        1
176
     1
 90
        6
176
     1
 90
        2
176
     1
 62
     8
420
  7895160
176
     1
 90
        3
176
     1
 90
        0
176
     1
 90
        0
176
     1
290
     0
176
     1
 90
        5
176
     1
 40
0.0
176
     1
 90
        0
176
     1
290
     0
176
     1
290
     1
176
     1
290
     1
176
     1
290
     0
176
     1
290
     0
176
     1
290
     0
176
     1
290
     0
176
     1
290
     0
176
     1
290
     0
176
     1
 90
       50
176
     1
 40
0.0
176
     1
 40
1.0
176
     1
 90
        0
176
     1
 62
    18
420
        0
176
     1
 90
       50
176
     1
 90
        3
176
     1
 62
     5
420
      255
176
     1
290
     0
176
     1
 90
       50
176
     1
 90
       50
176
     1
 90
       50
176
     1
290
     0
176
     1
 90
       50
176
     1
 62
   256
176
     0
 40
1.0
176
     0
 90
        2
176
     1
  1
strokes_ogs.tif
176
     1
290
     0
176
     1
 40
1.0
176
     1
 40
1.0
176
     1
  0
VISUALSTYLE
  5
3D
102
{ACAD_REACTORS
330
29
102
}
330
29
100
AcDbVisualStyle
  2
Shaded with edges
 70
    26
177
     3
291
     0
 70
    58
 90
        2
176
     1
 90
        2
176
     1
 90
        1
176
     1
 90
        2
176
     1
 40
0.6
176
     1
 40
30.0
176
     1
 62
     7
420
 16777215
176
     1
 90
        1
176
     1
 90
        2
176
     1
 62
     7
176
     1
 62
   257
176
     1
 90
        2
176
     1
 90
        1
176
     1
 40
1.0
176
     1
 90
        8
176
     1
 62
   257
176
     1
 40
1.0
176
     1
 90
        1
176
     1
 90
        6
176
     1
 90
        2
176
     1
 62
     7
176
     1
 90
        3
176
     1
 90
        0
176
     1
 90
        0
176
     1
290
     0
176
     1
 90
        5
176
     1
 40
0.0
176
     1
 90
        0
176
     1
290
     0
176
     1
290
     1
176
     1
290
     1
176
     1
290
     0
176
     1
290
     0
176
     1
290
     0
176
     1
290
     0
176
     1
290
     0
176
     1
290
     0
176
     1
 90
       50
176
     1
 40
0.0
176
     1
 40
1.0
176
     1
 90
        0
176
     1
 62
    18
420
        0
176
     1
 90
       50
176
     1
 90
        3
176
     1
 62
     5
420
      255
176
     1
290
     0
176
     1
 90
       50
176
     1
 90
       50
176
     1
 90
       50
176
     1
290
     0
176
     1
 90
       50
176
     1
 62
   256
176
     0
 40
1.0
176
     0
 90
        2
176
     1
  1
strokes_ogs.tif
176
     1
290
     0
176
     1
 40
1.0
176
     1
 40
1.0
176
     1
  0
VISUALSTYLE
  5
3A
102
{ACAD_REACTORS
330
29
102
}
330
29
100
AcDbVisualStyle
  2
Shades of Gray
 70
    23
177
     3
291
     0
 70
    58
 90
        2
176
     1
 90
        2
176
     1
 90
        3
176
     1
 90
        0
176
     1
 40
0.6
176
     1
 40
30.0
176
     1
 62
     7
420
 16777215
176
     1
 90
        2
176
     1
 90
        2
176
     1
 62
     7
176
     1
 62
     7
176
     1
 90
        1
176
     1
 90
        1
176
     1
 40
40.0
176
     1
 90
        8
176
     1
 62
     7
176
     1
 40
1.0
176
     1
 90
        1
176
     1
 90
        6
176
     1
 90
        2
176
     1
 62
     7
176
     1
 90
        3
176
     1
 90
        0
176
     1
 90
        0
176
     1
290
     0
176
     1
 90
        1
176
     1
 40
0.0
176
     1
 90
        0
176
     1
290
     0
176
     1
290
     1
176
     1
290
     1
176
     1
290
     0
176
     1
290
     0
176
     1
290
     0
176
     1
290
     0
176
     1
290
     0
176
     1
290
     0
176
     1
 90
       50
176
     1
 40
0.0
176
     1
 40
1.0
176
     1
 90
        0
176
     1
 62
    18
420
        0
176
     1
 90
       50
176
     1
 90
        3
176
     1
 62
     5
420
      255
176
     1
290
     0
176
     1
 90
       50
176
     1
 90
       50
176
     1
 90
       50
176
     1
290
     0
176
     1
 90
       50
176
     1
 62
   256
176
     0
 40
1.0
176
     0
 90
        2
176
     1
  1
strokes_ogs.tif
176
     1
290
     0
176
     1
 40
1.0
176
     1
 40
1.0
176
     1
  0
VISUALSTYLE
  5
3B
102
{ACAD_REACTORS
330
29
102
}
330
29
100
AcDbVisualStyle
  2
Sketchy
 70
    24
177
     3
291
     0
 70
    58
 90
        1
176
     1
 90
        2
176
     1
 90
        2
176
     1
 90
        0
176
     1
 40
0.6
176
     1
 40
30.0
176
     1
 62
     7
420
 16777215
176
     1
 90
        2
176
     1
 90
        2
176
     1
 62
     7
176
     1
 62
     7
176
     1
 90
        1
176
     1
 90
        1
176
     1
 40
40.0
176
     1
 90
       11
176
     1
 62
     7
176
     1
 40
1.0
176
     1
 90
        1
176
     1
 90
        6
176
     1
 90
        2
176
     1
 62
     7
176
     1
 90
        6
176
     1
 90
        0
176
     1
 90
        0
176
     1
290
     0
176
     1
 90
        1
176
     1
 40
0.0
176
     1
 90
        0
176
     1
290
     0
176
     1
290
     1
176
     1
290
     1
176
     1
290
     0
176
     1
290
     0
176
     1
290
     0
176
     1
290
     0
176
     1
290
     0
176
     1
290
     0
176
     1
 90
       50
176
     1
 40
0.0
176
     1
 40
1.0
176
     1
 90
        0
176
     1
 62
    18
420
        0
176
     1
 90
       50
176
     1
 90
        3
176
     1
 62
     5
420
      255
176
     1
290
     0
176
     1
 90
       50
176
     1
 90
       50
176
     1
 90
       50
176
     1
290
     0
176
     1
 90
       50
176
     1
 62
   256
176
     0
 40
1.0
176
     0
 90
        2
176
     1
  1
strokes_ogs.tif
176
     1
290
     0
176
     1
 40
1.0
176
     1
 40
1.0
176
     1
  0
VISUALSTYLE
  5
36
102
{ACAD_REACTORS
330
29
102
}
330
29
100
AcDbVisualStyle
  2
Thicken
 70
    13
177
     3
291
     1
 70
    58
 90
        2
176
     1
 90
        2
176
     1
 90
        0
176
     1
 90
        0
176
     1
 40
0.6
176
     1
 40
30.0
176
     1
 62
     7
420
 16777215
176
     1
 90
        1
176
     1
 90
        4
176
     1
 62
     7
176
     1
 62
   257
176
     1
 90
        1
176
     1
 90
        1
176
     1
 40
1.0
176
     1
 90
       12
176
     1
 62
     7
176
     1
 40
1.0
176
     1
 90
        1
176
     1
 90
        6
176
     1
 90
        2
176
     1
 62
     7
176
     1
 90
        5
176
     1
 90
        0
176
     1
 90
        0
176
     1
290
     0
176
     1
 90
        1
176
     1
 40
0.0
176
     1
 90
        0
176
     1
290
     0
176
     1
290
     1
176
     1
290
     1
176
     1
290
     0
176
     1
290
     0
176
     1
290
     0
176
     1
290
     0
176
     1
290
     0
176
     1
290
     0
176
     1
 90
       50
176
     1
 40
0.0
176
     1
 40
1.0
176
     1
 90
        0
176
     1
 62
    18
420
        0
176
     1
 90
       50
176
     1
 90
        3
176
     1
 62
     5
420
      255
176
     1
290
     0
176
     1
 90
       50
176
     1
 90
       50
176
     1
 90
       50
176
     1
290
     0
176
     1
 90
       50
176
     1
 62
   256
176
     0
 40
1.0
176
     0
 90
        2
176
     1
  1
strokes_ogs.tif
176
     1
290
     0
176
     1
 40
1.0
176
     1
 40
1.0
176
     1
  0
VISUALSTYLE
  5
30
102
{ACAD_REACTORS
330
29
102
}
330
29
100
AcDbVisualStyle
  2
Wireframe
 70
     5
177
     3
291
     0
 70
    58
 90
        0
176
     1
 90
        2
176
     1
 90
        0
176
     1
 90
        0
176
     1
 40
0.6
176
     1
 40
30.0
176
     1
 62
     7
420
 16777215
176
     1
 90
        1
176
     1
 90
        4
176
     1
 62
     7
176
     1
 62
   257
176
     1
 90
        1
176
     1
 90
        1
176
     1
 40
1.0
176
     1
 90
        0
176
     1
 62
   257
176
     1
 40
1.0
176
     1
 90
        1
176
     1
 90
        6
176
     1
 90
        2
176
     1
 62
     7
176
     1
 90
        3
176
     1
 90
        0
176
     1
 90
        0
176
     1
290
     0
176
     1
 90
        1
176
     1
 40
0.0
176
     1
 90
        0
176
     1
290
     0
176
     1
290
     1
176
     1
290
     1
176
     1
290
     0
176
     1
290
     0
176
     1
290
     0
176
     1
290
     0
176
     1
290
     0
176
     1
290
     0
176
     1
 90
       50
176
     1
 40
0.0
176
     1
 40
1.0
176
     1
 90
        0
176
     1
 62
    18
420
        0
176
     1
 90
       50
176
     1
 90
        3
176
     1
 62
     5
420
      255
176
     1
290
     0
176
     1
 90
       50
176
     1
 90
       50
176
     1
 90
       50
176
     1
290
     0
176
     1
 90
       50
176
     1
 62
   256
176
     0
 40
1.0
176
     0
 90
        2
176
     1
  1
strokes_ogs.tif
176
     1
290
     0
176
     1
 40
1.0
176
     1
 40
1.0
176
     1
  0
VISUALSTYLE
  5
3C
102
{ACAD_REACTORS
330
29
102
}
330
29
100
AcDbVisualStyle
  2
X-Ray
 70
    25
177
     3
291
     0
 70
    58
 90
        2
176
     1
 90
        2
176
     1
 90
        1
176
     1
 90
        1
176
     1
 40
0.5
176
     1
 40
30.0
176
     1
 62
     7
420
 16777215
176
     1
 90
        1
176
     1
 90
        0
176
     1
 62
     7
176
     1
 62
   257
176
     1
 90
        1
176
     1
 90
        1
176
     1
 40
1.0
176
     1
 90
        8
176
     1
 62
     7
176
     1
 40
1.0
176
     1
 90
        1
176
     1
 90
        6
176
     1
 90
        2
176
     1
 62
     7
176
     1
 90
        3
176
     1
 90
        0
176
     1
 90
        0
176
     1
290
     0
176
     1
 90
       13
176
     1
 40
0.0
176
     1
 90
        0
176
     1
290
     0
176
     1
290
     1
176
     1
290
     1
176
     1
290
     0
176
     1
290
     0
176
     1
290
     0
176
     1
290
     0
176
     1
290
     0
176
     1
290
     0
176
     1
 90
       50
176
     1
 40
0.0
176
     1
 40
1.0
176
     1
 90
        0
176
     1
 62
    18
420
        0
176
     1
 90
       50
176
     1
 90
        3
176
     1
 62
     5
420
      255
176
     1
290
     0
176
     1
 90
       50
176
     1
 90
       50
176
     1
 90
       50
176
     1
290
     0
176
     1
 90
       50
176
     1
 62
   256
176
     0
 40
1.0
176
     0
 90
        2
176
     1
  1
strokes_ogs.tif
176
     1
290
     0
176
     1
 40
1.0
176
     1
 40
1.0
176
     1
  0
DICTIONARYVAR
  5
A0
102
{ACAD_REACTORS
330
9B
102
}
330
9B
100
DictionaryVariables
280
     0
  1
1:1
  0
DICTIONARYVAR
  5
9D
102
{ACAD_REACTORS
330
9B
102
}
330
9B
100
DictionaryVariables
280
     0
  1
STANDARD
  0
DICTIONARYVAR
  5
9C
102
{ACAD_REACTORS
330
9B
102
}
330
9B
100
DictionaryVariables
280
     0
  1
STANDARD
  0
DICTIONARYVAR
  5
9E
102
{ACAD_REACTORS
330
9B
102
}
330
9B
100
DictionaryVariables
280
     0
  1
Imperial24
  0
DICTIONARYVAR
  5
9F
102
{ACAD_REACTORS
330
9B
102
}
330
9B
100
DictionaryVariables
280
     0
  1
Imperial24
  0
DICTIONARY
  5
1A
330
19
100
AcDbDictionary
280
     1
281
     1
  3
BUMPTILE
360
1C
  3
DIFFUSETILE
360
1B
  3
OPACITYTILE
360
1F
  3
REFLECTIONTILE
360
1E
  3
REFRACTIONTILE
360
20
  3
SPECULARTILE
360
1D
  0
DICTIONARY
  5
12
330
11
100
AcDbDictionary
280
     1
281
     1
  3
BUMPTILE
360
14
  3
DIFFUSETILE
360
13
  3
OPACITYTILE
360
17
  3
REFLECTIONTILE
360
16
  3
REFRACTIONTILE
360
18
  3
SPECULARTILE
360
15
  0
DICTIONARY
  5
22
330
21
100
AcDbDictionary
280
     1
281
     1
  3
BUMPTILE
360
24
  3
DIFFUSETILE
360
23
  3
OPACITYTILE
360
27
  3
REFLECTIONTILE
360
26
  3
REFRACTIONTILE
360
28
  3
SPECULARTILE
360
25
  0
DICTIONARY
  5
A1
330
65
100
AcDbDictionary
280
     1
281
     1
  3
ACAD_ROUNDTRIP_2008_TABLESTYLE_CELLSTYLEMAP
360
A2
  0
XRECORD
  5
1C
102
{ACAD_REACTORS
330
1A
102
}
330
1A
100
AcDbXrecord
280
     1
270
     1
271
     1
  0
XRECORD
  5
1B
102
{ACAD_REACTORS
330
1A
102
}
330
1A
100
AcDbXrecord
280
     1
270
     1
271
     1
  0
XRECORD
  5
1F
102
{ACAD_REACTORS
330
1A
102
}
330
1A
100
AcDbXrecord
280
     1
270
     1
271
     1
  0
XRECORD
  5
1E
102
{ACAD_REACTORS
330
1A
102
}
330
1A
100
AcDbXrecord
280
     1
270
     1
271
     1
  0
XRECORD
  5
20
102
{ACAD_REACTORS
330
1A
102
}
330
1A
100
AcDbXrecord
280
     1
270
     1
271
     1
  0
XRECORD
  5
1D
102
{ACAD_REACTORS
330
1A
102
}
330
1A
100
AcDbXrecord
280
     1
270
     1
271
     1
  0
XRECORD
  5
14
102
{ACAD_REACTORS
330
12
102
}
330
12
100
AcDbXrecord
280
     1
270
     1
271
     1
  0
XRECORD
  5
13
102
{ACAD_REACTORS
330
12
102
}
330
12
100
AcDbXrecord
280
     1
270
     1
271
     1
  0
XRECORD
  5
17
102
{ACAD_REACTORS
330
12
102
}
330
12
100
AcDbXrecord
280
     1
270
     1
271
     1
  0
XRECORD
  5
16
102
{ACAD_REACTORS
330
12
102
}
330
12
100
AcDbXrecord
280
     1
270
     1
271
     1
  0
XRECORD
  5
18
102
{ACAD_REACTORS
330
12
102
}
330
12
100
AcDbXrecord
280
     1
270
     1
271
     1
  0
XRECORD
  5
15
102
{ACAD_REACTORS
330
12
102
}
330
12
100
AcDbXrecord
280
     1
270
     1
271
     1
  0
XRECORD
  5
24
102
{ACAD_REACTORS
330
22
102
}
330
22
100
AcDbXrecord
280
     1
270
     1
271
     1
  0
XRECORD
  5
23
102
{ACAD_REACTORS
330
22
102
}
330
22
100
AcDbXrecord
280
     1
270
     1
271
     1
  0
XRECORD
  5
27
102
{ACAD_REACTORS
330
22
102
}
330
22
100
AcDbXrecord
280
     1
270
     1
271
     1
  0
XRECORD
  5
26
102
{ACAD_REACTORS
330
22
102
}
330
22
100
AcDbXrecord
280
     1
270
     1
271
     1
  0
XRECORD
  5
28
102
{ACAD_REACTORS
330
22
102
}
330
22
100
AcDbXrecord
280
     1
270
     1
271
     1
  0
XRECORD
  5
25
102
{ACAD_REACTORS
330
22
102
}
330
22
100
AcDbXrecord
280
     1
270
     1
271
     1
  0
CELLSTYLEMAP
  5
A2
102
{ACAD_REACTORS
330
A1
102
}
330
A1
100
AcDbCellStyleMap
 90
        3
300
CELLSTYLE
  1
TABLEFORMAT_BEGIN
 90
        5
170
     1
 91
        0
 92
    32768
 62
   257
 93
        1
300
CONTENTFORMAT
  1
CONTENTFORMAT_BEGIN
 90
        0
 91
        0
 92
      512
 93
        0
300

 40
0.0
140
1.0
 94
        5
 62
     0
340
55
144
0.25
309
CONTENTFORMAT_END
171
     0
 94
        0
309
TABLEFORMAT_END
  1
CELLSTYLE_BEGIN
 90
        1
 91
        1
300
_TITLE
309
CELLSTYLE_END
300
CELLSTYLE
  1
TABLEFORMAT_BEGIN
 90
        5
170
     1
 91
        0
 92
        0
 62
   257
 93
        1
300
CONTENTFORMAT
  1
CONTENTFORMAT_BEGIN
 90
        0
 91
        0
 92
      512
 93
        0
300

 40
0.0
140
1.0
 94
        5
 62
     0
340
55
144
0.18
309
CONTENTFORMAT_END
171
     0
 94
        0
309
TABLEFORMAT_END
  1
CELLSTYLE_BEGIN
 90
        2
 91
        1
300
_HEADER
309
CELLSTYLE_END
300
CELLSTYLE
  1
TABLEFORMAT_BEGIN
 90
        5
170
     1
 91
        0
 92
        0
 62
   257
 93
        1
300
CONTENTFORMAT
  1
CONTENTFORMAT_BEGIN
 90
        0
 91
        0
 92
      512
 93
        0
300

 40
0.0
140
1.0
 94
        2
 62
     0
340
55
144
0.18
309
CONTENTFORMAT_END
171
     0
 94
        0
309
TABLEFORMAT_END
  1
CELLSTYLE_BEGIN
 90
        3
 91
        2
300
_DATA
309
CELLSTYLE_END
  0
ENDSEC
  0
EOF
