  0
SECTION
  2
HEADER
  9
$ACADVER
  1
AC1006
  9
$EXTMIN
 10
0.000000
 20
0.000000
 30
0.000000
  9
$EXTMAX
 10
5334.000000
 20
5442.000000
 30
0.000000
  0
ENDSEC
  0
SECTION
  2
ENTITIES
  0
POLYLINE
  8
0
 66
1
 70
1
  0
VERTEX
  8
0
 10
2677.000000
 20
5390.330706
 42
0.031077
  0
VERTEX
  8
0
 10
2661.397188
 20
5388.292151
 42
0.034384
  0
VERTEX
  8
0
 10
2646.699731
 20
5384.369837
 42
0.034214
  0
VERTEX
  8
0
 10
2632.615291
 20
5378.449277
 42
0.030194
  0
VERTEX
  8
0
 10
2618.843482
 20
5370.440950
 42
0.031978
  0
VERTEX
  8
0
 10
2606.697890
 20
5361.188434
 42
0.034123
  0
VERTEX
  8
0
 10
2596.109898
 20
5350.647627
 42
0.033696
  0
VERTEX
  8
0
 10
2586.941658
 20
5338.638449
 42
0.029681
  0
VERTEX
  8
0
 10
2579.035936
 20
5325.000000
 42
0.005068
  0
VERTEX
  8
0
 10
2575.223932
 20
5317.225058
 42
0.000002
  0
VERTEX
  8
0
 10
2428.859032
 20
5010.881250
 42
0.000029
  0
VERTEX
  8
0
 10
2266.462482
 20
4670.929566
 42
0.000018
  0
VERTEX
  8
0
 10
2074.504687
 20
4269.000000
 42
-0.000041
  0
VERTEX
  8
0
 10
1882.795368
 20
3867.639150
 42
-0.000068
  0
VERTEX
  8
0
 10
1721.223172
 20
3529.563248
 42
-0.000001
  0
VERTEX
  8
0
 10
1574.378394
 20
3222.412036
 42
-0.079309
  0
VERTEX
  8
0
 10
1573.625627
 20
3221.321696
 42
-0.126910
  0
VERTEX
  8
0
 10
1572.574099
 20
3220.668594
 42
-0.000539
  0
VERTEX
  8
0
 10
1559.611903
 20
3216.627081
 42
-0.002594
  0
VERTEX
  8
0
 10
1544.831652
 20
3212.120131
 42
-0.001627
  0
VERTEX
  8
0
 10
1527.500000
 20
3206.994666
 42
0.000609
  0
VERTEX
  8
0
 10
1485.077503
 20
3194.543002
 42
0.000835
  0
VERTEX
  8
0
 10
1446.940053
 20
3183.229395
 42
0.000821
  0
VERTEX
  8
0
 10
1408.346530
 20
3171.641342
 42
0.000559
  0
VERTEX
  8
0
 10
1364.500000
 20
3158.343978
 42
0.001246
  0
VERTEX
  8
0
 10
1305.675450
 20
3140.271968
 42
0.000913
  0
VERTEX
  8
0
 10
1240.479007
 20
3119.933850
 42
0.000053
  0
VERTEX
  8
0
 10
1173.156050
 20
3098.789542
 42
0.120827
  0
VERTEX
  8
0
 10
1171.379239
 20
3097.712573
 42
0.546218
  0
VERTEX
  8
0
 10
1171.487422
 20
3097.215917
 42
0.000092
  0
VERTEX
  8
0
 10
1202.465074
 20
3085.687579
 42
0.000239
  0
VERTEX
  8
0
 10
1232.813625
 20
3074.416209
 42
0.089017
  0
VERTEX
  8
0
 10
1235.132911
 20
3074.000000
 42
0.072142
  0
VERTEX
  8
0
 10
1235.944599
 20
3074.117727
 42
0.000282
  0
VERTEX
  8
0
 10
1244.882255
 20
3076.771559
 42
0.001438
  0
VERTEX
  8
0
 10
1255.015096
 20
3079.818244
 42
0.000903
  0
VERTEX
  8
0
 10
1266.843095
 20
3083.435094
 42
-0.002115
  0
VERTEX
  8
0
 10
1311.493436
 20
3096.970366
 42
-0.001826
  0
VERTEX
  8
0
 10
1358.499163
 20
3110.816067
 42
-0.001838
  0
VERTEX
  8
0
 10
1405.218905
 20
3124.206268
 42
-0.002248
  0
VERTEX
  8
0
 10
1449.000000
 20
3136.367921
 42
-0.002472
  0
VERTEX
  8
0
 10
1477.505118
 20
3143.997058
 42
-0.001698
  0
VERTEX
  8
0
 10
1509.903563
 20
3152.379320
 42
-0.000098
  0
VERTEX
  8
0
 10
1543.699337
 20
3160.993712
 42
-0.264625
  0
VERTEX
  8
0
 10
1544.582017
 20
3160.751317
 42
-0.317546
  0
VERTEX
  8
0
 10
1544.712867
 20
3159.991082
 42
-0.000017
  0
VERTEX
  8
0
 10
1510.920553
 20
3089.048441
 42
-0.000068
  0
VERTEX
  8
0
 10
1477.697384
 20
3019.331343
 42
-0.058969
  0
VERTEX
  8
0
 10
1475.717728
 20
3016.192225
 42
-0.126162
  0
VERTEX
  8
0
 10
1473.388765
 20
3014.460558
 42
-0.017371
  0
VERTEX
  8
0
 10
1467.674062
 20
3012.351086
 42
-0.009161
  0
VERTEX
  8
0
 10
1457.511868
 20
3009.201369
 42
-0.001042
  0
VERTEX
  8
0
 10
1434.405592
 20
3002.553302
 42
0.003456
  0
VERTEX
  8
0
 10
1294.895846
 20
2961.683438
 42
0.004051
  0
VERTEX
  8
0
 10
1163.175468
 20
2920.938460
 42
0.004400
  0
VERTEX
  8
0
 10
1046.772667
 20
2882.764570
 42
0.008644
  0
VERTEX
  8
0
 10
955.000000
 20
2849.992896
 42
0.004286
  0
VERTEX
  8
0
 10
918.738401
 20
2835.976592
 42
0.005666
  0
VERTEX
  8
0
 10
885.968115
 20
2822.554150
 42
0.006117
  0
VERTEX
  8
0
 10
855.764639
 20
2809.343593
 42
0.007016
  0
VERTEX
  8
0
 10
827.252330
 20
2795.970002
 42
0.003732
  0
VERTEX
  8
0
 10
810.756620
 20
2787.795678
 42
0.074076
  0
VERTEX
  8
0
 10
806.164309
 20
2784.548826
 42
0.609866
  0
VERTEX
  8
0
 10
806.682098
 20
2782.799594
 42
0.048533
  0
VERTEX
  8
0
 10
812.895787
 20
2782.234273
 42
-0.037118
  0
VERTEX
  8
0
 10
819.059996
 20
2781.814818
 42
-0.043768
  0
VERTEX
  8
0
 10
824.752673
 20
2780.484166
 42
-0.044933
  0
VERTEX
  8
0
 10
830.000175
 20
2778.222681
 42
-0.043071
  0
VERTEX
  8
0
 10
834.839209
 20
2775.032863
 42
-0.064054
  0
VERTEX
  8
0
 10
840.909656
 20
2768.822051
 42
-0.055170
  0
VERTEX
  8
0
 10
845.572724
 20
2760.968388
 42
-0.056447
  0
VERTEX
  8
0
 10
848.314556
 20
2752.490799
 42
-0.075863
  0
VERTEX
  8
0
 10
848.706033
 20
2744.440681
 42
0.000000
  0
VERTEX
  8
0
 10
848.168389
 20
2739.231407
 42
0.000000
  0
VERTEX
  8
0
 10
858.834194
 20
2745.226309
 42
-0.016808
  0
VERTEX
  8
0
 10
915.964151
 20
2774.856126
 42
-0.009325
  0
VERTEX
  8
0
 10
987.463978
 20
2807.317872
 42
-0.008654
  0
VERTEX
  8
0
 10
1067.869927
 20
2840.390518
 42
-0.007714
  0
VERTEX
  8
0
 10
1152.500000
 20
2872.003277
 42
-0.003123
  0
VERTEX
  8
0
 10
1174.246881
 20
2879.593746
 42
-0.000747
  0
VERTEX
  8
0
 10
1210.476162
 20
2891.925421
 42
-0.000059
  0
VERTEX
  8
0
 10
1251.264582
 20
2905.735634
 42
-0.081769
  0
VERTEX
  8
0
 10
1252.870322
 20
2906.000000
 42
-0.754769
  0
VERTEX
  8
0
 10
1252.901726
 20
2905.889838
 42
-0.000548
  0
VERTEX
  8
0
 10
1249.000902
 20
2903.475025
 42
-0.002638
  0
VERTEX
  8
0
 10
1244.455788
 20
2900.701267
 42
-0.001517
  0
VERTEX
  8
0
 10
1238.951057
 20
2897.404341
 42
0.008524
  0
VERTEX
  8
0
 10
1222.772680
 20
2887.404002
 42
0.005010
  0
VERTEX
  8
0
 10
1203.753757
 20
2874.924063
 42
0.004976
  0
VERTEX
  8
0
 10
1185.606506
 20
2862.490654
 42
0.011997
  0
VERTEX
  8
0
 10
1172.500000
 20
2852.841292
 42
0.020979
  0
VERTEX
  8
0
 10
1160.019700
 20
2842.317077
 42
0.010045
  0
VERTEX
  8
0
 10
1144.857554
 20
2827.830616
 42
0.009327
  0
VERTEX
  8
0
 10
1130.841677
 20
2813.360167
 42
0.038141
  0
VERTEX
  8
0
 10
1123.208687
 20
2803.815098
 42
0.020009
  0
VERTEX
  8
0
 10
1118.578107
 20
2796.401043
 42
0.016681
  0
VERTEX
  8
0
 10
1114.248140
 20
2788.182865
 42
0.017176
  0
VERTEX
  8
0
 10
1110.706147
 20
2780.191531
 42
0.033069
  0
VERTEX
  8
0
 10
1108.525868
 20
2773.539901
 42
0.041504
  0
VERTEX
  8
0
 10
1107.437843
 20
2767.111766
 42
0.019972
  0
VERTEX
  8
0
 10
1107.063486
 20
2758.755834
 42
0.019633
  0
VERTEX
  8
0
 10
1107.344379
 20
2750.600210
 42
0.055329
  0
VERTEX
  8
0
 10
1108.387959
 20
2745.000000
 42
0.020260
  0
VERTEX
  8
0
 10
1109.897584
 20
2740.667601
 42
0.014345
  0
VERTEX
  8
0
 10
1111.924637
 20
2735.932646
 42
0.006312
  0
VERTEX
  8
0
 10
1114.037146
 20
2731.512218
 42
0.287846
  0
VERTEX
  8
0
 10
1114.860127
 20
2731.005577
 42
0.051674
  0
VERTEX
  8
0
 10
1115.281450
 20
2731.052951
 42
0.003335
  0
VERTEX
  8
0
 10
1116.487037
 20
2731.324947
 42
0.004840
  0
VERTEX
  8
0
 10
1117.921229
 20
2731.673254
 42
0.003586
  0
VERTEX
  8
0
 10
1119.500000
 20
2732.084963
 42
0.043051
  0
VERTEX
  8
0
 10
1123.371301
 20
2733.490718
 42
0.212946
  0
VERTEX
  8
0
 10
1124.858514
 20
2735.197339
 42
0.162078
  0
VERTEX
  8
0
 10
1124.796399
 20
2737.766100
 42
0.023041
  0
VERTEX
  8
0
 10
1122.754350
 20
2742.711248
 42
-0.240583
  0
VERTEX
  8
0
 10
1124.050475
 20
2780.257887
 42
-0.084128
  0
VERTEX
  8
0
 10
1158.810189
 20
2823.723724
 42
-0.054046
  0
VERTEX
  8
0
 10
1224.421148
 20
2870.602684
 42
-0.024105
  0
VERTEX
  8
0
 10
1319.500000
 20
2918.208234
 42
-0.005383
  0
VERTEX
  8
0
 10
1340.870809
 20
2927.375886
 42
-0.003136
  0
VERTEX
  8
0
 10
1366.691408
 20
2937.935225
 42
-0.002743
  0
VERTEX
  8
0
 10
1391.016336
 20
2947.550653
 42
-0.014558
  0
VERTEX
  8
0
 10
1404.500000
 20
2952.348264
 42
-0.007182
  0
VERTEX
  8
0
 10
1415.009104
 20
2955.580263
 42
-0.001879
  0
VERTEX
  8
0
 10
1431.962381
 20
2960.459664
 42
-0.000132
  0
VERTEX
  8
0
 10
1451.039782
 20
2965.867414
 42
-0.271745
  0
VERTEX
  8
0
 10
1451.615938
 20
2965.717395
 42
-0.317017
  0
VERTEX
  8
0
 10
1451.658633
 20
2965.470757
 42
-0.000010
  0
VERTEX
  8
0
 10
1437.141443
 20
2934.841098
 42
-0.000474
  0
VERTEX
  8
0
 10
1421.089225
 20
2901.057136
 42
-0.000284
  0
VERTEX
  8
0
 10
1401.970795
 20
2860.976861
 42
0.000665
  0
VERTEX
  8
0
 10
1382.889212
 20
2820.895365
 42
0.001111
  0
VERTEX
  8
0
 10
1366.952203
 20
2787.110540
 42
0.000050
  0
VERTEX
  8
0
 10
1352.667572
 20
2756.645509
 42
0.445237
  0
VERTEX
  8
0
 10
1352.843287
 20
2756.229234
 42
0.108097
  0
VERTEX
  8
0
 10
1353.981941
 20
2756.093964
 42
0.000008
  0
VERTEX
  8
0
 10
1446.840098
 20
2765.141822
 42
0.000338
  0
VERTEX
  8
0
 10
1529.625679
 20
2773.266118
 42
0.000975
  0
VERTEX
  8
0
 10
1587.000000
 20
2779.048762
 42
0.003220
  0
VERTEX
  8
0
 10
1729.878311
 20
2794.661134
 42
0.002894
  0
VERTEX
  8
0
 10
1877.737166
 20
2812.649790
 42
0.002823
  0
VERTEX
  8
0
 10
2029.191674
 20
2832.835573
 42
0.002690
  0
VERTEX
  8
0
 10
2182.866780
 20
2855.044335
 42
-0.000221
  0
VERTEX
  8
0
 10
2200.697338
 20
2857.711093
 42
-0.000361
  0
VERTEX
  8
0
 10
2215.832930
 20
2859.956773
 42
-0.000035
  0
VERTEX
  8
0
 10
2229.381481
 20
2861.956014
 42
-0.036625
  0
VERTEX
  8
0
 10
2229.981175
 20
2862.000000
 42
0.287785
  0
VERTEX
  8
0
 10
2230.420786
 20
2862.275875
 42
0.000019
  0
VERTEX
  8
0
 10
2250.849809
 20
2904.577449
 42
0.000654
  0
VERTEX
  8
0
 10
2273.368332
 20
2951.366496
 42
0.000393
  0
VERTEX
  8
0
 10
2299.973489
 20
3006.944506
 42
-0.000251
  0
VERTEX
  8
0
 10
2343.552596
 20
3098.047464
 42
-0.003396
  0
VERTEX
  8
0
 10
2359.731444
 20
3131.245409
 42
-0.003165
  0
VERTEX
  8
0
 10
2369.375875
 20
3150.393074
 42
-0.230991
  0
VERTEX
  8
0
 10
2372.109093
 20
3152.444506
 42
0.000039
  0
VERTEX
  8
0
 10
2373.428837
 20
3152.698204
 42
0.000023
  0
VERTEX
  8
0
 10
2375.015890
 20
3153.003490
 42
0.000022
  0
VERTEX
  8
0
 10
2376.608078
 20
3153.309913
 42
0.000038
  0
VERTEX
  8
0
 10
2377.945000
 20
3153.567375
 42
0.612780
  0
VERTEX
  8
0
 10
2378.429669
 20
3155.246892
 42
0.002910
  0
VERTEX
  8
0
 10
2361.681588
 20
3170.736888
 42
0.003267
  0
VERTEX
  8
0
 10
2332.435611
 20
3197.123198
 42
0.000249
  0
VERTEX
  8
0
 10
2252.997785
 20
3267.786827
 42
-0.000229
  0
VERTEX
  8
0
 10
2203.978658
 20
3311.388204
 42
-0.000383
  0
VERTEX
  8
0
 10
2162.761086
 20
3348.140784
 42
-0.000006
  0
VERTEX
  8
0
 10
2125.409029
 20
3381.498759
 42
-0.430835
  0
VERTEX
  8
0
 10
2125.402344
 20
3381.735678
 42
-0.283393
  0
VERTEX
  8
0
 10
2125.688445
 20
3381.803600
 42
-0.000003
  0
VERTEX
  8
0
 10
2193.145195
 20
3359.507761
 42
-0.000242
  0
VERTEX
  8
0
 10
2267.423366
 20
3334.917019
 42
-0.000145
  0
VERTEX
  8
0
 10
2355.599559
 20
3305.649430
 42
0.000217
  0
VERTEX
  8
0
 10
2482.318878
 20
3263.608821
 42
0.001560
  0
VERTEX
  8
0
 10
2543.558659
 20
3243.533116
 42
0.000303
  0
VERTEX
  8
0
 10
2584.713919
 20
3230.211166
 42
0.402311
  0
VERTEX
  8
0
 10
2586.096153
 20
3230.883205
 42
0.038629
  0
VERTEX
  8
0
 10
2587.811539
 20
3236.938831
 42
0.000279
  0
VERTEX
  8
0
 10
2598.195267
 20
3288.624149
 42
0.000053
  0
VERTEX
  8
0
 10
2609.002250
 20
3342.601511
 42
0.250791
  0
VERTEX
  8
0
 10
2608.685508
 20
3343.647826
 42
0.242272
  0
VERTEX
  8
0
 10
2606.803076
 20
3344.250850
 42
0.000210
  0
VERTEX
  8
0
 10
2558.566382
 20
3336.179581
 42
0.002378
  0
VERTEX
  8
0
 10
2510.701082
 20
3327.915462
 42
0.002855
  0
VERTEX
  8
0
 10
2465.750000
 20
3319.669089
 42
-0.001012
  0
VERTEX
  8
0
 10
2458.943618
 20
3318.394493
 42
-0.001693
  0
VERTEX
  8
0
 10
2453.214063
 20
3317.353598
 42
-0.000118
  0
VERTEX
  8
0
 10
2448.079366
 20
3316.439967
 42
-0.466710
  0
VERTEX
  8
0
 10
2448.000000
 20
3316.506474
 42
-0.108693
  0
VERTEX
  8
0
 10
2448.033536
 20
3316.658919
 42
-0.000118
  0
VERTEX
  8
0
 10
2449.450477
 20
3319.721697
 42
-0.001116
  0
VERTEX
  8
0
 10
2451.044672
 20
3323.145412
 42
-0.000685
  0
VERTEX
  8
0
 10
2452.937795
 20
3327.173125
 42
0.000000
  0
VERTEX
  8
0
 10
2457.875589
 20
3337.641244
 42
0.000000
  0
VERTEX
  8
0
 10
2479.187795
 20
3340.877691
 42
-0.000191
  0
VERTEX
  8
0
 10
2490.893866
 20
3342.650777
 42
-0.000044
  0
VERTEX
  8
0
 10
2510.656108
 20
3345.634590
 42
-0.000045
  0
VERTEX
  8
0
 10
2533.427137
 20
3349.068522
 42
-0.000044
  0
VERTEX
  8
0
 10
2556.386189
 20
3352.526591
 42
0.000677
  0
VERTEX
  8
0
 10
2577.848783
 20
3355.787054
 42
0.001113
  0
VERTEX
  8
0
 10
2595.998725
 20
3358.610801
 42
0.000084
  0
VERTEX
  8
0
 10
2612.286147
 20
3361.184738
 42
0.158429
  0
VERTEX
  8
0
 10
2612.758897
 20
3361.425564
 42
0.146297
  0
VERTEX
  8
0
 10
2613.236884
 20
3362.311291
 42
0.000019
  0
VERTEX
  8
0
 10
2626.038926
 20
3424.101597
 42
0.000012
  0
VERTEX
  8
0
 10
2638.877548
 20
3486.087611
 42
0.284448
  0
VERTEX
  8
0
 10
2638.689048
 20
3486.603935
 42
0.219647
  0
VERTEX
  8
0
 10
2638.386941
 20
3486.675969
 42
0.000005
  0
VERTEX
  8
0
 10
2590.226714
 20
3476.995105
 42
0.000289
  0
VERTEX
  8
0
 10
2548.260733
 20
3468.533755
 42
0.001884
  0
VERTEX
  8
0
 10
2527.187770
 20
3464.189585
 42
-0.003298
  0
VERTEX
  8
0
 10
2521.643371
 20
3463.062957
 42
-0.039236
  0
VERTEX
  8
0
 10
2519.468651
 20
3462.810781
 42
-0.203337
  0
VERTEX
  8
0
 10
2518.638430
 20
3463.127260
 42
-0.296291
  0
VERTEX
  8
0
 10
2518.465858
 20
3463.866640
 42
-0.024829
  0
VERTEX
  8
0
 10
2520.895914
 20
3469.671556
 42
-0.000014
  0
VERTEX
  8
0
 10
2601.615432
 20
3638.437595
 42
-0.000002
  0
VERTEX
  8
0
 10
2683.523933
 20
3809.675778
 42
-0.287008
  0
VERTEX
  8
0
 10
2684.029107
 20
3809.996481
 42
-0.290035
  0
VERTEX
  8
0
 10
2684.340473
 20
3809.802167
 42
-0.000010
  0
VERTEX
  8
0
 10
2704.200336
 20
3768.506779
 42
-0.000477
  0
VERTEX
  8
0
 10
2726.073433
 20
3722.911427
 42
-0.000287
  0
VERTEX
  8
0
 10
2751.954120
 20
3668.750000
 42
0.000029
  0
VERTEX
  8
0
 10
2777.920680
 20
3614.336670
 42
0.000046
  0
VERTEX
  8
0
 10
2800.081350
 20
3567.916477
 42
0.000007
  0
VERTEX
  8
0
 10
2819.736315
 20
3526.756280
 42
0.002856
  0
VERTEX
  8
0
 10
2821.150439
 20
3523.838006
 42
0.000000
  0
VERTEX
  8
0
 10
2822.950853
 20
3520.176012
 42
0.000000
  0
VERTEX
  8
0
 10
2813.725427
 20
3518.563628
 42
0.000277
  0
VERTEX
  8
0
 10
2771.885353
 20
3511.227124
 42
0.001111
  0
VERTEX
  8
0
 10
2746.314127
 20
3506.670119
 42
0.000162
  0
VERTEX
  8
0
 10
2727.263948
 20
3503.225140
 42
0.152713
  0
VERTEX
  8
0
 10
2726.482869
 20
3502.816202
 42
0.251549
  0
VERTEX
  8
0
 10
2726.202978
 20
3501.886844
 42
0.000034
  0
VERTEX
  8
0
 10
2738.315959
 20
3442.258774
 42
0.000046
  0
VERTEX
  8
0
 10
2750.403093
 20
3382.806543
 42
0.170349
  0
VERTEX
  8
0
 10
2751.111688
 20
3381.619386
 42
0.212215
  0
VERTEX
  8
0
 10
2751.627142
 20
3381.472845
 42
0.000025
  0
VERTEX
  8
0
 10
2786.839762
 20
3386.481374
 42
0.000656
  0
VERTEX
  8
0
 10
2826.850122
 20
3392.227957
 42
0.000346
  0
VERTEX
  8
0
 10
2876.500000
 20
3399.460666
 42
0.000000
  0
VERTEX
  8
0
 10
2880.500000
 20
3400.046193
 42
0.000000
  0
VERTEX
  8
0
 10
2884.745356
 20
3390.851786
 42
-0.002939
  0
VERTEX
  8
0
 10
2886.355413
 20
3387.310243
 42
-0.004825
  0
VERTEX
  8
0
 10
2887.671565
 20
3384.291640
 42
-0.000982
  0
VERTEX
  8
0
 10
2888.790934
 20
3381.640747
 42
-0.315500
  0
VERTEX
  8
0
 10
2888.745356
 20
3381.430670
 42
-0.158576
  0
VERTEX
  8
0
 10
2888.509972
 20
3381.322324
 42
-0.000037
  0
VERTEX
  8
0
 10
2876.381448
 20
3379.899538
 42
-0.000733
  0
VERTEX
  8
0
 10
2862.929867
 20
3378.342535
 42
-0.000444
  0
VERTEX
  8
0
 10
2847.000000
 20
3376.536661
 42
0.000741
  0
VERTEX
  8
0
 10
2829.242980
 20
3374.512956
 42
0.000601
  0
VERTEX
  8
0
 10
2810.200000
 20
3372.290913
 42
0.000607
  0
VERTEX
  8
0
 10
2792.644459
 20
3370.199457
 42
0.001573
  0
VERTEX
  8
0
 10
2780.000000
 20
3368.637134
 42
0.001479
  0
VERTEX
  8
0
 10
2764.399959
 20
3366.612851
 42
0.017533
  0
VERTEX
  8
0
 10
2758.383702
 20
3365.598307
 42
0.048709
  0
VERTEX
  8
0
 10
2755.433092
 20
3364.687300
 42
0.330216
  0
VERTEX
  8
0
 10
2754.699416
 20
3363.452454
 42
0.025242
  0
VERTEX
  8
0
 10
2755.245222
 20
3359.895392
 42
0.000038
  0
VERTEX
  8
0
 10
2768.462530
 20
3295.618541
 42
0.000006
  0
VERTEX
  8
0
 10
2781.975838
 20
3229.931845
 42
0.162338
  0
VERTEX
  8
0
 10
2782.270780
 20
3229.422375
 42
0.267049
  0
VERTEX
  8
0
 10
2782.484786
 20
3229.378495
 42
0.000001
  0
VERTEX
  8
0
 10
2849.970466
 20
3251.719031
 42
0.000171
  0
VERTEX
  8
0
 10
2924.238520
 20
3276.333152
 42
0.000102
  0
VERTEX
  8
0
 10
3012.415913
 20
3305.610575
 42
-0.000154
  0
VERTEX
  8
0
 10
3100.599336
 20
3334.879844
 42
-0.000257
  0
VERTEX
  8
0
 10
3174.886678
 20
3359.469020
 42
-0.000003
  0
VERTEX
  8
0
 10
3242.343211
 20
3381.758292
 42
-0.283370
  0
VERTEX
  8
0
 10
3242.647233
 20
3381.686101
 42
-0.431009
  0
VERTEX
  8
0
 10
3242.640059
 20
3381.434473
 42
-0.000007
  0
VERTEX
  8
0
 10
3206.469296
 20
3349.169837
 42
-0.000420
  0
VERTEX
  8
0
 10
3166.538979
 20
3313.612884
 42
-0.000252
  0
VERTEX
  8
0
 10
3119.045389
 20
3271.435347
 42
0.000294
  0
VERTEX
  8
0
 10
3071.526126
 20
3229.227843
 42
0.000488
  0
VERTEX
  8
0
 10
3031.510011
 20
3193.572659
 42
0.000014
  0
VERTEX
  8
0
 10
2995.321013
 20
3161.262284
 42
0.191521
  0
VERTEX
  8
0
 10
2995.064070
 20
3160.748174
 42
0.134683
  0
VERTEX
  8
0
 10
2995.599954
 20
3157.848424
 42
0.000095
  0
VERTEX
  8
0
 10
3030.182849
 20
3086.381738
 42
0.000051
  0
VERTEX
  8
0
 10
3065.084078
 20
3014.310609
 42
0.331616
  0
VERTEX
  8
0
 10
3066.254217
 20
3013.702449
 42
0.011261
  0
VERTEX
  8
0
 10
3067.240611
 20
3013.885634
 42
0.000028
  0
VERTEX
  8
0
 10
3081.234051
 20
3016.812647
 42
0.000179
  0
VERTEX
  8
0
 10
3097.008945
 20
3020.119095
 42
0.000111
  0
VERTEX
  8
0
 10
3115.500000
 20
3024.006066
 42
0.001655
  0
VERTEX
  8
0
 10
3263.396583
 20
3055.641294
 42
0.001875
  0
VERTEX
  8
0
 10
3405.051383
 20
3086.989064
 42
0.001844
  0
VERTEX
  8
0
 10
3548.542053
 20
3119.864634
 42
0.001501
  0
VERTEX
  8
0
 10
3702.000000
 20
3156.106074
 42
-0.000040
  0
VERTEX
  8
0
 10
3734.953054
 20
3163.990146
 42
-0.000054
  0
VERTEX
  8
0
 10
3764.883439
 20
3171.145071
 42
-0.000038
  0
VERTEX
  8
0
 10
3789.989500
 20
3177.141875
 42
-0.000554
  0
VERTEX
  8
0
 10
3798.815963
 20
3179.239115
 42
0.004394
  0
VERTEX
  8
0
 10
3805.774800
 20
3180.949153
 42
0.025224
  0
VERTEX
  8
0
 10
3809.401529
 20
3182.071773
 42
0.051332
  0
VERTEX
  8
0
 10
3811.320033
 20
3183.006096
 42
0.336384
  0
VERTEX
  8
0
 10
3811.679448
 20
3183.943755
 42
0.040111
  0
VERTEX
  8
0
 10
3811.217097
 20
3185.160540
 42
0.000042
  0
VERTEX
  8
0
 10
3798.954415
 20
3210.980615
 42
0.000410
  0
VERTEX
  8
0
 10
3785.219325
 20
3239.833696
 42
0.000252
  0
VERTEX
  8
0
 10
3768.995582
 20
3273.798764
 42
-0.000632
  0
VERTEX
  8
0
 10
3752.837877
 20
3307.691787
 42
-0.001050
  0
VERTEX
  8
0
 10
3739.315060
 20
3336.305161
 42
-0.000047
  0
VERTEX
  8
0
 10
3727.178588
 20
3362.131688
 42
-0.316088
  0
VERTEX
  8
0
 10
3727.259158
 20
3362.592492
 42
-0.165335
  0
VERTEX
  8
0
 10
3729.289801
 20
3363.592741
 42
-0.000101
  0
VERTEX
  8
0
 10
3794.474885
 20
3372.100599
 42
-0.001462
  0
VERTEX
  8
0
 10
3854.908570
 20
3379.796252
 42
-0.002966
  0
VERTEX
  8
0
 10
3902.500000
 20
3385.428705
 42
-0.001106
  0
VERTEX
  8
0
 10
3949.177121
 20
3390.567841
 42
-0.014720
  0
VERTEX
  8
0
 10
3966.410983
 20
3391.914954
 42
-0.030507
  0
VERTEX
  8
0
 10
3979.355336
 20
3391.754101
 42
-0.012211
  0
VERTEX
  8
0
 10
3997.000000
 20
3390.022171
 42
-0.011352
  0
VERTEX
  8
0
 10
4064.734657
 20
3380.133509
 42
-0.018841
  0
VERTEX
  8
0
 10
4121.240211
 20
3368.364310
 42
-0.022435
  0
VERTEX
  8
0
 10
4166.979797
 20
3354.820187
 42
-0.045460
  0
VERTEX
  8
0
 10
4201.172378
 20
3339.402566
 42
-0.027250
  0
VERTEX
  8
0
 10
4210.453657
 20
3333.467309
 42
-0.029094
  0
VERTEX
  8
0
 10
4218.823564
 20
3326.676612
 42
-0.030772
  0
VERTEX
  8
0
 10
4225.309695
 20
3319.980803
 42
-0.094491
  0
VERTEX
  8
0
 10
4228.430505
 20
3314.524475
 42
-0.110217
  0
VERTEX
  8
0
 10
4229.087956
 20
3308.656631
 42
-0.073521
  0
VERTEX
  8
0
 10
4227.377095
 20
3302.086652
 42
-0.054113
  0
VERTEX
  8
0
 10
4223.165448
 20
3294.550961
 42
-0.024896
  0
VERTEX
  8
0
 10
4216.195771
 20
3285.709229
 42
-0.072393
  0
VERTEX
  8
0
 10
4172.858114
 20
3248.539645
 42
-0.025100
  0
VERTEX
  8
0
 10
4100.961552
 20
3207.925494
 42
-0.020797
  0
VERTEX
  8
0
 10
4005.146654
 20
3164.857553
 42
-0.011373
  0
VERTEX
  8
0
 10
3884.500000
 20
3119.707704
 42
-0.008702
  0
VERTEX
  8
0
 10
3730.815879
 20
3069.128334
 42
-0.007693
  0
VERTEX
  8
0
 10
3569.037467
 20
3021.703622
 42
-0.007201
  0
VERTEX
  8
0
 10
3395.406006
 20
2976.373592
 42
-0.005657
  0
VERTEX
  8
0
 10
3206.000000
 20
2932.094321
 42
-0.000973
  0
VERTEX
  8
0
 10
3172.677229
 20
2924.768721
 42
-0.000684
  0
VERTEX
  8
0
 10
3135.161602
 20
2916.651615
 42
-0.000681
  0
VERTEX
  8
0
 10
3099.909194
 20
2909.124864
 42
-0.001808
  0
VERTEX
  8
0
 10
3074.701520
 20
2903.873833
 42
0.000000
  0
VERTEX
  8
0
 10
3058.903040
 20
2900.642414
 42
0.000000
  0
VERTEX
  8
0
 10
3061.201520
 20
2898.453977
 42
0.008443
  0
VERTEX
  8
0
 10
3063.055972
 20
2896.747068
 42
0.000022
  0
VERTEX
  8
0
 10
3089.188884
 20
2873.498068
 42
0.000138
  0
VERTEX
  8
0
 10
3118.678010
 20
2847.280112
 42
0.000086
  0
VERTEX
  8
0
 10
3153.250000
 20
2816.570815
 42
-0.000184
  0
VERTEX
  8
0
 10
3187.664133
 20
2785.989605
 42
-0.000307
  0
VERTEX
  8
0
 10
3216.635938
 20
2760.193579
 42
-0.000005
  0
VERTEX
  8
0
 10
3242.903051
 20
2736.776366
 42
-0.213844
  0
VERTEX
  8
0
 10
3243.000000
 20
2736.560051
 42
-0.511219
  0
VERTEX
  8
0
 10
3242.760277
 20
2736.386865
 42
-0.000002
  0
VERTEX
  8
0
 10
3136.093318
 20
2771.680635
 42
-0.000276
  0
VERTEX
  8
0
 10
3033.188692
 20
2805.793037
 42
-0.000352
  0
VERTEX
  8
0
 10
2938.367491
 20
2837.357927
 42
0.000000
  0
VERTEX
  8
0
 10
2865.234983
 20
2861.760058
 42
0.000000
  0
VERTEX
  8
0
 10
2819.470324
 20
2852.950925
 42
0.001832
  0
VERTEX
  8
0
 10
2801.877933
 20
2849.497708
 42
0.002974
  0
VERTEX
  8
0
 10
2786.957635
 20
2846.419784
 42
0.000483
  0
VERTEX
  8
0
 10
2773.793679
 20
2843.609152
 42
0.204247
  0
VERTEX
  8
0
 10
2773.054095
 20
2843.087528
 42
0.088201
  0
VERTEX
  8
0
 10
2771.902299
 20
2840.183817
 42
0.000031
  0
VERTEX
  8
0
 10
2748.094236
 20
2723.703207
 42
0.000013
  0
VERTEX
  8
0
 10
2724.114698
 20
2606.331736
 42
0.251857
  0
VERTEX
  8
0
 10
2724.449733
 20
2605.216934
 42
0.244641
  0
VERTEX
  8
0
 10
2726.227312
 20
2604.656254
 42
0.000089
  0
VERTEX
  8
0
 10
2796.244428
 20
2616.999473
 42
0.001586
  0
VERTEX
  8
0
 10
2863.134714
 20
2629.022673
 42
0.002371
  0
VERTEX
  8
0
 10
2921.500000
 20
2639.991008
 42
0.010795
  0
VERTEX
  8
0
 10
3316.592577
 20
2725.065951
 42
0.012941
  0
VERTEX
  8
0
 10
3684.263247
 20
2822.701307
 42
0.013468
  0
VERTEX
  8
0
 10
4033.078544
 20
2935.350825
 42
0.013915
  0
VERTEX
  8
0
 10
4371.500000
 20
3065.499490
 42
0.005587
  0
VERTEX
  8
0
 10
4471.615690
 20
3108.554467
 42
0.007001
  0
VERTEX
  8
0
 10
4563.432650
 20
3150.810144
 42
0.007669
  0
VERTEX
  8
0
 10
4645.256281
 20
3191.416529
 42
0.011632
  0
VERTEX
  8
0
 10
4714.992215
 20
3229.446269
 42
0.010658
  0
VERTEX
  8
0
 10
4761.204171
 20
3257.388524
 42
0.014226
  0
VERTEX
  8
0
 10
4801.846520
 20
3284.813220
 42
0.015866
  0
VERTEX
  8
0
 10
4836.443420
 20
3311.320808
 42
0.024834
  0
VERTEX
  8
0
 10
4864.249967
 20
3336.465241
 42
0.027846
  0
VERTEX
  8
0
 10
4885.914223
 20
3360.658917
 42
0.045666
  0
VERTEX
  8
0
 10
4901.050083
 20
3383.593160
 42
0.053995
  0
VERTEX
  8
0
 10
4909.987023
 20
3405.698678
 42
0.069554
  0
VERTEX
  8
0
 10
4912.985219
 20
3427.378225
 42
0.012504
  0
VERTEX
  8
0
 10
4912.870352
 20
3431.717331
 42
0.009973
  0
VERTEX
  8
0
 10
4912.536312
 20
3436.386647
 42
0.010109
  0
VERTEX
  8
0
 10
4912.053030
 20
3440.699892
 42
0.024935
  0
VERTEX
  8
0
 10
4911.477782
 20
3443.831638
 42
0.101391
  0
VERTEX
  8
0
 10
4899.112599
 20
3470.538451
 42
0.066321
  0
VERTEX
  8
0
 10
4875.455871
 20
3495.025726
 42
0.052493
  0
VERTEX
  8
0
 10
4840.453528
 20
3517.230210
 42
0.029118
  0
VERTEX
  8
0
 10
4793.866898
 20
3537.047680
 42
0.025210
  0
VERTEX
  8
0
 10
4745.149929
 20
3551.775154
 42
0.012808
  0
VERTEX
  8
0
 10
4682.623989
 20
3565.596246
 42
0.011575
  0
VERTEX
  8
0
 10
4610.487988
 20
3577.888590
 42
0.009136
  0
VERTEX
  8
0
 10
4531.931458
 20
3587.948326
 42
-0.000117
  0
VERTEX
  8
0
 10
4521.124589
 20
3589.134546
 42
-0.000158
  0
VERTEX
  8
0
 10
4511.350240
 20
3590.212875
 42
-0.000106
  0
VERTEX
  8
0
 10
4503.145992
 20
3591.122379
 42
-0.001728
  0
VERTEX
  8
0
 10
4500.388507
 20
3591.438310
 42
0.025435
  0
VERTEX
  8
0
 10
4498.133305
 20
3591.588890
 42
0.077905
  0
VERTEX
  8
0
 10
4496.620566
 20
3591.376200
 42
0.089605
  0
VERTEX
  8
0
 10
4495.365332
 20
3590.732394
 42
0.041014
  0
VERTEX
  8
0
 10
4493.994487
 20
3589.494132
 42
0.000000
  0
VERTEX
  8
0
 10
4491.711961
 20
3587.064494
 42
0.000000
  0
VERTEX
  8
0
 10
4497.105980
 20
3582.348579
 42
-0.006728
  0
VERTEX
  8
0
 10
4499.574404
 20
3580.131163
 42
-0.003619
  0
VERTEX
  8
0
 10
4502.561019
 20
3577.334428
 42
-0.003603
  0
VERTEX
  8
0
 10
4505.565007
 20
3574.438856
 42
-0.005647
  0
VERTEX
  8
0
 10
4508.101744
 20
3571.901478
 42
0.000000
  0
VERTEX
  8
0
 10
4513.703488
 20
3566.170292
 42
0.000000
  0
VERTEX
  8
0
 10
4531.101744
 20
3565.050716
 42
-0.009889
  0
VERTEX
  8
0
 10
4608.194722
 20
3558.556631
 42
-0.014376
  0
VERTEX
  8
0
 10
4675.843299
 20
3549.535837
 42
-0.016286
  0
VERTEX
  8
0
 10
4735.057952
 20
3537.908918
 42
-0.023419
  0
VERTEX
  8
0
 10
4786.500000
 20
3523.489855
 42
-0.016773
  0
VERTEX
  8
0
 10
4816.370508
 20
3512.462369
 42
-0.027982
  0
VERTEX
  8
0
 10
4840.578109
 20
3500.972684
 42
-0.032610
  0
VERTEX
  8
0
 10
4860.430860
 20
3488.406891
 42
-0.040279
  0
VERTEX
  8
0
 10
4877.030415
 20
3474.138880
 42
-0.030150
  0
VERTEX
  8
0
 10
4887.050384
 20
3462.714343
 42
-0.054407
  0
VERTEX
  8
0
 10
4893.561562
 20
3452.118269
 42
-0.060852
  0
VERTEX
  8
0
 10
4897.177746
 20
3441.233179
 42
-0.049528
  0
VERTEX
  8
0
 10
4898.407785
 20
3429.000000
 42
-0.067025
  0
VERTEX
  8
0
 10
4896.051175
 20
3411.333816
 42
-0.054462
  0
VERTEX
  8
0
 10
4889.043806
 20
3393.546349
 42
-0.045757
  0
VERTEX
  8
0
 10
4877.032674
 20
3375.034062
 42
-0.026741
  0
VERTEX
  8
0
 10
4859.573523
 20
3355.146379
 42
-0.030955
  0
VERTEX
  8
0
 10
4828.169946
 20
3326.760217
 42
-0.021755
  0
VERTEX
  8
0
 10
4789.654666
 20
3298.702870
 42
-0.018762
  0
VERTEX
  8
0
 10
4742.935181
 20
3270.151466
 42
-0.011866
  0
VERTEX
  8
0
 10
4686.500000
 20
3240.244402
 42
-0.011177
  0
VERTEX
  8
0
 10
4625.789734
 20
3211.572221
 42
-0.009542
  0
VERTEX
  8
0
 10
4560.591048
 20
3184.022813
 42
-0.008770
  0
VERTEX
  8
0
 10
4489.005627
 20
3156.818697
 42
-0.006501
  0
VERTEX
  8
0
 10
4409.000000
 20
3129.179882
 42
-0.007212
  0
VERTEX
  8
0
 10
4290.149172
 20
3091.736862
 42
-0.006375
  0
VERTEX
  8
0
 10
4165.291351
 20
3056.100239
 42
-0.005913
  0
VERTEX
  8
0
 10
4030.508787
 20
3021.189013
 42
-0.004465
  0
VERTEX
  8
0
 10
3881.691153
 20
2985.921529
 42
-0.000832
  0
VERTEX
  8
0
 10
3868.261687
 20
2982.888861
 42
-0.001323
  0
VERTEX
  8
0
 10
3856.757504
 20
2980.343037
 42
-0.000264
  0
VERTEX
  8
0
 10
3846.617434
 20
2978.132823
 42
-0.065099
  0
VERTEX
  8
0
 10
3845.691153
 20
2978.054768
 42
-0.804279
  0
VERTEX
  8
0
 10
3845.660667
 20
2978.232197
 42
-0.003587
  0
VERTEX
  8
0
 10
3848.668651
 20
2979.430461
 42
-0.005749
  0
VERTEX
  8
0
 10
3852.595218
 20
2980.910319
 42
-0.003036
  0
VERTEX
  8
0
 10
3857.500000
 20
2982.661072
 42
0.000742
  0
VERTEX
  8
0
 10
3919.472961
 20
3004.462266
 42
0.001658
  0
VERTEX
  8
0
 10
3966.515761
 20
3021.265446
 42
0.001908
  0
VERTEX
  8
0
 10
4009.149212
 20
3036.837402
 42
0.001384
  0
VERTEX
  8
0
 10
4056.500000
 20
3054.486642
 42
0.002006
  0
VERTEX
  8
0
 10
4114.285342
 20
3076.472564
 42
0.001764
  0
VERTEX
  8
0
 10
4174.421401
 20
3099.873456
 42
0.001789
  0
VERTEX
  8
0
 10
4228.788606
 20
3121.475591
 42
0.004968
  0
VERTEX
  8
0
 10
4266.791598
 20
3137.173513
 42
-0.000018
  0
VERTEX
  8
0
 10
4273.445288
 20
3139.999388
 42
-0.000023
  0
VERTEX
  8
0
 10
4279.617900
 20
3142.620347
 42
-0.000018
  0
VERTEX
  8
0
 10
4284.798933
 20
3144.819769
 42
-0.000178
  0
VERTEX
  8
0
 10
4286.992741
 20
3145.750055
 42
0.000000
  0
VERTEX
  8
0
 10
4290.485483
 20
3147.229688
 42
0.000000
  0
VERTEX
  8
0
 10
4273.100459
 20
3153.634040
 42
0.000000
  0
VERTEX
  8
0
 10
4255.715435
 20
3160.038393
 42
0.000000
  0
VERTEX
  8
0
 10
4230.107718
 20
3151.576435
 42
-0.003156
  0
VERTEX
  8
0
 10
4196.536943
 20
3140.717648
 42
-0.001901
  0
VERTEX
  8
0
 10
4156.594499
 20
3128.242639
 42
-0.000344
  0
VERTEX
  8
0
 10
4115.457877
 20
3115.597074
 42
-0.075969
  0
VERTEX
  8
0
 10
4111.431034
 20
3115.005350
 42
-0.746583
  0
VERTEX
  8
0
 10
4111.377424
 20
3115.190091
 42
-0.003184
  0
VERTEX
  8
0
 10
4114.041057
 20
3116.875819
 42
-0.006290
  0
VERTEX
  8
0
 10
4117.421677
 20
3118.926648
 42
-0.003419
  0
VERTEX
  8
0
 10
4121.623627
 20
3121.365392
 42
0.011022
  0
VERTEX
  8
0
 10
4160.602078
 20
3144.787293
 42
0.014905
  0
VERTEX
  8
0
 10
4194.691688
 20
3167.756968
 42
0.016597
  0
VERTEX
  8
0
 10
4223.861548
 20
3190.206006
 42
0.024075
  0
VERTEX
  8
0
 10
4247.914711
 20
3212.048045
 42
0.015236
  0
VERTEX
  8
0
 10
4260.553373
 20
3225.481330
 42
0.020939
  0
VERTEX
  8
0
 10
4271.012546
 20
3238.347020
 42
0.022603
  0
VERTEX
  8
0
 10
4279.706939
 20
3251.178667
 42
0.023967
  0
VERTEX
  8
0
 10
4287.025836
 20
3264.500000
 42
0.018131
  0
VERTEX
  8
0
 10
4291.528757
 20
3274.632028
 42
0.033894
  0
VERTEX
  8
0
 10
4294.300967
 20
3283.163182
 42
0.033890
  0
VERTEX
  8
0
 10
4295.895292
 20
3291.991221
 42
0.018124
  0
VERTEX
  8
0
 10
4296.722617
 20
3303.049817
 42
0.006247
  0
VERTEX
  8
0
 10
4296.921664
 20
3310.722686
 42
0.021621
  0
VERTEX
  8
0
 10
4296.773667
 20
3315.688597
 42
0.027634
  0
VERTEX
  8
0
 10
4296.222727
 20
3319.959771
 42
0.016039
  0
VERTEX
  8
0
 10
4295.115729
 20
3325.014208
 42
0.079102
  0
VERTEX
  8
0
 10
4284.863671
 20
3348.891542
 42
0.068166
  0
VERTEX
  8
0
 10
4267.264921
 20
3369.804333
 42
0.058774
  0
VERTEX
  8
0
 10
4242.138548
 20
3387.655396
 42
0.037676
  0
VERTEX
  8
0
 10
4209.500000
 20
3402.426110
 42
-0.001352
  0
VERTEX
  8
0
 10
4205.524347
 20
3403.887995
 42
-0.001701
  0
VERTEX
  8
0
 10
4201.850000
 20
3405.264612
 42
-0.001356
  0
VERTEX
  8
0
 10
4198.774436
 20
3406.438378
 42
-0.013481
  0
VERTEX
  8
0
 10
4197.500000
 20
3406.968586
 42
-0.808101
  0
VERTEX
  8
0
 10
4197.691315
 20
3407.867336
 42
-0.000387
  0
VERTEX
  8
0
 10
4248.133611
 20
3407.915900
 42
-0.002132
  0
VERTEX
  8
0
 10
4294.054893
 20
3407.728718
 42
-0.009500
  0
VERTEX
  8
0
 10
4321.000000
 20
3406.991844
 42
-0.012975
  0
VERTEX
  8
0
 10
4394.401436
 20
3401.676410
 42
-0.024093
  0
VERTEX
  8
0
 10
4453.455505
 20
3392.967645
 42
-0.029778
  0
VERTEX
  8
0
 10
4499.432974
 20
3381.025138
 42
-0.068467
  0
VERTEX
  8
0
 10
4531.550180
 20
3365.495325
 42
-0.084074
  0
VERTEX
  8
0
 10
4546.467180
 20
3351.462604
 42
-0.163648
  0
VERTEX
  8
0
 10
4551.608620
 20
3336.141011
 42
-0.138013
  0
VERTEX
  8
0
 10
4546.753646
 20
3318.930729
 42
-0.053480
  0
VERTEX
  8
0
 10
4531.506398
 20
3299.126001
 42
-0.026304
  0
VERTEX
  8
0
 10
4519.737900
 20
3288.046766
 42
-0.017188
  0
VERTEX
  8
0
 10
4505.101463
 20
3276.492150
 42
-0.015224
  0
VERTEX
  8
0
 10
4487.696907
 20
3264.496673
 42
-0.010804
  0
VERTEX
  8
0
 10
4467.500000
 20
3252.074948
 42
-0.011685
  0
VERTEX
  8
0
 10
4451.872337
 20
3243.406746
 42
-0.004460
  0
VERTEX
  8
0
 10
4429.726239
 20
3232.041900
 42
-0.004517
  0
VERTEX
  8
0
 10
4406.436486
 20
3220.613618
 42
-0.007571
  0
VERTEX
  8
0
 10
4386.637171
 20
3211.485149
 42
0.002957
  0
VERTEX
  8
0
 10
4379.846989
 20
3208.430198
 42
0.005198
  0
VERTEX
  8
0
 10
4374.275004
 20
3205.813229
 42
0.001607
  0
VERTEX
  8
0
 10
4369.619863
 20
3203.549036
 42
0.669635
  0
VERTEX
  8
0
 10
4369.637171
 20
3203.284047
 42
-0.008597
  0
VERTEX
  8
0
 10
4370.272852
 20
3203.057282
 42
-0.000157
  0
VERTEX
  8
0
 10
4373.624669
 20
3201.795025
 42
-0.000388
  0
VERTEX
  8
0
 10
4377.530556
 20
3200.319246
 42
-0.000259
  0
VERTEX
  8
0
 10
4382.000000
 20
3198.623915
 42
0.000000
  0
VERTEX
  8
0
 10
4393.500000
 20
3194.254954
 42
0.000000
  0
VERTEX
  8
0
 10
4405.500000
 20
3200.245216
 42
0.010186
  0
VERTEX
  8
0
 10
4436.707737
 20
3216.626217
 42
0.009700
  0
VERTEX
  8
0
 10
4467.741178
 20
3234.524496
 42
0.010159
  0
VERTEX
  8
0
 10
4495.812197
 20
3252.235605
 42
0.018700
  0
VERTEX
  8
0
 10
4517.782277
 20
3267.939178
 42
0.037792
  0
VERTEX
  8
0
 10
4542.826649
 20
3290.510792
 42
0.072059
  0
VERTEX
  8
0
 10
4558.493933
 20
3312.555876
 42
0.096431
  0
VERTEX
  8
0
 10
4564.523517
 20
3333.388616
 42
0.133129
  0
VERTEX
  8
0
 10
4561.145570
 20
3352.467161
 42
0.172448
  0
VERTEX
  8
0
 10
4532.376432
 20
3381.462861
 42
0.050682
  0
VERTEX
  8
0
 10
4472.516710
 20
3403.076648
 42
0.034815
  0
VERTEX
  8
0
 10
4382.419863
 20
3419.064657
 42
0.012782
  0
VERTEX
  8
0
 10
4253.500000
 20
3429.460070
 42
0.002777
  0
VERTEX
  8
0
 10
4210.184934
 20
3431.599168
 42
0.003174
  0
VERTEX
  8
0
 10
4168.737200
 20
3433.151793
 42
0.002302
  0
VERTEX
  8
0
 10
4117.699784
 20
3434.504076
 42
0.000703
  0
VERTEX
  8
0
 10
4040.500000
 20
3436.085250
 42
-0.000851
  0
VERTEX
  8
0
 10
4018.123254
 20
3436.550164
 42
-0.000926
  0
VERTEX
  8
0
 10
3996.368750
 20
3437.079481
 42
-0.000868
  0
VERTEX
  8
0
 10
3977.737203
 20
3437.599684
 42
-0.004556
  0
VERTEX
  8
0
 10
3967.500000
 20
3437.996673
 42
0.007744
  0
VERTEX
  8
0
 10
3931.641034
 20
3439.158316
 42
0.003029
  0
VERTEX
  8
0
 10
3882.117807
 20
3439.695054
 42
0.002990
  0
VERTEX
  8
0
 10
3828.351159
 20
3439.630448
 42
0.003639
  0
VERTEX
  8
0
 10
3778.000000
 20
3438.902315
 42
-0.000353
  0
VERTEX
  8
0
 10
3752.467323
 20
3438.365247
 42
-0.000461
  0
VERTEX
  8
0
 10
3729.107194
 20
3437.911930
 42
-0.000340
  0
VERTEX
  8
0
 10
3709.524518
 20
3437.563296
 42
-0.004280
  0
VERTEX
  8
0
 10
3702.130873
 20
3437.500000
 42
0.000000
  0
VERTEX
  8
0
 10
3690.761746
 20
3437.500000
 42
0.000000
  0
VERTEX
  8
0
 10
3673.544296
 20
3473.500000
 42
-0.001474
  0
VERTEX
  8
0
 10
3666.984333
 20
3487.320749
 42
-0.002462
  0
VERTEX
  8
0
 10
3661.556779
 20
3498.992002
 42
-0.000245
  0
VERTEX
  8
0
 10
3656.782569
 20
3509.405429
 42
-0.431461
  0
VERTEX
  8
0
 10
3656.913423
 20
3509.728091
 42
-0.061809
  0
VERTEX
  8
0
 10
3658.140285
 20
3510.037963
 42
-0.000029
  0
VERTEX
  8
0
 10
3698.924123
 20
3515.116248
 42
-0.000498
  0
VERTEX
  8
0
 10
3737.691956
 20
3519.901960
 42
-0.000784
  0
VERTEX
  8
0
 10
3771.000000
 20
3523.927003
 42
-0.003574
  0
VERTEX
  8
0
 10
3924.883769
 20
3541.163314
 42
-0.005078
  0
VERTEX
  8
0
 10
4061.939407
 20
3554.117655
 42
-0.005725
  0
VERTEX
  8
0
 10
4183.334851
 20
3562.950433
 42
-0.008581
  0
VERTEX
  8
0
 10
4289.500000
 20
3567.626872
 42
0.000000
  0
VERTEX
  8
0
 10
4315.500000
 20
3568.325357
 42
0.000000
  0
VERTEX
  8
0
 10
4325.500000
 20
3577.370378
 42
0.001879
  0
VERTEX
  8
0
 10
4329.352706
 20
3580.881577
 42
0.002929
  0
VERTEX
  8
0
 10
4332.642877
 20
3583.938542
 42
0.000846
  0
VERTEX
  8
0
 10
4335.481528
 20
3586.616205
 42
0.098607
  0
VERTEX
  8
0
 10
4335.773623
 20
3587.028569
 42
0.306302
  0
VERTEX
  8
0
 10
4335.699875
 20
3587.446332
 42
0.002369
  0
VERTEX
  8
0
 10
4333.180469
 20
3590.024225
 42
0.007512
  0
VERTEX
  8
0
 10
4330.178538
 20
3592.976797
 42
0.004625
  0
VERTEX
  8
0
 10
4326.561626
 20
3596.365499
 42
0.000000
  0
VERTEX
  8
0
 10
4317.076005
 20
3605.089258
 42
0.000000
  0
VERTEX
  8
0
 10
4288.788002
 20
3606.515822
 42
0.005713
  0
VERTEX
  8
0
 10
4151.708752
 20
3611.859414
 42
0.004910
  0
VERTEX
  8
0
 10
4007.442930
 20
3614.415517
 42
0.004892
  0
VERTEX
  8
0
 10
3862.530669
 20
3614.141777
 42
0.005535
  0
VERTEX
  8
0
 10
3723.500000
 20
3610.979164
 42
0.000965
  0
VERTEX
  8
0
 10
3689.642004
 20
3609.768439
 42
0.000894
  0
VERTEX
  8
0
 10
3654.915567
 20
3608.397367
 42
0.000410
  0
VERTEX
  8
0
 10
3622.998551
 20
3607.053844
 42
0.013761
  0
VERTEX
  8
0
 10
3615.386686
 20
3606.517009
 42
0.000000
  0
VERTEX
  8
0
 10
3610.273371
 20
3606.014658
 42
0.000000
  0
VERTEX
  8
0
 10
3199.438632
 20
4466.257329
 42
0.000069
  0
VERTEX
  8
0
 10
3041.624795
 20
4796.585304
 42
0.000113
  0
VERTEX
  8
0
 10
2908.096338
 20
5075.818993
 42
0.000006
  0
VERTEX
  8
0
 10
2787.605660
 20
5327.633983
 42
0.021801
  0
VERTEX
  8
0
 10
2784.551946
 20
5333.360521
 42
0.054330
  0
VERTEX
  8
0
 10
2770.171384
 20
5352.592866
 42
0.050838
  0
VERTEX
  8
0
 10
2751.686734
 20
5368.759731
 42
0.050893
  0
VERTEX
  8
0
 10
2730.341251
 20
5380.849118
 42
0.054711
  0
VERTEX
  8
0
 10
2707.500000
 20
5388.022777
 42
0.017374
  0
VERTEX
  8
0
 10
2700.077224
 20
5389.222589
 42
0.012496
  0
VERTEX
  8
0
 10
2691.723148
 20
5390.065158
 42
0.012658
  0
VERTEX
  8
0
 10
2683.615504
 20
5390.472589
 42
0.023174
  0
SEQEND
  0
POLYLINE
  8
0
 66
1
 70
1
  0
VERTEX
  8
0
 10
4298.460242
 20
5040.935699
 42
0.096952
  0
VERTEX
  8
0
 10
4293.689754
 20
5038.474623
 42
0.041894
  0
VERTEX
  8
0
 10
4288.452738
 20
5033.563242
 42
0.041131
  0
VERTEX
  8
0
 10
4284.244904
 20
5028.045532
 42
0.143371
  0
VERTEX
  8
0
 10
4283.000382
 20
5023.789838
 42
-0.317113
  0
VERTEX
  8
0
 10
4282.562176
 20
5023.167996
 42
-0.049792
  0
VERTEX
  8
0
 10
4281.023691
 20
5022.786178
 42
-0.028891
  0
VERTEX
  8
0
 10
4278.411666
 20
5022.561000
 42
-0.007057
  0
VERTEX
  8
0
 10
4274.090236
 20
5022.500000
 42
0.008319
  0
VERTEX
  8
0
 10
4268.695872
 20
5022.410244
 42
0.047950
  0
VERTEX
  8
0
 10
4265.868433
 20
5022.043180
 42
0.068651
  0
VERTEX
  8
0
 10
4263.627646
 20
5021.194590
 42
0.027672
  0
VERTEX
  8
0
 10
4260.839854
 20
5019.468345
 42
0.089914
  0
VERTEX
  8
0
 10
4253.552342
 20
5012.126608
 42
0.100324
  0
VERTEX
  8
0
 10
4249.651185
 20
5002.960070
 42
0.102273
  0
VERTEX
  8
0
 10
4249.665408
 20
4993.141792
 42
0.097067
  0
VERTEX
  8
0
 10
4253.547379
 20
4983.929595
 42
0.000000
  0
VERTEX
  8
0
 10
4256.975855
 20
4978.834901
 42
0.000000
  0
VERTEX
  8
0
 10
4254.518867
 20
4975.613624
 42
0.054674
  0
VERTEX
  8
0
 10
4251.152685
 20
4970.027961
 42
0.066744
  0
VERTEX
  8
0
 10
4249.352031
 20
4964.203512
 42
0.067240
  0
VERTEX
  8
0
 10
4249.156514
 20
4958.145928
 42
0.056656
  0
VERTEX
  8
0
 10
4250.527902
 20
4951.872133
 42
0.049949
  0
VERTEX
  8
0
 10
4252.578546
 20
4947.379617
 42
0.051589
  0
VERTEX
  8
0
 10
4255.460939
 20
4943.435560
 42
0.050612
  0
VERTEX
  8
0
 10
4259.144302
 20
4940.102858
 42
0.044857
  0
VERTEX
  8
0
 10
4263.568721
 20
4937.422576
 42
0.018763
  0
VERTEX
  8
0
 10
4266.873042
 20
4935.956881
 42
0.052253
  0
VERTEX
  8
0
 10
4269.312267
 20
4935.267175
 42
0.048888
  0
VERTEX
  8
0
 10
4271.931474
 20
4935.074439
 42
0.014850
  0
VERTEX
  8
0
 10
4275.910907
 20
4935.289311
 42
0.000000
  0
VERTEX
  8
0
 10
4282.725191
 20
4935.860597
 42
0.000000
  0
VERTEX
  8
0
 10
4283.834327
 20
4932.180298
 42
0.062388
  0
VERTEX
  8
0
 10
4285.500467
 20
4928.422425
 42
0.041649
  0
VERTEX
  8
0
 10
4288.258691
 20
4924.600995
 42
0.040992
  0
VERTEX
  8
0
 10
4291.681798
 20
4921.211828
 42
0.052991
  0
VERTEX
  8
0
 10
4295.346727
 20
4918.744156
 42
0.078047
  0
VERTEX
  8
0
 10
4300.458646
 20
4916.987860
 42
0.043969
  0
VERTEX
  8
0
 10
4307.008302
 20
4916.414791
 42
0.043960
  0
VERTEX
  8
0
 10
4313.560526
 20
4916.995988
 42
0.077726
  0
VERTEX
  8
0
 10
4318.681079
 20
4918.758341
 42
0.052682
  0
VERTEX
  8
0
 10
4322.316802
 20
4921.202571
 42
0.036999
  0
VERTEX
  8
0
 10
4325.855991
 20
4924.642036
 42
0.037456
  0
VERTEX
  8
0
 10
4328.782026
 20
4928.484288
 42
0.062537
  0
VERTEX
  8
0
 10
4330.551301
 20
4932.137077
 42
0.000000
  0
VERTEX
  8
0
 10
4331.688734
 20
4935.500000
 42
0.000000
  0
VERTEX
  8
0
 10
4338.234051
 20
4935.154408
 42
0.095872
  0
VERTEX
  8
0
 10
4348.603693
 20
4936.598885
 42
0.106514
  0
VERTEX
  8
0
 10
4357.253958
 20
4941.805232
 42
0.106988
  0
VERTEX
  8
0
 10
4362.965899
 20
4950.090033
 42
0.097496
  0
VERTEX
  8
0
 10
4364.990231
 20
4960.282119
 42
0.033621
  0
VERTEX
  8
0
 10
4364.689612
 20
4964.863214
 42
0.051564
  0
VERTEX
  8
0
 10
4363.761310
 20
4968.727085
 42
0.052861
  0
VERTEX
  8
0
 10
4362.083528
 20
4972.250208
 42
0.037632
  0
VERTEX
  8
0
 10
4359.522285
 20
4975.797965
 42
0.000000
  0
VERTEX
  8
0
 10
4356.741493
 20
4979.095930
 42
0.000000
  0
VERTEX
  8
0
 10
4358.808679
 20
4981.297965
 42
0.059959
  0
VERTEX
  8
0
 10
4361.157700
 20
4984.492472
 42
0.037029
  0
VERTEX
  8
0
 10
4363.147166
 20
4988.715656
 42
0.036741
  0
VERTEX
  8
0
 10
4364.513159
 20
4993.247292
 42
0.053758
  0
VERTEX
  8
0
 10
4364.978038
 20
4997.383980
 42
0.038099
  0
VERTEX
  8
0
 10
4364.611442
 20
5002.490631
 42
0.053493
  0
VERTEX
  8
0
 10
4363.460859
 20
5006.909728
 42
0.053759
  0
VERTEX
  8
0
 10
4361.404503
 20
5010.967886
 42
0.038991
  0
VERTEX
  8
0
 10
4358.318938
 20
5014.990160
 42
0.044768
  0
VERTEX
  8
0
 10
4354.077048
 20
5018.934058
 42
0.069901
  0
VERTEX
  8
0
 10
4349.755876
 20
5021.407970
 42
0.067633
  0
VERTEX
  8
0
 10
4344.815297
 20
5022.644938
 42
0.039128
  0
VERTEX
  8
0
 10
4338.683682
 20
5022.841526
 42
0.000000
  0
VERTEX
  8
0
 10
4331.805875
 20
5022.523789
 42
0.000000
  0
VERTEX
  8
0
 10
4330.520078
 20
5026.263925
 42
0.079861
  0
VERTEX
  8
0
 10
4327.065362
 20
5032.732916
 42
0.080894
  0
VERTEX
  8
0
 10
4321.770197
 20
5037.760352
 42
0.079603
  0
VERTEX
  8
0
 10
4315.073776
 20
5040.906026
 42
0.073931
  0
VERTEX
  8
0
 10
4307.553656
 20
5041.909812
 42
0.012106
  0
VERTEX
  8
0
 10
4305.013029
 20
5041.810403
 42
0.010850
  0
VERTEX
  8
0
 10
4302.385332
 20
5041.586463
 42
0.010950
  0
VERTEX
  8
0
 10
4300.035289
 20
5041.282536
 42
0.033130
  0
SEQEND
  0
POLYLINE
  8
0
 66
1
 70
1
  0
VERTEX
  8
0
 10
1255.000000
 20
4978.358547
 42
0.007946
  0
VERTEX
  8
0
 10
1251.886524
 20
4978.081408
 42
0.001538
  0
VERTEX
  8
0
 10
1246.268750
 20
4977.473766
 42
0.001635
  0
VERTEX
  8
0
 10
1239.720357
 20
4976.723396
 42
0.001510
  0
VERTEX
  8
0
 10
1233.000000
 20
4975.910466
 42
0.056542
  0
VERTEX
  8
0
 10
1143.520449
 20
4954.358023
 42
0.057279
  0
VERTEX
  8
0
 10
1061.561675
 20
4913.367410
 42
0.057110
  0
VERTEX
  8
0
 10
990.834364
 20
4854.721272
 42
0.055599
  0
VERTEX
  8
0
 10
934.480210
 20
4781.101286
 42
-0.004844
  0
VERTEX
  8
0
 10
930.293007
 20
4774.301348
 42
-0.021304
  0
VERTEX
  8
0
 10
927.616842
 20
4770.424847
 42
-0.032424
  0
VERTEX
  8
0
 10
925.692797
 20
4768.193822
 42
-0.234829
  0
VERTEX
  8
0
 10
924.392789
 20
4767.744146
 42
-0.000895
  0
VERTEX
  8
0
 10
922.987536
 20
4767.927962
 42
-0.000016
  0
VERTEX
  8
0
 10
915.418507
 20
4768.932063
 42
-0.000040
  0
VERTEX
  8
0
 10
906.600704
 20
4770.102821
 42
-0.000027
  0
VERTEX
  8
0
 10
896.500000
 20
4771.445274
 42
0.009652
  0
VERTEX
  8
0
 10
808.911240
 20
4781.374773
 42
0.018301
  0
VERTEX
  8
0
 10
738.039126
 20
4785.417653
 42
0.022230
  0
VERTEX
  8
0
 10
682.623367
 20
4784.083692
 42
0.064923
  0
VERTEX
  8
0
 10
645.202227
 20
4776.568782
 42
0.021643
  0
VERTEX
  8
0
 10
637.124588
 20
4773.425279
 42
0.031250
  0
VERTEX
  8
0
 10
630.317408
 20
4769.908274
 42
0.032773
  0
VERTEX
  8
0
 10
624.248884
 20
4765.712855
 42
0.027658
  0
VERTEX
  8
0
 10
618.407730
 20
4760.530398
 42
0.105340
  0
VERTEX
  8
0
 10
606.393042
 20
4742.186995
 42
0.119293
  0
VERTEX
  8
0
 10
603.618755
 20
4721.372139
 42
0.107338
  0
VERTEX
  8
0
 10
610.706585
 20
4699.898926
 42
0.072931
  0
VERTEX
  8
0
 10
626.913970
 20
4679.785991
 42
0.057368
  0
VERTEX
  8
0
 10
660.598366
 20
4655.107194
 42
0.019861
  0
VERTEX
  8
0
 10
714.203279
 20
4627.337586
 42
0.016701
  0
VERTEX
  8
0
 10
784.211270
 20
4597.336553
 42
0.009397
  0
VERTEX
  8
0
 10
871.000000
 20
4565.393124
 42
0.000000
  0
VERTEX
  8
0
 10
876.500000
 20
4563.485364
 42
0.000000
  0
VERTEX
  8
0
 10
877.246230
 20
4554.492682
 42
0.003329
  0
VERTEX
  8
0
 10
878.761081
 20
4537.602744
 42
0.004991
  0
VERTEX
  8
0
 10
880.328703
 20
4522.881973
 42
0.005743
  0
VERTEX
  8
0
 10
881.942584
 20
4510.298640
 42
0.010258
  0
VERTEX
  8
0
 10
883.599926
 20
4500.000000
 42
0.069441
  0
VERTEX
  8
0
 10
918.767568
 20
4393.426984
 42
0.069198
  0
VERTEX
  8
0
 10
981.798965
 20
4300.412780
 42
0.069250
  0
VERTEX
  8
0
 10
1067.768264
 20
4228.182154
 42
0.069724
  0
VERTEX
  8
0
 10
1170.000000
 20
4182.372436
 42
0.035883
  0
VERTEX
  8
0
 10
1225.856346
 20
4170.448789
 42
0.034659
  0
VERTEX
  8
0
 10
1283.500000
 20
4166.448295
 42
0.034659
  0
VERTEX
  8
0
 10
1341.143654
 20
4170.448789
 42
0.035883
  0
VERTEX
  8
0
 10
1397.000000
 20
4182.372436
 42
0.047357
  0
VERTEX
  8
0
 10
1467.504276
 20
4210.262572
 42
0.046582
  0
VERTEX
  8
0
 10
1531.920394
 20
4251.046883
 42
0.046637
  0
VERTEX
  8
0
 10
1587.605374
 20
4302.998985
 42
0.047709
  0
VERTEX
  8
0
 10
1632.223553
 20
4364.000000
 42
-0.000355
  0
VERTEX
  8
0
 10
1635.315481
 20
4369.194847
 42
-0.000573
  0
VERTEX
  8
0
 10
1637.956363
 20
4373.613181
 42
-0.000078
  0
VERTEX
  8
0
 10
1640.310613
 20
4377.540331
 42
-0.041504
  0
VERTEX
  8
0
 10
1640.474434
 20
4377.768276
 42
-0.251751
  0
VERTEX
  8
0
 10
1640.708602
 20
4377.859486
 42
-0.000147
  0
VERTEX
  8
0
 10
1648.243666
 20
4376.934696
 42
-0.001752
  0
VERTEX
  8
0
 10
1656.655103
 20
4375.869890
 42
-0.001062
  0
VERTEX
  8
0
 10
1666.601610
 20
4374.553828
 42
0.003053
  0
VERTEX
  8
0
 10
1693.456114
 20
4371.109332
 42
0.002813
  0
VERTEX
  8
0
 10
1721.094809
 20
4367.893339
 42
0.002880
  0
VERTEX
  8
0
 10
1747.968640
 20
4365.076026
 42
0.003798
  0
VERTEX
  8
0
 10
1772.500000
 20
4362.835039
 42
0.012660
  0
VERTEX
  8
0
 10
1802.046393
 20
4361.113942
 42
0.006962
  0
VERTEX
  8
0
 10
1838.259522
 20
4360.427927
 42
0.006185
  0
VERTEX
  8
0
 10
1872.446409
 20
4360.679290
 42
0.030800
  0
VERTEX
  8
0
 10
1891.570939
 20
4362.237619
 42
0.021117
  0
VERTEX
  8
0
 10
1910.647178
 20
4365.809777
 42
0.035941
  0
VERTEX
  8
0
 10
1926.144886
 20
4370.590059
 42
0.042994
  0
VERTEX
  8
0
 10
1938.584312
 20
4376.706409
 42
0.059930
  0
VERTEX
  8
0
 10
1948.353530
 20
4384.329597
 42
0.100438
  0
VERTEX
  8
0
 10
1960.177514
 20
4402.056235
 42
0.113937
  0
VERTEX
  8
0
 10
1963.450122
 20
4422.188685
 42
0.104697
  0
VERTEX
  8
0
 10
1957.581199
 20
4443.038483
 42
0.074062
  0
VERTEX
  8
0
 10
1943.190481
 20
4462.739551
 42
0.065092
  0
VERTEX
  8
0
 10
1912.114199
 20
4486.961172
 42
0.021100
  0
VERTEX
  8
0
 10
1860.582861
 20
4514.439017
 42
0.017633
  0
VERTEX
  8
0
 10
1792.234558
 20
4544.342010
 42
0.009544
  0
VERTEX
  8
0
 10
1706.250000
 20
4576.517457
 42
-0.003261
  0
VERTEX
  8
0
 10
1697.079281
 20
4579.818380
 42
-0.024554
  0
VERTEX
  8
0
 10
1692.835744
 20
4581.618144
 42
-0.056617
  0
VERTEX
  8
0
 10
1690.659904
 20
4582.992423
 42
-0.226885
  0
VERTEX
  8
0
 10
1689.995933
 20
4584.373540
 42
0.018318
  0
VERTEX
  8
0
 10
1689.756493
 20
4590.582382
 42
0.002516
  0
VERTEX
  8
0
 10
1688.718840
 20
4603.491492
 42
0.003085
  0
VERTEX
  8
0
 10
1687.509320
 20
4616.686336
 42
0.008414
  0
VERTEX
  8
0
 10
1686.439072
 20
4626.000000
 42
0.033792
  0
VERTEX
  8
0
 10
1675.587469
 20
4679.865172
 42
0.033859
  0
VERTEX
  8
0
 10
1657.583694
 20
4731.740876
 42
0.033845
  0
VERTEX
  8
0
 10
1632.733968
 20
4780.733005
 42
0.033697
  0
VERTEX
  8
0
 10
1601.469336
 20
4826.000000
 42
0.044120
  0
VERTEX
  8
0
 10
1552.877317
 20
4877.126383
 42
0.043164
  0
VERTEX
  8
0
 10
1495.730559
 20
4919.351396
 42
0.043267
  0
VERTEX
  8
0
 10
1432.321067
 20
4951.052109
 42
0.044801
  0
VERTEX
  8
0
 10
1365.130565
 20
4970.925254
 42
0.009892
  0
VERTEX
  8
0
 10
1345.606794
 20
4974.442661
 42
0.014890
  0
VERTEX
  8
0
 10
1328.455255
 20
4976.662121
 42
0.014230
  0
VERTEX
  8
0
 10
1310.642103
 20
4977.919177
 42
0.008042
  0
VERTEX
  8
0
 10
1289.000000
 20
4978.480055
 42
0.001471
  0
VERTEX
  8
0
 10
1277.683740
 20
4978.557971
 42
0.001879
  0
VERTEX
  8
0
 10
1267.256250
 20
4978.559897
 42
0.001455
  0
VERTEX
  8
0
 10
1258.514740
 20
4978.503225
 42
0.015875
  0
SEQEND
  0
POLYLINE
  8
0
 66
1
 70
1
  0
VERTEX
  8
0
 10
781.500000
 20
4710.528178
 42
-0.005217
  0
VERTEX
  8
0
 10
808.622353
 20
4708.185802
 42
-0.002794
  0
VERTEX
  8
0
 10
842.068559
 20
4704.756602
 42
-0.002589
  0
VERTEX
  8
0
 10
873.836297
 20
4701.153501
 42
-0.010508
  0
VERTEX
  8
0
 10
893.114191
 20
4698.453898
 42
0.000000
  0
VERTEX
  8
0
 10
896.728382
 20
4697.870094
 42
0.000000
  0
VERTEX
  8
0
 10
893.908409
 20
4688.875445
 42
0.013420
  0
VERTEX
  8
0
 10
891.311224
 20
4679.739391
 42
0.004329
  0
VERTEX
  8
0
 10
887.945046
 20
4666.071390
 42
0.004010
  0
VERTEX
  8
0
 10
884.851985
 20
4652.544687
 42
0.019084
  0
VERTEX
  8
0
 10
883.442525
 20
4644.737703
 42
-0.014451
  0
VERTEX
  8
0
 10
883.124251
 20
4642.876329
 42
-0.019773
  0
VERTEX
  8
0
 10
882.723764
 20
4641.223999
 42
-0.016926
  0
VERTEX
  8
0
 10
882.299947
 20
4639.906292
 42
-0.169647
  0
VERTEX
  8
0
 10
881.941163
 20
4639.463637
 42
-0.232986
  0
VERTEX
  8
0
 10
879.251420
 20
4639.205252
 42
-0.000457
  0
VERTEX
  8
0
 10
837.728789
 20
4654.974525
 42
-0.003556
  0
VERTEX
  8
0
 10
798.916102
 20
4670.072156
 42
-0.007453
  0
VERTEX
  8
0
 10
769.000000
 20
4682.474136
 42
-0.007709
  0
VERTEX
  8
0
 10
753.391635
 20
4689.506599
 42
-0.003664
  0
VERTEX
  8
0
 10
733.504337
 20
4699.016872
 42
-0.001515
  0
VERTEX
  8
0
 10
713.614538
 20
4708.782744
 42
-0.059209
  0
VERTEX
  8
0
 10
709.500000
 20
4711.465139
 42
-0.566586
  0
VERTEX
  8
0
 10
709.637150
 20
4712.336076
 42
-0.084862
  0
VERTEX
  8
0
 10
711.802255
 20
4712.807321
 42
-0.015241
  0
VERTEX
  8
0
 10
717.749772
 20
4712.893650
 42
-0.001058
  0
VERTEX
  8
0
 10
734.500000
 20
4712.590754
 42
-0.003432
  0
VERTEX
  8
0
 10
746.298909
 20
4712.271384
 42
-0.002483
  0
VERTEX
  8
0
 10
759.443750
 20
4711.759907
 42
-0.002507
  0
VERTEX
  8
0
 10
771.928587
 20
4711.149277
 42
-0.005458
  0
SEQEND
  0
POLYLINE
  8
0
 66
1
 70
1
  0
VERTEX
  8
0
 10
1718.090799
 20
4494.608084
 42
-0.003015
  0
VERTEX
  8
0
 10
1739.730523
 20
4486.483124
 42
-0.003138
  0
VERTEX
  8
0
 10
1760.981318
 20
4478.204419
 42
-0.003286
  0
VERTEX
  8
0
 10
1781.022034
 20
4470.099043
 42
-0.004460
  0
VERTEX
  8
0
 10
1799.000000
 20
4462.501788
 42
-0.006343
  0
VERTEX
  8
0
 10
1813.479514
 20
4456.010760
 42
-0.003532
  0
VERTEX
  8
0
 10
1830.963156
 20
4447.754577
 42
-0.002825
  0
VERTEX
  8
0
 10
1847.343783
 20
4439.763022
 42
-0.020659
  0
VERTEX
  8
0
 10
1855.000000
 20
4435.571906
 42
0.000000
  0
VERTEX
  8
0
 10
1859.500000
 20
4432.861201
 42
0.000000
  0
VERTEX
  8
0
 10
1827.500000
 20
4433.365221
 42
-0.004481
  0
VERTEX
  8
0
 10
1806.514654
 20
4433.883883
 42
-0.007139
  0
VERTEX
  8
0
 10
1788.585226
 20
4434.744260
 42
-0.006466
  0
VERTEX
  8
0
 10
1769.476981
 20
4436.183164
 42
-0.002932
  0
VERTEX
  8
0
 10
1744.500000
 20
4438.536876
 42
-0.004319
  0
VERTEX
  8
0
 10
1727.145003
 20
4440.426618
 42
-0.001341
  0
VERTEX
  8
0
 10
1701.087414
 20
4443.562790
 42
-0.000094
  0
VERTEX
  8
0
 10
1672.023868
 20
4447.145392
 42
-0.158996
  0
VERTEX
  8
0
 10
1671.122058
 20
4447.567954
 42
-0.269622
  0
VERTEX
  8
0
 10
1671.021308
 20
4447.904914
 42
-0.000942
  0
VERTEX
  8
0
 10
1672.054514
 20
4452.162576
 42
-0.004557
  0
VERTEX
  8
0
 10
1673.288939
 20
4457.015882
 42
-0.002799
  0
VERTEX
  8
0
 10
1674.827105
 20
4462.711276
 42
0.005425
  0
VERTEX
  8
0
 10
1676.583940
 20
4469.354749
 42
0.003453
  0
VERTEX
  8
0
 10
1678.490921
 20
4477.121437
 42
0.003468
  0
VERTEX
  8
0
 10
1680.256367
 20
4484.767245
 42
0.006432
  0
VERTEX
  8
0
 10
1681.566112
 20
4491.000000
 42
-0.000668
  0
VERTEX
  8
0
 10
1682.608111
 20
4496.259187
 42
-0.000978
  0
VERTEX
  8
0
 10
1683.540283
 20
4500.884174
 42
-0.000461
  0
VERTEX
  8
0
 10
1684.345365
 20
4504.820085
 42
-0.017857
  0
VERTEX
  8
0
 10
1684.556966
 20
4505.690806
 42
-0.208968
  0
VERTEX
  8
0
 10
1684.943224
 20
4506.162531
 42
-0.132793
  0
VERTEX
  8
0
 10
1685.648736
 20
4506.311899
 42
-0.061190
  0
VERTEX
  8
0
 10
1686.815281
 20
4506.102476
 42
-0.014373
  0
VERTEX
  8
0
 10
1688.695900
 20
4505.461252
 42
0.000861
  0
VERTEX
  8
0
 10
1691.251365
 20
4504.512113
 42
0.000052
  0
VERTEX
  8
0
 10
1698.899843
 20
4501.687236
 42
0.000078
  0
VERTEX
  8
0
 10
1708.011335
 20
4498.324714
 42
0.000058
  0
SEQEND
  0
POLYLINE
  8
0
 66
1
 70
1
  0
VERTEX
  8
0
 10
3532.638545
 20
4744.943156
 42
0.001390
  0
VERTEX
  8
0
 10
3531.446927
 20
4741.754272
 42
0.000042
  0
VERTEX
  8
0
 10
3526.514898
 20
4728.439552
 42
0.000083
  0
VERTEX
  8
0
 10
3520.709805
 20
4712.755870
 42
0.000057
  0
VERTEX
  8
0
 10
3514.143378
 20
4695.000000
 42
0.000000
  0
VERTEX
  8
0
 10
3497.322615
 20
4649.500000
 42
0.000000
  0
VERTEX
  8
0
 10
3449.411308
 20
4631.782062
 42
0.000237
  0
VERTEX
  8
0
 10
3430.907444
 20
4624.929244
 42
0.000371
  0
VERTEX
  8
0
 10
3415.008355
 20
4619.019096
 42
0.000090
  0
VERTEX
  8
0
 10
3401.089371
 20
4613.830394
 42
0.014678
  0
VERTEX
  8
0
 10
3399.574581
 20
4613.214177
 42
0.650744
  0
VERTEX
  8
0
 10
3399.573216
 20
4612.157971
 42
0.011144
  0
VERTEX
  8
0
 10
3406.645657
 20
4609.201045
 42
0.004652
  0
VERTEX
  8
0
 10
3421.067286
 20
4603.699925
 42
0.000209
  0
VERTEX
  8
0
 10
3470.901384
 20
4585.243709
 42
0.000000
  0
VERTEX
  8
0
 10
3497.302768
 20
4575.478431
 42
0.000000
  0
VERTEX
  8
0
 10
3515.576315
 20
4526.147618
 42
0.000389
  0
VERTEX
  8
0
 10
3522.609363
 20
4507.206667
 42
0.000641
  0
VERTEX
  8
0
 10
3528.590822
 20
4491.198917
 42
0.000040
  0
VERTEX
  8
0
 10
3533.994772
 20
4476.796508
 42
0.106996
  0
VERTEX
  8
0
 10
3534.220294
 20
4476.446373
 42
0.543817
  0
VERTEX
  8
0
 10
3534.446468
 20
4476.494762
 42
0.000105
  0
VERTEX
  8
0
 10
3539.438812
 20
4489.612664
 42
0.001537
  0
VERTEX
  8
0
 10
3544.967832
 20
4504.285494
 42
0.000915
  0
VERTEX
  8
0
 10
3551.465278
 20
4521.787970
 42
-0.000385
  0
VERTEX
  8
0
 10
3558.055616
 20
4539.598521
 42
-0.000563
  0
VERTEX
  8
0
 10
3563.887197
 20
4555.267148
 42
-0.000267
  0
VERTEX
  8
0
 10
3568.873958
 20
4568.598081
 42
-0.010200
  0
VERTEX
  8
0
 10
3570.056483
 20
4571.568278
 42
0.000000
  0
VERTEX
  8
0
 10
3571.773135
 20
4575.636557
 42
0.000000
  0
VERTEX
  8
0
 10
3621.391487
 20
4593.980026
 42
0.000586
  0
VERTEX
  8
0
 10
3640.399714
 20
4601.032547
 42
0.000982
  0
VERTEX
  8
0
 10
3656.358774
 20
4607.010774
 42
0.000043
  0
VERTEX
  8
0
 10
3670.718212
 20
4612.423383
 42
0.544888
  0
VERTEX
  8
0
 10
3670.752228
 20
4612.581105
 42
0.107501
  0
VERTEX
  8
0
 10
3670.507590
 20
4612.738331
 42
0.000020
  0
VERTEX
  8
0
 10
3656.186404
 20
4618.079846
 42
0.000452
  0
VERTEX
  8
0
 10
3640.321792
 20
4623.980002
 42
0.000273
  0
VERTEX
  8
0
 10
3621.528194
 20
4630.938473
 42
-0.000847
  0
VERTEX
  8
0
 10
3602.697872
 20
4637.935138
 42
-0.001372
  0
VERTEX
  8
0
 10
3586.710835
 20
4643.956248
 42
-0.000182
  0
VERTEX
  8
0
 10
3572.504552
 20
4649.357154
 42
-0.105826
  0
VERTEX
  8
0
 10
3571.762377
 20
4649.837623
 42
-0.105482
  0
VERTEX
  8
0
 10
3571.281818
 20
4650.578831
 42
-0.000192
  0
VERTEX
  8
0
 10
3566.030904
 20
4664.335195
 42
-0.001411
  0
VERTEX
  8
0
 10
3560.174521
 20
4679.826749
 42
-0.000872
  0
VERTEX
  8
0
 10
3553.373531
 20
4698.068508
 42
0.000026
  0
VERTEX
  8
0
 10
3546.578219
 20
4716.389743
 42
0.000041
  0
VERTEX
  8
0
 10
3540.734908
 20
4732.137801
 42
0.000010
  0
VERTEX
  8
0
 10
3535.615529
 20
4745.930549
 42
0.001612
  0
VERTEX
  8
0
 10
3535.048513
 20
4747.443156
 42
0.097013
  0
VERTEX
  8
0
 10
3534.591271
 20
4748.180155
 42
0.430422
  0
VERTEX
  8
0
 10
3534.136248
 20
4748.184330
 42
0.093993
  0
VERTEX
  8
0
 10
3533.588743
 20
4747.347983
 42
0.007951
  0
SEQEND
  0
POLYLINE
  8
0
 66
1
 70
1
  0
VERTEX
  8
0
 10
3991.000000
 20
4487.863436
 42
0.035131
  0
VERTEX
  8
0
 10
3952.227677
 20
4481.115090
 42
0.034516
  0
VERTEX
  8
0
 10
3914.545250
 20
4468.979478
 42
0.034181
  0
VERTEX
  8
0
 10
3878.545407
 20
4451.638347
 42
0.032982
  0
VERTEX
  8
0
 10
3844.790332
 20
4429.369511
 42
0.024847
  0
VERTEX
  8
0
 10
3833.264901
 20
4419.685382
 42
0.009229
  0
VERTEX
  8
0
 10
3818.013329
 20
4404.986671
 42
0.009229
  0
VERTEX
  8
0
 10
3803.314618
 20
4389.735099
 42
0.024847
  0
VERTEX
  8
0
 10
3793.630489
 20
4378.209668
 42
0.033357
  0
VERTEX
  8
0
 10
3770.919822
 20
4343.728749
 42
0.035484
  0
VERTEX
  8
0
 10
3753.518193
 20
4307.221268
 42
0.035661
  0
VERTEX
  8
0
 10
3741.522373
 20
4268.792406
 42
0.034397
  0
VERTEX
  8
0
 10
3734.929623
 20
4228.582609
 42
0.020565
  0
VERTEX
  8
0
 10
3734.137303
 20
4213.539227
 42
0.010035
  0
VERTEX
  8
0
 10
3734.302123
 20
4194.318353
 42
0.010034
  0
VERTEX
  8
0
 10
3735.237398
 20
4175.133424
 42
0.020719
  0
VERTEX
  8
0
 10
3736.888660
 20
4160.211254
 42
0.025873
  0
VERTEX
  8
0
 10
3743.325304
 20
4128.999635
 42
0.028196
  0
VERTEX
  8
0
 10
3752.815395
 20
4099.524188
 42
0.028371
  0
VERTEX
  8
0
 10
3765.499259
 20
4071.468008
 42
0.026883
  0
VERTEX
  8
0
 10
3781.484431
 20
4044.500000
 42
0.008752
  0
VERTEX
  8
0
 10
3790.560183
 20
4031.412379
 42
0.015517
  0
VERTEX
  8
0
 10
3798.555685
 20
4021.000190
 42
0.015689
  0
VERTEX
  8
0
 10
3807.119973
 20
4011.181487
 42
0.009189
  0
VERTEX
  8
0
 10
3817.947985
 20
3999.947985
 42
0.008774
  0
VERTEX
  8
0
 10
3828.398675
 20
3989.857784
 42
0.013575
  0
VERTEX
  8
0
 10
3837.805251
 20
3981.554946
 42
0.014011
  0
VERTEX
  8
0
 10
3847.423569
 20
3973.966269
 42
0.010246
  0
VERTEX
  8
0
 10
3858.500000
 20
3966.067465
 42
0.034536
  0
VERTEX
  8
0
 10
3893.957488
 20
3945.295134
 42
0.036646
  0
VERTEX
  8
0
 10
3931.254556
 20
3930.066891
 42
0.036585
  0
VERTEX
  8
0
 10
3970.433170
 20
3920.427716
 42
0.034190
  0
VERTEX
  8
0
 10
4011.500000
 20
3916.317722
 42
0.050048
  0
VERTEX
  8
0
 10
4070.197306
 20
3920.351684
 42
0.051961
  0
VERTEX
  8
0
 10
4126.152365
 20
3935.985824
 42
0.052015
  0
VERTEX
  8
0
 10
4177.630901
 20
3962.800672
 42
0.050352
  0
VERTEX
  8
0
 10
4223.083181
 20
3999.916819
 42
0.041971
  0
VERTEX
  8
0
 10
4254.743380
 20
4037.390462
 42
0.043488
  0
VERTEX
  8
0
 10
4279.278880
 20
4079.199502
 42
0.043306
  0
VERTEX
  8
0
 10
4296.294144
 20
4124.789539
 42
0.040928
  0
VERTEX
  8
0
 10
4305.603693
 20
4173.500000
 42
0.020402
  0
VERTEX
  8
0
 10
4306.612953
 20
4188.715776
 42
0.010056
  0
VERTEX
  8
0
 10
4306.716143
 20
4208.104607
 42
0.010009
  0
VERTEX
  8
0
 10
4306.049335
 20
4227.254019
 42
0.023173
  0
VERTEX
  8
0
 10
4304.596999
 20
4241.561419
 42
0.038584
  0
VERTEX
  8
0
 10
4293.794934
 20
4288.837909
 42
0.041677
  0
VERTEX
  8
0
 10
4276.044078
 20
4332.634759
 42
0.042104
  0
VERTEX
  8
0
 10
4251.469558
 20
4372.490125
 42
0.041015
  0
VERTEX
  8
0
 10
4220.370257
 20
4408.043498
 42
0.041334
  0
VERTEX
  8
0
 10
4182.836172
 20
4438.865540
 42
0.042625
  0
VERTEX
  8
0
 10
4141.113815
 20
4462.737562
 42
0.042616
  0
VERTEX
  8
0
 10
4095.939166
 20
4479.192782
 42
0.041281
  0
VERTEX
  8
0
 10
4048.144045
 20
4487.970253
 42
0.019220
  0
VERTEX
  8
0
 10
4036.730705
 20
4488.663606
 42
0.006027
  0
VERTEX
  8
0
 10
4019.604818
 20
4488.838048
 42
0.006037
  0
VERTEX
  8
0
 10
4002.469326
 20
4488.599107
 42
0.019021
  0
SEQEND
  0
POLYLINE
  8
0
 66
1
 70
1
  0
VERTEX
  8
0
 10
591.473945
 20
4347.257044
 42
-0.001615
  0
VERTEX
  8
0
 10
584.474401
 20
4328.481178
 42
-0.002546
  0
VERTEX
  8
0
 10
578.333036
 20
4312.417020
 42
-0.000624
  0
VERTEX
  8
0
 10
572.874926
 20
4298.406994
 42
-0.102665
  0
VERTEX
  8
0
 10
571.978945
 20
4297.031520
 42
-0.104384
  0
VERTEX
  8
0
 10
570.607533
 20
4296.131423
 42
-0.000634
  0
VERTEX
  8
0
 10
556.594770
 20
4290.671712
 42
-0.002585
  0
VERTEX
  8
0
 10
540.526280
 20
4284.529875
 42
-0.001640
  0
VERTEX
  8
0
 10
521.743235
 20
4277.531754
 42
0.001898
  0
VERTEX
  8
0
 10
503.148845
 20
4270.592977
 42
0.003253
  0
VERTEX
  8
0
 10
487.701501
 20
4264.646561
 42
0.000569
  0
VERTEX
  8
0
 10
474.291646
 20
4259.366429
 42
0.638194
  0
VERTEX
  8
0
 10
474.264291
 20
4258.899270
 42
0.033934
  0
VERTEX
  8
0
 10
475.275503
 20
4258.441145
 42
0.000095
  0
VERTEX
  8
0
 10
489.237010
 20
4253.228143
 42
0.000572
  0
VERTEX
  8
0
 10
505.009893
 20
4247.362769
 42
0.000357
  0
VERTEX
  8
0
 10
523.500000
 20
4240.526070
 42
-0.000725
  0
VERTEX
  8
0
 10
541.955416
 20
4233.686772
 42
-0.001177
  0
VERTEX
  8
0
 10
557.615890
 20
4227.815401
 42
-0.000142
  0
VERTEX
  8
0
 10
571.561235
 20
4222.545060
 42
-0.099015
  0
VERTEX
  8
0
 10
572.234944
 20
4222.123610
 42
-0.113345
  0
VERTEX
  8
0
 10
572.673825
 20
4221.466252
 42
-0.000154
  0
VERTEX
  8
0
 10
578.095362
 20
4207.177386
 42
-0.001302
  0
VERTEX
  8
0
 10
584.129039
 20
4191.134483
 42
-0.000801
  0
VERTEX
  8
0
 10
591.153253
 20
4172.216698
 42
0.000933
  0
VERTEX
  8
0
 10
598.155201
 20
4153.374148
 42
0.001568
  0
VERTEX
  8
0
 10
604.114740
 20
4137.579210
 42
0.000109
  0
VERTEX
  8
0
 10
609.494992
 20
4123.463121
 42
0.543654
  0
VERTEX
  8
0
 10
609.743378
 20
4123.410045
 42
0.106886
  0
VERTEX
  8
0
 10
609.990762
 20
4123.793937
 42
0.000048
  0
VERTEX
  8
0
 10
615.392331
 20
4138.171573
 42
0.000703
  0
VERTEX
  8
0
 10
621.375116
 20
4154.169215
 42
0.000428
  0
VERTEX
  8
0
 10
628.402660
 20
4173.090860
 42
0.000000
  0
VERTEX
  8
0
 10
646.655182
 20
4222.364915
 42
0.000000
  0
VERTEX
  8
0
 10
695.893148
 20
4240.581348
 42
0.000453
  0
VERTEX
  8
0
 10
714.802526
 20
4247.596690
 42
0.000744
  0
VERTEX
  8
0
 10
730.793766
 20
4253.573008
 42
0.000053
  0
VERTEX
  8
0
 10
745.155647
 20
4258.966518
 42
0.106916
  0
VERTEX
  8
0
 10
745.561086
 20
4259.227753
 42
0.543646
  0
VERTEX
  8
0
 10
745.505048
 20
4259.490018
 42
0.000125
  0
VERTEX
  8
0
 10
731.584156
 20
4264.795755
 42
0.001678
  0
VERTEX
  8
0
 10
715.987652
 20
4270.675783
 42
0.000999
  0
VERTEX
  8
0
 10
697.376257
 20
4277.578862
 42
-0.000875
  0
VERTEX
  8
0
 10
678.645487
 20
4284.520935
 42
-0.001394
  0
VERTEX
  8
0
 10
662.656721
 20
4290.529416
 42
-0.000266
  0
VERTEX
  8
0
 10
648.573987
 20
4295.875045
 42
-0.072131
  0
VERTEX
  8
0
 10
647.449685
 20
4296.500000
 42
-0.137755
  0
VERTEX
  8
0
 10
646.697293
 20
4297.498680
 42
-0.000503
  0
VERTEX
  8
0
 10
641.328005
 20
4311.306250
 42
-0.002592
  0
VERTEX
  8
0
 10
635.326525
 20
4327.026938
 42
-0.001619
  0
VERTEX
  8
0
 10
628.451988
 20
4345.500000
 42
0.000356
  0
VERTEX
  8
0
 10
621.624480
 20
4363.989406
 42
0.000571
  0
VERTEX
  8
0
 10
615.767697
 20
4379.759998
 42
0.000094
  0
VERTEX
  8
0
 10
610.561393
 20
4393.722185
 42
0.034094
  0
VERTEX
  8
0
 10
610.106977
 20
4394.725524
 42
0.638105
  0
VERTEX
  8
0
 10
609.643334
 20
4394.698339
 42
0.000560
  0
VERTEX
  8
0
 10
604.361651
 20
4381.287187
 42
0.003228
  0
VERTEX
  8
0
 10
598.414530
 20
4365.844216
 42
0.001884
  0
SEQEND
  0
POLYLINE
  8
0
 66
1
 70
1
  0
VERTEX
  8
0
 10
888.000000
 20
3934.573683
 42
0.070790
  0
VERTEX
  8
0
 10
846.804865
 20
3920.960765
 42
0.076687
  0
VERTEX
  8
0
 10
812.283283
 20
3896.649006
 42
0.076915
  0
VERTEX
  8
0
 10
786.771461
 20
3863.133171
 42
0.071816
  0
VERTEX
  8
0
 10
771.837731
 20
3822.688407
 42
0.032730
  0
VERTEX
  8
0
 10
770.122940
 20
3810.935943
 42
0.017688
  0
VERTEX
  8
0
 10
769.478393
 20
3796.322084
 42
0.017670
  0
VERTEX
  8
0
 10
769.870443
 20
3781.604272
 42
0.030849
  0
VERTEX
  8
0
 10
771.374761
 20
3769.500000
 42
0.055894
  0
VERTEX
  8
0
 10
780.808052
 20
3738.677213
 42
0.056622
  0
VERTEX
  8
0
 10
796.804750
 20
3710.854230
 42
0.056884
  0
VERTEX
  8
0
 10
818.556404
 20
3687.438034
 42
0.057414
  0
VERTEX
  8
0
 10
844.961405
 20
3669.609440
 42
0.027090
  0
VERTEX
  8
0
 10
860.961371
 20
3662.367825
 42
0.033067
  0
VERTEX
  8
0
 10
876.632799
 20
3657.438600
 42
0.032978
  0
VERTEX
  8
0
 10
892.853022
 20
3654.609238
 42
0.026698
  0
VERTEX
  8
0
 10
910.500000
 20
3653.666303
 42
0.033162
  0
VERTEX
  8
0
 10
931.428656
 20
3655.055904
 42
0.037579
  0
VERTEX
  8
0
 10
951.110817
 20
3659.204147
 42
0.038058
  0
VERTEX
  8
0
 10
969.733046
 20
3666.190720
 42
0.035718
  0
VERTEX
  8
0
 10
987.500000
 20
3676.045225
 42
0.048615
  0
VERTEX
  8
0
 10
1009.716527
 20
3693.826757
 42
0.051079
  0
VERTEX
  8
0
 10
1027.673653
 20
3715.293714
 42
0.050577
  0
VERTEX
  8
0
 10
1041.046011
 20
3740.156267
 42
0.045976
  0
VERTEX
  8
0
 10
1049.674764
 20
3768.000000
 42
0.038560
  0
VERTEX
  8
0
 10
1051.214340
 20
3779.636275
 42
0.015806
  0
VERTEX
  8
0
 10
1051.578610
 20
3795.574217
 42
0.015881
  0
VERTEX
  8
0
 10
1050.927812
 20
3811.627420
 42
0.035300
  0
VERTEX
  8
0
 10
1049.186606
 20
3823.733670
 42
0.033591
  0
VERTEX
  8
0
 10
1043.409054
 20
3843.782346
 42
0.037905
  0
VERTEX
  8
0
 10
1035.174685
 20
3862.049126
 42
0.037916
  0
VERTEX
  8
0
 10
1024.279250
 20
3878.859102
 42
0.033644
  0
VERTEX
  8
0
 10
1010.560121
 20
3894.560121
 42
0.032443
  0
VERTEX
  8
0
 10
995.102796
 20
3908.131871
 42
0.037307
  0
VERTEX
  8
0
 10
978.695044
 20
3918.907333
 42
0.037198
  0
VERTEX
  8
0
 10
960.825470
 20
3927.149240
 42
0.031918
  0
VERTEX
  8
0
 10
941.000000
 20
3933.151297
 42
0.038663
  0
VERTEX
  8
0
 10
930.455429
 20
3934.775937
 42
0.012189
  0
VERTEX
  8
0
 10
914.518761
 20
3935.592733
 42
0.012173
  0
VERTEX
  8
0
 10
898.569579
 20
3935.632396
 42
0.039008
  0
SEQEND
  0
POLYLINE
  8
0
 66
1
 70
1
  0
VERTEX
  8
0
 10
1516.500000
 20
3897.172659
 42
0.043071
  0
VERTEX
  8
0
 10
1513.030533
 20
3895.154896
 42
0.039645
  0
VERTEX
  8
0
 10
1509.853375
 20
3892.521428
 42
0.039662
  0
VERTEX
  8
0
 10
1507.132985
 20
3889.420768
 42
0.043201
  0
VERTEX
  8
0
 10
1505.022415
 20
3886.013106
 42
0.047746
  0
VERTEX
  8
0
 10
1504.154883
 20
3883.794628
 42
0.006053
  0
VERTEX
  8
0
 10
1502.806819
 20
3878.831975
 42
0.007055
  0
VERTEX
  8
0
 10
1501.357290
 20
3872.883636
 42
0.005812
  0
VERTEX
  8
0
 10
1499.974655
 20
3866.500000
 42
-0.003210
  0
VERTEX
  8
0
 10
1498.667002
 20
3860.306956
 42
-0.004899
  0
VERTEX
  8
0
 10
1497.445302
 20
3854.952085
 42
-0.001889
  0
VERTEX
  8
0
 10
1496.336340
 20
3850.378565
 42
-0.121082
  0
VERTEX
  8
0
 10
1495.957743
 20
3849.656034
 42
-0.281363
  0
VERTEX
  8
0
 10
1495.267530
 20
3849.443579
 42
-0.003116
  0
VERTEX
  8
0
 10
1490.334569
 20
3850.735642
 42
-0.008509
  0
VERTEX
  8
0
 10
1484.567056
 20
3852.390499
 42
-0.005303
  0
VERTEX
  8
0
 10
1477.862141
 20
3854.516439
 42
0.009421
  0
VERTEX
  8
0
 10
1465.417925
 20
3858.349652
 42
0.048586
  0
VERTEX
  8
0
 10
1458.337494
 20
3859.659098
 42
0.081332
  0
VERTEX
  8
0
 10
1452.952032
 20
3859.246147
 42
0.059312
  0
VERTEX
  8
0
 10
1447.318392
 20
3857.142844
 42
0.063424
  0
VERTEX
  8
0
 10
1441.427974
 20
3853.091478
 42
0.074010
  0
VERTEX
  8
0
 10
1437.088929
 20
3847.875578
 42
0.073897
  0
VERTEX
  8
0
 10
1434.452349
 20
3841.615199
 42
0.062972
  0
VERTEX
  8
0
 10
1433.556088
 20
3834.500000
 42
0.054369
  0
VERTEX
  8
0
 10
1434.308303
 20
3827.632933
 42
0.090277
  0
VERTEX
  8
0
 10
1436.558169
 20
3822.278723
 42
0.055008
  0
VERTEX
  8
0
 10
1441.356933
 20
3816.437963
 42
0.010021
  0
VERTEX
  8
0
 10
1451.590166
 20
3806.845722
 42
-0.003629
  0
VERTEX
  8
0
 10
1458.581119
 20
3800.458563
 42
-0.020329
  0
VERTEX
  8
0
 10
1462.154976
 20
3796.864577
 42
-0.036409
  0
VERTEX
  8
0
 10
1463.949289
 20
3794.595807
 42
-0.400843
  0
VERTEX
  8
0
 10
1463.774541
 20
3793.553430
 42
0.023174
  0
VERTEX
  8
0
 10
1457.397991
 20
3788.305925
 42
0.006937
  0
VERTEX
  8
0
 10
1448.176411
 20
3779.736025
 42
0.004642
  0
VERTEX
  8
0
 10
1439.143842
 20
3770.943292
 42
0.064960
  0
VERTEX
  8
0
 10
1436.369026
 20
3767.366723
 42
0.109194
  0
VERTEX
  8
0
 10
1433.383490
 20
3758.128106
 42
0.097736
  0
VERTEX
  8
0
 10
1434.388780
 20
3748.089980
 42
0.096513
  0
VERTEX
  8
0
 10
1439.158767
 20
3739.084361
 42
0.103400
  0
VERTEX
  8
0
 10
1446.864192
 20
3732.786742
 42
0.061010
  0
VERTEX
  8
0
 10
1452.841678
 20
3730.555454
 42
0.080054
  0
VERTEX
  8
0
 10
1458.642796
 20
3730.115889
 42
0.049279
  0
VERTEX
  8
0
 10
1466.200044
 20
3731.511527
 42
0.010475
  0
VERTEX
  8
0
 10
1478.988070
 20
3735.496007
 42
-0.004947
  0
VERTEX
  8
0
 10
1485.329975
 20
3737.549198
 42
-0.007966
  0
VERTEX
  8
0
 10
1490.776709
 20
3739.158422
 42
-0.002729
  0
VERTEX
  8
0
 10
1495.451815
 20
3740.431609
 42
-0.285269
  0
VERTEX
  8
0
 10
1496.061851
 20
3740.246007
 42
-0.120290
  0
VERTEX
  8
0
 10
1496.386408
 20
3739.622958
 42
-0.002734
  0
VERTEX
  8
0
 10
1497.173378
 20
3736.341015
 42
-0.005974
  0
VERTEX
  8
0
 10
1498.032597
 20
3732.460954
 42
-0.003991
  0
VERTEX
  8
0
 10
1498.927580
 20
3728.000000
 42
0.004586
  0
VERTEX
  8
0
 10
1501.221297
 20
3716.637363
 42
0.016335
  0
VERTEX
  8
0
 10
1502.992972
 20
3709.429728
 42
0.025442
  0
VERTEX
  8
0
 10
1504.668730
 20
3704.449255
 42
0.050738
  0
VERTEX
  8
0
 10
1506.575307
 20
3700.758538
 42
0.089869
  0
VERTEX
  8
0
 10
1511.665692
 20
3695.375625
 42
0.077376
  0
VERTEX
  8
0
 10
1518.583112
 20
3691.777680
 42
0.075196
  0
VERTEX
  8
0
 10
1526.457490
 20
3690.384889
 42
0.077119
  0
VERTEX
  8
0
 10
1534.319921
 20
3691.404626
 42
0.050980
  0
VERTEX
  8
0
 10
1539.055706
 20
3693.322474
 42
0.048167
  0
VERTEX
  8
0
 10
1543.403526
 20
3696.189174
 42
0.049578
  0
VERTEX
  8
0
 10
1547.001747
 20
3699.736305
 42
0.062684
  0
VERTEX
  8
0
 10
1549.513984
 20
3703.670713
 42
0.043179
  0
VERTEX
  8
0
 10
1550.365512
 20
3705.955407
 42
0.005353
  0
VERTEX
  8
0
 10
1551.730191
 20
3711.090493
 42
0.006285
  0
VERTEX
  8
0
 10
1553.212114
 20
3717.239902
 42
0.005163
  0
VERTEX
  8
0
 10
1554.643805
 20
3723.840912
 42
-0.001178
  0
VERTEX
  8
0
 10
1555.970932
 20
3730.204224
 42
-0.001909
  0
VERTEX
  8
0
 10
1557.132630
 20
3735.607197
 42
-0.000267
  0
VERTEX
  8
0
 10
1558.185193
 20
3740.400953
 42
-0.143147
  0
VERTEX
  8
0
 10
1558.327535
 20
3740.660868
 42
-0.277735
  0
VERTEX
  8
0
 10
1558.584383
 20
3740.724700
 42
-0.000424
  0
VERTEX
  8
0
 10
1563.352717
 20
3739.254494
 42
-0.003068
  0
VERTEX
  8
0
 10
1568.723883
 20
3737.557247
 42
-0.001868
  0
VERTEX
  8
0
 10
1575.050506
 20
3735.489178
 42
0.016878
  0
VERTEX
  8
0
 10
1589.502466
 20
3731.240709
 42
0.067486
  0
VERTEX
  8
0
 10
1598.643764
 20
3730.162588
 42
0.103101
  0
VERTEX
  8
0
 10
1605.649088
 20
3731.750066
 42
0.073498
  0
VERTEX
  8
0
 10
1612.419825
 20
3736.138342
 42
0.054621
  0
VERTEX
  8
0
 10
1616.373364
 20
3740.469279
 42
0.062128
  0
VERTEX
  8
0
 10
1619.097929
 20
3745.378735
 42
0.060803
  0
VERTEX
  8
0
 10
1620.572749
 20
3750.898421
 42
0.049060
  0
VERTEX
  8
0
 10
1620.828165
 20
3757.035263
 42
0.058037
  0
VERTEX
  8
0
 10
1619.760689
 20
3763.166086
 42
0.081289
  0
VERTEX
  8
0
 10
1617.344197
 20
3768.161553
 42
0.048093
  0
VERTEX
  8
0
 10
1612.518345
 20
3773.788744
 42
0.009003
  0
VERTEX
  8
0
 10
1602.548489
 20
3783.035564
 42
-0.002689
  0
VERTEX
  8
0
 10
1597.737942
 20
3787.385535
 42
-0.004313
  0
VERTEX
  8
0
 10
1593.686119
 20
3791.153897
 42
-0.001000
  0
VERTEX
  8
0
 10
1590.183124
 20
3794.481941
 42
-0.205055
  0
VERTEX
  8
0
 10
1590.000000
 20
3794.909692
 42
-0.207474
  0
VERTEX
  8
0
 10
1590.185065
 20
3795.336488
 42
-0.000950
  0
VERTEX
  8
0
 10
1593.831493
 20
3798.737631
 42
-0.004219
  0
VERTEX
  8
0
 10
1598.043066
 20
3802.585258
 42
-0.002626
  0
VERTEX
  8
0
 10
1603.043379
 20
3807.029416
 42
0.013261
  0
VERTEX
  8
0
 10
1613.228365
 20
3816.476851
 42
0.061729
  0
VERTEX
  8
0
 10
1618.215021
 20
3822.730859
 42
0.095795
  0
VERTEX
  8
0
 10
1620.416345
 20
3828.600256
 42
0.059880
  0
VERTEX
  8
0
 10
1620.771070
 20
3835.955516
 42
0.069281
  0
VERTEX
  8
0
 10
1619.028778
 20
3844.139102
 42
0.084298
  0
VERTEX
  8
0
 10
1615.165086
 20
3850.945315
 42
0.086299
  0
VERTEX
  8
0
 10
1609.356786
 20
3855.979444
 42
0.076775
  0
VERTEX
  8
0
 10
1601.954516
 20
3859.010911
 42
0.049622
  0
VERTEX
  8
0
 10
1597.265992
 20
3859.653873
 42
0.055294
  0
VERTEX
  8
0
 10
1592.715156
 20
3859.319456
 42
0.029230
  0
VERTEX
  8
0
 10
1586.414020
 20
3857.762273
 42
0.004549
  0
VERTEX
  8
0
 10
1574.187246
 20
3853.848193
 42
-0.003058
  0
VERTEX
  8
0
 10
1568.286500
 20
3851.939803
 42
-0.004972
  0
VERTEX
  8
0
 10
1563.250139
 20
3850.399854
 42
-0.001110
  0
VERTEX
  8
0
 10
1558.841839
 20
3849.110363
 42
-0.273465
  0
VERTEX
  8
0
 10
1558.457557
 20
3849.209109
 42
-0.140478
  0
VERTEX
  8
0
 10
1558.241726
 20
3849.598366
 42
-0.000569
  0
VERTEX
  8
0
 10
1557.119569
 20
3854.478807
 42
-0.002786
  0
VERTEX
  8
0
 10
1555.880074
 20
3860.040187
 42
-0.001743
  0
VERTEX
  8
0
 10
1554.488187
 20
3866.563022
 42
0.011478
  0
VERTEX
  8
0
 10
1551.509651
 20
3879.301128
 42
0.049170
  0
VERTEX
  8
0
 10
1548.831995
 20
3886.615750
 42
0.078053
  0
VERTEX
  8
0
 10
1545.464806
 20
3891.485447
 42
0.064162
  0
VERTEX
  8
0
 10
1540.552046
 20
3895.473564
 42
0.025064
  0
VERTEX
  8
0
 10
1537.647135
 20
3897.074204
 42
0.048643
  0
VERTEX
  8
0
 10
1535.166144
 20
3897.997567
 42
0.041627
  0
VERTEX
  8
0
 10
1532.310453
 20
3898.505054
 42
0.013951
  0
VERTEX
  8
0
 10
1528.078481
 20
3898.779537
 42
0.013181
  0
VERTEX
  8
0
 10
1524.181165
 20
3898.820493
 42
0.030522
  0
VERTEX
  8
0
 10
1521.265256
 20
3898.595886
 42
0.038220
  0
VERTEX
  8
0
 10
1518.836184
 20
3898.067211
 42
0.037510
  0
SEQEND
  0
POLYLINE
  8
0
 66
1
 70
1
  0
VERTEX
  8
0
 10
4399.168383
 20
3678.396619
 42
0.063028
  0
VERTEX
  8
0
 10
4393.607201
 20
3674.687631
 42
0.087024
  0
VERTEX
  8
0
 10
4389.827284
 20
3670.042894
 42
0.061885
  0
VERTEX
  8
0
 10
4387.055386
 20
3663.219724
 42
0.018104
  0
VERTEX
  8
0
 10
4384.512758
 20
3652.164648
 42
-0.010000
  0
VERTEX
  8
0
 10
4383.744178
 20
3648.556224
 42
-0.015016
  0
VERTEX
  8
0
 10
4382.917008
 20
3645.445416
 42
-0.009825
  0
VERTEX
  8
0
 10
4382.113440
 20
3642.933100
 42
-0.222352
  0
VERTEX
  8
0
 10
4381.599693
 20
3642.399882
 42
-0.152639
  0
VERTEX
  8
0
 10
4380.796732
 20
3642.348851
 42
-0.005359
  0
VERTEX
  8
0
 10
4377.743561
 20
3643.129071
 42
-0.009517
  0
VERTEX
  8
0
 10
4374.124121
 20
3644.169629
 42
-0.006466
  0
VERTEX
  8
0
 10
4370.043846
 20
3645.485234
 42
0.011498
  0
VERTEX
  8
0
 10
4365.722616
 20
3646.830677
 42
0.011702
  0
VERTEX
  8
0
 10
4361.369332
 20
3647.967538
 42
0.011541
  0
VERTEX
  8
0
 10
4357.544299
 20
3648.778655
 42
0.046503
  0
VERTEX
  8
0
 10
4355.169536
 20
3649.000000
 42
0.089490
  0
VERTEX
  8
0
 10
4345.810537
 20
3647.311396
 42
0.099702
  0
VERTEX
  8
0
 10
4338.026194
 20
3642.476881
 42
0.098685
  0
VERTEX
  8
0
 10
4332.664063
 20
3634.958890
 42
0.085891
  0
VERTEX
  8
0
 10
4330.254230
 20
3625.578400
 42
0.059311
  0
VERTEX
  8
0
 10
4330.513408
 20
3618.829426
 42
0.084402
  0
VERTEX
  8
0
 10
4332.427360
 20
3613.154234
 42
0.065725
  0
VERTEX
  8
0
 10
4336.526943
 20
3607.471324
 42
0.023301
  0
VERTEX
  8
0
 10
4343.753955
 20
3600.491456
 42
-0.003020
  0
VERTEX
  8
0
 10
4347.242451
 20
3597.385519
 42
-0.004763
  0
VERTEX
  8
0
 10
4350.194274
 20
3594.673864
 42
-0.001379
  0
VERTEX
  8
0
 10
4352.722844
 20
3592.293102
 42
-0.171119
  0
VERTEX
  8
0
 10
4352.919821
 20
3591.908933
 42
-0.237706
  0
VERTEX
  8
0
 10
4352.787759
 20
3591.525781
 42
-0.002174
  0
VERTEX
  8
0
 10
4350.553010
 20
3589.368441
 42
-0.006758
  0
VERTEX
  8
0
 10
4347.906757
 20
3586.903637
 42
-0.004243
  0
VERTEX
  8
0
 10
4344.750000
 20
3584.090456
 42
0.009989
  0
VERTEX
  8
0
 10
4341.393519
 20
3581.029364
 42
0.009717
  0
VERTEX
  8
0
 10
4338.130264
 20
3577.808805
 42
0.009661
  0
VERTEX
  8
0
 10
4335.373313
 20
3574.868515
 42
0.035273
  0
VERTEX
  8
0
 10
4333.799834
 20
3572.855243
 42
0.095852
  0
VERTEX
  8
0
 10
4330.626038
 20
3565.385101
 42
0.082505
  0
VERTEX
  8
0
 10
4330.233147
 20
3556.849875
 42
0.080828
  0
VERTEX
  8
0
 10
4332.636469
 20
3548.490309
 42
0.086250
  0
VERTEX
  8
0
 10
4337.533333
 20
3541.533333
 42
0.080512
  0
VERTEX
  8
0
 10
4344.061777
 20
3536.825936
 42
0.093037
  0
VERTEX
  8
0
 10
4351.426781
 20
3534.720028
 42
0.073843
  0
VERTEX
  8
0
 10
4360.374598
 20
3535.207759
 42
0.032800
  0
VERTEX
  8
0
 10
4371.800279
 20
3538.338557
 42
-0.006595
  0
VERTEX
  8
0
 10
4376.578053
 20
3539.920998
 42
-0.022311
  0
VERTEX
  8
0
 10
4379.751766
 20
3540.772192
 42
-0.028533
  0
VERTEX
  8
0
 10
4381.858202
 20
3541.112927
 42
-0.353194
  0
VERTEX
  8
0
 10
4382.493217
 20
3540.700763
 42
-0.025799
  0
VERTEX
  8
0
 10
4382.722377
 20
3539.854538
 42
-0.001118
  0
VERTEX
  8
0
 10
4383.364872
 20
3536.849533
 42
-0.001902
  0
VERTEX
  8
0
 10
4384.105489
 20
3533.280336
 42
-0.001354
  0
VERTEX
  8
0
 10
4384.909161
 20
3529.276370
 42
0.024750
  0
VERTEX
  8
0
 10
4387.321450
 20
3519.622712
 42
0.062903
  0
VERTEX
  8
0
 10
4390.261587
 20
3513.038918
 42
0.078558
  0
VERTEX
  8
0
 10
4394.293053
 20
3508.276168
 42
0.058736
  0
VERTEX
  8
0
 10
4400.000000
 20
3504.419980
 42
0.084225
  0
VERTEX
  8
0
 10
4404.563307
 20
3502.964062
 42
0.034731
  0
VERTEX
  8
0
 10
4411.055258
 20
3502.500058
 42
0.034676
  0
VERTEX
  8
0
 10
4417.525592
 20
3502.936851
 42
0.087633
  0
VERTEX
  8
0
 10
4422.000000
 20
3504.377766
 42
0.056989
  0
VERTEX
  8
0
 10
4427.734424
 20
3508.302759
 42
0.078117
  0
VERTEX
  8
0
 10
4431.760269
 20
3513.074621
 42
0.062871
  0
VERTEX
  8
0
 10
4434.685217
 20
3519.636553
 42
0.024594
  0
VERTEX
  8
0
 10
4437.090839
 20
3529.276370
 42
-0.001354
  0
VERTEX
  8
0
 10
4437.894511
 20
3533.280336
 42
-0.001902
  0
VERTEX
  8
0
 10
4438.635128
 20
3536.849533
 42
-0.001118
  0
VERTEX
  8
0
 10
4439.277623
 20
3539.854538
 42
-0.025799
  0
VERTEX
  8
0
 10
4439.506783
 20
3540.700763
 42
-0.353194
  0
VERTEX
  8
0
 10
4440.141798
 20
3541.112927
 42
-0.028533
  0
VERTEX
  8
0
 10
4442.248234
 20
3540.772192
 42
-0.022311
  0
VERTEX
  8
0
 10
4445.421947
 20
3539.920998
 42
-0.006595
  0
VERTEX
  8
0
 10
4450.199721
 20
3538.338557
 42
0.032800
  0
VERTEX
  8
0
 10
4461.625402
 20
3535.207759
 42
0.073843
  0
VERTEX
  8
0
 10
4470.573219
 20
3534.720028
 42
0.093037
  0
VERTEX
  8
0
 10
4477.938223
 20
3536.825936
 42
0.080512
  0
VERTEX
  8
0
 10
4484.466667
 20
3541.533333
 42
0.086250
  0
VERTEX
  8
0
 10
4489.363531
 20
3548.490309
 42
0.080828
  0
VERTEX
  8
0
 10
4491.766853
 20
3556.849875
 42
0.082505
  0
VERTEX
  8
0
 10
4491.373962
 20
3565.385101
 42
0.095852
  0
VERTEX
  8
0
 10
4488.200166
 20
3572.855243
 42
0.035273
  0
VERTEX
  8
0
 10
4486.626687
 20
3574.868515
 42
0.009661
  0
VERTEX
  8
0
 10
4483.869736
 20
3577.808805
 42
0.009717
  0
VERTEX
  8
0
 10
4480.606481
 20
3581.029364
 42
0.009989
  0
VERTEX
  8
0
 10
4477.250000
 20
3584.090456
 42
-0.004243
  0
VERTEX
  8
0
 10
4474.093243
 20
3586.903637
 42
-0.006758
  0
VERTEX
  8
0
 10
4471.446990
 20
3589.368441
 42
-0.002174
  0
VERTEX
  8
0
 10
4469.212241
 20
3591.525781
 42
-0.237706
  0
VERTEX
  8
0
 10
4469.080179
 20
3591.908933
 42
-0.171119
  0
VERTEX
  8
0
 10
4469.277156
 20
3592.293102
 42
-0.001379
  0
VERTEX
  8
0
 10
4471.805726
 20
3594.673864
 42
-0.004763
  0
VERTEX
  8
0
 10
4474.757549
 20
3597.385519
 42
-0.003020
  0
VERTEX
  8
0
 10
4478.246045
 20
3600.491456
 42
0.023301
  0
VERTEX
  8
0
 10
4485.473057
 20
3607.471324
 42
0.065725
  0
VERTEX
  8
0
 10
4489.572640
 20
3613.154234
 42
0.084402
  0
VERTEX
  8
0
 10
4491.486592
 20
3618.829426
 42
0.059311
  0
VERTEX
  8
0
 10
4491.745770
 20
3625.578400
 42
0.085891
  0
VERTEX
  8
0
 10
4489.335937
 20
3634.958890
 42
0.098685
  0
VERTEX
  8
0
 10
4483.973806
 20
3642.476881
 42
0.099702
  0
VERTEX
  8
0
 10
4476.189463
 20
3647.311396
 42
0.089490
  0
VERTEX
  8
0
 10
4466.830464
 20
3649.000000
 42
0.046503
  0
VERTEX
  8
0
 10
4464.455701
 20
3648.778655
 42
0.011541
  0
VERTEX
  8
0
 10
4460.630668
 20
3647.967538
 42
0.011702
  0
VERTEX
  8
0
 10
4456.277384
 20
3646.830677
 42
0.011498
  0
VERTEX
  8
0
 10
4451.956154
 20
3645.485234
 42
-0.006466
  0
VERTEX
  8
0
 10
4447.875879
 20
3644.169629
 42
-0.009517
  0
VERTEX
  8
0
 10
4444.256439
 20
3643.129071
 42
-0.005359
  0
VERTEX
  8
0
 10
4441.203268
 20
3642.348851
 42
-0.152639
  0
VERTEX
  8
0
 10
4440.400307
 20
3642.399882
 42
-0.222352
  0
VERTEX
  8
0
 10
4439.886560
 20
3642.933100
 42
-0.009825
  0
VERTEX
  8
0
 10
4439.082992
 20
3645.445416
 42
-0.015016
  0
VERTEX
  8
0
 10
4438.255822
 20
3648.556224
 42
-0.010000
  0
VERTEX
  8
0
 10
4437.487242
 20
3652.164648
 42
0.018104
  0
VERTEX
  8
0
 10
4434.944614
 20
3663.219724
 42
0.061885
  0
VERTEX
  8
0
 10
4432.172716
 20
3670.042894
 42
0.087024
  0
VERTEX
  8
0
 10
4428.392799
 20
3674.687631
 42
0.063028
  0
VERTEX
  8
0
 10
4422.831617
 20
3678.396619
 42
0.024154
  0
VERTEX
  8
0
 10
4419.935259
 20
3679.669283
 42
0.037298
  0
VERTEX
  8
0
 10
4417.317164
 20
3680.453825
 42
0.035260
  0
VERTEX
  8
0
 10
4414.506508
 20
3680.867388
 42
0.018903
  0
VERTEX
  8
0
 10
4411.000000
 20
3681.000000
 42
0.018903
  0
VERTEX
  8
0
 10
4407.493492
 20
3680.867388
 42
0.035260
  0
VERTEX
  8
0
 10
4404.682836
 20
3680.453825
 42
0.037298
  0
VERTEX
  8
0
 10
4402.064741
 20
3679.669283
 42
0.024154
  0
SEQEND
  0
POLYLINE
  8
0
 66
1
 70
1
  0
VERTEX
  8
0
 10
2645.074665
 20
3383.744852
 42
-0.000071
  0
VERTEX
  8
0
 10
2630.314480
 20
3311.870941
 42
-0.000117
  0
VERTEX
  8
0
 10
2617.827258
 20
3251.181028
 42
-0.000004
  0
VERTEX
  8
0
 10
2606.524579
 20
3196.315832
 42
-0.031140
  0
VERTEX
  8
0
 10
2606.276514
 20
3195.403329
 42
-0.410355
  0
VERTEX
  8
0
 10
2605.611239
 20
3195.070150
 42
-0.000051
  0
VERTEX
  8
0
 10
2556.181465
 20
3211.155187
 42
-0.001030
  0
VERTEX
  8
0
 10
2498.280216
 20
3230.135385
 42
-0.000471
  0
VERTEX
  8
0
 10
2422.770685
 20
3255.138831
 42
0.000132
  0
VERTEX
  8
0
 10
2352.537393
 20
3278.447975
 42
0.000220
  0
VERTEX
  8
0
 10
2293.387926
 20
3298.032375
 42
0.000002
  0
VERTEX
  8
0
 10
2239.657262
 20
3315.796129
 42
0.340482
  0
VERTEX
  8
0
 10
2239.484250
 20
3315.735502
 42
0.371118
  0
VERTEX
  8
0
 10
2239.522283
 20
3315.451919
 42
0.000001
  0
VERTEX
  8
0
 10
2379.379227
 20
3191.107768
 42
0.000019
  0
VERTEX
  8
0
 10
2514.324444
 20
3071.140185
 42
0.006324
  0
VERTEX
  8
0
 10
2525.003547
 20
3061.886235
 42
0.000000
  0
VERTEX
  8
0
 10
2528.098075
 20
3059.272471
 42
0.000000
  0
VERTEX
  8
0
 10
2386.262746
 20
2933.272093
 42
-0.000021
  0
VERTEX
  8
0
 10
2331.672897
 20
2884.780891
 42
-0.000034
  0
VERTEX
  8
0
 10
2285.220955
 20
2843.527489
 42
-0.000004
  0
VERTEX
  8
0
 10
2243.826549
 20
2806.771229
 42
-0.002624
  0
VERTEX
  8
0
 10
2241.463708
 20
2804.695247
 42
0.816247
  0
VERTEX
  8
0
 10
2242.026845
 20
2803.697777
 42
0.000701
  0
VERTEX
  8
0
 10
2287.609613
 20
2818.485479
 42
0.001410
  0
VERTEX
  8
0
 10
2359.161751
 20
2842.032409
 42
0.000177
  0
VERTEX
  8
0
 10
2513.950370
 20
2893.516472
 42
-0.000989
  0
VERTEX
  8
0
 10
2549.055721
 20
2905.129512
 42
-0.001644
  0
VERTEX
  8
0
 10
2578.698648
 20
2914.762662
 42
-0.000112
  0
VERTEX
  8
0
 10
2605.322717
 20
2923.311511
 42
-0.344728
  0
VERTEX
  8
0
 10
2605.950370
 20
2923.079928
 42
-0.087450
  0
VERTEX
  8
0
 10
2606.262260
 20
2922.296624
 42
-0.000010
  0
VERTEX
  8
0
 10
2617.610763
 20
2867.565829
 42
-0.000292
  0
VERTEX
  8
0
 10
2630.120359
 20
2807.051456
 42
-0.000177
  0
VERTEX
  8
0
 10
2644.873503
 20
2735.345117
 42
0.000233
  0
VERTEX
  8
0
 10
2659.632298
 20
2663.652177
 42
0.000386
  0
VERTEX
  8
0
 10
2672.158823
 20
2603.181690
 42
0.000012
  0
VERTEX
  8
0
 10
2683.538817
 20
2548.465078
 42
0.132964
  0
VERTEX
  8
0
 10
2683.873503
 20
2547.805318
 42
0.613529
  0
VERTEX
  8
0
 10
2684.208723
 20
2547.895807
 42
0.000019
  0
VERTEX
  8
0
 10
2695.625341
 20
2602.396980
 42
0.000618
  0
VERTEX
  8
0
 10
2708.191720
 20
2662.770181
 42
0.000369
  0
VERTEX
  8
0
 10
2723.000000
 20
2734.624785
 42
-0.000173
  0
VERTEX
  8
0
 10
2737.801631
 20
2806.589419
 42
-0.000287
  0
VERTEX
  8
0
 10
2750.352079
 20
2867.325534
 42
-0.000010
  0
VERTEX
  8
0
 10
2761.735999
 20
2922.251794
 42
-0.084292
  0
VERTEX
  8
0
 10
2762.049630
 20
2923.054278
 42
-0.348088
  0
VERTEX
  8
0
 10
2762.685625
 20
2923.293738
 42
-0.000117
  0
VERTEX
  8
0
 10
2789.301352
 20
2914.765693
 42
-0.001683
  0
VERTEX
  8
0
 10
2818.944254
 20
2905.149854
 42
-0.001013
  0
VERTEX
  8
0
 10
2854.049630
 20
2893.552440
 42
0.000093
  0
VERTEX
  8
0
 10
3030.511129
 20
2834.896208
 42
0.001436
  0
VERTEX
  8
0
 10
3091.241138
 20
2814.915386
 42
0.001319
  0
VERTEX
  8
0
 10
3125.865228
 20
2803.734715
 42
0.809386
  0
VERTEX
  8
0
 10
3126.468804
 20
2804.789791
 42
0.000783
  0
VERTEX
  8
0
 10
3124.040297
 20
2806.954303
 42
0.000001
  0
VERTEX
  8
0
 10
3082.713286
 20
2843.672697
 42
0.000010
  0
VERTEX
  8
0
 10
3036.300321
 20
2884.907930
 42
0.000006
  0
VERTEX
  8
0
 10
2981.770424
 20
2933.351304
 42
0.000000
  0
VERTEX
  8
0
 10
2840.103240
 20
3059.202609
 42
0.000000
  0
VERTEX
  8
0
 10
2984.631517
 20
3187.601304
 42
0.000104
  0
VERTEX
  8
0
 10
3040.028019
 20
3236.836016
 42
0.000173
  0
VERTEX
  8
0
 10
3086.607706
 20
3278.280793
 42
0.000002
  0
VERTEX
  8
0
 10
3128.864240
 20
3315.905515
 42
0.697312
  0
VERTEX
  8
0
 10
3128.829897
 20
3315.992883
 42
0.074779
  0
VERTEX
  8
0
 10
3128.565253
 20
3315.947224
 42
0.000001
  0
VERTEX
  8
0
 10
3074.789119
 20
3298.118468
 42
0.000079
  0
VERTEX
  8
0
 10
3015.585937
 20
3278.480017
 42
0.000047
  0
VERTEX
  8
0
 10
2945.324549
 20
3255.153806
 42
-0.000271
  0
VERTEX
  8
0
 10
2844.269580
 20
3221.654693
 42
-0.001960
  0
VERTEX
  8
0
 10
2795.526364
 20
3205.737666
 42
-0.000481
  0
VERTEX
  8
0
 10
2762.990366
 20
3195.288585
 42
-0.430122
  0
VERTEX
  8
0
 10
2761.712612
 20
3195.990971
 42
-0.013137
  0
VERTEX
  8
0
 10
2761.393048
 20
3197.358844
 42
-0.000004
  0
VERTEX
  8
0
 10
2750.132433
 20
3252.004089
 42
-0.000074
  0
VERTEX
  8
0
 10
2737.647745
 20
3312.637411
 42
-0.000045
  0
VERTEX
  8
0
 10
2722.903663
 20
3384.330048
 42
0.000249
  0
VERTEX
  8
0
 10
2708.152730
 20
3455.908075
 42
0.000415
  0
VERTEX
  8
0
 10
2695.651654
 20
3516.164189
 42
0.000007
  0
VERTEX
  8
0
 10
2684.270695
 20
3570.789537
 42
0.358063
  0
VERTEX
  8
0
 10
2684.015600
 20
3570.994852
 42
0.352540
  0
VERTEX
  8
0
 10
2683.760576
 20
3570.785288
 42
0.000007
  0
VERTEX
  8
0
 10
2672.364016
 20
3515.988041
 42
0.000412
  0
VERTEX
  8
0
 10
2659.845865
 20
3455.544028
 42
0.000247
  0
SEQEND
  0
POLYLINE
  8
0
 66
1
 70
1
  0
VERTEX
  8
0
 10
4314.083752
 20
3226.750000
 42
-0.002407
  0
VERTEX
  8
0
 10
4310.441661
 20
3216.991875
 42
-0.003708
  0
VERTEX
  8
0
 10
4307.188054
 20
3208.589751
 42
-0.001255
  0
VERTEX
  8
0
 10
4304.309082
 20
3201.368770
 42
-0.105039
  0
VERTEX
  8
0
 10
4303.648895
 20
3200.385321
 42
-0.097814
  0
VERTEX
  8
0
 10
4302.652055
 20
3199.738934
 42
-0.001172
  0
VERTEX
  8
0
 10
4295.420300
 20
3196.867887
 42
-0.003467
  0
VERTEX
  8
0
 10
4287.010554
 20
3193.619159
 42
-0.002253
  0
VERTEX
  8
0
 10
4277.250000
 20
3189.976370
 42
0.001951
  0
VERTEX
  8
0
 10
4267.569779
 20
3186.370215
 42
0.003220
  0
VERTEX
  8
0
 10
4259.422186
 20
3183.238669
 42
0.000441
  0
VERTEX
  8
0
 10
4252.230023
 20
3180.413741
 42
0.316042
  0
VERTEX
  8
0
 10
4252.017018
 20
3180.091048
 42
0.301183
  0
VERTEX
  8
0
 10
4252.244119
 20
3179.768778
 42
0.000407
  0
VERTEX
  8
0
 10
4259.661648
 20
3176.882995
 42
0.003064
  0
VERTEX
  8
0
 10
4268.053621
 20
3173.685010
 42
0.001860
  0
VERTEX
  8
0
 10
4278.017394
 20
3170.000000
 42
0.000000
  0
VERTEX
  8
0
 10
4304.000752
 20
3160.500000
 42
0.000000
  0
VERTEX
  8
0
 10
4306.862226
 20
3153.000000
 42
-0.001910
  0
VERTEX
  8
0
 10
4308.399772
 20
3148.923349
 42
-0.000467
  0
VERTEX
  8
0
 10
4310.900838
 20
3142.195312
 42
-0.000478
  0
VERTEX
  8
0
 10
4313.752868
 20
3134.478516
 42
-0.000477
  0
VERTEX
  8
0
 10
4316.592452
 20
3126.750000
 42
0.002299
  0
VERTEX
  8
0
 10
4319.263416
 20
3119.561458
 42
0.003785
  0
VERTEX
  8
0
 10
4321.596081
 20
3113.509973
 42
0.000611
  0
VERTEX
  8
0
 10
4323.698236
 20
3108.196150
 42
0.311262
  0
VERTEX
  8
0
 10
4323.980602
 20
3108.007355
 42
0.305332
  0
VERTEX
  8
0
 10
4324.264828
 20
3108.204673
 42
0.000312
  0
VERTEX
  8
0
 10
4327.177235
 20
3115.699130
 42
0.002689
  0
VERTEX
  8
0
 10
4330.402350
 20
3124.148146
 42
0.001629
  0
VERTEX
  8
0
 10
4334.133391
 20
3134.181793
 42
0.000000
  0
VERTEX
  8
0
 10
4343.766781
 20
3160.348876
 42
0.000000
  0
VERTEX
  8
0
 10
4369.864547
 20
3169.924438
 42
0.001848
  0
VERTEX
  8
0
 10
4379.872314
 20
3173.638419
 42
0.003044
  0
VERTEX
  8
0
 10
4388.301630
 20
3176.860799
 42
0.000403
  0
VERTEX
  8
0
 10
4395.753355
 20
3179.768501
 42
0.300071
  0
VERTEX
  8
0
 10
4395.981157
 20
3180.091048
 42
0.316755
  0
VERTEX
  8
0
 10
4395.768903
 20
3180.413858
 42
0.000441
  0
VERTEX
  8
0
 10
4388.577277
 20
3183.242667
 42
0.003223
  0
VERTEX
  8
0
 10
4380.430095
 20
3186.378605
 42
0.001953
  0
VERTEX
  8
0
 10
4370.750000
 20
3189.989980
 42
-0.001371
  0
VERTEX
  8
0
 10
4360.996020
 20
3193.615982
 42
-0.002132
  0
VERTEX
  8
0
 10
4352.608572
 20
3196.801031
 42
-0.000608
  0
VERTEX
  8
0
 10
4345.327545
 20
3199.611671
 42
-0.071623
  0
VERTEX
  8
0
 10
4344.449395
 20
3200.105893
 42
-0.134096
  0
VERTEX
  8
0
 10
4343.855923
 20
3200.888878
 42
-0.001082
  0
VERTEX
  8
0
 10
4340.945423
 20
3208.179832
 42
-0.003806
  0
VERTEX
  8
0
 10
4337.676205
 20
3216.607795
 42
-0.002427
  0
VERTEX
  8
0
 10
4333.996298
 20
3226.456962
 42
0.001977
  0
VERTEX
  8
0
 10
4330.347162
 20
3236.250692
 42
0.003258
  0
VERTEX
  8
0
 10
4327.176000
 20
3244.496733
 42
0.000455
  0
VERTEX
  8
0
 10
4324.315705
 20
3251.772680
 42
0.308057
  0
VERTEX
  8
0
 10
4323.981761
 20
3252.000000
 42
0.308060
  0
VERTEX
  8
0
 10
4323.647951
 20
3251.772769
 42
0.000466
  0
VERTEX
  8
0
 10
4320.821752
 20
3244.582812
 42
0.003296
  0
VERTEX
  8
0
 10
4317.688206
 20
3236.431364
 42
0.002000
  0
SEQEND
  0
POLYLINE
  8
0
 66
1
 70
1
  0
VERTEX
  8
0
 10
1107.775984
 20
3152.801679
 42
0.000042
  0
VERTEX
  8
0
 10
1104.331470
 20
3143.500975
 42
0.000024
  0
VERTEX
  8
0
 10
1100.165745
 20
3132.248359
 42
0.000024
  0
VERTEX
  8
0
 10
1095.971121
 20
3120.914366
 42
0.000039
  0
VERTEX
  8
0
 10
1092.429712
 20
3111.341671
 42
0.000000
  0
VERTEX
  8
0
 10
1084.604097
 20
3090.183342
 42
0.000000
  0
VERTEX
  8
0
 10
1043.276338
 20
3074.917382
 42
0.002081
  0
VERTEX
  8
0
 10
1027.483246
 20
3069.008808
 42
0.003526
  0
VERTEX
  8
0
 10
1014.316473
 20
3063.913778
 42
0.000554
  0
VERTEX
  8
0
 10
1002.816019
 20
3059.355296
 42
0.543288
  0
VERTEX
  8
0
 10
1002.724289
 20
3058.895610
 42
0.102334
  0
VERTEX
  8
0
 10
1003.435556
 20
3058.441266
 42
0.000234
  0
VERTEX
  8
0
 10
1015.169010
 20
3053.970807
 42
0.001539
  0
VERTEX
  8
0
 10
1028.417674
 20
3048.976783
 42
0.000955
  0
VERTEX
  8
0
 10
1044.000000
 20
3043.191679
 42
0.000000
  0
VERTEX
  8
0
 10
1084.500000
 20
3028.243559
 42
0.000000
  0
VERTEX
  8
0
 10
1099.938791
 20
2986.583439
 42
0.002195
  0
VERTEX
  8
0
 10
1106.084940
 20
2970.219513
 42
0.004220
  0
VERTEX
  8
0
 10
1111.179588
 20
2957.166487
 42
0.001009
  0
VERTEX
  8
0
 10
1115.575366
 20
2946.242712
 42
0.631092
  0
VERTEX
  8
0
 10
1116.090005
 20
2946.211659
 42
0.036520
  0
VERTEX
  8
0
 10
1116.572670
 20
2947.258230
 42
0.000159
  0
VERTEX
  8
0
 10
1120.927965
 20
2958.871550
 42
0.000773
  0
VERTEX
  8
0
 10
1125.851084
 20
2972.073787
 42
0.000488
  0
VERTEX
  8
0
 10
1131.559236
 20
2987.500000
 42
-0.000326
  0
VERTEX
  8
0
 10
1137.238350
 20
3002.863039
 42
-0.000535
  0
VERTEX
  8
0
 10
1142.067662
 20
3015.858370
 42
-0.000037
  0
VERTEX
  8
0
 10
1146.423832
 20
3027.539582
 42
-0.079221
  0
VERTEX
  8
0
 10
1146.610274
 20
3027.868918
 42
-0.135955
  0
VERTEX
  8
0
 10
1147.007926
 20
3028.157212
 42
-0.000012
  0
VERTEX
  8
0
 10
1181.768913
 20
3041.123365
 42
-0.000409
  0
VERTEX
  8
0
 10
1212.191218
 20
3052.441979
 42
-0.002129
  0
VERTEX
  8
0
 10
1229.000000
 20
3058.598730
 42
0.688289
  0
VERTEX
  8
0
 10
1229.008098
 20
3059.041147
 42
0.001023
  0
VERTEX
  8
0
 10
1218.603125
 20
3063.214014
 42
0.004049
  0
VERTEX
  8
0
 10
1206.351653
 20
3067.983740
 42
0.002321
  0
VERTEX
  8
0
 10
1191.500000
 20
3073.548965
 42
-0.000597
  0
VERTEX
  8
0
 10
1176.333861
 20
3079.172481
 42
-0.000885
  0
VERTEX
  8
0
 10
1163.058284
 20
3084.139785
 42
-0.000384
  0
VERTEX
  8
0
 10
1151.720966
 20
3088.414698
 42
-0.017925
  0
VERTEX
  8
0
 10
1149.443094
 20
3089.370247
 42
-0.154769
  0
VERTEX
  8
0
 10
1147.184698
 20
3091.432964
 42
-0.029680
  0
VERTEX
  8
0
 10
1144.668897
 20
3096.457524
 42
-0.012088
  0
VERTEX
  8
0
 10
1140.820359
 20
3106.073704
 42
-0.001018
  0
VERTEX
  8
0
 10
1131.542284
 20
3131.141741
 42
0.000829
  0
VERTEX
  8
0
 10
1125.801101
 20
3146.671576
 42
0.001336
  0
VERTEX
  8
0
 10
1120.852897
 20
3159.880255
 42
0.000201
  0
VERTEX
  8
0
 10
1116.426605
 20
3171.586101
 42
0.089361
  0
VERTEX
  8
0
 10
1115.997512
 20
3172.301679
 42
0.551260
  0
VERTEX
  8
0
 10
1115.568828
 20
3172.234595
 42
0.002237
  0
VERTEX
  8
0
 10
1113.293330
 20
3166.904246
 42
0.007003
  0
VERTEX
  8
0
 10
1110.710641
 20
3160.530654
 42
0.004055
  0
SEQEND
  0
POLYLINE
  8
0
 66
1
 70
1
  0
VERTEX
  8
0
 10
966.500000
 20
3027.578235
 42
0.013153
  0
VERTEX
  8
0
 10
745.825293
 20
2939.650433
 42
0.032487
  0
VERTEX
  8
0
 10
590.587914
 20
2860.712015
 42
0.045030
  0
VERTEX
  8
0
 10
488.059701
 20
2786.680930
 42
0.129789
  0
VERTEX
  8
0
 10
439.151899
 20
2714.774884
 42
0.019841
  0
VERTEX
  8
0
 10
435.998364
 20
2704.561410
 42
0.028890
  0
VERTEX
  8
0
 10
434.107594
 20
2695.330491
 42
0.028137
  0
VERTEX
  8
0
 10
433.263276
 20
2685.762113
 42
0.017539
  0
VERTEX
  8
0
 10
433.300687
 20
2674.500000
 42
0.034261
  0
VERTEX
  8
0
 10
435.103054
 20
2657.702512
 42
0.043727
  0
VERTEX
  8
0
 10
439.146439
 20
2642.671656
 42
0.042738
  0
VERTEX
  8
0
 10
445.832207
 20
2628.306837
 42
0.030602
  0
VERTEX
  8
0
 10
455.580157
 20
2613.500000
 42
0.026058
  0
VERTEX
  8
0
 10
461.607657
 20
2606.278278
 42
0.012421
  0
VERTEX
  8
0
 10
470.054596
 20
2597.609730
 42
0.012378
  0
VERTEX
  8
0
 10
479.201169
 20
2589.110156
 42
0.019507
  0
VERTEX
  8
0
 10
487.500000
 20
2582.330517
 42
0.069479
  0
VERTEX
  8
0
 10
558.661293
 20
2542.783233
 42
0.032731
  0
VERTEX
  8
0
 10
659.233964
 20
2511.334204
 42
0.026570
  0
VERTEX
  8
0
 10
787.911620
 20
2487.319944
 42
0.014693
  0
VERTEX
  8
0
 10
947.000000
 20
2471.037828
 42
0.003482
  0
VERTEX
  8
0
 10
1011.540941
 20
2466.794987
 42
0.007854
  0
VERTEX
  8
0
 10
1060.504168
 20
2464.689622
 42
0.005675
  0
VERTEX
  8
0
 10
1118.186435
 20
2463.771598
 42
0.001098
  0
VERTEX
  8
0
 10
1222.500000
 20
2463.524574
 42
0.000736
  0
VERTEX
  8
0
 10
1314.581611
 20
2463.644142
 42
0.003134
  0
VERTEX
  8
0
 10
1369.600821
 20
2464.141395
 42
0.003904
  0
VERTEX
  8
0
 10
1418.697550
 20
2465.276386
 42
0.001622
  0
VERTEX
  8
0
 10
1485.000000
 20
2467.542475
 42
0.008174
  0
VERTEX
  8
0
 10
1729.116333
 20
2480.677557
 42
0.007380
  0
VERTEX
  8
0
 10
1981.143482
 20
2502.116603
 42
0.007089
  0
VERTEX
  8
0
 10
2242.589277
 20
2531.998380
 42
0.006204
  0
VERTEX
  8
0
 10
2515.000000
 20
2570.494474
 42
0.000682
  0
VERTEX
  8
0
 10
2559.118527
 20
2577.350124
 42
0.000698
  0
VERTEX
  8
0
 10
2602.868907
 20
2584.272302
 42
0.000031
  0
VERTEX
  8
0
 10
2645.959863
 20
2591.154607
 42
0.132719
  0
VERTEX
  8
0
 10
2646.815286
 20
2591.539014
 42
0.277889
  0
VERTEX
  8
0
 10
2646.911508
 20
2591.808911
 42
0.000012
  0
VERTEX
  8
0
 10
2640.409404
 20
2623.941057
 42
0.000502
  0
VERTEX
  8
0
 10
2633.195162
 20
2659.404938
 42
0.000302
  0
VERTEX
  8
0
 10
2624.565286
 20
2701.481227
 42
-0.000093
  0
VERTEX
  8
0
 10
2615.913008
 20
2743.577178
 42
-0.000153
  0
VERTEX
  8
0
 10
2608.628553
 20
2779.106830
 42
-0.000005
  0
VERTEX
  8
0
 10
2602.045104
 20
2811.268993
 42
-0.050517
  0
VERTEX
  8
0
 10
2602.000000
 20
2811.714276
 42
0.458533
  0
VERTEX
  8
0
 10
2601.475099
 20
2812.166305
 42
0.002680
  0
VERTEX
  8
0
 10
2594.315073
 20
2811.052873
 42
0.003189
  0
VERTEX
  8
0
 10
2581.873193
 20
2808.968238
 42
0.000201
  0
VERTEX
  8
0
 10
2545.329780
 20
2802.590366
 42
-0.001430
  0
VERTEX
  8
0
 10
2474.062408
 20
2790.332519
 42
-0.001370
  0
VERTEX
  8
0
 10
2401.713285
 20
2778.305386
 42
-0.000977
  0
VERTEX
  8
0
 10
2310.549120
 20
2763.590015
 42
-0.000310
  0
VERTEX
  8
0
 10
2174.500000
 20
2741.988602
 42
-0.002874
  0
VERTEX
  8
0
 10
1967.761109
 20
2710.511646
 42
-0.006155
  0
VERTEX
  8
0
 10
1807.788913
 20
2689.103216
 42
-0.007674
  0
VERTEX
  8
0
 10
1673.117258
 20
2674.858957
 42
-0.009314
  0
VERTEX
  8
0
 10
1546.500000
 20
2665.802567
 42
-0.010831
  0
VERTEX
  8
0
 10
1510.116633
 20
2664.670127
 42
-0.003062
  0
VERTEX
  8
0
 10
1453.417542
 20
2664.481302
 42
-0.002937
  0
VERTEX
  8
0
 10
1397.107941
 20
2664.969312
 42
-0.013002
  0
VERTEX
  8
0
 10
1364.000000
 20
2666.312308
 42
-0.009832
  0
VERTEX
  8
0
 10
1309.952573
 20
2670.983225
 42
-0.015430
  0
VERTEX
  8
0
 10
1263.760985
 20
2677.338677
 42
-0.017809
  0
VERTEX
  8
0
 10
1223.850484
 20
2685.562138
 42
-0.024968
  0
VERTEX
  8
0
 10
1188.971435
 20
2695.922820
 42
0.000000
  0
VERTEX
  8
0
 10
1178.003276
 20
2699.786260
 42
0.000000
  0
VERTEX
  8
0
 10
1170.863902
 20
2697.522702
 42
0.016919
  0
VERTEX
  8
0
 10
1164.845480
 20
2695.387920
 42
0.175574
  0
VERTEX
  8
0
 10
1162.905332
 20
2693.678358
 42
0.377440
  0
VERTEX
  8
0
 10
1163.290107
 20
2691.965151
 42
0.051758
  0
VERTEX
  8
0
 10
1166.731161
 20
2689.973728
 42
0.028302
  0
VERTEX
  8
0
 10
1202.395297
 20
2676.361335
 42
0.018556
  0
VERTEX
  8
0
 10
1244.783575
 20
2664.587946
 42
0.015947
  0
VERTEX
  8
0
 10
1294.723410
 20
2654.364604
 42
0.010097
  0
VERTEX
  8
0
 10
1353.495784
 20
2645.491752
 42
-0.001182
  0
VERTEX
  8
0
 10
1370.885573
 20
2643.182726
 42
-0.009383
  0
VERTEX
  8
0
 10
1378.902900
 20
2641.945283
 42
-0.218823
  0
VERTEX
  8
0
 10
1379.661297
 20
2641.423358
 42
-0.580906
  0
VERTEX
  8
0
 10
1379.416667
 20
2640.991447
 42
0.014452
  0
VERTEX
  8
0
 10
1377.677615
 20
2640.936066
 42
0.002074
  0
VERTEX
  8
0
 10
1374.125521
 20
2640.705267
 42
0.002354
  0
VERTEX
  8
0
 10
1369.925363
 20
2640.394989
 42
0.002009
  0
VERTEX
  8
0
 10
1365.500000
 20
2640.029229
 42
-0.002808
  0
VERTEX
  8
0
 10
1345.295902
 20
2638.391863
 42
-0.000762
  0
VERTEX
  8
0
 10
1313.311187
 20
2636.029516
 42
-0.000800
  0
VERTEX
  8
0
 10
1278.699303
 20
2633.581815
 42
-0.001146
  0
VERTEX
  8
0
 10
1248.000000
 20
2631.530829
 42
-0.005134
  0
VERTEX
  8
0
 10
1135.708327
 20
2625.444222
 42
-0.007917
  0
VERTEX
  8
0
 10
1038.505700
 20
2622.717071
 42
-0.009147
  0
VERTEX
  8
0
 10
954.462311
 20
2623.227918
 42
-0.014456
  0
VERTEX
  8
0
 10
882.500000
 20
2627.065852
 42
-0.009887
  0
VERTEX
  8
0
 10
857.837611
 20
2629.589302
 42
-0.008781
  0
VERTEX
  8
0
 10
832.295713
 20
2633.170464
 42
-0.009009
  0
VERTEX
  8
0
 10
809.148681
 20
2637.260144
 42
-0.022512
  0
VERTEX
  8
0
 10
792.467547
 20
2641.305401
 42
0.010290
  0
VERTEX
  8
0
 10
788.327193
 20
2642.417250
 42
0.030158
  0
VERTEX
  8
0
 10
785.422903
 20
2642.950165
 42
0.042749
  0
VERTEX
  8
0
 10
783.122905
 20
2643.032379
 42
0.052110
  0
VERTEX
  8
0
 10
780.995144
 20
2642.702432
 42
-0.063246
  0
VERTEX
  8
0
 10
775.974145
 20
2642.037595
 42
-0.030752
  0
VERTEX
  8
0
 10
769.503835
 20
2642.401365
 42
-0.030589
  0
VERTEX
  8
0
 10
762.965093
 20
2643.583147
 42
-0.050521
  0
VERTEX
  8
0
 10
757.680163
 20
2645.458095
 42
-0.055569
  0
VERTEX
  8
0
 10
752.812823
 20
2648.461744
 42
-0.031790
  0
VERTEX
  8
0
 10
747.650426
 20
2653.058305
 42
-0.031643
  0
VERTEX
  8
0
 10
743.293749
 20
2658.060916
 42
-0.083709
  0
VERTEX
  8
0
 10
741.083280
 20
2662.243321
 42
0.000000
  0
VERTEX
  8
0
 10
740.007047
 20
2665.500000
 42
0.000000
  0
VERTEX
  8
0
 10
732.253524
 20
2665.525040
 42
-0.045829
  0
VERTEX
  8
0
 10
725.081331
 20
2666.207177
 42
-0.054716
  0
VERTEX
  8
0
 10
718.588602
 20
2668.185346
 42
-0.055263
  0
VERTEX
  8
0
 10
712.731435
 20
2671.503845
 42
-0.048258
  0
VERTEX
  8
0
 10
707.444961
 20
2676.162295
 42
-0.035840
  0
VERTEX
  8
0
 10
703.773003
 20
2680.699615
 42
-0.042940
  0
VERTEX
  8
0
 10
701.029541
 20
2685.459156
 42
-0.040552
  0
VERTEX
  8
0
 10
699.027890
 20
2690.842086
 42
-0.027012
  0
VERTEX
  8
0
 10
697.584885
 20
2697.266758
 42
0.000000
  0
VERTEX
  8
0
 10
696.420230
 20
2704.178886
 42
0.000000
  0
VERTEX
  8
0
 10
691.690830
 20
2695.839443
 42
0.013648
  0
VERTEX
  8
0
 10
689.684182
 20
2692.064574
 42
0.008855
  0
VERTEX
  8
0
 10
687.562609
 20
2687.599711
 42
0.008905
  0
VERTEX
  8
0
 10
685.644520
 20
2683.163142
 42
0.016674
  0
VERTEX
  8
0
 10
684.278596
 20
2679.500000
 42
0.017252
  0
VERTEX
  8
0
 10
682.811806
 20
2674.567925
 42
0.032781
  0
VERTEX
  8
0
 10
682.033969
 20
2670.502167
 42
0.024289
  0
VERTEX
  8
0
 10
681.669102
 20
2665.641461
 42
0.005734
  0
VERTEX
  8
0
 10
681.547881
 20
2657.500000
 42
0.011295
  0
VERTEX
  8
0
 10
681.734096
 20
2647.786884
 42
0.032444
  0
VERTEX
  8
0
 10
682.451464
 20
2641.084396
 42
0.038241
  0
VERTEX
  8
0
 10
683.949712
 20
2635.165835
 42
0.021399
  0
VERTEX
  8
0
 10
686.617071
 20
2628.230651
 42
0.034795
  0
VERTEX
  8
0
 10
689.919779
 20
2621.879371
 42
0.019726
  0
VERTEX
  8
0
 10
694.734238
 20
2614.665999
 42
0.019526
  0
VERTEX
  8
0
 10
700.235298
 20
2607.679911
 42
0.028172
  0
VERTEX
  8
0
 10
705.665750
 20
2601.993830
 42
-0.009977
  0
VERTEX
  8
0
 10
708.029344
 20
2599.692682
 42
-0.019803
  0
VERTEX
  8
0
 10
709.790701
 20
2597.760688
 42
-0.022703
  0
VERTEX
  8
0
 10
710.884800
 20
2596.334039
 42
-0.606120
  0
VERTEX
  8
0
 10
710.710479
 20
2596.000000
 42
-0.043178
  0
VERTEX
  8
0
 10
705.945716
 20
2596.412235
 42
-0.000862
  0
VERTEX
  8
0
 10
682.000389
 20
2600.629388
 42
-0.002293
  0
VERTEX
  8
0
 10
658.955196
 20
2604.838077
 42
-0.006572
  0
VERTEX
  8
0
 10
643.000000
 20
2608.045240
 42
-0.023473
  0
VERTEX
  8
0
 10
587.900335
 20
2622.611493
 42
-0.045660
  0
VERTEX
  8
0
 10
545.971948
 20
2640.172859
 42
-0.061270
  0
VERTEX
  8
0
 10
518.195154
 20
2659.598411
 42
-0.177820
  0
VERTEX
  8
0
 10
507.413528
 20
2680.000000
 42
-0.089895
  0
VERTEX
  8
0
 10
507.774666
 20
2688.001078
 42
-0.037954
  0
VERTEX
  8
0
 10
510.967942
 20
2698.313642
 42
-0.033679
  0
VERTEX
  8
0
 10
516.415412
 20
2709.780799
 42
-0.026317
  0
VERTEX
  8
0
 10
523.780172
 20
2721.438394
 42
-0.034596
  0
VERTEX
  8
0
 10
532.349631
 20
2731.922853
 42
-0.009090
  0
VERTEX
  8
0
 10
547.498422
 20
2747.465233
 42
-0.009671
  0
VERTEX
  8
0
 10
564.109035
 20
2763.275007
 42
-0.017069
  0
VERTEX
  8
0
 10
578.500000
 20
2775.575198
 42
-0.026230
  0
VERTEX
  8
0
 10
637.518789
 20
2817.766554
 42
-0.017008
  0
VERTEX
  8
0
 10
709.748671
 20
2860.494109
 42
-0.014729
  0
VERTEX
  8
0
 10
796.027379
 20
2904.398363
 42
-0.009597
  0
VERTEX
  8
0
 10
897.997597
 20
2950.188299
 42
-0.003651
  0
VERTEX
  8
0
 10
928.974317
 20
2963.123611
 42
-0.002096
  0
VERTEX
  8
0
 10
966.496041
 20
2978.287930
 42
-0.002098
  0
VERTEX
  8
0
 10
1003.845719
 20
2993.019458
 42
-0.003932
  0
VERTEX
  8
0
 10
1034.191728
 20
3004.567692
 42
0.003318
  0
VERTEX
  8
0
 10
1044.344625
 20
3008.417146
 42
0.005806
  0
VERTEX
  8
0
 10
1052.692691
 20
3011.757779
 42
0.001814
  0
VERTEX
  8
0
 10
1059.672323
 20
3014.674974
 42
0.632130
  0
VERTEX
  8
0
 10
1059.691728
 20
3015.117144
 42
0.034832
  0
VERTEX
  8
0
 10
1054.820986
 20
3017.278268
 42
0.000591
  0
VERTEX
  8
0
 10
1027.250904
 20
3027.241652
 42
0.000235
  0
VERTEX
  8
0
 10
998.415277
 20
3037.608573
 42
0.094120
  0
VERTEX
  8
0
 10
996.289580
 20
3037.945013
 42
0.075262
  0
VERTEX
  8
0
 10
994.972919
 20
3037.704118
 42
0.000923
  0
VERTEX
  8
0
 10
986.800689
 20
3034.877090
 42
0.002720
  0
VERTEX
  8
0
 10
977.360705
 20
3031.534302
 42
0.001774
  0
SEQEND
  0
POLYLINE
  8
0
 66
1
 70
1
  0
VERTEX
  8
0
 10
3971.500000
 20
2804.028540
 42
-0.001792
  0
VERTEX
  8
0
 10
3861.899812
 20
2777.013866
 42
-0.001305
  0
VERTEX
  8
0
 10
3739.851648
 20
2747.731796
 42
-0.001285
  0
VERTEX
  8
0
 10
3614.921754
 20
2718.441854
 42
-0.001514
  0
VERTEX
  8
0
 10
3496.500000
 20
2691.376075
 42
-0.000992
  0
VERTEX
  8
0
 10
3452.370047
 20
2681.522451
 42
-0.000184
  0
VERTEX
  8
0
 10
3371.090871
 20
2663.574427
 42
-0.000147
  0
VERTEX
  8
0
 10
3289.156065
 20
2645.538444
 42
-0.001621
  0
VERTEX
  8
0
 10
3256.301300
 20
2638.427999
 42
0.005332
  0
VERTEX
  8
0
 10
3253.072062
 20
2637.704000
 42
0.007080
  0
VERTEX
  8
0
 10
3250.152286
 20
2636.972817
 42
0.005200
  0
VERTEX
  8
0
 10
3247.729971
 20
2636.302583
 42
0.068416
  0
VERTEX
  8
0
 10
3246.881556
 20
2635.926797
 42
0.382209
  0
VERTEX
  8
0
 10
3246.560460
 20
2634.839167
 42
0.000015
  0
VERTEX
  8
0
 10
3306.015717
 20
2509.561271
 42
0.000467
  0
VERTEX
  8
0
 10
3382.762642
 20
2348.249412
 42
0.000131
  0
VERTEX
  8
0
 10
3502.984069
 20
2096.336075
 42
0.000046
  0
VERTEX
  8
0
 10
3602.202556
 20
1888.621899
 42
0.000074
  0
VERTEX
  8
0
 10
3687.059709
 20
1711.083097
 42
0.000013
  0
VERTEX
  8
0
 10
3762.080906
 20
1554.193534
 42
0.004007
  0
VERTEX
  8
0
 10
3768.276572
 20
1541.500000
 42
0.018444
  0
VERTEX
  8
0
 10
3787.195198
 20
1506.785436
 42
0.021762
  0
VERTEX
  8
0
 10
3807.677107
 20
1475.481035
 42
0.021834
  0
VERTEX
  8
0
 10
3830.741091
 20
1446.162320
 42
0.018798
  0
VERTEX
  8
0
 10
3857.409548
 20
1417.409548
 42
0.024584
  0
VERTEX
  8
0
 10
3893.449099
 20
1384.749817
 42
0.025928
  0
VERTEX
  8
0
 10
3931.908057
 20
1356.399048
 42
0.026151
  0
VERTEX
  8
0
 10
3972.771409
 20
1332.395784
 42
0.025989
  0
VERTEX
  8
0
 10
4016.000000
 20
1312.734863
 42
0.006758
  0
VERTEX
  8
0
 10
4050.087180
 20
1299.851131
 42
0.000054
  0
VERTEX
  8
0
 10
4322.128112
 20
1201.243554
 42
0.000019
  0
VERTEX
  8
0
 10
4604.126066
 20
1099.073412
 42
0.020016
  0
VERTEX
  8
0
 10
4616.500000
 20
1095.143328
 42
0.016340
  0
VERTEX
  8
0
 10
4622.069503
 20
1093.810863
 42
0.026909
  0
VERTEX
  8
0
 10
4626.857292
 20
1093.095350
 42
0.019137
  0
VERTEX
  8
0
 10
4632.710125
 20
1092.765639
 42
0.004519
  0
VERTEX
  8
0
 10
4642.500000
 20
1092.677852
 42
0.004620
  0
VERTEX
  8
0
 10
4651.867042
 20
1092.765074
 42
0.016870
  0
VERTEX
  8
0
 10
4657.800023
 20
1093.075578
 42
0.024301
  0
VERTEX
  8
0
 10
4662.484180
 20
1093.709983
 42
0.020899
  0
VERTEX
  8
0
 10
4667.330169
 20
1094.819122
 42
0.070100
  0
VERTEX
  8
0
 10
4698.149456
 20
1108.095789
 42
0.078110
  0
VERTEX
  8
0
 10
4722.834305
 20
1128.999227
 42
0.078737
  0
VERTEX
  8
0
 10
4739.772427
 20
1156.312337
 42
0.072803
  0
VERTEX
  8
0
 10
4748.021524
 20
1188.271253
 42
0.036364
  0
VERTEX
  8
0
 10
4748.485359
 20
1201.688425
 42
0.031194
  0
VERTEX
  8
0
 10
4747.067287
 20
1215.749759
 42
0.031097
  0
VERTEX
  8
0
 10
4743.902440
 20
1229.574217
 42
0.035471
  0
VERTEX
  8
0
 10
4739.145391
 20
1242.284083
 42
0.004110
  0
VERTEX
  8
0
 10
4736.784311
 20
1247.335053
 42
0.000001
  0
VERTEX
  8
0
 10
4628.953259
 20
1473.155324
 42
0.000020
  0
VERTEX
  8
0
 10
4509.429456
 20
1723.434946
 42
0.000012
  0
VERTEX
  8
0
 10
4368.016398
 20
2019.500000
 42
-0.000011
  0
VERTEX
  8
0
 10
4226.503113
 20
2315.772686
 42
-0.000018
  0
VERTEX
  8
0
 10
4106.649516
 20
2566.735938
 42
-0.000001
  0
VERTEX
  8
0
 10
3998.953691
 20
2792.264239
 42
-0.002423
  0
VERTEX
  8
0
 10
3995.423505
 20
2799.750000
 42
0.002982
  0
VERTEX
  8
0
 10
3993.749708
 20
2803.289016
 42
0.004948
  0
VERTEX
  8
0
 10
3992.290850
 20
2806.251093
 42
0.000988
  0
VERTEX
  8
0
 10
3990.987453
 20
2808.820123
 42
0.375407
  0
VERTEX
  8
0
 10
3990.807996
 20
2808.892020
 42
-0.022591
  0
VERTEX
  8
0
 10
3990.556449
 20
2808.816400
 42
-0.000024
  0
VERTEX
  8
0
 10
3985.009224
 20
2807.418831
 42
-0.000233
  0
VERTEX
  8
0
 10
3978.806603
 20
2805.859530
 42
-0.000143
  0
SEQEND
  0
POLYLINE
  8
0
 66
1
 70
1
  0
VERTEX
  8
0
 10
766.897338
 20
2789.076987
 42
0.073641
  0
VERTEX
  8
0
 10
760.721366
 20
2786.873296
 42
0.061237
  0
VERTEX
  8
0
 10
755.008320
 20
2782.862686
 42
0.063492
  0
VERTEX
  8
0
 10
750.639129
 20
2777.775197
 42
0.096644
  0
VERTEX
  8
0
 10
748.430854
 20
2772.404270
 42
0.000000
  0
VERTEX
  8
0
 10
747.818253
 20
2769.341266
 42
0.000000
  0
VERTEX
  8
0
 10
740.159127
 20
2769.765663
 42
0.012040
  0
VERTEX
  8
0
 10
735.617528
 20
2769.907750
 42
0.047990
  0
VERTEX
  8
0
 10
732.845386
 20
2769.661187
 42
0.055147
  0
VERTEX
  8
0
 10
730.364312
 20
2768.907815
 42
0.019414
  0
VERTEX
  8
0
 10
727.000000
 20
2767.308288
 42
0.114486
  0
VERTEX
  8
0
 10
718.478754
 20
2759.975002
 42
0.111559
  0
VERTEX
  8
0
 10
713.956822
 20
2749.571173
 42
0.113622
  0
VERTEX
  8
0
 10
714.387145
 20
2738.389434
 42
0.122328
  0
VERTEX
  8
0
 10
719.693448
 20
2728.862524
 42
0.000000
  0
VERTEX
  8
0
 10
722.158573
 20
2726.225048
 42
0.000000
  0
VERTEX
  8
0
 10
718.671683
 20
2721.656974
 42
0.122411
  0
VERTEX
  8
0
 10
713.889268
 20
2710.604045
 42
0.122676
  0
VERTEX
  8
0
 10
714.843540
 20
2698.607866
 42
0.122008
  0
VERTEX
  8
0
 10
721.325551
 20
2688.412818
 42
0.120260
  0
VERTEX
  8
0
 10
731.849171
 20
2682.355470
 42
0.019752
  0
VERTEX
  8
0
 10
734.753663
 20
2681.634180
 42
0.036744
  0
VERTEX
  8
0
 10
737.158170
 20
2681.318702
 42
0.038606
  0
VERTEX
  8
0
 10
739.502043
 20
2681.365988
 42
0.024470
  0
VERTEX
  8
0
 10
742.206512
 20
2681.764435
 42
-0.010145
  0
VERTEX
  8
0
 10
744.972366
 20
2682.253225
 42
-0.068111
  0
VERTEX
  8
0
 10
746.363609
 20
2682.279128
 42
-0.158677
  0
VERTEX
  8
0
 10
747.158627
 20
2681.912467
 42
-0.133064
  0
VERTEX
  8
0
 10
747.653494
 20
2681.122028
 42
0.042935
  0
VERTEX
  8
0
 10
749.744311
 20
2675.896539
 42
0.048430
  0
VERTEX
  8
0
 10
752.630155
 20
2671.326214
 42
0.050552
  0
VERTEX
  8
0
 10
756.214202
 20
2667.562956
 42
0.055544
  0
VERTEX
  8
0
 10
760.375791
 20
2664.729328
 42
0.078451
  0
VERTEX
  8
0
 10
765.447191
 20
2662.990906
 42
0.043279
  0
VERTEX
  8
0
 10
771.991134
 20
2662.419137
 42
0.043287
  0
VERTEX
  8
0
 10
778.532400
 20
2662.982234
 42
0.078795
  0
VERTEX
  8
0
 10
783.594680
 20
2664.714264
 42
0.048218
  0
VERTEX
  8
0
 10
787.327813
 20
2667.177671
 42
0.043002
  0
VERTEX
  8
0
 10
790.678841
 20
2670.398572
 42
0.042708
  0
VERTEX
  8
0
 10
793.451096
 20
2674.169966
 42
0.045959
  0
VERTEX
  8
0
 10
795.464877
 20
2678.268859
 42
0.000000
  0
VERTEX
  8
0
 10
797.175469
 20
2682.747980
 42
0.000000
  0
VERTEX
  8
0
 10
801.298235
 20
2681.821656
 42
0.104162
  0
VERTEX
  8
0
 10
810.100023
 20
2681.703360
 42
0.093482
  0
VERTEX
  8
0
 10
818.583275
 20
2685.097176
 42
0.090543
  0
VERTEX
  8
0
 10
825.459934
 20
2691.472359
 42
0.090173
  0
VERTEX
  8
0
 10
829.652045
 20
2699.875020
 42
0.059918
  0
VERTEX
  8
0
 10
830.696510
 20
2706.217356
 42
0.067709
  0
VERTEX
  8
0
 10
830.131805
 20
2712.358988
 42
0.068392
  0
VERTEX
  8
0
 10
827.957188
 20
2718.076069
 42
0.063022
  0
VERTEX
  8
0
 10
824.273256
 20
2723.172229
 42
0.000000
  0
VERTEX
  8
0
 10
821.774836
 20
2725.844459
 42
0.000000
  0
VERTEX
  8
0
 10
824.387095
 20
2728.661663
 42
0.042468
  0
VERTEX
  8
0
 10
827.177170
 20
2732.236050
 42
0.055427
  0
VERTEX
  8
0
 10
829.044022
 20
2735.937224
 42
0.053119
  0
VERTEX
  8
0
 10
830.103793
 20
2740.082826
 42
0.034901
  0
VERTEX
  8
0
 10
830.470134
 20
2745.000000
 42
0.062164
  0
VERTEX
  8
0
 10
829.605228
 20
2752.198508
 42
0.076261
  0
VERTEX
  8
0
 10
826.996055
 20
2758.439708
 42
0.076208
  0
VERTEX
  8
0
 10
822.634127
 20
2763.614956
 42
0.061968
  0
VERTEX
  8
0
 10
816.619835
 20
2767.681790
 42
0.025321
  0
VERTEX
  8
0
 10
813.718606
 20
2768.977961
 42
0.048898
  0
VERTEX
  8
0
 10
811.271305
 20
2769.660047
 42
0.040940
  0
VERTEX
  8
0
 10
808.466768
 20
2769.919523
 42
0.013034
  0
VERTEX
  8
0
 10
804.269624
 20
2769.853860
 42
0.000000
  0
VERTEX
  8
0
 10
796.799577
 20
2769.542109
 42
0.000000
  0
VERTEX
  8
0
 10
795.475512
 20
2773.393558
 42
0.097150
  0
VERTEX
  8
0
 10
791.193892
 20
2780.788691
 42
0.087817
  0
VERTEX
  8
0
 10
784.298938
 20
2786.331375
 42
0.086158
  0
VERTEX
  8
0
 10
775.795504
 20
2789.244232
 42
0.088694
  0
SEQEND
  0
POLYLINE
  8
0
 66
1
 70
1
  0
VERTEX
  8
0
 10
1135.000000
 20
2740.324595
 42
0.000000
  0
VERTEX
  8
0
 10
1129.500000
 20
2725.678691
 42
0.000000
  0
VERTEX
  8
0
 10
1115.089490
 20
2720.345503
 42
0.001238
  0
VERTEX
  8
0
 10
1109.540426
 20
2718.276216
 42
0.001977
  0
VERTEX
  8
0
 10
1104.810975
 20
2716.477845
 42
0.000376
  0
VERTEX
  8
0
 10
1100.649341
 20
2714.872926
 42
0.104522
  0
VERTEX
  8
0
 10
1100.334834
 20
2714.668167
 42
0.537893
  0
VERTEX
  8
0
 10
1100.377087
 20
2714.461429
 42
0.000919
  0
VERTEX
  8
0
 10
1104.359719
 20
2712.869079
 42
0.004551
  0
VERTEX
  8
0
 10
1108.972616
 20
2711.083017
 42
0.002675
  0
VERTEX
  8
0
 10
1114.519841
 20
2709.026881
 42
-0.004882
  0
VERTEX
  8
0
 10
1120.138130
 20
2706.916154
 42
-0.007368
  0
VERTEX
  8
0
 10
1124.985400
 20
2704.958283
 42
-0.003411
  0
VERTEX
  8
0
 10
1129.053143
 20
2703.212360
 42
-0.151311
  0
VERTEX
  8
0
 10
1129.744636
 20
2702.614871
 42
-0.045782
  0
VERTEX
  8
0
 10
1130.171894
 20
2701.766110
 42
-0.001146
  0
VERTEX
  8
0
 10
1131.747586
 20
2697.734298
 42
-0.002455
  0
VERTEX
  8
0
 10
1133.564024
 20
2692.985879
 42
-0.001670
  0
VERTEX
  8
0
 10
1135.586331
 20
2687.565720
 42
0.003478
  0
VERTEX
  8
0
 10
1139.746297
 20
2676.538195
 42
0.356767
  0
VERTEX
  8
0
 10
1141.072045
 20
2675.783113
 42
0.268090
  0
VERTEX
  8
0
 10
1142.402077
 20
2676.884223
 42
0.002419
  0
VERTEX
  8
0
 10
1147.015542
 20
2689.500000
 42
-0.004443
  0
VERTEX
  8
0
 10
1148.750125
 20
2694.184460
 42
-0.006257
  0
VERTEX
  8
0
 10
1150.385881
 20
2698.327557
 42
-0.003828
  0
VERTEX
  8
0
 10
1151.828081
 20
2701.775169
 42
-0.082516
  0
VERTEX
  8
0
 10
1152.419053
 20
2702.700194
 42
-0.106552
  0
VERTEX
  8
0
 10
1153.322080
 20
2703.352157
 42
-0.003763
  0
VERTEX
  8
0
 10
1157.294972
 20
2705.057653
 42
-0.006823
  0
VERTEX
  8
0
 10
1162.057450
 20
2706.983754
 42
-0.004706
  0
VERTEX
  8
0
 10
1167.500000
 20
2709.040207
 42
0.001017
  0
VERTEX
  8
0
 10
1172.887517
 20
2711.030567
 42
0.001635
  0
VERTEX
  8
0
 10
1177.470726
 20
2712.751468
 42
0.000263
  0
VERTEX
  8
0
 10
1181.523887
 20
2714.290931
 42
0.102849
  0
VERTEX
  8
0
 10
1181.783323
 20
2714.456669
 42
0.543335
  0
VERTEX
  8
0
 10
1181.749675
 20
2714.624298
 42
0.000622
  0
VERTEX
  8
0
 10
1177.787694
 20
2716.188565
 42
0.003735
  0
VERTEX
  8
0
 10
1173.240530
 20
2717.938228
 42
0.002202
  0
VERTEX
  8
0
 10
1167.783323
 20
2719.964008
 42
-0.005920
  0
VERTEX
  8
0
 10
1162.227811
 20
2722.073416
 42
-0.008485
  0
VERTEX
  8
0
 10
1157.359316
 20
2724.084268
 42
-0.005108
  0
VERTEX
  8
0
 10
1153.333011
 20
2725.876882
 42
-0.118899
  0
VERTEX
  8
0
 10
1152.354773
 20
2726.645195
 42
-0.068218
  0
VERTEX
  8
0
 10
1151.716592
 20
2727.729153
 42
-0.003280
  0
VERTEX
  8
0
 10
1150.119867
 20
2731.621110
 42
-0.005308
  0
VERTEX
  8
0
 10
1148.297898
 20
2736.288825
 42
-0.003795
  0
VERTEX
  8
0
 10
1146.354773
 20
2741.547620
 42
0.003112
  0
VERTEX
  8
0
 10
1144.457435
 20
2746.704141
 42
0.005103
  0
VERTEX
  8
0
 10
1142.779215
 20
2751.043780
 42
0.001100
  0
VERTEX
  8
0
 10
1141.269166
 20
2754.809034
 42
0.313788
  0
VERTEX
  8
0
 10
1141.000000
 20
2754.985026
 42
0.295614
  0
VERTEX
  8
0
 10
1140.728018
 20
2754.797391
 42
0.000893
  0
VERTEX
  8
0
 10
1139.031250
 20
2750.672532
 42
0.004536
  0
VERTEX
  8
0
 10
1137.144708
 20
2745.940934
 42
0.002771
  0
SEQEND
  0
POLYLINE
  8
0
 66
1
 70
1
  0
VERTEX
  8
0
 10
4543.726935
 20
2619.942599
 42
0.073139
  0
VERTEX
  8
0
 10
4517.164317
 20
2613.012717
 42
0.072315
  0
VERTEX
  8
0
 10
4493.607706
 20
2598.712356
 42
0.071976
  0
VERTEX
  8
0
 10
4475.009804
 20
2578.225917
 42
0.071361
  0
VERTEX
  8
0
 10
4462.916341
 20
2553.250000
 42
-0.009197
  0
VERTEX
  8
0
 10
4461.587811
 20
2549.331075
 42
-0.052204
  0
VERTEX
  8
0
 10
4460.631717
 20
2547.349539
 42
-0.112226
  0
VERTEX
  8
0
 10
4459.656392
 20
2546.358447
 42
-0.143447
  0
VERTEX
  8
0
 10
4458.432694
 20
2546.000000
 42
0.042175
  0
VERTEX
  8
0
 10
4453.974074
 20
2545.623247
 42
0.004036
  0
VERTEX
  8
0
 10
4443.228662
 20
2543.704833
 42
0.005661
  0
VERTEX
  8
0
 10
4432.094909
 20
2541.493469
 42
0.011704
  0
VERTEX
  8
0
 10
4423.460570
 20
2539.464559
 42
0.028948
  0
VERTEX
  8
0
 10
4408.041907
 20
2534.490142
 42
0.067271
  0
VERTEX
  8
0
 10
4397.429246
 20
2528.633043
 42
0.097379
  0
VERTEX
  8
0
 10
4391.205529
 20
2521.789678
 42
0.136811
  0
VERTEX
  8
0
 10
4389.000000
 20
2513.880056
 42
0.097086
  0
VERTEX
  8
0
 10
4389.789104
 20
2509.854407
 42
0.058047
  0
VERTEX
  8
0
 10
4392.148732
 20
2505.566709
 42
0.053252
  0
VERTEX
  8
0
 10
4395.715708
 20
2501.544299
 42
0.050972
  0
VERTEX
  8
0
 10
4400.101360
 20
2498.298888
 42
0.049655
  0
VERTEX
  8
0
 10
4409.821727
 20
2493.770268
 42
0.019242
  0
VERTEX
  8
0
 10
4424.035515
 20
2489.400187
 42
0.017919
  0
VERTEX
  8
0
 10
4440.710100
 20
2485.601888
 42
0.015671
  0
VERTEX
  8
0
 10
4458.375159
 20
2482.809167
 42
0.000000
  0
VERTEX
  8
0
 10
4468.250318
 20
2481.563727
 42
0.000000
  0
VERTEX
  8
0
 10
4470.730855
 20
2477.531864
 42
0.031559
  0
VERTEX
  8
0
 10
4479.905574
 20
2464.533790
 42
0.037551
  0
VERTEX
  8
0
 10
4490.167596
 20
2453.580096
 42
0.038876
  0
VERTEX
  8
0
 10
4501.618634
 20
2444.596943
 42
0.038690
  0
VERTEX
  8
0
 10
4514.340039
 20
2437.478557
 42
0.020933
  0
VERTEX
  8
0
 10
4523.228512
 20
2433.815005
 42
0.031783
  0
VERTEX
  8
0
 10
4531.244664
 20
2431.461693
 42
0.030014
  0
VERTEX
  8
0
 10
4539.824310
 20
2430.059561
 42
0.016242
  0
VERTEX
  8
0
 10
4550.500000
 20
2429.316381
 42
0.006694
  0
VERTEX
  8
0
 10
4558.178868
 20
2429.134868
 42
0.018002
  0
VERTEX
  8
0
 10
4563.638926
 20
2429.275520
 42
0.021576
  0
VERTEX
  8
0
 10
4568.481444
 20
2429.785368
 42
0.014112
  0
VERTEX
  8
0
 10
4574.010031
 20
2430.770084
 42
0.049746
  0
VERTEX
  8
0
 10
4592.125653
 20
2436.451354
 42
0.050214
  0
VERTEX
  8
0
 10
4608.701582
 20
2445.585565
 42
0.049828
  0
VERTEX
  8
0
 10
4623.234509
 20
2457.915379
 42
0.047534
  0
VERTEX
  8
0
 10
4635.298881
 20
2473.060381
 42
0.000000
  0
VERTEX
  8
0
 10
4640.849893
 20
2481.576384
 42
0.000000
  0
VERTEX
  8
0
 10
4650.674946
 20
2482.815495
 42
0.020095
  0
VERTEX
  8
0
 10
4675.962919
 20
2487.042921
 42
0.036012
  0
VERTEX
  8
0
 10
4696.203275
 20
2492.815303
 42
0.044495
  0
VERTEX
  8
0
 10
4710.819421
 20
2499.673805
 42
0.149163
  0
VERTEX
  8
0
 10
4717.927369
 20
2507.349964
 42
0.135976
  0
VERTEX
  8
0
 10
4719.555644
 20
2516.270406
 42
0.153331
  0
VERTEX
  8
0
 10
4716.220884
 20
2524.290777
 42
0.101019
  0
VERTEX
  8
0
 10
4707.347337
 20
2531.336931
 42
0.038576
  0
VERTEX
  8
0
 10
4692.699330
 20
2537.403350
 42
0.020465
  0
VERTEX
  8
0
 10
4685.195721
 20
2539.517261
 42
0.006622
  0
VERTEX
  8
0
 10
4673.934171
 20
2542.040676
 42
0.006799
  0
VERTEX
  8
0
 10
4662.387213
 20
2544.304406
 42
0.015751
  0
VERTEX
  8
0
 10
4653.653972
 20
2545.610849
 42
0.000000
  0
VERTEX
  8
0
 10
4648.115279
 20
2546.261814
 42
0.000000
  0
VERTEX
  8
0
 10
4645.966003
 20
2553.337836
 42
0.033096
  0
VERTEX
  8
0
 10
4641.806940
 20
2564.352155
 42
0.032700
  0
VERTEX
  8
0
 10
4636.216637
 20
2574.767681
 42
0.032166
  0
VERTEX
  8
0
 10
4629.218893
 20
2584.522548
 42
0.029810
  0
VERTEX
  8
0
 10
4620.859143
 20
2593.564907
 42
0.012859
  0
VERTEX
  8
0
 10
4614.860547
 20
2599.034307
 42
0.023493
  0
VERTEX
  8
0
 10
4609.656458
 20
2603.128477
 42
0.024307
  0
VERTEX
  8
0
 10
4604.214186
 20
2606.624556
 42
0.014941
  0
VERTEX
  8
0
 10
4597.500000
 20
2610.227620
 42
0.035747
  0
VERTEX
  8
0
 10
4584.695212
 20
2615.508755
 42
0.035259
  0
VERTEX
  8
0
 10
4571.210072
 20
2618.940970
 42
0.035387
  0
VERTEX
  8
0
 10
4557.425129
 20
2620.435478
 42
0.036624
  0
SEQEND
  0
POLYLINE
  8
0
 66
1
 70
1
  0
VERTEX
  8
0
 10
4459.000000
 20
2520.183659
 42
0.012764
  0
VERTEX
  8
0
 10
4459.077386
 20
2517.152817
 42
0.008395
  0
VERTEX
  8
0
 10
4459.313953
 20
2513.671289
 42
0.008448
  0
VERTEX
  8
0
 10
4459.658582
 20
2510.288665
 42
0.016093
  0
VERTEX
  8
0
 10
4460.068777
 20
2507.585770
 42
-0.007733
  0
VERTEX
  8
0
 10
4460.448141
 20
2505.339816
 42
-0.011807
  0
VERTEX
  8
0
 10
4460.700897
 20
2503.379847
 42
-0.006451
  0
VERTEX
  8
0
 10
4460.851444
 20
2501.743400
 42
-0.219485
  0
VERTEX
  8
0
 10
4460.719839
 20
2501.386506
 42
-0.248736
  0
VERTEX
  8
0
 10
4459.499944
 20
2501.012059
 42
-0.001131
  0
VERTEX
  8
0
 10
4445.891474
 20
2503.657748
 42
-0.005603
  0
VERTEX
  8
0
 10
4433.274711
 20
2506.287447
 42
-0.016350
  0
VERTEX
  8
0
 10
4424.656298
 20
2508.482495
 42
-0.006575
  0
VERTEX
  8
0
 10
4421.043405
 20
2509.581270
 42
-0.006798
  0
VERTEX
  8
0
 10
4417.500767
 20
2510.763060
 42
-0.006593
  0
VERTEX
  8
0
 10
4414.461547
 20
2511.868200
 42
-0.028834
  0
VERTEX
  8
0
 10
4412.715857
 20
2512.646936
 42
-0.011227
  0
VERTEX
  8
0
 10
4410.885831
 20
2513.645976
 42
-0.153436
  0
VERTEX
  8
0
 10
4410.378363
 20
2514.197143
 42
-0.310264
  0
VERTEX
  8
0
 10
4410.466916
 20
2514.738814
 42
-0.043949
  0
VERTEX
  8
0
 10
4411.362911
 20
2515.523416
 42
-0.087568
  0
VERTEX
  8
0
 10
4416.850188
 20
2518.219442
 42
-0.007721
  0
VERTEX
  8
0
 10
4431.817297
 20
2522.306181
 42
-0.010034
  0
VERTEX
  8
0
 10
4446.848205
 20
2525.842076
 42
-0.045834
  0
VERTEX
  8
0
 10
4455.750000
 20
2526.909744
 42
0.000000
  0
VERTEX
  8
0
 10
4459.000000
 20
2527.000000
 42
0.000000
  0
SEQEND
  0
POLYLINE
  8
0
 66
1
 70
1
  0
VERTEX
  8
0
 10
4670.000000
 20
2523.943263
 42
-0.012378
  0
VERTEX
  8
0
 10
4678.349863
 20
2522.009576
 42
-0.010849
  0
VERTEX
  8
0
 10
4686.972103
 20
2519.585913
 42
-0.008519
  0
VERTEX
  8
0
 10
4694.537316
 20
2517.139549
 42
-0.075538
  0
VERTEX
  8
0
 10
4697.636804
 20
2515.523625
 42
-0.043918
  0
VERTEX
  8
0
 10
4698.533115
 20
2514.738843
 42
-0.310268
  0
VERTEX
  8
0
 10
4698.621731
 20
2514.197185
 42
-0.153467
  0
VERTEX
  8
0
 10
4698.114351
 20
2513.646061
 42
-0.011224
  0
VERTEX
  8
0
 10
4696.284143
 20
2512.646936
 42
-0.028834
  0
VERTEX
  8
0
 10
4694.538453
 20
2511.868200
 42
-0.006593
  0
VERTEX
  8
0
 10
4691.499233
 20
2510.763060
 42
-0.006798
  0
VERTEX
  8
0
 10
4687.956595
 20
2509.581270
 42
-0.006575
  0
VERTEX
  8
0
 10
4684.343702
 20
2508.482495
 42
-0.016350
  0
VERTEX
  8
0
 10
4675.725289
 20
2506.287447
 42
-0.005603
  0
VERTEX
  8
0
 10
4663.108526
 20
2503.657748
 42
-0.001131
  0
VERTEX
  8
0
 10
4649.500056
 20
2501.012059
 42
-0.248736
  0
VERTEX
  8
0
 10
4648.280161
 20
2501.386506
 42
-0.219485
  0
VERTEX
  8
0
 10
4648.148556
 20
2501.743400
 42
-0.006451
  0
VERTEX
  8
0
 10
4648.299103
 20
2503.379847
 42
-0.011807
  0
VERTEX
  8
0
 10
4648.551859
 20
2505.339816
 42
-0.007733
  0
VERTEX
  8
0
 10
4648.931223
 20
2507.585770
 42
0.016320
  0
VERTEX
  8
0
 10
4649.341469
 20
2510.297271
 42
0.008435
  0
VERTEX
  8
0
 10
4649.686047
 20
2513.709133
 42
0.008376
  0
VERTEX
  8
0
 10
4649.922545
 20
2517.232085
 42
0.012570
  0
VERTEX
  8
0
 10
4650.000000
 20
2520.312490
 42
0.000000
  0
VERTEX
  8
0
 10
4650.000000
 20
2527.257661
 42
0.000000
  0
VERTEX
  8
0
 10
4655.250000
 20
2526.577271
 42
-0.008910
  0
VERTEX
  8
0
 10
4657.908759
 20
2526.184412
 42
-0.003049
  0
VERTEX
  8
0
 10
4661.748437
 20
2525.522870
 42
-0.003030
  0
VERTEX
  8
0
 10
4665.977907
 20
2524.741112
 42
-0.003496
  0
SEQEND
  0
POLYLINE
  8
0
 66
1
 70
1
  0
VERTEX
  8
0
 10
1975.000000
 20
2414.973040
 42
-0.002048
  0
VERTEX
  8
0
 10
1740.952219
 20
2387.410769
 42
-0.003951
  0
VERTEX
  8
0
 10
1553.325446
 20
2367.594457
 42
-0.004505
  0
VERTEX
  8
0
 10
1382.822176
 20
2352.497448
 42
-0.003873
  0
VERTEX
  8
0
 10
1203.259484
 20
2339.626459
 42
0.000993
  0
VERTEX
  8
0
 10
1183.571589
 20
2338.329177
 42
0.001627
  0
VERTEX
  8
0
 10
1166.899648
 20
2337.142864
 42
0.000162
  0
VERTEX
  8
0
 10
1152.002435
 20
2336.029275
 42
0.179507
  0
VERTEX
  8
0
 10
1151.436088
 20
2335.769422
 42
0.085143
  0
VERTEX
  8
0
 10
1150.504523
 20
2334.452105
 42
0.000000
  0
VERTEX
  8
0
 10
890.773198
 20
1790.732450
 42
0.000003
  0
VERTEX
  8
0
 10
633.729896
 20
1252.631541
 42
0.009457
  0
VERTEX
  8
0
 10
627.826122
 20
1239.646417
 42
0.086016
  0
VERTEX
  8
0
 10
619.729011
 20
1206.005078
 42
0.081994
  0
VERTEX
  8
0
 10
623.206655
 20
1171.005067
 42
0.081743
  0
VERTEX
  8
0
 10
637.771736
 20
1138.889796
 42
0.084718
  0
VERTEX
  8
0
 10
661.719028
 20
1113.589724
 42
0.054159
  0
VERTEX
  8
0
 10
681.583737
 20
1101.800290
 42
0.053159
  0
VERTEX
  8
0
 10
703.640167
 20
1094.461966
 42
0.053612
  0
VERTEX
  8
0
 10
726.566093
 20
1091.979812
 42
0.057076
  0
VERTEX
  8
0
 10
749.000000
 20
1094.532527
 42
0.029952
  0
VERTEX
  8
0
 10
758.210616
 20
1097.253178
 42
0.000015
  0
VERTEX
  8
0
 10
1046.213032
 20
1201.446582
 42
0.000052
  0
VERTEX
  8
0
 10
1324.054423
 20
1302.006084
 42
0.008253
  0
VERTEX
  8
0
 10
1355.000000
 20
1313.791190
 42
0.014373
  0
VERTEX
  8
0
 10
1375.876814
 20
1322.843180
 42
0.012905
  0
VERTEX
  8
0
 10
1396.974042
 20
1333.392528
 42
0.012558
  0
VERTEX
  8
0
 10
1418.084196
 20
1345.328445
 42
0.011830
  0
VERTEX
  8
0
 10
1439.000000
 20
1358.540049
 42
0.030294
  0
VERTEX
  8
0
 10
1485.071572
 20
1393.389712
 42
0.030948
  0
VERTEX
  8
0
 10
1526.246702
 20
1433.319594
 42
0.030974
  0
VERTEX
  8
0
 10
1562.146756
 20
1477.992351
 42
0.030461
  0
VERTEX
  8
0
 10
1592.471724
 20
1527.000000
 42
0.011823
  0
VERTEX
  8
0
 10
1600.331878
 20
1542.490456
 42
0.000008
  0
VERTEX
  8
0
 10
1807.830977
 20
1976.576368
 42
0.000001
  0
VERTEX
  8
0
 10
2018.582181
 20
2417.485054
 42
0.111935
  0
VERTEX
  8
0
 10
2019.000000
 20
2419.328008
 42
0.434300
  0
VERTEX
  8
0
 10
2018.361457
 20
2419.924488
 42
0.007641
  0
VERTEX
  8
0
 10
2013.133172
 20
2419.487579
 42
0.005343
  0
VERTEX
  8
0
 10
2003.589673
 20
2418.439902
 42
0.000323
  0
SEQEND
  0
POLYLINE
  8
0
 66
1
 70
1
  0
VERTEX
  8
0
 10
2874.717106
 20
2410.883371
 42
0.017428
  0
VERTEX
  8
0
 10
2864.453295
 20
2409.531939
 42
0.011109
  0
VERTEX
  8
0
 10
2852.622091
 20
2407.281262
 42
0.011072
  0
VERTEX
  8
0
 10
2840.816642
 20
2404.487843
 42
0.016402
  0
VERTEX
  8
0
 10
2830.619206
 20
2401.474833
 42
0.027705
  0
VERTEX
  8
0
 10
2807.041729
 20
2392.180745
 42
0.030473
  0
VERTEX
  8
0
 10
2785.402457
 20
2380.588150
 42
0.030474
  0
VERTEX
  8
0
 10
2765.333030
 20
2366.451356
 42
0.027707
  0
VERTEX
  8
0
 10
2746.448587
 20
2349.551413
 42
0.089124
  0
VERTEX
  8
0
 10
2703.102525
 20
2287.217244
 42
0.090614
  0
VERTEX
  8
0
 10
2684.490396
 20
2214.053689
 42
0.090334
  0
VERTEX
  8
0
 10
2692.934369
 20
2138.845312
 42
0.087900
  0
VERTEX
  8
0
 10
2727.349444
 20
2070.644873
 42
0.021116
  0
VERTEX
  8
0
 10
2734.254700
 20
2062.190999
 42
0.010063
  0
VERTEX
  8
0
 10
2743.799989
 20
2051.888434
 42
0.010066
  0
VERTEX
  8
0
 10
2753.762584
 20
2041.968013
 42
0.020888
  0
VERTEX
  8
0
 10
2762.000000
 20
2034.723165
 42
0.049354
  0
VERTEX
  8
0
 10
2797.268861
 20
2011.566815
 42
0.048756
  0
VERTEX
  8
0
 10
2836.533592
 20
1995.659807
 42
0.048928
  0
VERTEX
  8
0
 10
2877.999975
 20
1987.697898
 42
0.050451
  0
VERTEX
  8
0
 10
2919.789414
 20
1988.069678
 42
0.021286
  0
VERTEX
  8
0
 10
2937.893619
 20
1990.848090
 42
0.022378
  0
VERTEX
  8
0
 10
2955.391857
 20
1995.122682
 42
0.022270
  0
VERTEX
  8
0
 10
2972.515908
 20
2000.966614
 42
0.020647
  0
VERTEX
  8
0
 10
2989.500000
 20
2008.443483
 42
0.038766
  0
VERTEX
  8
0
 10
3020.525254
 20
2026.766958
 42
0.043663
  0
VERTEX
  8
0
 10
3047.045337
 20
2049.024948
 42
0.043704
  0
VERTEX
  8
0
 10
3069.276940
 20
2075.530423
 42
0.038971
  0
VERTEX
  8
0
 10
3087.533904
 20
2106.500000
 42
0.013147
  0
VERTEX
  8
0
 10
3093.193254
 20
2118.889695
 42
0.016577
  0
VERTEX
  8
0
 10
3097.740220
 20
2130.646499
 42
0.017007
  0
VERTEX
  8
0
 10
3101.406520
 20
2142.420497
 42
0.015225
  0
VERTEX
  8
0
 10
3104.415952
 20
2154.857230
 42
0.062840
  0
VERTEX
  8
0
 10
3108.843277
 20
2209.091536
 42
0.064192
  0
VERTEX
  8
0
 10
3099.582304
 20
2262.316634
 42
0.064246
  0
VERTEX
  8
0
 10
3077.136464
 20
2311.414616
 42
0.063127
  0
VERTEX
  8
0
 10
3042.853867
 20
2353.532632
 42
0.054129
  0
VERTEX
  8
0
 10
3006.712359
 20
2381.199610
 42
0.054175
  0
VERTEX
  8
0
 10
2965.485201
 20
2400.455862
 42
0.053878
  0
VERTEX
  8
0
 10
2920.869049
 20
2410.482961
 42
0.052418
  0
SEQEND
  0
POLYLINE
  8
0
 66
1
 70
1
  0
VERTEX
  8
0
 10
4828.951609
 20
2205.396333
 42
0.000000
  0
VERTEX
  8
0
 10
4810.603560
 20
2155.758991
 42
0.000000
  0
VERTEX
  8
0
 10
4806.551780
 20
2154.055907
 42
-0.009956
  0
VERTEX
  8
0
 10
4803.592461
 20
2152.880783
 42
-0.000259
  0
VERTEX
  8
0
 10
4790.257989
 20
2147.898609
 42
-0.000547
  0
VERTEX
  8
0
 10
4774.588309
 20
2142.072686
 42
-0.000374
  0
VERTEX
  8
0
 10
4756.773290
 20
2135.486455
 42
0.000973
  0
VERTEX
  8
0
 10
4739.266836
 20
2128.990429
 42
0.001635
  0
VERTEX
  8
0
 10
4724.594572
 20
2123.458811
 42
0.000119
  0
VERTEX
  8
0
 10
4711.492090
 20
2118.466450
 42
0.543681
  0
VERTEX
  8
0
 10
4711.440693
 20
2118.225973
 42
0.107019
  0
VERTEX
  8
0
 10
4711.812873
 20
2117.986276
 42
0.000045
  0
VERTEX
  8
0
 10
4726.196624
 20
2112.591009
 42
0.000682
  0
VERTEX
  8
0
 10
4742.195072
 20
2106.616605
 42
0.000415
  0
VERTEX
  8
0
 10
4761.120215
 20
2099.596550
 42
0.000000
  0
VERTEX
  8
0
 10
4810.405623
 20
2081.361240
 42
0.000000
  0
VERTEX
  8
0
 10
4828.166445
 20
2033.430620
 42
0.000237
  0
VERTEX
  8
0
 10
4835.034964
 20
2014.921681
 42
0.000372
  0
VERTEX
  8
0
 10
4840.956558
 20
1999.023897
 42
0.000089
  0
VERTEX
  8
0
 10
4846.158096
 20
1985.098513
 42
0.014972
  0
VERTEX
  8
0
 10
4846.766526
 20
1983.608180
 42
0.657431
  0
VERTEX
  8
0
 10
4847.585791
 20
1983.616297
 42
0.003791
  0
VERTEX
  8
0
 10
4851.462855
 20
1993.044397
 42
0.005722
  0
VERTEX
  8
0
 10
4856.965546
 20
2007.184615
 42
0.001266
  0
VERTEX
  8
0
 10
4866.052893
 20
2031.537981
 42
0.000000
  0
VERTEX
  8
0
 10
4884.500000
 20
2081.359603
 42
0.000000
  0
VERTEX
  8
0
 10
4933.878274
 20
2099.641408
 42
0.000350
  0
VERTEX
  8
0
 10
4952.834913
 20
2106.675012
 42
0.000577
  0
VERTEX
  8
0
 10
4968.849595
 20
2112.650849
 42
0.000032
  0
VERTEX
  8
0
 10
4983.274316
 20
2118.053426
 42
0.107150
  0
VERTEX
  8
0
 10
4983.589876
 20
2118.256543
 42
0.544258
  0
VERTEX
  8
0
 10
4983.546135
 20
2118.460315
 42
0.000075
  0
VERTEX
  8
0
 10
4969.549456
 20
2123.766257
 42
0.001299
  0
VERTEX
  8
0
 10
4953.936536
 20
2129.635856
 42
0.000775
  0
VERTEX
  8
0
 10
4935.324620
 20
2136.544936
 42
-0.000854
  0
VERTEX
  8
0
 10
4916.597956
 20
2143.499986
 42
-0.001359
  0
VERTEX
  8
0
 10
4900.607602
 20
2149.519450
 42
-0.000263
  0
VERTEX
  8
0
 10
4886.528181
 20
2154.871774
 42
-0.069240
  0
VERTEX
  8
0
 10
4885.383845
 20
2155.500000
 42
-0.140222
  0
VERTEX
  8
0
 10
4884.614954
 20
2156.507568
 42
-0.000505
  0
VERTEX
  8
0
 10
4879.113220
 20
2170.600000
 42
-0.002616
  0
VERTEX
  8
0
 10
4872.964904
 20
2186.643532
 42
-0.001633
  0
VERTEX
  8
0
 10
4865.921813
 20
2205.500000
 42
0.000256
  0
VERTEX
  8
0
 10
4858.956114
 20
2224.307114
 42
0.000424
  0
VERTEX
  8
0
 10
4853.050898
 20
2240.184633
 42
0.000019
  0
VERTEX
  8
0
 10
4847.705695
 20
2254.517625
 42
0.099866
  0
VERTEX
  8
0
 10
4847.550815
 20
2254.766837
 42
0.554774
  0
VERTEX
  8
0
 10
4847.395445
 20
2254.735772
 42
0.000043
  0
VERTEX
  8
0
 10
4841.983696
 20
2240.374322
 42
0.000974
  0
VERTEX
  8
0
 10
4836.005437
 20
2224.411219
 42
0.000581
  0
SEQEND
  0
POLYLINE
  8
0
 66
1
 70
1
  0
VERTEX
  8
0
 10
731.255344
 20
2197.491085
 42
0.069664
  0
VERTEX
  8
0
 10
710.819745
 20
2189.704920
 42
0.066389
  0
VERTEX
  8
0
 10
692.933968
 20
2176.506867
 42
0.066700
  0
VERTEX
  8
0
 10
679.201273
 20
2159.147977
 42
0.071547
  0
VERTEX
  8
0
 10
670.919049
 20
2139.183486
 42
0.096330
  0
VERTEX
  8
0
 10
669.059331
 20
2107.332602
 42
0.098809
  0
VERTEX
  8
0
 10
679.329596
 20
2077.419195
 42
0.099016
  0
VERTEX
  8
0
 10
700.270963
 20
2053.786319
 42
0.097166
  0
VERTEX
  8
0
 10
728.824995
 20
2039.830928
 42
0.041608
  0
VERTEX
  8
0
 10
737.953075
 20
2038.191534
 42
0.024137
  0
VERTEX
  8
0
 10
749.089895
 20
2037.675842
 42
0.024113
  0
VERTEX
  8
0
 10
760.260249
 20
2038.237154
 42
0.040467
  0
VERTEX
  8
0
 10
769.500000
 20
2039.911958
 42
0.052278
  0
VERTEX
  8
0
 10
785.788254
 20
2046.129819
 42
0.054180
  0
VERTEX
  8
0
 10
800.222127
 20
2055.532511
 42
0.054249
  0
VERTEX
  8
0
 10
812.283780
 20
2067.804126
 42
0.052661
  0
VERTEX
  8
0
 10
821.562040
 20
2082.500000
 42
0.019901
  0
VERTEX
  8
0
 10
825.660737
 20
2091.724339
 42
0.040626
  0
VERTEX
  8
0
 10
827.978752
 20
2099.294737
 42
0.038350
  0
VERTEX
  8
0
 10
829.116985
 20
2107.415243
 42
0.015906
  0
VERTEX
  8
0
 10
829.458375
 20
2118.500000
 42
0.015529
  0
VERTEX
  8
0
 10
829.111850
 20
2129.299511
 42
0.036589
  0
VERTEX
  8
0
 10
828.017412
 20
2137.280750
 42
0.039257
  0
VERTEX
  8
0
 10
825.827767
 20
2144.675154
 42
0.020515
  0
VERTEX
  8
0
 10
822.019546
 20
2153.500000
 42
0.050632
  0
VERTEX
  8
0
 10
813.266134
 20
2167.790197
 42
0.052668
  0
VERTEX
  8
0
 10
801.921093
 20
2179.822446
 42
0.052236
  0
VERTEX
  8
0
 10
788.221652
 20
2189.299111
 42
0.048322
  0
VERTEX
  8
0
 10
772.500000
 20
2196.024575
 42
0.049776
  0
VERTEX
  8
0
 10
764.145689
 20
2197.789409
 42
0.018296
  0
VERTEX
  8
0
 10
752.105979
 20
2198.659334
 42
0.018394
  0
VERTEX
  8
0
 10
739.975826
 20
2198.644266
 42
0.046759
  0
SEQEND
  0
POLYLINE
  8
0
 66
1
 70
1
  0
VERTEX
  8
0
 10
3146.500000
 20
1819.134338
 42
0.062664
  0
VERTEX
  8
0
 10
3142.645253
 20
1816.757542
 42
0.040625
  0
VERTEX
  8
0
 10
3138.840032
 20
1813.148836
 42
0.040891
  0
VERTEX
  8
0
 10
3135.709300
 20
1809.021626
 42
0.069141
  0
VERTEX
  8
0
 10
3133.906241
 20
1805.081397
 42
-0.015458
  0
VERTEX
  8
0
 10
3133.118165
 20
1802.719221
 42
-0.125151
  0
VERTEX
  8
0
 10
3132.476755
 20
1801.785552
 42
-0.198910
  0
VERTEX
  8
0
 10
3131.607164
 20
1801.490452
 42
-0.049768
  0
VERTEX
  8
0
 10
3130.097474
 20
1801.741820
 42
0.154521
  0
VERTEX
  8
0
 10
3116.517884
 20
1801.168812
 42
0.138438
  0
VERTEX
  8
0
 10
3105.043252
 20
1792.908964
 42
0.137124
  0
VERTEX
  8
0
 10
3099.512127
 20
1779.797625
 42
0.150770
  0
VERTEX
  8
0
 10
3101.874898
 20
1766.246801
 42
0.019842
  0
VERTEX
  8
0
 10
3102.755954
 20
1764.677556
 42
0.015924
  0
VERTEX
  8
0
 10
3103.822504
 20
1763.060672
 42
0.016212
  0
VERTEX
  8
0
 10
3104.905882
 20
1761.627794
 42
0.038964
  0
VERTEX
  8
0
 10
3105.819714
 20
1760.661870
 42
-0.045508
  0
VERTEX
  8
0
 10
3106.968820
 20
1759.415026
 42
-0.219974
  0
VERTEX
  8
0
 10
3107.174315
 20
1758.498763
 42
-0.103507
  0
VERTEX
  8
0
 10
3106.660655
 20
1757.344527
 42
-0.006746
  0
VERTEX
  8
0
 10
3104.466631
 20
1754.388341
 42
0.035082
  0
VERTEX
  8
0
 10
3102.172176
 20
1750.900238
 42
0.037648
  0
VERTEX
  8
0
 10
3100.448541
 20
1747.204924
 42
0.039605
  0
VERTEX
  8
0
 10
3099.371306
 20
1743.486878
 42
0.050209
  0
VERTEX
  8
0
 10
3099.005577
 20
1739.931501
 42
0.060013
  0
VERTEX
  8
0
 10
3099.496342
 20
1735.781569
 42
0.034568
  0
VERTEX
  8
0
 10
3101.017805
 20
1730.977396
 42
0.034427
  0
VERTEX
  8
0
 10
3103.206395
 20
1726.383942
 42
0.055369
  0
VERTEX
  8
0
 10
3105.738222
 20
1722.867996
 42
0.040150
  0
VERTEX
  8
0
 10
3110.023823
 20
1718.828638
 42
0.068627
  0
VERTEX
  8
0
 10
3114.237077
 20
1716.311488
 42
0.066790
  0
VERTEX
  8
0
 10
3119.055594
 20
1714.987716
 42
0.036049
  0
VERTEX
  8
0
 10
3125.208981
 20
1714.601612
 42
0.000000
  0
VERTEX
  8
0
 10
3132.917962
 20
1714.674092
 42
0.000000
  0
VERTEX
  8
0
 10
3133.992983
 20
1711.587046
 42
0.043964
  0
VERTEX
  8
0
 10
3135.817439
 20
1707.534002
 42
0.048579
  0
VERTEX
  8
0
 10
3138.272436
 20
1704.005888
 42
0.048392
  0
VERTEX
  8
0
 10
3141.371204
 20
1701.006644
 42
0.043032
  0
VERTEX
  8
0
 10
3145.107795
 20
1698.524444
 42
0.063855
  0
VERTEX
  8
0
 10
3150.716186
 20
1696.331004
 42
0.053423
  0
VERTEX
  8
0
 10
3157.050724
 20
1695.447836
 42
0.054418
  0
VERTEX
  8
0
 10
3163.297542
 20
1695.929457
 42
0.073627
  0
VERTEX
  8
0
 10
3168.642554
 20
1697.776184
 42
0.056458
  0
VERTEX
  8
0
 10
3172.475511
 20
1700.356187
 42
0.036914
  0
VERTEX
  8
0
 10
3176.270959
 20
1704.103694
 42
0.037316
  0
VERTEX
  8
0
 10
3179.391515
 20
1708.265653
 42
0.069528
  0
VERTEX
  8
0
 10
3181.145100
 20
1712.089966
 42
-0.016794
  0
VERTEX
  8
0
 10
3181.926887
 20
1714.412607
 42
-0.174834
  0
VERTEX
  8
0
 10
3182.568740
 20
1715.167816
 42
-0.181072
  0
VERTEX
  8
0
 10
3183.533895
 20
1715.325483
 42
-0.018269
  0
VERTEX
  8
0
 10
3185.839098
 20
1714.778759
 42
0.035511
  0
VERTEX
  8
0
 10
3187.522829
 20
1714.440238
 42
0.019053
  0
VERTEX
  8
0
 10
3189.635066
 20
1714.251080
 42
0.018882
  0
VERTEX
  8
0
 10
3191.814622
 20
1714.221754
 42
0.027985
  0
VERTEX
  8
0
 10
3193.718409
 20
1714.374882
 42
0.130695
  0
VERTEX
  8
0
 10
3205.459357
 20
1719.285460
 42
0.128948
  0
VERTEX
  8
0
 10
3213.281787
 20
1729.400767
 42
0.128442
  0
VERTEX
  8
0
 10
3215.150979
 20
1742.086218
 42
0.129161
  0
VERTEX
  8
0
 10
3210.570009
 20
1754.035437
 42
-0.006887
  0
VERTEX
  8
0
 10
3208.406828
 20
1757.135670
 42
-0.091469
  0
VERTEX
  8
0
 10
3207.850077
 20
1758.406177
 42
-0.209299
  0
VERTEX
  8
0
 10
3208.027338
 20
1759.369013
 42
-0.060204
  0
VERTEX
  8
0
 10
3209.043252
 20
1760.539142
 42
0.074324
  0
VERTEX
  8
0
 10
3211.472565
 20
1763.501485
 42
0.044424
  0
VERTEX
  8
0
 10
3213.456711
 20
1767.612232
 42
0.042191
  0
VERTEX
  8
0
 10
3214.788476
 20
1772.304162
 42
0.045736
  0
VERTEX
  8
0
 10
3215.266294
 20
1777.027062
 42
0.108874
  0
VERTEX
  8
0
 10
3213.025721
 20
1787.670875
 42
0.107534
  0
VERTEX
  8
0
 10
3206.514152
 20
1796.441936
 42
0.109604
  0
VERTEX
  8
0
 10
3197.062842
 20
1801.600307
 42
0.117018
  0
VERTEX
  8
0
 10
3186.550345
 20
1802.108307
 42
0.000000
  0
VERTEX
  8
0
 10
3182.002766
 20
1801.258727
 42
0.000000
  0
VERTEX
  8
0
 10
3180.840825
 20
1805.136941
 42
0.064945
  0
VERTEX
  8
0
 10
3179.088565
 20
1809.052274
 42
0.043191
  0
VERTEX
  8
0
 10
3176.159972
 20
1813.011727
 42
0.042628
  0
VERTEX
  8
0
 10
3172.532836
 20
1816.475894
 42
0.056654
  0
VERTEX
  8
0
 10
3168.681602
 20
1818.912088
 42
0.070612
  0
VERTEX
  8
0
 10
3163.817459
 20
1820.469405
 42
0.039731
  0
VERTEX
  8
0
 10
3157.629886
 20
1821.024303
 42
0.039710
  0
VERTEX
  8
0
 10
3151.423607
 20
1820.593155
 42
0.069770
  0
SEQEND
  0
POLYLINE
  8
0
 66
1
 70
1
  0
VERTEX
  8
0
 10
1926.613028
 20
1701.000000
 42
0.004581
  0
VERTEX
  8
0
 10
1926.160681
 20
1699.812732
 42
0.000016
  0
VERTEX
  8
0
 10
1920.942822
 20
1685.729671
 42
0.000088
  0
VERTEX
  8
0
 10
1915.035555
 20
1669.775641
 42
0.000055
  0
VERTEX
  8
0
 10
1908.134904
 20
1651.122285
 42
0.000000
  0
VERTEX
  8
0
 10
1890.244070
 20
1602.744571
 42
0.000000
  0
VERTEX
  8
0
 10
1841.163881
 20
1584.580798
 42
0.000536
  0
VERTEX
  8
0
 10
1822.309771
 20
1577.580206
 42
0.000878
  0
VERTEX
  8
0
 10
1806.352005
 20
1571.603641
 42
0.000074
  0
VERTEX
  8
0
 10
1792.053184
 20
1566.217322
 42
0.106650
  0
VERTEX
  8
0
 10
1791.576484
 20
1565.909817
 42
0.542742
  0
VERTEX
  8
0
 10
1791.642091
 20
1565.600659
 42
0.000175
  0
VERTEX
  8
0
 10
1805.494157
 20
1560.278406
 42
0.001983
  0
VERTEX
  8
0
 10
1821.068187
 20
1554.371552
 42
0.001179
  0
VERTEX
  8
0
 10
1839.668046
 20
1547.451305
 42
-0.000898
  0
VERTEX
  8
0
 10
1858.389869
 20
1540.497631
 42
-0.001433
  0
VERTEX
  8
0
 10
1874.364408
 20
1534.479446
 42
-0.000268
  0
VERTEX
  8
0
 10
1888.440813
 20
1529.121585
 42
-0.075703
  0
VERTEX
  8
0
 10
1889.538239
 20
1528.500000
 42
-0.134088
  0
VERTEX
  8
0
 10
1890.270438
 20
1527.511930
 42
-0.000472
  0
VERTEX
  8
0
 10
1895.633359
 20
1513.693750
 42
-0.002482
  0
VERTEX
  8
0
 10
1901.628011
 20
1497.973107
 42
-0.001549
  0
VERTEX
  8
0
 10
1908.502183
 20
1479.500000
 42
0.000387
  0
VERTEX
  8
0
 10
1915.331825
 20
1461.015198
 42
0.000621
  0
VERTEX
  8
0
 10
1921.189242
 20
1445.259541
 42
0.000098
  0
VERTEX
  8
0
 10
1926.402999
 20
1431.296714
 42
0.038841
  0
VERTEX
  8
0
 10
1926.847353
 20
1430.340990
 42
0.631645
  0
VERTEX
  8
0
 10
1927.300293
 20
1430.372193
 42
0.000496
  0
VERTEX
  8
0
 10
1932.709604
 20
1444.142829
 42
0.003063
  0
VERTEX
  8
0
 10
1938.788852
 20
1459.948638
 42
0.001792
  0
VERTEX
  8
0
 10
1945.887469
 20
1478.953520
 42
0.000000
  0
VERTEX
  8
0
 10
1964.274939
 20
1528.725061
 42
0.000000
  0
VERTEX
  8
0
 10
2014.046480
 20
1547.112531
 42
0.001792
  0
VERTEX
  8
0
 10
2033.051362
 20
1554.211148
 42
0.003063
  0
VERTEX
  8
0
 10
2048.857171
 20
1560.290396
 42
0.000496
  0
VERTEX
  8
0
 10
2062.627807
 20
1565.699707
 42
0.631645
  0
VERTEX
  8
0
 10
2062.659010
 20
1566.152647
 42
0.038786
  0
VERTEX
  8
0
 10
2061.703323
 20
1566.597111
 42
0.000097
  0
VERTEX
  8
0
 10
2047.740459
 20
1571.814370
 42
0.000620
  0
VERTEX
  8
0
 10
2031.984803
 20
1577.675756
 42
0.000386
  0
VERTEX
  8
0
 10
2013.500000
 20
1584.510112
 42
-0.000734
  0
VERTEX
  8
0
 10
1995.042270
 20
1591.349059
 42
-0.001190
  0
VERTEX
  8
0
 10
1979.374188
 20
1597.223071
 42
-0.000149
  0
VERTEX
  8
0
 10
1965.431599
 20
1602.492830
 42
-0.096530
  0
VERTEX
  8
0
 10
1964.731278
 20
1602.926187
 42
-0.115351
  0
VERTEX
  8
0
 10
1964.273824
 20
1603.602772
 42
-0.000180
  0
VERTEX
  8
0
 10
1959.024654
 20
1617.361450
 42
-0.001422
  0
VERTEX
  8
0
 10
1953.178674
 20
1632.833103
 42
-0.000876
  0
VERTEX
  8
0
 10
1946.383954
 20
1651.068722
 42
0.000097
  0
VERTEX
  8
0
 10
1931.621170
 20
1690.878473
 42
0.005428
  0
VERTEX
  8
0
 10
1928.780428
 20
1698.286715
 42
0.039619
  0
VERTEX
  8
0
 10
1927.416823
 20
1701.065345
 42
0.624513
  0
SEQEND
  0
POLYLINE
  8
0
 66
1
 70
1
  0
VERTEX
  8
0
 10
533.058490
 20
617.229206
 42
-0.000017
  0
VERTEX
  8
0
 10
488.638079
 20
479.595395
 42
-0.000027
  0
VERTEX
  8
0
 10
450.866645
 20
362.598202
 42
-0.000003
  0
VERTEX
  8
0
 10
417.148258
 20
258.177015
 42
-0.002317
  0
VERTEX
  8
0
 10
415.365818
 20
252.743397
 42
0.000000
  0
VERTEX
  8
0
 10
413.114655
 20
245.986794
 42
0.000000
  0
VERTEX
  8
0
 10
484.673179
 20
246.243397
 42
0.000000
  0
VERTEX
  8
0
 10
556.231703
 20
246.500000
 42
0.000000
  0
VERTEX
  8
0
 10
578.616134
 20
318.500000
 42
0.000039
  0
VERTEX
  8
0
 10
587.375891
 20
346.683668
 42
0.000055
  0
VERTEX
  8
0
 10
595.168873
 20
371.773438
 42
0.000031
  0
VERTEX
  8
0
 10
601.748027
 20
392.968113
 42
0.000789
  0
VERTEX
  8
0
 10
603.532427
 20
398.750000
 42
0.000000
  0
VERTEX
  8
0
 10
606.064289
 20
407.000000
 42
0.000000
  0
VERTEX
  8
0
 10
714.971630
 20
407.000000
 42
0.000000
  0
VERTEX
  8
0
 10
823.878971
 20
407.000000
 42
0.000000
  0
VERTEX
  8
0
 10
826.435388
 20
398.750000
 42
0.002823
  0
VERTEX
  8
0
 10
828.261315
 20
392.972986
 42
0.000110
  0
VERTEX
  8
0
 10
835.098864
 20
371.773438
 42
0.000196
  0
VERTEX
  8
0
 10
843.208113
 20
346.683710
 42
0.000139
  0
VERTEX
  8
0
 10
852.338210
 20
318.500000
 42
0.000000
  0
VERTEX
  8
0
 10
875.684616
 20
246.500000
 42
0.000000
  0
VERTEX
  8
0
 10
950.927757
 20
246.243652
 42
0.000635
  0
VERTEX
  8
0
 10
990.047669
 20
246.160035
 42
0.003559
  0
VERTEX
  8
0
 10
1010.980066
 20
246.290882
 42
0.001336
  0
VERTEX
  8
0
 10
1025.220191
 20
246.519338
 42
0.513317
  0
VERTEX
  8
0
 10
1025.719552
 20
247.243652
 42
-0.008387
  0
VERTEX
  8
0
 10
1025.366424
 20
248.280964
 42
-0.000000
  0
VERTEX
  8
0
 10
991.075710
 20
354.835635
 42
-0.000018
  0
VERTEX
  8
0
 10
953.254552
 20
472.375856
 42
-0.000011
  0
VERTEX
  8
0
 10
908.416871
 20
611.750000
 42
0.000000
  0
VERTEX
  8
0
 10
791.565536
 20
975.000000
 42
0.000000
  0
VERTEX
  8
0
 10
720.032768
 20
974.979206
 42
0.000000
  0
VERTEX
  8
0
 10
648.500000
 20
974.958412
 42
0.000000
  0
SEQEND
  0
POLYLINE
  8
0
 66
1
 70
1
  0
VERTEX
  8
0
 10
721.998435
 20
763.750000
 42
-0.026786
  0
VERTEX
  8
0
 10
723.676815
 20
759.124081
 42
-0.000022
  0
VERTEX
  8
0
 10
758.990963
 20
642.676700
 42
-0.000008
  0
VERTEX
  8
0
 10
794.732845
 20
524.793367
 42
-0.073726
  0
VERTEX
  8
0
 10
795.000000
 20
522.991402
 42
-0.410122
  0
VERTEX
  8
0
 10
794.527193
 20
522.511933
 42
-0.000300
  0
VERTEX
  8
0
 10
775.206975
 20
522.253198
 42
-0.002333
  0
VERTEX
  8
0
 10
751.235294
 20
522.058387
 42
-0.000865
  0
VERTEX
  8
0
 10
717.500000
 20
522.000000
 42
-0.000905
  0
VERTEX
  8
0
 10
684.717761
 20
522.059350
 42
-0.002185
  0
VERTEX
  8
0
 10
660.473566
 20
522.253090
 42
-0.000243
  0
VERTEX
  8
0
 10
640.441644
 20
522.510469
 42
-0.410313
  0
VERTEX
  8
0
 10
640.000000
 20
522.958041
 42
-0.072755
  0
VERTEX
  8
0
 10
640.267414
 20
524.786090
 42
-0.000008
  0
VERTEX
  8
0
 10
675.528632
 20
642.723426
 42
-0.000021
  0
VERTEX
  8
0
 10
710.403169
 20
759.342646
 42
-0.028189
  0
VERTEX
  8
0
 10
711.996943
 20
763.750000
 42
-0.072064
  0
VERTEX
  8
0
 10
712.681135
 20
764.872917
 42
-0.114765
  0
VERTEX
  8
0
 10
713.571618
 20
765.551492
 42
-0.082169
  0
VERTEX
  8
0
 10
714.888695
 20
765.899968
 42
-0.023676
  0
VERTEX
  8
0
 10
717.000000
 20
766.000000
 42
-0.023641
  0
VERTEX
  8
0
 10
719.111939
 20
765.900089
 42
-0.082292
  0
VERTEX
  8
0
 10
720.427853
 20
765.551777
 42
-0.115061
  0
VERTEX
  8
0
 10
721.316530
 20
764.873271
 42
-0.072121
  0
SEQEND
  0
POLYLINE
  8
0
 66
1
 70
1
  0
VERTEX
  8
0
 10
1104.000000
 20
911.503003
 42
0.000000
  0
VERTEX
  8
0
 10
1104.000000
 20
848.006005
 42
0.000000
  0
VERTEX
  8
0
 10
1266.259611
 20
847.753003
 42
0.000000
  0
VERTEX
  8
0
 10
1428.519223
 20
847.500000
 42
0.000000
  0
VERTEX
  8
0
 10
1257.759611
 20
610.174845
 42
0.000000
  0
VERTEX
  8
0
 10
1087.000000
 20
372.849689
 42
0.000000
  0
VERTEX
  8
0
 10
1087.000000
 20
309.424845
 42
0.000000
  0
VERTEX
  8
0
 10
1087.000000
 20
246.000000
 42
0.000000
  0
VERTEX
  8
0
 10
1344.500000
 20
246.000000
 42
0.000000
  0
VERTEX
  8
0
 10
1602.000000
 20
246.000000
 42
0.000000
  0
VERTEX
  8
0
 10
1602.000000
 20
309.500000
 42
0.000000
  0
VERTEX
  8
0
 10
1602.000000
 20
373.000000
 42
0.000000
  0
VERTEX
  8
0
 10
1431.500000
 20
373.000000
 42
-0.000279
  0
VERTEX
  8
0
 10
1366.121625
 20
373.036430
 42
-0.000465
  0
VERTEX
  8
0
 10
1311.084375
 20
373.148924
 42
-0.000009
  0
VERTEX
  8
0
 10
1261.208249
 20
373.298098
 42
-0.413333
  0
VERTEX
  8
0
 10
1261.000000
 20
373.506975
 42
-0.155095
  0
VERTEX
  8
0
 10
1261.120443
 20
373.885922
 42
-0.000002
  0
VERTEX
  8
0
 10
1310.350000
 20
443.506751
 42
-0.000157
  0
VERTEX
  8
0
 10
1364.581140
 20
520.149130
 42
-0.000095
  0
VERTEX
  8
0
 10
1429.000000
 20
611.092166
 42
0.000000
  0
VERTEX
  8
0
 10
1597.000000
 20
848.170383
 42
0.000000
  0
VERTEX
  8
0
 10
1597.000000
 20
911.585191
 42
0.000000
  0
VERTEX
  8
0
 10
1597.000000
 20
975.000000
 42
0.000000
  0
VERTEX
  8
0
 10
1350.500000
 20
975.000000
 42
0.000000
  0
VERTEX
  8
0
 10
1104.000000
 20
975.000000
 42
0.000000
  0
SEQEND
  0
POLYLINE
  8
0
 66
1
 70
1
  0
VERTEX
  8
0
 10
1713.000000
 20
911.500000
 42
0.000000
  0
VERTEX
  8
0
 10
1713.000000
 20
848.000000
 42
0.000000
  0
VERTEX
  8
0
 10
1805.500000
 20
848.000000
 42
0.000000
  0
VERTEX
  8
0
 10
1898.000000
 20
848.000000
 42
0.000000
  0
VERTEX
  8
0
 10
1898.000000
 20
610.500000
 42
0.000000
  0
VERTEX
  8
0
 10
1898.000000
 20
373.000000
 42
0.000000
  0
VERTEX
  8
0
 10
1805.500000
 20
373.000000
 42
0.000000
  0
VERTEX
  8
0
 10
1713.000000
 20
373.000000
 42
0.000000
  0
VERTEX
  8
0
 10
1713.000000
 20
309.500000
 42
0.000000
  0
VERTEX
  8
0
 10
1713.000000
 20
246.000000
 42
0.000000
  0
VERTEX
  8
0
 10
1969.500000
 20
246.000000
 42
0.000000
  0
VERTEX
  8
0
 10
2226.000000
 20
246.000000
 42
0.000000
  0
VERTEX
  8
0
 10
2226.000000
 20
309.500000
 42
0.000000
  0
VERTEX
  8
0
 10
2226.000000
 20
373.000000
 42
0.000000
  0
VERTEX
  8
0
 10
2133.000000
 20
373.000000
 42
0.000000
  0
VERTEX
  8
0
 10
2040.000000
 20
373.000000
 42
0.000000
  0
VERTEX
  8
0
 10
2040.000000
 20
610.500000
 42
0.000000
  0
VERTEX
  8
0
 10
2040.000000
 20
848.000000
 42
0.000000
  0
VERTEX
  8
0
 10
2133.000000
 20
848.000000
 42
0.000000
  0
VERTEX
  8
0
 10
2226.000000
 20
848.000000
 42
0.000000
  0
VERTEX
  8
0
 10
2226.000000
 20
911.500000
 42
0.000000
  0
VERTEX
  8
0
 10
2226.000000
 20
975.000000
 42
0.000000
  0
VERTEX
  8
0
 10
1969.500000
 20
975.000000
 42
0.000000
  0
VERTEX
  8
0
 10
1713.000000
 20
975.000000
 42
0.000000
  0
SEQEND
  0
POLYLINE
  8
0
 66
1
 70
1
  0
VERTEX
  8
0
 10
2324.000000
 20
610.500000
 42
0.000000
  0
VERTEX
  8
0
 10
2324.000000
 20
246.000000
 42
0.000000
  0
VERTEX
  8
0
 10
2391.500000
 20
246.000000
 42
0.000000
  0
VERTEX
  8
0
 10
2459.000000
 20
246.000000
 42
0.000000
  0
VERTEX
  8
0
 10
2459.000000
 20
447.349994
 42
0.000000
  0
VERTEX
  8
0
 10
2459.000000
 20
648.699989
 42
0.000000
  0
VERTEX
  8
0
 10
2456.002056
 20
697.099994
 42
-0.000153
  0
VERTEX
  8
0
 10
2454.852632
 20
715.749275
 42
-0.000245
  0
VERTEX
  8
0
 10
2453.884154
 20
731.669197
 42
-0.000040
  0
VERTEX
  8
0
 10
2453.034246
 20
745.772837
 42
-0.014638
  0
VERTEX
  8
0
 10
2453.002056
 20
746.816422
 42
-0.173806
  0
VERTEX
  8
0
 10
2453.190467
 20
747.344659
 42
-0.131635
  0
VERTEX
  8
0
 10
2453.694378
 20
747.706116
 42
-0.083787
  0
VERTEX
  8
0
 10
2454.525102
 20
747.868721
 42
-0.036200
  0
VERTEX
  8
0
 10
2455.654927
 20
747.816422
 42
-0.216778
  0
VERTEX
  8
0
 10
2458.137670
 20
746.309321
 42
-0.003030
  0
VERTEX
  8
0
 10
2468.175526
 20
731.389063
 42
-0.004043
  0
VERTEX
  8
0
 10
2484.057981
 20
707.044842
 42
-0.000475
  0
VERTEX
  8
0
 10
2518.945092
 20
652.500000
 42
0.000000
  0
VERTEX
  8
0
 10
2579.580329
 20
557.500000
 42
0.000000
  0
VERTEX
  8
0
 10
2592.495217
 20
557.500000
 42
0.000000
  0
VERTEX
  8
0
 10
2605.410106
 20
557.500000
 42
0.000000
  0
VERTEX
  8
0
 10
2663.463839
 20
652.500000
 42
-0.000336
  0
VERTEX
  8
0
 10
2701.461245
 20
714.585691
 42
-0.005584
  0
VERTEX
  8
0
 10
2714.345791
 20
735.089111
 42
-0.009893
  0
VERTEX
  8
0
 10
2721.650525
 20
745.951848
 42
-0.219237
  0
VERTEX
  8
0
 10
2724.859849
 20
747.820896
 42
0.000000
  0
VERTEX
  8
0
 10
2728.202125
 20
748.141792
 42
0.000000
  0
VERTEX
  8
0
 10
2727.559593
 20
737.820896
 42
0.002991
  0
VERTEX
  8
0
 10
2727.205548
 20
731.526943
 42
0.000376
  0
VERTEX
  8
0
 10
2726.531065
 20
717.900513
 42
0.000442
  0
VERTEX
  8
0
 10
2725.756713
 20
701.720378
 42
0.000367
  0
VERTEX
  8
0
 10
2724.960498
 20
684.500000
 42
0.005519
  0
VERTEX
  8
0
 10
2723.873731
 20
652.949561
 42
0.003815
  0
VERTEX
  8
0
 10
2723.310531
 20
617.226058
 42
0.001796
  0
VERTEX
  8
0
 10
2723.058592
 20
561.761501
 42
0.000235
  0
VERTEX
  8
0
 10
2723.001968
 20
443.750000
 42
0.000000
  0
VERTEX
  8
0
 10
2723.000000
 20
246.000000
 42
0.000000
  0
VERTEX
  8
0
 10
2794.500000
 20
246.000000
 42
0.000000
  0
VERTEX
  8
0
 10
2866.000000
 20
246.000000
 42
0.000000
  0
VERTEX
  8
0
 10
2866.000000
 20
610.500000
 42
0.000000
  0
VERTEX
  8
0
 10
2866.000000
 20
975.000000
 42
0.000000
  0
VERTEX
  8
0
 10
2793.750000
 20
974.981982
 42
0.000000
  0
VERTEX
  8
0
 10
2721.500000
 20
974.963965
 42
0.000000
  0
VERTEX
  8
0
 10
2659.572272
 20
873.981982
 42
-0.000542
  0
VERTEX
  8
0
 10
2626.791800
 20
820.658533
 42
-0.003178
  0
VERTEX
  8
0
 10
2609.361396
 20
792.771929
 42
-0.001222
  0
VERTEX
  8
0
 10
2597.404625
 20
774.011851
 42
-0.258517
  0
VERTEX
  8
0
 10
2595.572272
 20
773.022786
 42
-0.251834
  0
VERTEX
  8
0
 10
2593.753663
 20
774.026718
 42
-0.001132
  0
VERTEX
  8
0
 10
2581.479324
 20
793.145977
 42
-0.003097
  0
VERTEX
  8
0
 10
2563.751111
 20
821.281142
 42
-0.000554
  0
VERTEX
  8
0
 10
2531.053800
 20
874.022786
 42
0.000000
  0
VERTEX
  8
0
 10
2468.607600
 20
975.000000
 42
0.000000
  0
VERTEX
  8
0
 10
2396.303800
 20
975.000000
 42
0.000000
  0
VERTEX
  8
0
 10
2324.000000
 20
975.000000
 42
0.000000
  0
SEQEND
  0
POLYLINE
  8
0
 66
1
 70
1
  0
VERTEX
  8
0
 10
2959.015471
 20
725.750000
 42
0.000297
  0
VERTEX
  8
0
 10
2959.085209
 20
619.416418
 42
0.000657
  0
VERTEX
  8
0
 10
2959.293179
 20
538.304885
 42
0.000312
  0
VERTEX
  8
0
 10
2959.581980
 20
474.170262
 42
0.015517
  0
VERTEX
  8
0
 10
2960.040331
 20
461.500000
 42
0.030763
  0
VERTEX
  8
0
 10
2966.022918
 20
415.271514
 42
0.039883
  0
VERTEX
  8
0
 10
2977.416072
 20
374.093552
 42
0.043091
  0
VERTEX
  8
0
 10
2994.243761
 20
337.954285
 42
0.048612
  0
VERTEX
  8
0
 10
3016.458002
 20
306.775701
 42
0.049321
  0
VERTEX
  8
0
 10
3040.449369
 20
284.153641
 42
0.042243
  0
VERTEX
  8
0
 10
3069.636992
 20
265.320157
 42
0.039738
  0
VERTEX
  8
0
 10
3103.393180
 20
250.682248
 42
0.033547
  0
VERTEX
  8
0
 10
3141.000000
 20
240.570797
 42
0.025340
  0
VERTEX
  8
0
 10
3178.388004
 20
235.114170
 42
0.021841
  0
VERTEX
  8
0
 10
3218.045537
 20
233.106664
 42
0.022235
  0
VERTEX
  8
0
 10
3256.815754
 20
234.563560
 42
0.030136
  0
VERTEX
  8
0
 10
3291.500000
 20
239.531865
 42
0.080099
  0
VERTEX
  8
0
 10
3366.510128
 20
267.970411
 42
0.094566
  0
VERTEX
  8
0
 10
3423.944741
 20
317.418467
 42
0.088670
  0
VERTEX
  8
0
 10
3461.646248
 20
387.336160
 42
0.061790
  0
VERTEX
  8
0
 10
3478.989410
 20
475.500000
 42
0.016440
  0
VERTEX
  8
0
 10
3479.434960
 20
487.239254
 42
0.000289
  0
VERTEX
  8
0
 10
3479.719205
 20
550.678911
 42
0.000657
  0
VERTEX
  8
0
 10
3479.924199
 20
629.898433
 42
0.000309
  0
VERTEX
  8
0
 10
3479.991221
 20
732.250000
 42
0.000000
  0
VERTEX
  8
0
 10
3480.000000
 20
975.000000
 42
0.000000
  0
VERTEX
  8
0
 10
3412.536428
 20
975.000000
 42
0.000000
  0
VERTEX
  8
0
 10
3345.072856
 20
975.000000
 42
0.000000
  0
VERTEX
  8
0
 10
3344.719545
 20
732.750000
 42
-0.000155
  0
VERTEX
  8
0
 10
3344.464685
 20
588.627067
 42
-0.001479
  0
VERTEX
  8
0
 10
3344.154769
 20
527.091352
 42
-0.002324
  0
VERTEX
  8
0
 10
3343.704729
 20
491.494918
 42
-0.029561
  0
VERTEX
  8
0
 10
3342.684232
 20
478.162554
 42
-0.008026
  0
VERTEX
  8
0
 10
3340.710845
 20
465.241048
 42
-0.011922
  0
VERTEX
  8
0
 10
3338.532701
 20
454.002987
 42
-0.013051
  0
VERTEX
  8
0
 10
3335.999622
 20
443.713771
 42
-0.013472
  0
VERTEX
  8
0
 10
3332.956994
 20
433.680161
 42
-0.040682
  0
VERTEX
  8
0
 10
3323.233811
 20
410.854103
 42
-0.057255
  0
VERTEX
  8
0
 10
3310.779641
 20
392.587015
 42
-0.061677
  0
VERTEX
  8
0
 10
3295.323381
 20
378.620222
 42
-0.058813
  0
VERTEX
  8
0
 10
3276.686741
 20
368.580595
 42
-0.067543
  0
VERTEX
  8
0
 10
3245.791985
 20
360.962570
 42
-0.050079
  0
VERTEX
  8
0
 10
3210.583926
 20
360.723061
 42
-0.051014
  0
VERTEX
  8
0
 10
3176.904311
 20
367.382518
 42
-0.081340
  0
VERTEX
  8
0
 10
3150.656480
 20
380.369814
 42
-0.028674
  0
VERTEX
  8
0
 10
3144.464564
 20
385.368079
 42
-0.016115
  0
VERTEX
  8
0
 10
3137.515093
 20
392.089126
 42
-0.016102
  0
VERTEX
  8
0
 10
3131.133508
 20
399.110809
 42
-0.034418
  0
VERTEX
  8
0
 10
3126.779178
 20
405.000000
 42
-0.033916
  0
VERTEX
  8
0
 10
3119.255052
 20
418.771088
 42
-0.028429
  0
VERTEX
  8
0
 10
3113.151264
 20
434.259245
 42
-0.025191
  0
VERTEX
  8
0
 10
3108.243443
 20
452.118146
 42
-0.016571
  0
VERTEX
  8
0
 10
3104.328505
 20
473.074942
 42
-0.033365
  0
VERTEX
  8
0
 10
3103.251732
 20
485.736654
 42
-0.002527
  0
VERTEX
  8
0
 10
3102.801684
 20
520.145880
 42
-0.001542
  0
VERTEX
  8
0
 10
3102.503063
 20
580.574225
 42
-0.000143
  0
VERTEX
  8
0
 10
3102.268617
 20
729.750000
 42
0.000000
  0
VERTEX
  8
0
 10
3101.953495
 20
975.000000
 42
0.000000
  0
VERTEX
  8
0
 10
3030.476747
 20
975.000000
 42
0.000000
  0
VERTEX
  8
0
 10
2959.000000
 20
975.000000
 42
0.000000
  0
SEQEND
  0
POLYLINE
  8
0
 66
1
 70
1
  0
VERTEX
  8
0
 10
3559.000000
 20
854.500000
 42
0.000000
  0
VERTEX
  8
0
 10
3559.000000
 20
734.000000
 42
0.000000
  0
VERTEX
  8
0
 10
3616.500000
 20
734.000000
 42
0.000000
  0
VERTEX
  8
0
 10
3674.000000
 20
734.000000
 42
0.000000
  0
VERTEX
  8
0
 10
3674.000000
 20
797.000000
 42
0.000000
  0
VERTEX
  8
0
 10
3674.000000
 20
860.000000
 42
0.000000
  0
VERTEX
  8
0
 10
3724.000000
 20
860.000000
 42
0.000000
  0
VERTEX
  8
0
 10
3774.000000
 20
860.000000
 42
0.000000
  0
VERTEX
  8
0
 10
3774.000000
 20
610.500000
 42
0.000000
  0
VERTEX
  8
0
 10
3774.000000
 20
361.000000
 42
0.000000
  0
VERTEX
  8
0
 10
3714.500000
 20
361.000000
 42
0.000000
  0
VERTEX
  8
0
 10
3655.000000
 20
361.000000
 42
0.000000
  0
VERTEX
  8
0
 10
3655.000000
 20
303.500000
 42
0.000000
  0
VERTEX
  8
0
 10
3655.000000
 20
246.000000
 42
0.000000
  0
VERTEX
  8
0
 10
3844.500000
 20
246.000000
 42
0.000000
  0
VERTEX
  8
0
 10
4034.000000
 20
246.000000
 42
0.000000
  0
VERTEX
  8
0
 10
4034.000000
 20
303.500000
 42
0.000000
  0
VERTEX
  8
0
 10
4034.000000
 20
361.000000
 42
0.000000
  0
VERTEX
  8
0
 10
3975.000000
 20
361.000000
 42
0.000000
  0
VERTEX
  8
0
 10
3916.000000
 20
361.000000
 42
0.000000
  0
VERTEX
  8
0
 10
3916.000000
 20
610.500000
 42
0.000000
  0
VERTEX
  8
0
 10
3916.000000
 20
860.000000
 42
0.000000
  0
VERTEX
  8
0
 10
3965.500000
 20
860.000000
 42
0.000000
  0
VERTEX
  8
0
 10
4015.000000
 20
860.000000
 42
0.000000
  0
VERTEX
  8
0
 10
4015.000000
 20
797.000000
 42
0.000000
  0
VERTEX
  8
0
 10
4015.000000
 20
734.000000
 42
0.000000
  0
VERTEX
  8
0
 10
4072.500000
 20
734.000000
 42
0.000000
  0
VERTEX
  8
0
 10
4130.000000
 20
734.000000
 42
0.000000
  0
VERTEX
  8
0
 10
4130.000000
 20
854.500000
 42
0.000000
  0
VERTEX
  8
0
 10
4130.000000
 20
975.000000
 42
0.000000
  0
VERTEX
  8
0
 10
3844.500000
 20
975.000000
 42
0.000000
  0
VERTEX
  8
0
 10
3559.000000
 20
975.000000
 42
0.000000
  0
SEQEND
  0
POLYLINE
  8
0
 66
1
 70
1
  0
VERTEX
  8
0
 10
4209.000000
 20
610.500000
 42
0.000000
  0
VERTEX
  8
0
 10
4209.000000
 20
246.000000
 42
0.000000
  0
VERTEX
  8
0
 10
4280.500000
 20
246.000000
 42
0.000000
  0
VERTEX
  8
0
 10
4352.000000
 20
246.000000
 42
0.000000
  0
VERTEX
  8
0
 10
4352.000000
 20
398.500000
 42
0.000000
  0
VERTEX
  8
0
 10
4352.000000
 20
551.000000
 42
0.000000
  0
VERTEX
  8
0
 10
4469.500000
 20
551.000000
 42
0.000000
  0
VERTEX
  8
0
 10
4587.000000
 20
551.000000
 42
0.000000
  0
VERTEX
  8
0
 10
4587.000000
 20
398.500000
 42
0.000000
  0
VERTEX
  8
0
 10
4587.000000
 20
246.000000
 42
0.000000
  0
VERTEX
  8
0
 10
4658.500000
 20
246.000000
 42
0.000000
  0
VERTEX
  8
0
 10
4730.000000
 20
246.000000
 42
0.000000
  0
VERTEX
  8
0
 10
4730.000000
 20
610.500000
 42
0.000000
  0
VERTEX
  8
0
 10
4730.000000
 20
975.000000
 42
0.000000
  0
VERTEX
  8
0
 10
4658.500000
 20
975.000000
 42
0.000000
  0
VERTEX
  8
0
 10
4587.000000
 20
975.000000
 42
0.000000
  0
VERTEX
  8
0
 10
4587.000000
 20
826.500000
 42
0.000000
  0
VERTEX
  8
0
 10
4587.000000
 20
678.000000
 42
0.000000
  0
VERTEX
  8
0
 10
4469.500000
 20
678.000000
 42
0.000000
  0
VERTEX
  8
0
 10
4352.000000
 20
678.000000
 42
0.000000
  0
VERTEX
  8
0
 10
4352.000000
 20
826.500000
 42
0.000000
  0
VERTEX
  8
0
 10
4352.000000
 20
975.000000
 42
0.000000
  0
VERTEX
  8
0
 10
4280.500000
 20
975.000000
 42
0.000000
  0
VERTEX
  8
0
 10
4209.000000
 20
975.000000
 42
0.000000
  0
SEQEND
  0
ENDSEC
  0
EOF
