<?xml version="1.0" encoding="UTF-8"?>
<svg xmlns="http://www.w3.org/2000/svg" viewBox="0 0 470 480" preserveAspectRatio="xMidYMid meet" fill="currentColor" role="img">
<path d="M0 0 C3.9631 3.27623 6.12426 6.67553 8.3125 11.28516 C8.60915 11.90391 8.60915 11.90391 10.11035 15.03516 C10.73394 16.36418 11.35752 17.6932 12 19.0625 C12.33113 19.7573 12.33113 19.7573 14.00684 23.27344 C18.67921 33.10578 23.25097 42.98466 27.80273 52.87329 C32.55645 63.15413 37.51878 73.32819 42.5 83.5 C47.53035 93.7725 52.55558 104.04221 57.3396 114.43262 C58.3932 116.7024 59.47042 118.96137 60.57251 121.20801 C63.31055 126.85882 65.38339 132.15657 66.84375 138.27344 C70.59235 151.83278 70.59235 151.83278 77 156 C89.33801 158.71304 102.11704 157.5565 114.61497 156.54535 C123.17523 155.87251 131.44169 156.19858 140 157 C140 157.99 140 158.98 140 160 C134.0086 160.55377 128.01698 161.105 122.02515 161.65405 C119.99351 161.84056 117.96193 162.02771 115.93042 162.21558 C104.2945 163.29112 92.66675 164.31061 81 165 C81.88306 167.9541 81.88306 167.9541 84 171 C87.51363 171.6004 90.35274 171.7913 93.87109 171.73438 C94.86263 171.74334 95.85417 171.7523 96.87575 171.76154 C100.0636 171.78568 103.24965 171.76976 106.4375 171.75 C110.58215 171.75193 114.72653 171.77082 118.87109 171.79688 C119.88473 171.80102 120.89837 171.80517 121.94272 171.80945 C131.70902 171.90055 141.3084 172.81677 151 174 C151 174.33 151 174.66 151 175 C144.4 175 137.8 175 131 175 C132.65 175.99 134.3 176.98 136 178 C137.82979 181.43086 138.25001 183.11536 137.1875 186.875 C134.08355 191.30921 130.15529 194.56775 126 198 C129.3 197.67 132.6 197.34 136 197 C132.38184 199.71362 129.87229 200.9662 125.70312 202.48047 C124.49785 202.92197 123.29258 203.36348 122.05078 203.81836 C120.79652 204.27018 119.54227 204.72199 118.25 205.1875 C116.98027 205.65092 115.71055 206.11434 114.40234 206.5918 C111.27037 207.73391 108.13626 208.86972 105 210 C131.1782 204.98865 159.34186 197.38612 182 183 C182.99 183 183.98 183 185 183 C141.55286 216.91839 54.44652 245 -1 245 C-0.43873 241.51592 0.14765 238.0395 0.75 234.5625 C0.90727 233.56928 1.06453 232.57605 1.22656 231.55273 C1.73438 228.69141 1.73438 228.69141 3 224 C9.4044 222.3989 14.31833 222.80731 20.51953 224.96875 C21.70611 225.3748 22.8927 225.78086 24.11523 226.19922 C25.33533 226.62848 26.55543 227.05773 27.8125 227.5 C30.25568 228.34616 32.69965 229.19003 35.14453 230.03125 C35.68259 230.21978 35.68259 230.21978 38.40552 231.17383 C41 232 41 232 43 232 C38.38081 227.9383 33.74519 223.91478 29 220 C32.18672 217.87552 34.26611 217.36214 37.98438 216.58984 C39.21446 216.32688 40.44455 216.06391 41.71191 215.79297 C43.04448 215.51066 44.37705 215.22836 45.75 214.9375 C118.28734 199.04077 118.28734 199.04077 131 184 C131 183.34 131 182.68 131 182 C118.30942 174.19041 102.10611 176.73204 88 178 C90.31 183.28 92.62 188.56 95 194 C89.85758 195.71414 84.76959 197.06597 79.5 198.27734 C78.58726 198.48936 77.67453 198.70137 76.73413 198.91982 C74.80468 199.36741 72.8749 199.81363 70.94482 200.25854 C68.03671 200.92904 65.12961 201.60377 62.22266 202.2793 C57.63968 203.34259 53.05393 204.39314 48.46631 205.43622 C46.1906 205.95643 43.91744 206.48772 41.64453 207.02002 C40.40059 207.30345 39.15664 207.58688 37.875 207.87891 C37.34777 208.00109 37.34777 208.00109 34.67969 208.61938 C32 209 32 209 28 208 C24.67568 204.3142 22.98901 200.99571 23 196 C27.28672 190.39474 32.48049 186.34837 38 182 C39.3486 180.68211 40.68586 179.35225 42 178 C40.91993 178.36352 39.83985 178.72703 38.72705 179.10156 C34.7285 180.44576 30.72907 181.78727 26.729 183.12695 C24.99622 183.70791 23.2638 184.28993 21.53174 184.87305 C19.04553 185.70985 16.55806 186.5428 14.07031 187.375 C12.57258 187.87773 11.07485 188.38047 9.53174 188.89844 C6 190 6 190 4 190 C2.89305 185.84893 2 182.31268 2 178 C5.63 177.67 9.26 177.34 13 177 C13 176.34 13 175.68 13 175 C11.68 175.33 10.36 175.66 9 176 C6.33362 176.03921 3.6663 176.04444 1 176 C0.34 172.7 -0.32 169.4 -1 166 C1.64 165.67 4.28 165.34 7 165 C-0.29841 148.10706 -0.29841 148.10706 -4 141 C-6.40282 144.20376 -8.00734 146.82812 -9.69922 150.38672 C-10.18584 151.40701 -10.67246 152.4273 -11.17383 153.47852 C-11.67334 154.53748 -12.17285 155.59645 -12.6875 156.6875 C-12.94306 157.22278 -12.94306 157.22278 -14.23633 159.93164 C-18 167.85595 -18 167.85595 -18 169 C-15.03 168.67 -12.06 168.34 -9 168 C-9.875 176.75 -9.875 176.75 -11 179 C-15.30072 179.92525 -19.63779 180.40708 -24 181 C-19.71 180.67 -15.42 180.34 -11 180 C-11.66 183.3 -12.32 186.6 -13 190 C-21.66153 187.71832 -30.17019 185.08096 -38.6875 182.3125 C-39.97334 181.89678 -41.25918 181.48105 -42.58398 181.05273 C-45.72339 180.03739 -48.86203 179.01977 -52 178 C-45.40167 184.08146 -38.78565 190.1278 -32 196 C-33.03494 198.44037 -34.07836 200.87713 -35.125 203.3125 C-35.70508 204.66988 -36.28516 206.02727 -36.88281 207.42578 C-37.05567 207.78551 -37.05567 207.78551 -37.93042 209.60596 C-39 212 -39 212 -39.84497 214.87451 C-41.14776 218.40453 -42.25345 220.3961 -45 223 C-51.85383 225.26535 -58.7777 225.84409 -65.9375 226.5 C-67.96492 226.7224 -69.99186 226.94915 -72.01831 227.18018 C-77.06291 227.74288 -82.11118 228.24642 -87.16418 228.72717 C-91.40115 229.1348 -95.63371 229.58108 -99.86719 230.02344 C-106.90652 230.74369 -113.94908 231.40401 -121 232 C-120.22302 227.67666 -118.82618 224.16578 -116.9375 220.1875 C-116.38965 219.02605 -115.8418 217.86461 -115.27734 216.66797 C-115.06658 216.22775 -115.06658 216.22775 -114 214 C-115.03641 214.42152 -116.07281 214.84305 -117.14062 215.27734 C-118.49672 215.8252 -119.85281 216.37305 -121.25 216.9375 C-122.59578 217.48277 -123.94156 218.02805 -125.32812 218.58984 C-128.9966 219.99869 -132.056 221 -136 221 C-139.4036 222.19853 -142.76299 223.4441 -146.125 224.75 C-147.03766 225.09805 -147.95031 225.44609 -148.89062 225.80469 C-154.67914 228.03104 -160.35292 230.43629 -166 233 C-166.99 231.68 -167.98 230.36 -169 229 C-160.54934 224.43498 -151.86939 221.40728 -142.75 218.4375 C-142.04424 218.20321 -142.04424 218.20321 -138.47266 217.01758 C-131.75574 214.8044 -125.09431 212.77155 -118.22656 211.08203 C-113.70978 209.81507 -112.31315 209.34944 -109.10156 205.76562 C-108.6143 204.60547 -108.12703 203.44531 -107.625 202.25 C-107.10164 201.07953 -106.57828 199.90906 -106.03906 198.70312 C-105.69617 197.81109 -105.35328 196.91906 -105 196 C-105.7562 196.25282 -106.51239 196.50563 -107.2915 196.76611 C-110.73019 197.90426 -114.17719 199.01481 -117.625 200.125 C-118.8148 200.52332 -120.00461 200.92164 -121.23047 201.33203 C-122.38418 201.69941 -123.53789 202.0668 -124.72656 202.44531 C-125.7844 202.79094 -126.84224 203.13657 -127.93213 203.49268 C-131.55881 204.09241 -133.64905 203.40977 -137 202 C-133.42144 200.21072 -130.14292 199.01734 -126.33594 197.83594 C-125.04945 197.43633 -123.76297 197.03672 -122.4375 196.625 C-121.09687 196.2125 -119.75625 195.8 -118.375 195.375 C-117.02664 194.95477 -115.67828 194.53453 -114.28906 194.10156 C-104.25933 191 -104.25933 191 -102 191 C-101.74581 190.16872 -101.49163 189.33743 -101.22974 188.48096 C-99.85523 184.59021 -98.14912 181.00611 -96.32422 177.30469 C-95.96306 176.56848 -95.60191 175.83228 -95.22981 175.07376 C-94.45514 173.49474 -93.67895 171.91646 -92.90137 170.33887 C-90.83498 166.14458 -88.78171 161.9439 -86.73047 157.74219 C-86.32025 156.90194 -85.91004 156.06169 -85.4874 155.19598 C-82.06683 148.17223 -78.75817 141.10055 -75.5 134 C-70.11527 122.27861 -64.49102 110.68151 -58.82373 99.09521 C-53.94269 89.11137 -49.1403 79.09864 -44.5 69 C-39.37141 57.84608 -34.06292 46.78644 -28.6875 35.75 C-28.31254 34.97962 -27.93759 34.20925 -27.55127 33.41553 C-25.74992 29.71694 -23.94199 26.02173 -22.12646 22.33008 C-20.66769 19.3596 -19.22012 16.38547 -17.78369 13.4043 C-17.07777 11.95604 -16.37185 10.50777 -15.64453 9.01562 C-15.32988 8.36481 -15.32988 8.36481 -13.73755 5.07129 C-10.35198 -0.91304 -6.43906 -0.6091 0 0 Z " fill="currentColor" transform="translate(241,5)"/>
<path d="M0 0 C8.11495 6.6559 14.40182 14.15229 15.125 25 C17.26183 30.4608 18.74086 30.55865 24.0625 32.625 C25.36703 33.05426 26.67156 33.48352 28.01562 33.92578 C32.67103 35.62606 36.30758 37.80758 39.8125 41.3125 C39.625 43.8125 39.625 43.8125 38.8125 46.3125 C35.33381 48.63162 34.31725 48.47718 30.26172 48.22656 C29.17053 48.18402 28.07934 48.14148 26.95508 48.09766 C24.66218 47.99137 22.37025 47.86137 20.08008 47.70703 C11.82674 47.44471 11.82674 47.44471 8.83594 50.00366 C7.37057 52.02202 6.08455 54.16705 4.8125 56.3125 C-4.84205 64.75609 -15.66305 66.59272 -28.1875 65.3125 C-40.22535 62.12961 -47.59887 55.23023 -53.1875 44.3125 C-54.91156 40.59336 -55.1875 38.9822 -55.1875 34.6875 C-55.5175 33.24375 -55.8475 31.8 -56.1875 30.3125 C-60.625 28.5625 -60.625 28.5625 -63.34766 27.98047 C-69.21243 26.601 -76.78432 23.49829 -80.1875 18.3125 C-80.1875 15.6875 -80.1875 15.6875 -79.1875 13.3125 C-75.13166 11.28458 -74.13149 11.12756 -69.86328 11.46875 C-52.953 12.43422 -52.953 12.43422 -48.02734 9.30469 C-45.9375 6.6875 -45.9375 6.6875 -44.12891 3.93359 C-34.26191 -9.38785 -12.52355 -8.0375 0 0 Z M-70.1875 17.3125 C-67.30741 20.19259 -65.80113 21.08694 -62.125 22.5 C-61.24715 22.84418 -60.3693 23.18836 -59.46484 23.54297 C-57.1875 24.3125 -57.1875 24.3125 -55.1875 24.3125 C-54.8575 22.3325 -54.5275 20.3525 -54.1875 18.3125 C-59.4675 17.9825 -64.7475 17.6525 -70.1875 17.3125 Z M14.8125 36.3125 C14.4825 37.9625 14.1525 39.6125 13.8125 41.3125 C19.20348 42.44744 24.32798 42.38662 29.8125 42.3125 C24.92429 38.64634 20.99385 36.3125 14.8125 36.3125 Z " fill="currentColor" transform="translate(133.1875,46.6875)"/>
<path d="M0 0 C2 2 2 2 2.1875 5 C2.45562 5.99 2.72375 6.98 3 8 C6.5 9.25 6.5 9.25 10 10 C10.33 10.66 10.66 11.32 11 12 C9.90688 12.35063 8.81375 12.70125 7.6875 13.0625 C3.20038 15.42014 2.51432 17.27888 1 22 C-2 18 -2 18 -3 15 C-7.0625 13.3125 -7.0625 13.3125 -11 12 C-10 10 -10 10 -6.625 8.8125 C-2.13475 6.56737 -1.4982 4.67087 0 0 Z " fill="currentColor" transform="translate(311,62)"/>
<path d="M0 0 C7.11236 5.68725 9.944 12.01767 10.35547 20.99609 C10.0512 29.39771 7.47967 35.80295 0.79297 41.05859 C-6.9197 45.87901 -13.18478 46.35648 -22.20703 45.55859 C-30.47916 42.76238 -35.36664 37.29875 -39.14453 29.62109 C-41.38884 21.03992 -40.33264 14.25523 -36.20703 6.55859 C-27.07438 -4.85722 -12.51632 -8.17438 0 0 Z " fill="currentColor" transform="translate(369.20703125,88.44140625)"/>
<path d="M0 0 C3 4 3 4 5 8 C8.625 9.75 8.625 9.75 12 11 C9 13 9 13 6.4375 13.1875 C5.63312 13.45562 4.82875 13.72375 4 14 C2.8125 17.5 2.8125 17.5 2 21 C1.34 21.33 0.68 21.66 0 22 C-0.35063 20.90687 -0.70125 19.81375 -1.0625 18.6875 C-3.42014 14.20038 -5.27888 13.51432 -10 12 C-9.67 11.34 -9.34 10.68 -9 10 C-8.05125 9.79375 -7.1025 9.5875 -6.125 9.375 C-3 8 -3 8 -1.125 3.875 C-0.75375 2.59625 -0.3825 1.3175 0 0 Z " fill="currentColor" transform="translate(53,93)"/>
<path d="M0 0 C5.35838 2.52754 7.34341 5.3481 9 11 C9 16.42121 6.76552 19.23448 3 23 C-1.14722 25.51016 -4.36553 25.15862 -9 24 C-13.82512 20.89048 -15.7407 17.97715 -16.5 12.1875 C-15.85748 6.8064 -13.81177 4.73554 -10 1 C-6.64588 -0.67706 -3.68538 -0.27098 0 0 Z " fill="currentColor" transform="translate(84,133)"/>
<path d="M0 0 C1.32 0.33 2.64 0.66 4 1 C4 1.99 4 2.98 4 4 C5.65 4 7.3 4 9 4 C9 7.66667 9 11.33333 9 15 C7.35 14.67 5.7 14.34 4 14 C3.67 15.32 3.34 16.64 3 18 C1.68 17.67 0.36 17.34 -1 17 C-1 16.01 -1 15.02 -1 14 C-2.65 14.33 -4.3 14.66 -6 15 C-6.33 14.01 -6.66 13.02 -7 12 C-6.34 11.01 -5.68 10.02 -5 9 C-5.66 7.68 -6.32 6.36 -7 5 C-6 4 -6 4 -1 4 C-0.67 2.68 -0.34 1.36 0 0 Z " fill="currentColor" transform="translate(133,136)"/>
<path d="M0 0 C0.99 0.33 1.98 0.66 3 1 C3 1.99 3 2.98 3 4 C4.32 3.67 5.64 3.34 7 3 C7 4.32 7 5.64 7 7 C7.30405 8.67226 7.63129 10.3408 8 12 C7.19563 12.10313 6.39125 12.20625 5.5625 12.3125 C5.13969 12.42594 5.13969 12.42594 3 13 C2.67 13.99 2.34 14.98 2 16 C1.01 16 0.02 16 -1 16 C-1.33 15.34 -1.66 14.68 -2 14 C-3.32 13.67 -4.64 13.34 -6 13 C-6 10.03 -6 7.06 -6 4 C-4.68 3.67 -3.36 3.34 -2 3 C-1.34 2.01 -0.68 1.02 0 0 Z " fill="currentColor" transform="translate(388,155)"/>
<path d="M0 0 C1.75493 3.50985 2.54267 5.97569 3.28906 9.75391 C3.5082 10.85541 3.72734 11.95691 3.95312 13.0918 C4.17484 14.23713 4.39656 15.38246 4.625 16.5625 C4.73973 17.1371 4.73973 17.1371 5.32031 20.04492 C7 28.57833 7 28.57833 7 32 C7.4011 31.86106 7.4011 31.86106 9.43091 31.15796 C13.05496 29.90846 16.68359 28.67283 20.3125 27.4375 C21.57514 26.99986 22.83777 26.56223 24.13867 26.11133 C25.34717 25.70205 26.55566 25.29277 27.80078 24.87109 C28.91622 24.48881 30.03167 24.10652 31.18091 23.71265 C34 23 34 23 37 24 C34.62689 26.23121 32.25159 28.46 29.875 30.6875 C29.20984 31.31334 28.54469 31.93918 27.85938 32.58398 C24.00722 36.19066 20.09379 39.66503 16 43 C18.23271 47.46542 21.11563 50.1523 24.75 53.4375 C25.96172 54.54996 27.17344 55.66242 28.42188 56.80859 C31.56258 59.60985 34.74698 62.33072 38 65 C34.84157 66.57922 32.71801 65.05721 29.46094 63.91016 C28.15898 63.45576 26.85703 63.00137 25.51562 62.5332 C24.14922 62.04787 22.78281 61.56254 21.375 61.0625 C20.00086 60.58104 18.62672 60.09957 17.21094 59.60352 C13.80488 58.40903 10.40143 57.20758 7 56 C6.88785 57.23621 6.7757 58.47242 6.66016 59.74609 C6.00831 65.61271 4.73324 71.30969 3.4375 77.0625 C3.32052 77.59069 3.32052 77.59069 2.72852 80.26367 C2.15654 82.84338 1.57886 85.42183 1 88 C-0.71009 84.57983 -1.52811 82.16737 -2.28906 78.5 C-2.5082 77.44813 -2.72734 76.39625 -2.95312 75.3125 C-3.17484 74.21938 -3.39656 73.12625 -3.625 72 C-3.73973 71.45344 -3.73973 71.45344 -4.32031 68.6875 C-5.21418 64.34586 -6 60.44835 -6 56 C-6.43401 56.15408 -6.43401 56.15408 -8.63037 56.93384 C-12.54254 58.31786 -16.45867 59.69031 -20.375 61.0625 C-21.74141 61.54783 -23.10781 62.03316 -24.51562 62.5332 C-25.81758 62.9876 -27.11953 63.44199 -28.46094 63.91016 C-29.66541 64.33434 -30.86987 64.75852 -32.11084 65.19556 C-35 66 -35 66 -37 65 C-30.07725 58.57324 -23.13389 52.19167 -16 46 C-15.34 45.34 -14.68 44.68 -14 44 C-28.59681 30.36674 -28.59681 30.36674 -36 24 C-32.1352 22.71173 -30.62509 23.56042 -26.80078 24.87109 C-25.59229 25.28037 -24.38379 25.68965 -23.13867 26.11133 C-21.87604 26.54896 -20.6134 26.9866 -19.3125 27.4375 C-18.03826 27.87127 -16.76402 28.30504 -15.45117 28.75195 C-12.29795 29.82665 -9.14783 30.90963 -6 32 C-5.88028 31.1812 -5.76056 30.36241 -5.63721 29.5188 C-4.59042 22.51607 -3.36871 15.60837 -1.875 8.6875 C-1.69324 7.83994 -1.51148 6.99238 -1.32422 6.11914 C-0.88616 4.07871 -0.44359 2.03924 0 0 Z " fill="currentColor" transform="translate(236,166)"/>
<path d="M0 0 C2 3 2 3 3 7 C6.0625 8.25 6.0625 8.25 9 9 C7 10.33333 5 11.66667 3 13 C1.8125 15.625 1.8125 15.625 1 18 C-1 17 -1 17 -1.75 14.5625 C-3 12 -3 12 -6.125 10.6875 C-6.59937 10.57406 -6.59937 10.57406 -9 10 C-8 8 -8 8 -5.625 7.25 C-2.10596 5.57427 -1.45287 3.51747 0 0 Z " fill="currentColor" transform="translate(98,201)"/>
<path d="M0 0 C0 0.66 0 1.32 0 2 C-2.81694 3.30437 -5.61693 4.484 -8.5 5.625 C-38.08646 17.75392 -38.08646 17.75392 -45 26 C-45.75391 29.24219 -45.75391 29.24219 -46 32 C-40.93203 34.75626 -36.77015 36.51915 -31 37 C-31.33 34.69 -31.66 32.38 -32 30 C-31.29875 30.28875 -30.5975 30.5775 -29.875 30.875 C-20.77968 34.43404 -12.30771 35.17307 -2.5625 35.125 C-2.08579 35.12403 -2.08579 35.12403 0.32666 35.11914 C8.909 35.0676 17.44028 34.63574 26 34 C21.71 33.01 17.42 32.02 13 31 C17.10374 29.97407 18.94587 30.24747 23 31 C55.20446 33.02167 87.08578 26.8198 118.72144 21.64258 C119.78469 21.46862 120.84795 21.29465 121.94342 21.11542 C123.96018 20.78449 125.97667 20.45191 127.99286 20.11749 C134.7838 19 134.7838 19 137 19 C137.69906 21.58023 138.38387 24.16432 139.0625 26.75 C139.44535 28.18859 139.8282 29.62719 140.22266 31.10938 C141 35 141 35 140 39 C136.72925 39.94141 136.72925 39.94141 132.26172 40.5625 C131.45034 40.67931 130.63897 40.79611 129.80301 40.91646 C127.10025 41.29828 124.39458 41.65025 121.6875 42 C119.79707 42.2564 117.90669 42.51316 116.01636 42.77026 C87.90436 46.51673 59.37364 49.57203 31 50 C29.8927 50.02046 28.78539 50.04093 27.64453 50.06201 C-37.86679 51.13321 -37.86679 51.13321 -52 37 C-54.34696 32.30608 -54.41078 30.97923 -53 26 C-44.94651 13.82155 -29.82878 8.70523 -16.8125 3.375 C-15.72534 2.92463 -14.63817 2.47427 -13.51807 2.01025 C-12.4873 1.6021 -11.45653 1.19396 -10.39453 0.77344 C-9.47519 0.40654 -8.55584 0.03964 -7.60864 -0.33838 C-4.6833 -1.08032 -2.87719 -0.81259 0 0 Z " fill="currentColor" transform="translate(92,213)"/>
<path d="M0 0 C1.96802 2.94629 1.96802 2.94629 3.83203 7.01562 C4.51991 8.48193 5.20778 9.94824 5.9165 11.45898 C6.60406 12.95752 7.29161 14.45605 8 16 C9.26808 18.60221 10.54262 21.20129 11.82422 23.79688 C13.11365 26.4471 14.40137 29.09817 15.6875 31.75 C16.38247 33.18247 17.07743 34.61494 17.79346 36.09082 C22.60946 46.04927 27.29785 56.05992 31.92017 66.10938 C36.14094 75.2446 40.52433 84.29645 44.94495 93.336 C56.5368 117.04912 56.5368 117.04912 61.625 127.875 C61.8526 128.34664 61.8526 128.34664 63.00439 130.7334 C65.28794 135.65448 66.73285 139.55597 66 145 C63.02667 148.9078 60.84568 150.49226 56 151 C53.55347 150.47778 53.55347 150.47778 50.94922 149.55078 C49.95583 149.20314 48.96245 148.85549 47.93896 148.49731 C46.86598 148.10633 45.793 147.71534 44.6875 147.3125 C43.56553 146.91184 42.44356 146.51119 41.2876 146.09839 C38.8399 145.21935 36.39468 144.33336 33.95166 143.44141 C31.23037 142.44879 28.50588 141.46492 25.77881 140.48828 C21.47162 138.94552 17.17246 137.38214 12.875 135.8125 C11.5185 135.32628 10.16201 134.84006 8.7644 134.33911 C1.56186 131.66935 -4.15677 129.00352 -10 124 C-11.155 123.05125 -12.31 122.1025 -13.5 121.125 C-16.74798 117.76816 -18.60197 114.09808 -20.64453 109.91406 C-21.34594 108.48498 -22.04735 107.05589 -22.77002 105.5835 C-23.13605 104.83091 -23.50209 104.07831 -23.87921 103.30292 C-24.98588 101.02901 -26.10075 98.75932 -27.21826 96.49072 C-29.55199 91.74899 -31.87177 87.00054 -34.1875 82.25 C-34.59908 81.40605 -35.01067 80.56209 -35.43472 79.69257 C-42.34568 65.51018 -49.06774 51.24914 -55.65137 36.91162 C-56.93734 34.13529 -58.24693 31.37195 -59.57031 28.61328 C-59.95421 27.81132 -60.33811 27.00937 -60.73364 26.18311 C-61.72045 24.1291 -62.71342 22.07807 -63.70703 20.02734 C-65 17 -65 17 -65 14 C-64.30731 13.83936 -63.61462 13.67871 -62.90094 13.5132 C-55.69851 11.84279 -48.4962 10.1719 -41.29395 8.50073 C-38.60517 7.87691 -35.91637 7.25321 -33.22754 6.62964 C-29.36516 5.73388 -25.50288 4.83769 -21.64062 3.94141 C-21.03848 3.80181 -21.03848 3.80181 -17.99127 3.09535 C-17.43084 2.96526 -17.43084 2.96526 -14.59473 2.30688 C-13.60878 2.07816 -12.62282 1.84944 -11.60699 1.61378 C-7.49173 0.6449 -4.29627 0 0 0 Z " fill="currentColor" transform="translate(352,233)"/>
<path d="M0 0 C2.69991 1.79994 4.54189 3.08377 6 6 C7.97889 6.72694 9.97955 7.39816 12 8 C10.55649 12.33052 8.12133 12.35147 4 14 C3.15438 14.5775 2.30875 15.155 1.4375 15.75 C-1.81928 17.42014 -3.5447 17.05161 -7 16 C-7.99 15.01 -8.98 14.02 -10 13 C-11.21688 12.48438 -12.43375 11.96875 -13.6875 11.4375 C-14.78062 10.96312 -15.87375 10.48875 -17 10 C-17 9.34 -17 8.68 -17 8 C-16.52562 7.96906 -16.52562 7.96906 -14.125 7.8125 C-11 7 -11 7 -9.8125 4.5625 C-9.67844 4.13969 -9.67844 4.13969 -9 2 C-5.48747 -0.34169 -4.13531 -0.49624 0 0 Z M-14 8 C-14.33 8.66 -14.66 9.32 -15 10 C-13.68 10 -12.36 10 -11 10 C-11 9.34 -11 8.68 -11 8 C-11.99 8 -12.98 8 -14 8 Z M6 8 C6 8.66 6 9.32 6 10 C7.32 9.67 8.64 9.34 10 9 C8.68 8.67 7.36 8.34 6 8 Z " fill="currentColor" transform="translate(404,249)"/>
<path d="M0 0 C5.52213 4.62318 8.355 8.86953 9.0625 16.0625 C8.49297 22.4223 6.32375 26.57739 1.875 31.125 C-4.1962 35.17246 -9.21443 35.88802 -16.3125 34.25 C-22.3303 31.2411 -25.89237 28.60285 -28.3125 22.25 C-29.47001 14.24664 -28.65856 8.61977 -23.3125 2.25 C-15.79408 -2.89418 -8.36893 -4.42132 0 0 Z " fill="currentColor" transform="translate(265.3125,269.75)"/>
<path d="M0 0 C-1.91667 6.09017 -4.15089 11.68839 -6.99219 17.42578 C-7.37471 18.20349 -7.75724 18.98121 -8.15135 19.78249 C-9.38774 22.2949 -10.63139 24.80365 -11.875 27.3125 C-13.59902 30.80925 -15.3182 34.30836 -17.03516 37.80859 C-17.46111 38.67639 -17.88706 39.5442 -18.32591 40.43829 C-22.65723 49.29154 -26.78961 58.23481 -30.81396 67.23169 C-34.45588 75.24903 -38.51206 82.90165 -44.75 89.25 C-45.32234 89.85328 -45.89469 90.45656 -46.48438 91.07812 C-53.52554 96.4574 -62.23403 99.38517 -70.48438 102.39062 C-71.5436 102.78071 -72.60283 103.17079 -73.69415 103.57269 C-75.91501 104.38888 -78.13693 105.20218 -80.35986 106.0127 C-83.75737 107.25269 -87.15031 108.50461 -90.54297 109.75781 C-92.71068 110.5528 -94.87864 111.34709 -97.04688 112.14062 C-97.55161 112.32707 -97.55161 112.32707 -100.1059 113.27057 C-112.24341 117.67561 -112.24341 117.67561 -117.25 115.75 C-120.65928 113.58046 -121.83022 112.07914 -122.46094 108.07031 C-121.78142 102.06981 -119.24479 97.27103 -116.625 91.875 C-116.05137 90.6665 -115.47773 89.45801 -114.88672 88.21289 C-112.94238 84.13306 -110.97448 80.06533 -109 76 C-108.28296 74.52306 -107.56592 73.04611 -106.82715 71.52441 C-103.78899 65.27258 -100.74541 59.02341 -97.69189 52.77905 C-91.3257 39.74795 -85.17132 26.62424 -79.13477 13.43726 C-78.1274 11.27362 -77.06734 9.13469 -76 7 C-72.2028 6.30604 -68.64209 5.87441 -64.80859 5.58594 C-63.67535 5.48536 -62.54211 5.38478 -61.37453 5.28116 C-57.73013 4.96135 -54.08418 4.66749 -50.4375 4.375 C-46.85438 4.07059 -43.27175 3.76088 -39.68912 3.45074 C-37.36087 3.24996 -35.0324 3.05182 -32.7037 2.85638 C-24.88863 2.19421 -17.11829 1.3671 -9.34009 0.354 C-6.19569 0.02074 -3.15886 -0.06587 0 0 Z " fill="currentColor" transform="translate(177,267)"/>
<path d="M0 0 C2 3 2 3 2.1875 5.5625 C2.45562 6.36687 2.72375 7.17125 3 8 C6.5 9.1875 6.5 9.1875 10 10 C10.33 10.66 10.66 11.32 11 12 C8.094 13.25665 6.20395 14 3 14 C2.87625 14.76313 2.7525 15.52625 2.625 16.3125 C2 19 2 19 0 22 C-3 16.25 -3 16.25 -3 14 C-5.64 13.34 -8.28 12.68 -11 12 C-10.67 11.34 -10.34 10.68 -10 10 C-9.07187 9.79375 -8.14375 9.5875 -7.1875 9.375 C-2.63363 7.41059 -1.86062 4.43687 0 0 Z " fill="currentColor" transform="translate(427,282)"/>
<path d="M0 0 C3 3 3 3 3.4375 5.9375 C2.89695 9.72135 2.14034 10.85135 -1 13 C-4.67171 13.61195 -6.28814 13.48707 -9.375 11.375 C-11.49979 8.26953 -11.69185 6.68987 -11 3 C-7.47455 -1.0439 -5.07047 -1.65342 0 0 Z " fill="currentColor" transform="translate(70,287)"/>
<path d="M0 0 C0.66 0.33 1.32 0.66 2 1 C2.20625 2.13437 2.4125 3.26875 2.625 4.4375 C4 8 4 8 8.125 9.4375 C9.40375 9.62313 10.6825 9.80875 12 10 C11 12 11 12 7.625 13.1875 C3.13475 15.43263 2.4982 17.32913 1 22 C-1 19 -1 19 -1.1875 16.4375 C-1.45562 15.63313 -1.72375 14.82875 -2 14 C-5.5 12.8125 -5.5 12.8125 -9 12 C-9.33 11.34 -9.66 10.68 -10 10 C-8.70063 9.77312 -7.40125 9.54625 -6.0625 9.3125 C-4.72188 8.87937 -3.38125 8.44625 -2 8 C-1.0625 5.5625 -1.0625 5.5625 -1 3 C-0.67 2.01 -0.34 1.02 0 0 Z " fill="currentColor" transform="translate(169,331)"/>
<path d="M0 0 C2.94141 -0.19531 2.94141 -0.19531 6.5625 -0.125 C7.76004 -0.10695 8.95758 -0.08891 10.19141 -0.07031 C10.65482 -0.05871 10.65482 -0.05871 13 0 C15.20687 6.73984 17.41221 13.48017 19.61621 20.22095 C20.3645 22.50884 21.11319 24.7966 21.8623 27.08423 C33 61.09875 33 61.09875 33 64 C28.71 64 24.42 64 20 64 C16 53.375 16 53.375 16 50 C9.4 50 2.8 50 -4 50 C-4.66 52.97 -5.32 55.94 -6 59 C-6.74219 62.04297 -6.74219 62.04297 -8 64 C-10.82031 64.48828 -10.82031 64.48828 -14.125 64.3125 C-15.2207 64.26738 -16.31641 64.22227 -17.44531 64.17578 C-18.28836 64.11777 -19.13141 64.05977 -20 64 C-18.51328 56.69 -16.4184 49.69084 -14.12109 42.59766 C-13.74896 41.43874 -13.37683 40.27983 -12.99342 39.0858 C-12.21114 36.65221 -11.42692 34.21924 -10.64087 31.78687 C-9.4339 28.05137 -8.23307 24.31395 -7.0332 20.57617 C-6.27119 18.20822 -5.50883 15.84038 -4.74609 13.47266 C-4.38567 12.3519 -4.02526 11.23115 -3.65392 10.07643 C-3.32009 9.04453 -2.98627 8.01263 -2.64233 6.94946 C-2.34858 6.03951 -2.05483 5.12956 -1.75218 4.19203 C-1 2 -1 2 0 0 Z M5 19 C4.01 22.465 4.01 22.465 -1 40 C3.62 40 8.24 40 13 40 C12.37944 37.43642 11.75338 34.87417 11.125 32.3125 C10.77695 30.88551 10.42891 29.45852 10.07031 27.98828 C8.41749 21.82939 8.41749 21.82939 7 19 C6.34 19 5.68 19 5 19 Z " fill="currentColor" transform="translate(57,394)"/>
<path d="M0 0 C14.52 0 29.04 0 44 0 C44 10.05262 43.83592 12.84733 38.3125 20.0625 C37.73323 20.8618 37.15396 21.6611 36.55713 22.48462 C35.34179 24.1569 34.11536 25.82117 32.87842 27.47754 C31.00494 29.99337 29.17108 32.53364 27.34766 35.08594 C23.2869 40.7656 19.18938 46.41416 15 52 C24.57 52.33 34.14 52.66 44 53 C44 56.63 44 60.26 44 64 C29.15 64 14.3 64 -1 64 C-1 50.2539 -1 50.2539 5.25 42.8125 C6.53444 41.18378 7.81696 39.55354 9.09766 37.92188 C9.74879 37.10912 10.39993 36.29637 11.0708 35.45898 C14.09748 31.60114 16.89132 27.58891 19.6875 23.5625 C22.41092 19.66954 25.14875 15.80166 28 12 C23.38 11.835 23.38 11.835 0 11 C0 7.37 0 3.74 0 0 Z " fill="currentColor" transform="translate(97,394)"/>
<path d="M0 0 C14.85 0 29.7 0 45 0 C45 3.63 45 7.26 45 11 C39.72 11 34.44 11 29 11 C29 24.86 29 38.72 29 53 C34.28 53 39.56 53 45 53 C45 56.63 45 60.26 45 64 C30.15 64 15.3 64 0 64 C0 60.37 0 56.74 0 53 C5.28 53 10.56 53 16 53 C16 39.14 16 25.28 16 11 C10.72 11 5.44 11 0 11 C0 7.37 0 3.74 0 0 Z " fill="currentColor" transform="translate(151,394)"/>
<path d="M0 0 C13 0 13 0 16.42188 3.46484 C17.24783 4.92867 18.02368 6.42177 18.75 7.9375 C19.15992 8.69225 19.56984 9.44699 19.99219 10.22461 C21.02604 12.13314 22.01671 14.06493 23 16 C23.33 16.33 23.66 16.66 24 17 C24.71027 15.8566 25.42055 14.7132 26.15234 13.53516 C27.08066 12.04423 28.00905 10.55334 28.9375 9.0625 C29.40607 8.30775 29.87465 7.55301 30.35742 6.77539 C33.88672 1.11328 33.88672 1.11328 35 0 C38.96 0 42.92 0 47 0 C47 21.12 47 42.24 47 64 C43.04 64 39.08 64 35 64 C34.835 57.07 34.835 57.07 34 22 C31.03 26.95 28.06 31.9 25 37 C24.01 37 23.02 37 22 37 C20.35 34.36 20.35 34.36 12 21 C12 35.19 12 49.38 12 64 C8.04 64 4.08 64 0 64 C0 42.88 0 21.76 0 0 Z " fill="currentColor" transform="translate(205,394)"/>
<path d="M0 0 C3.96 0 7.92 0 12 0 C12.01982 1.32653 12.03964 2.65305 12.06006 4.01978 C12.13637 8.96055 12.22504 13.90105 12.31738 18.84155 C12.35557 20.97626 12.39044 23.11103 12.42188 25.24585 C12.46775 28.32168 12.52571 31.39708 12.58594 34.47266 C12.59749 35.42085 12.60904 36.36904 12.62094 37.34596 C12.73508 42.51828 13.06783 47.16877 15 52 C19.29992 53.43331 23.53257 53.53463 28 53 C31.60599 50.53737 31.92124 49.31502 33 45 C33.15299 41.58363 33.25713 38.18368 33.31641 34.76562 C33.33719 33.77246 33.35797 32.7793 33.37938 31.75604 C33.4447 28.58743 33.50368 25.41874 33.5625 22.25 C33.6057 20.10025 33.64932 17.95051 33.69336 15.80078 C33.80036 10.53394 33.90168 5.26701 34 0 C35.81242 -0.02687 37.62495 -0.04634 39.4375 -0.0625 C40.44684 -0.0741 41.45617 -0.0857 42.49609 -0.09766 C45 0 45 0 46 1 C46.11382 3.98562 46.1642 6.94716 46.16797 9.93359 C46.16963 10.38714 46.16963 10.38714 46.17805 12.68239 C46.18313 14.61174 46.18546 16.5411 46.1853 18.47046 C46.18747 21.39387 46.20555 24.31689 46.22461 27.24023 C46.22755 29.11719 46.22953 30.99414 46.23047 32.87109 C46.23765 33.73504 46.24484 34.59899 46.25224 35.48912 C46.21562 45.45096 45.17784 54.22045 37.5625 61.25 C30.0154 66.40411 20.67451 66.44242 11.97266 64.23047 C5.13809 61.32192 2.38631 56.86217 0 50 C-0.60857 46.00379 -0.5882 42.12065 -0.48828 38.08594 C-0.48121 36.99028 -0.47413 35.89463 -0.46684 34.76578 C-0.43908 31.30146 -0.37638 27.83882 -0.3125 24.375 C-0.28739 22.01174 -0.26458 19.64846 -0.24414 17.28516 C-0.18932 11.5228 -0.10317 5.76168 0 0 Z " fill="currentColor" transform="translate(261,394)"/>
<path d="M0 0 C16.5 0 33 0 50 0 C50 6.93 50 13.86 50 21 C46.7 21 43.4 21 40 21 C40 17.37 40 13.74 40 10 C37.03 10 34.06 10 31 10 C31 24.52 31 39.04 31 54 C34.3 54 37.6 54 41 54 C41 57.3 41 60.6 41 64 C30.11 64 19.22 64 8 64 C8 60.7 8 57.4 8 54 C11.63 54 15.26 54 19 54 C19 39.48 19 24.96 19 10 C16.03 10 13.06 10 10 10 C10 13.63 10 17.26 10 21 C6.7 21 3.4 21 0 21 C0 14.07 0 7.14 0 0 Z " fill="currentColor" transform="translate(314,394)"/>
<path d="M0 0 C3.96 0 7.92 0 12 0 C12 8.58 12 17.16 12 26 C18.93 26 25.86 26 33 26 C33 17.42 33 8.84 33 0 C37.29 0 41.58 0 46 0 C46 21.12 46 42.24 46 64 C41.71 64 37.42 64 33 64 C33 55.09 33 46.18 33 37 C29.7 37.165 29.7 37.165 13 38 C12.67 46.58 12.34 55.16 12 64 C8.04 64 4.08 64 0 64 C0 42.88 0 21.76 0 0 Z " fill="currentColor" transform="translate(371,394)"/>
</svg>
