<?xml version="1.0" encoding="UTF-8"?>
<svg xmlns="http://www.w3.org/2000/svg" viewBox="0 0 1004 1024" preserveAspectRatio="xMidYMid meet" fill="currentColor" role="img">
<path d="M0 0 C7.7445 6.61116 11.5267 15.98657 15.625 25.0625 C21.0712 36.96606 26.73843 48.74725 32.5 60.5 C37.92562 71.57513 43.29541 82.66444 48.4375 93.875 C53.77472 105.50848 59.36573 117.00853 65 128.5 C71.16163 141.06705 77.22293 153.66405 83.05859 166.38672 C87.71911 176.50027 92.60232 186.49993 97.5 196.5 C103.47551 208.70093 109.34038 220.9372 115.00781 233.28516 C120.08026 244.28395 125.41092 255.15272 130.73895 266.02914 C136.53081 277.85762 142.18972 289.73557 147.68237 301.70679 C151.41931 309.83006 155.36882 317.81822 159.48828 325.75391 C161 329 161 329 161 332 C162.57523 331.8466 164.15047 331.6932 165.77344 331.53516 C174.70938 330.79333 183.66427 330.63511 192.625 330.4375 C193.08092 330.42708 193.08092 330.42708 195.38812 330.37433 C216.98818 329.8845 238.52641 329.91098 260.125 330.4375 C261.75067 330.47666 263.37634 330.51581 265.05127 330.55615 C269.702 330.68043 274.35066 330.8317 279 331 C280.52851 331.05043 282.05701 331.10087 283.63184 331.15283 C285.07075 331.21712 286.50967 331.28142 287.99219 331.34766 C288.63213 331.37412 288.63213 331.37412 291.87061 331.50806 C295 332 295 332 298 335 C296 339 296 339 295 340 C292.111 340.245 289.23826 340.42937 286.34375 340.57812 C284.45846 340.68496 282.57321 340.79241 280.68799 340.90039 C279.68125 340.95687 278.67451 341.01334 277.63727 341.07153 C251.33367 342.56784 225.18077 345.09054 199 348 C197.50324 348.16564 196.00647 348.33129 194.46436 348.50195 C190.82926 348.90884 187.19545 349.32446 183.5625 349.75 C182.57459 349.86537 181.58669 349.98074 180.56885 350.09961 C174.25095 350.87452 174.25095 350.87452 172 352 C172.69275 356.53443 173.79421 359.65944 177 363 C182.9317 364.30121 188.64888 364.0629 194.69125 363.77216 C197.78983 363.62308 200.88422 363.53809 203.9856 363.47119 C207.18132 363.4013 210.37637 363.32728 213.57149 363.23312 C223.79002 362.93211 233.97095 363.08157 244.1875 363.375 C245.02435 363.39736 245.86121 363.41971 246.72342 363.44275 C329.763 365.67722 329.763 365.67722 340.9375 379.375 C342.37714 382.93176 342.28554 384.35765 341 388 C335.48664 395.82127 328.11892 400.14339 320 405 C319.12215 405.5659 318.2443 406.1318 317.33984 406.71484 C312.50928 409.70598 309.52502 410.5282 304 409 C307.34463 405.65537 310.29814 404.27102 314.5625 402.25 C335.22158 392.09743 335.22158 392.09743 337.875 383 C336.6436 378.77807 334.11883 377.80536 330.24219 376.09766 C313.08418 370.28874 294.85471 370.85704 277 371 C278.25941 371.75926 279.51883 372.51852 280.81641 373.30078 C285.313 376.20195 288.58772 379.17545 291 384 C292.01891 394.48022 288.368 400.67888 281.25 408.1875 C277.54944 411.70303 273.5314 414.61828 269.29688 417.45703 C267.14843 418.90029 265.07056 420.44708 263 422 C264.22977 421.55527 265.45953 421.11055 266.72656 420.65234 C268.35912 420.08001 269.99195 419.50843 271.625 418.9375 C272.02912 418.79022 272.02912 418.79022 274.07422 418.04492 C279.61966 416.12881 283.65672 415.32836 289 418 C289 418.66 289 419.32 289 420 C286.80151 421.12231 286.80151 421.12231 283.66797 422.36328 C282.4925 422.83218 281.31704 423.30107 280.10596 423.78418 C278.81287 424.28853 277.51978 424.79287 276.1875 425.3125 C275.52806 425.57305 275.52806 425.57305 272.19092 426.8916 C256.21623 433.16225 240.11279 439.09533 224 445 C232.31794 443.94079 240.32905 441.77202 248.4375 439.6875 C248.86288 439.57837 248.86288 439.57837 251.01553 439.02612 C365.86512 409.44193 365.86512 409.44193 393.23828 381.73438 C395 380 395 380 397 380 C397.66 378.68 398.32 377.36 399 376 C399.72187 374.74187 400.44375 373.48375 401.1875 372.1875 C403.17481 367.59612 403.42852 365.73196 402 361 C392.87361 347.70272 370.78678 345.11606 356 343 C351.21513 342.55278 346.42375 342.17043 341.625 341.90967 C335.80188 341.50505 331.75482 340.43729 327 337 C327 336.34 327 335.68 327 335 C349.72445 335.3571 385.94977 337.94977 403 355 C406.93701 360.42669 407.88764 364.34268 407 371 C386.51779 422.91037 269.04976 450.51281 220 467 C190.64706 476.74018 160.93108 485.23411 131 493 C130.16801 493.21616 129.33602 493.43232 128.47882 493.65503 C90.45684 503.50315 51.93912 511.65694 13.3125 518.75 C12.66056 518.87004 12.66056 518.87004 9.36133 519.47754 C4.14926 520.40245 -0.69273 521.11201 -6 521 C-4.86252 514.62114 -3.69002 508.25012 -2.48438 501.88379 C-2.07913 499.71664 -1.68357 497.54766 -1.29785 495.37695 C-0.74209 492.25901 -0.15199 489.14928 0.44531 486.03906 C0.52826 485.55206 0.52826 485.55206 0.94803 483.08755 C1.49268 480.35791 1.49268 480.35791 3 476 C5.72403 474.81526 5.72403 474.81526 9 474 C9.47753 473.86987 9.47753 473.86987 11.8941 473.21132 C21.35635 471.29491 28.26884 473.24564 37.23438 476.43359 C38.63416 476.90491 40.03394 477.37623 41.47614 477.86183 C45.91037 479.3604 50.33007 480.89732 54.75 482.4375 C59.21514 483.9661 63.68288 485.48673 68.1524 487.00246 C70.92554 487.94583 73.69562 488.89821 76.46234 489.86021 C77.70163 490.28718 78.94093 490.71415 80.21777 491.15405 C81.3133 491.53537 82.40882 491.91668 83.53754 492.30956 C84.35015 492.5374 85.16276 492.76525 86 493 C86.33 492.67 86.66 492.34 87 492 C81.39794 486.88194 75.78618 481.78209 70.05859 476.80469 C66.00016 473.24682 62.00425 469.61859 58 466 C59 464 59 464 62.95752 462.95361 C64.76421 462.56762 66.57284 462.1906 68.38281 461.82031 C70.41403 461.3884 72.44519 460.95626 74.47632 460.52393 C75.55815 460.29675 76.63999 460.06957 77.75461 459.83551 C249.82276 423.56193 249.82276 423.56193 276 391 C276.33 389.68 276.66 388.36 277 387 C269.06649 378.99179 256.39816 377.49202 245.75 375.6875 C244.74477 375.51605 243.73955 375.34461 242.70386 375.16797 C230.72153 373.27649 219.83257 374.37789 207.875 376 C205.06053 376.37971 202.24543 376.75485 199.42969 377.125 C198.1946 377.29258 196.95952 377.46016 195.68701 377.63281 C191.7685 378.02305 187.9353 378.06087 184 378 C184.48469 378.98919 184.96938 379.97839 185.46875 380.99756 C187.26095 384.65994 189.04964 388.324 190.83594 391.98926 C191.61057 393.57686 192.38661 395.16378 193.16406 396.75 C194.27972 399.02685 195.38994 401.30635 196.5 403.58594 C197.17031 404.95798 197.84063 406.33003 198.53125 407.74365 C200 411 200 411 200 413 C165.51395 421.2286 131.00476 429.33332 96.375 436.9375 C95.00747 437.23972 93.63993 437.54195 92.23096 437.85333 C88.35067 438.70949 84.46869 439.55742 80.58594 440.40234 C79.45337 440.65265 78.32079 440.90295 77.1539 441.16084 C70.76352 442.53773 64.51763 443.4777 58 444 C55.67739 439.65062 53.42661 435.26787 51.1875 430.875 C50.52557 429.6375 49.86363 428.4 49.18164 427.125 C47.48905 423.75792 45.99043 420.63728 45 417 C46.88281 413.33984 46.88281 413.33984 50 411 C51.21688 409.90688 52.43375 408.81375 53.6875 407.6875 C54.37586 407.10098 55.06422 406.51445 55.77344 405.91016 C58.16319 403.86 60.4869 401.74757 62.8125 399.625 C67.07906 395.77007 71.47359 392.116 75.96875 388.53125 C80.42354 384.81127 84.70358 380.90086 89 377 C84.58348 378.42179 80.16789 379.84646 75.75308 381.27359 C74.12735 381.7991 72.50151 382.32431 70.87558 382.84921 C60.42598 386.22501 49.99827 389.65945 39.59375 393.17188 C38.56824 393.51726 37.54272 393.86264 36.48613 394.21849 C31.42235 395.92405 26.36125 397.63689 21.30396 399.36157 C19.44885 399.98748 17.59363 400.61307 15.73828 401.23828 C14.88162 401.5335 14.02496 401.82871 13.14233 402.13287 C7.22716 404.11358 7.22716 404.11358 5 403 C4.31396 400.82275 4.31396 400.82275 3.71094 397.97656 C3.4918 396.95562 3.27266 395.93469 3.04688 394.88281 C2.82516 393.80773 2.60344 392.73266 2.375 391.625 C2.14555 390.55766 1.91609 389.49031 1.67969 388.39062 C0 380.4521 0 380.4521 0 377 C16.70843 374.70387 16.70843 374.70387 25 375 C24.67 374.34 24.34 373.68 24 373 C21.48047 372.98828 21.48047 372.98828 18.1875 373.3125 C17.02219 373.42078 15.85687 373.52906 14.65625 373.64062 C13.44969 373.75922 12.24312 373.87781 11 374 C8.72945 374.19089 6.45863 374.37865 4.1875 374.5625 C2.4583 374.70791 0.72912 374.85357 -1 375 C-1.67293 371.93876 -2.33854 368.87622 -3 365.8125 C-3.09539 365.38034 -3.09539 365.38034 -3.57812 363.19336 C-4.47969 358.99143 -5 355.32166 -5 351 C0.61 350.01 6.22 349.02 12 348 C6.75511 336.87325 1.46045 325.77113 -3.875 314.6875 C-4.43405 313.52565 -4.9931 312.3638 -5.56909 311.16675 C-8.0134 306.09399 -10.47295 301.03219 -13 296 C-20.74953 311.93047 -28.40644 327.89677 -35.823 343.98535 C-36.32871 345.08202 -36.83443 346.17869 -37.35547 347.30859 C-37.79528 348.26564 -38.23509 349.22269 -38.68823 350.20874 C-40.07733 353.16454 -41.5284 356.08452 -43 359 C-42.24977 358.79504 -41.49953 358.59008 -40.72656 358.37891 C-34.11433 356.63841 -27.81873 355.50138 -21 355 C-21.26199 356.93872 -21.5352 358.87591 -21.8125 360.8125 C-21.96332 361.89145 -22.11414 362.97039 -22.26953 364.08203 C-22.51059 365.37496 -22.75164 366.66789 -23 368 C-23.07573 368.92273 -23.15146 369.84545 -23.22949 370.79614 C-23.70442 374.06221 -24.20617 376.21562 -26 379 C-30.71963 381.10887 -35.51536 381.54424 -40.625 382.0625 C-43.30548 382.40137 -45.98522 382.74609 -48.66406 383.09766 C-49.85467 383.22664 -51.04528 383.35563 -52.27197 383.48853 C-53.17222 383.65731 -54.07247 383.8261 -55 384 C-55.33 384.66 -55.66 385.32 -56 386 C-46.43 384.35 -36.86 382.7 -27 381 C-28.125 393.375 -28.125 393.375 -29.5625 398.6875 C-29.83191 399.70199 -30.10133 400.71648 -30.37891 401.76172 C-30.48139 402.13104 -30.48139 402.13104 -31 404 C-36.29277 402.29507 -41.58419 400.58599 -46.875 398.875 C-47.27967 398.74422 -47.27967 398.74422 -49.32758 398.0824 C-59.47035 394.80207 -69.59745 391.47894 -79.70312 388.08594 C-80.66055 387.76483 -81.61797 387.44372 -82.6044 387.11288 C-87.2968 385.53828 -91.98726 383.95817 -96.67529 382.37061 C-98.39025 381.79379 -100.10525 381.21713 -101.82031 380.64062 C-102.57449 380.38555 -102.57449 380.38555 -106.39111 379.09473 C-110 378 -110 378 -113 378 C-105.75269 384.7689 -98.49493 391.5044 -91 398 C-89.33066 399.49702 -87.66416 400.99722 -86 402.5 C-73.92888 413.38074 -73.92888 413.38074 -70 416 C-70 416.66 -70 417.32 -70 418 C-70.66 418 -71.32 418 -72 418 C-72.12717 418.41508 -72.12717 418.41508 -72.77075 420.51562 C-74.14787 424.41915 -75.85148 428.03017 -77.66797 431.75 C-77.84692 432.11758 -77.84692 432.11758 -78.75252 433.97778 C-79.89405 436.32023 -81.04076 438.6601 -82.1875 441 C-83.31072 443.30366 -84.43298 445.60778 -85.55351 447.91275 C-86.29573 449.42772 -87.04624 450.93866 -87.80501 452.4454 C-89.57067 455.96372 -91.16552 459.44032 -92.55151 463.12744 C-96.11124 472.0947 -96.11124 472.0947 -101.16821 474.51855 C-105.4376 475.508 -109.5715 475.98788 -113.9375 476.375 C-115.63321 476.57335 -117.32819 476.77802 -119.02246 476.98828 C-122.84972 477.45333 -126.67907 477.87962 -130.51318 478.28418 C-137.60366 479.04627 -144.66911 479.9772 -151.73828 480.91406 C-184.08466 485.16665 -216.48642 488.77035 -248.95312 491.96875 C-250.01978 492.07457 -251.08644 492.1804 -252.18542 492.28943 C-256.14192 492.67269 -260.02228 493 -264 493 C-262.51768 488.15776 -260.52573 483.74317 -258.30469 479.19531 C-257.58926 477.72578 -256.87383 476.25625 -256.13672 474.74219 C-255.38289 473.20309 -254.62899 471.66402 -253.875 470.125 C-253.11294 468.56267 -252.35122 467.00017 -251.58984 465.4375 C-249.72987 461.62337 -247.86647 457.81095 -246 454 C-296.92627 470.85254 -296.92627 470.85254 -306 489 C-306.0784 491.66551 -306.08884 494.33481 -306 497 C-306.99 497 -307.98 497 -309 497 C-310.6138 493.7724 -310.39936 491.59421 -310 488 C-305.80918 480.07142 -300.01509 475.4218 -293 470 C-292.34 469.34 -291.68 468.68 -291 468 C-312.66239 475.52425 -334.43333 483.29344 -354.4375 494.63672 C-357 496 -357 496 -359 496 C-359.20625 495.05125 -359.4125 494.1025 -359.625 493.125 C-361 490 -361 490 -364.125 488.625 C-364.59938 488.52188 -364.59938 488.52188 -367 488 C-352.76981 473.76981 -323.10491 468.26223 -304.5625 462.1875 C-303.03552 461.67832 -301.50855 461.16914 -299.9353 460.64453 C-291.12182 457.74673 -282.31505 455.30921 -273.27344 453.22656 C-240.26691 445.37855 -240.26691 445.37855 -233.69556 433.17065 C-231.63293 428.20063 -230.02063 423.28539 -229 418 C-238.01518 419.99764 -246.91759 422.18536 -255.76172 424.83203 C-256.57626 425.07501 -257.39079 425.31799 -258.23001 425.56833 C-261.5713 426.56873 -264.9107 427.57477 -268.24585 428.59546 C-270.72705 429.35234 -273.21258 430.09326 -275.69922 430.83203 C-277.15159 431.27265 -278.60396 431.71327 -280.10034 432.16724 C-286.86335 433.61146 -291.68562 431.50398 -298 429 C-296.16693 425.33386 -291.09832 424.94639 -287.35156 423.80469 C-286.35994 423.49731 -285.36832 423.18994 -284.34665 422.87325 C-282.21548 422.21347 -280.08337 421.55672 -277.95044 420.90268 C-274.621 419.87377 -271.30124 418.81773 -267.98242 417.75513 C-249.50578 411.88746 -249.50578 411.88746 -240.36719 410.42578 C-229.78534 408.64317 -223.12831 406.81386 -217.42969 397.1875 C-214.11893 390.66728 -211.38153 383.96396 -208.79137 377.1288 C-205.5135 368.51555 -201.43194 360.36798 -197.3125 352.125 C-192.30075 341.8849 -187.38534 331.60926 -182.625 321.25 C-177.02128 309.05666 -171.15339 297.00152 -165.25153 284.95081 C-160.22483 274.68222 -155.26943 264.39143 -150.5 254 C-144.94057 241.88735 -139.11157 229.91589 -133.24997 217.94769 C-128.24414 207.72192 -123.30955 197.4743 -118.5625 187.125 C-112.80834 174.58273 -106.75389 162.19588 -100.6795 149.80676 C-94.96035 138.13677 -89.35998 126.42662 -83.94141 114.61328 C-79.28089 104.49973 -74.39761 94.50011 -69.5 84.5 C-63.9736 73.21533 -58.5057 61.9142 -53.25 50.5 C-51.71583 47.18533 -50.18058 43.87116 -48.64502 40.55713 C-47.46783 38.01163 -46.2948 35.46421 -45.12451 32.91553 C-43.16474 28.66361 -41.17858 24.42484 -39.1875 20.1875 C-38.88828 19.53137 -38.88828 19.53137 -37.37402 16.21094 C-33.10927 7.21517 -29.1565 1.66142 -20.125 -3 C-12.98785 -4.73022 -6.28673 -4.09369 0 0 Z " fill="currentColor" transform="translate(518,13)"/>
<path d="M0 0 C3.31476 1.6978 6.00275 3.75206 9 6 C9.49609 8.8125 9.49609 8.8125 9.4375 12 C9.43621 13.05187 9.43492 14.10375 9.43359 15.1875 C9 18 9 18 6 21 C4.68 21 3.36 21 2 21 C1.67 21.99 1.34 22.98 1 24 C-5.01484 24.41964 -7.76294 22.7661 -12.375 19.125 C-14 17 -14 17 -13.6875 14.5 C-13.46063 13.675 -13.23375 12.85 -13 12 C-13.33 10.68 -13.66 9.36 -14 8 C-11.76633 3.53265 -11.36183 3.52664 -7 2 C-5 0 -5 0 0 0 Z " fill="currentColor" transform="translate(813,75)"/>
<path d="M0 0 C0.66387 0.60457 1.32773 1.20914 2.01172 1.83203 C2.39006 2.17041 2.39006 2.17041 4.30469 3.88281 C16.23848 15.13696 24.22319 30.68265 27.01172 46.83203 C26.95661 47.62094 26.9015 48.40984 26.84473 49.22266 C26.75607 52.1602 26.87191 54.10998 28.01172 56.83203 C32.04286 59.62436 36.49746 60.9577 41.13672 62.45703 C43.708 63.37517 46.27704 64.29961 48.84375 65.23047 C50.08334 65.67101 51.32294 66.11154 52.6001 66.56543 C62.24517 70.14627 74.15136 75.11132 79.01172 84.83203 C79.61036 90.10008 78.63723 92.94755 75.01172 96.83203 C68.24917 99.29378 62.22531 100.32014 55.01172 100.20703 C54.09052 100.20123 53.16933 100.19543 52.22021 100.18945 C40.40769 99.97722 28.70802 98.39402 17.01172 96.83203 C16.7108 97.61288 16.40989 98.39373 16.09985 99.19824 C9.35791 115.51686 -8.99386 127.04941 -24.75781 132.85938 C-48.65262 140.05382 -73.06321 136.23556 -93.98828 122.83203 C-98.34235 119.45701 -102.21443 115.84068 -105.98828 111.83203 C-106.72434 111.05344 -107.46039 110.27484 -108.21875 109.47266 C-117.98086 98.21885 -126.50112 81.41264 -125.76562 66.23828 C-126.98828 61.83203 -126.98828 61.83203 -129.448 60.2146 C-132.95806 58.71051 -136.48671 57.46556 -140.11328 56.26953 C-142.68459 55.3423 -145.25363 54.40874 -147.82031 53.46875 C-149.05991 53.02193 -150.2995 52.57511 -151.57666 52.11475 C-161.06662 48.54667 -170.79399 44.09108 -176.98828 35.83203 C-178.23828 31.76953 -178.23828 31.76953 -177.98828 27.83203 C-174.89056 23.05269 -171.91849 20.48319 -166.24609 19.22266 C-149.53203 17.21857 -132.57914 19.8182 -115.98828 21.83203 C-115.8408 21.44459 -115.8408 21.44459 -115.09448 19.48389 C-108.16206 2.86504 -89.20691 -8.57156 -72.98828 -14.16797 C-72.55838 -14.32717 -72.55838 -14.32717 -70.38281 -15.13281 C-46.79344 -22.51939 -18.64115 -15.72958 0 0 Z M-154.98828 33.83203 C-150.60867 37.11674 -146.16139 38.93138 -141.11328 40.89453 C-140.2277 41.2458 -139.34211 41.59707 -138.42969 41.95898 C-133.98597 43.71064 -129.54167 45.38186 -124.98828 46.83203 C-124.32828 43.20203 -123.66828 39.57203 -122.98828 35.83203 C-133.72379 34.08185 -144.11887 33.59256 -154.98828 33.83203 Z M26.01172 72.83203 C25.35172 76.13203 24.69172 79.43203 24.01172 82.83203 C35.00958 84.67996 45.88466 85.38125 57.01172 85.83203 C53.99917 82.81948 52.22851 81.89394 48.35547 80.35156 C47.25074 79.91006 46.14602 79.46855 45.00781 79.01367 C43.8541 78.56186 42.70039 78.11004 41.51172 77.64453 C40.35801 77.18111 39.2043 76.7177 38.01562 76.24023 C29.4123 72.83203 29.4123 72.83203 26.01172 72.83203 Z " fill="currentColor" transform="translate(290.98828125,104.16796875)"/>
<path d="M0 0 C2.07217 3.10826 3.28425 6.01876 4.625 9.5 C5.07102 10.64469 5.51703 11.78938 5.97656 12.96875 C7 16 7 16 7 19 C8.46438 19.43312 9.92875 19.86625 11.4375 20.3125 C16.32734 21.77736 21.16545 23.36249 26 25 C26 25.66 26 26.32 26 27 C23.43672 28.13858 20.82136 29.16088 18.1875 30.125 C16.7373 30.66383 15.28711 31.20266 13.79297 31.75781 C10 33 10 33 7 33 C6.88785 33.8482 6.7757 34.69641 6.66016 35.57031 C5.95547 39.23133 4.81489 42.41387 3.4375 45.875 C2.98246 47.02742 2.52742 48.17984 2.05859 49.36719 C1.70926 50.23602 1.35992 51.10484 1 52 C-2.44367 50.27817 -2.84834 46.54401 -4.125 43.0625 C-4.66383 41.60973 -5.20266 40.15695 -5.75781 38.66016 C-7 35 -7 35 -7 33 C-8.485 32.56688 -9.97 32.13375 -11.5 31.6875 C-16.08032 30.30427 -20.59272 28.87717 -25 27 C-25 26.34 -25 25.68 -25 25 C-22.97148 24.38549 -20.94105 23.77671 -18.9021 23.19775 C-12.35004 21.22663 -8.10857 19.86843 -4.50391 13.79297 C-3.08009 9.54994 -1.95147 5.37006 -1 1 C-0.67 0.67 -0.34 0.34 0 0 Z " fill="currentColor" transform="translate(665,130)"/>
<path d="M0 0 C12.61315 11.85953 17.7009 27.06975 17.19141 44.11328 C15.7273 61.80907 6.52689 75.95814 -7.69141 86.40625 C-21.75492 95.2552 -38.50595 97.0809 -54.3125 92.25 C-71.11471 86.08182 -83.19667 74.32718 -89.34375 57.44922 C-94.1421 42.02252 -92.56003 26.22621 -84.51953 12.12109 C-64.83374 -17.38507 -27.2908 -22.64556 0 0 Z " fill="currentColor" transform="translate(794.125,193.0625)"/>
<path d="M0 0 C0.66 0 1.32 0 2 0 C2.32871 1.18078 2.65742 2.36156 2.99609 3.57812 C6.80503 15.92364 6.80503 15.92364 10.08594 18.87891 C12.3125 19.8125 12.3125 19.8125 17 21 C18.70093 21.71903 20.38929 22.46864 22.0625 23.25 C23.36187 23.8275 24.66125 24.405 26 25 C24.32647 28.34706 20.70806 28.34507 17.25 29.375 C11.1923 31.55921 8.08353 32.92156 5.625 39 C5.03055 40.98495 4.48773 42.98617 4 45 C3.34587 47.00414 2.68267 49.00541 2 51 C1.34 51 0.68 51 0 51 C-0.61449 48.97156 -1.22325 46.9412 -1.80225 44.90234 C-3.77146 38.35602 -5.11095 34.10502 -11.20703 30.53906 C-15.44441 29.14197 -19.67031 28.0611 -24 27 C-24.33 26.34 -24.66 25.68 -25 25 C-23.78184 24.70352 -22.56367 24.40703 -21.30859 24.10156 C-7.6016 20.1591 -7.6016 20.1591 -4.31641 13.52734 C-3.02035 10.3037 -2.02775 7.03578 -1.09375 3.69141 C-0.73281 2.47324 -0.37188 1.25508 0 0 Z " fill="currentColor" transform="translate(114,197)"/>
<path d="M0 0 C7.70222 6.29726 10.78351 12.41061 11.21094 22.27344 C10.8871 31.96769 7.41868 38.89032 -0.1875 44.92969 C-6.6422 49.12408 -13.82875 50.38011 -21.35156 49.33594 C-29.79247 46.48428 -35.90877 42.09408 -40.78906 34.58594 C-43.93027 26.04186 -44.5557 17.62708 -40.35156 9.33594 C-31.00581 -4.29903 -14.50747 -10.26608 0 0 Z " fill="currentColor" transform="translate(187.3515625,287.6640625)"/>
<path d="M0 0 C3 4 3 4 3 9 C4.42313 8.62875 5.84625 8.2575 7.3125 7.875 C12 7 12 7 15 9 C16 13 16 13 14 17 C13.01 17.66 12.02 18.32 11 19 C11 19.66 11 20.32 11 21 C12.32 21.99 13.64 22.98 15 24 C16 28 16 28 14.0625 30.875 C11 33 11 33 6.6875 32.3125 C5.47062 31.87937 4.25375 31.44625 3 31 C2.87625 32.11375 2.7525 33.2275 2.625 34.375 C2 38 2 38 0 40 C-1.65 40 -3.3 40 -5 40 C-8 36 -8 36 -8 31 C-9.2375 31.37125 -10.475 31.7425 -11.75 32.125 C-16 33 -16 33 -20 31 C-21.0625 28.6875 -21.0625 28.6875 -21 26 C-19.37447 24.29319 -17.70884 22.6234 -16 21 C-17 18 -17 18 -19.125 16.125 C-21 14 -21 14 -20.9375 11.375 C-20 9 -20 9 -17 7 C-13.979 7.56392 -10.97366 8.22426 -8 9 C-7.87625 7.88625 -7.7525 6.7725 -7.625 5.625 C-6.64041 -0.08562 -5.89767 0 0 0 Z " fill="currentColor" transform="translate(290,290)"/>
<path d="M0 0 C1.81883 2.38329 3 3.95818 3 7 C4.09312 6.77312 5.18625 6.54625 6.3125 6.3125 C10 6 10 6 13 9 C12.8125 12.125 12.8125 12.125 12 15 C11.67 15.165 11.67 15.165 10 16 C10.66 17.32 11.32 18.64 12 20 C12.75 22.5625 12.75 22.5625 13 25 C12.34 25.99 11.68 26.98 11 28 C9.88625 27.93813 8.7725 27.87625 7.625 27.8125 C7.02688 27.84344 7.02688 27.84344 4 28 C2.63823 29.98075 1.30407 31.9808 0 34 C-3.125 34.5625 -3.125 34.5625 -6 34 C-8 31 -8 31 -8 27 C-8.66 27.33 -9.32 27.66 -10 28 C-15.64706 28.35294 -15.64706 28.35294 -18 26 C-18.3125 23.0625 -18.3125 23.0625 -18 20 C-17.01 19.01 -16.02 18.02 -15 17 C-15.99 16.01 -16.98 15.02 -18 14 C-18.3125 10.9375 -18.3125 10.9375 -18 8 C-17.34 7.34 -16.68 6.68 -16 6 C-13.32362 6.24331 -10.65313 6.57208 -8 7 C-7.87625 6.21625 -7.7525 5.4325 -7.625 4.625 C-6.43938 -0.3546 -5.17279 0 0 0 Z " fill="currentColor" transform="translate(833,331)"/>
<path d="M0 0 C1.80886 3.61772 2.61639 6.28053 3.42041 10.1897 C3.68053 11.44102 3.94065 12.69234 4.20865 13.98158 C4.34567 14.65558 4.34567 14.65558 5.03906 18.06641 C5.32478 19.45198 5.6105 20.83756 5.90488 22.26512 C6.50762 25.19402 7.10761 28.12349 7.70508 31.05347 C8.62233 35.54939 9.54874 40.04336 10.47656 44.53711 C11.06044 47.3801 11.64379 50.22319 12.22656 53.06641 C12.50465 54.41642 12.78273 55.76644 13.06924 57.15736 C13.32306 58.40553 13.57687 59.6537 13.83838 60.9397 C14.06329 62.04016 14.2882 63.14062 14.51993 64.27443 C15 67 15 67 15 70 C15.82019 69.72216 16.64038 69.44432 17.48543 69.15807 C25.99782 66.27647 34.51436 63.40739 43.03345 60.54565 C46.21556 59.476 49.39611 58.40188 52.57544 57.32397 C57.13735 55.77917 61.70298 54.24587 66.26953 52.71484 C66.98362 52.47165 66.98362 52.47165 70.59737 51.24095 C71.91851 50.80042 73.23965 50.35989 74.60083 49.90601 C75.76665 49.51296 76.93247 49.11991 78.13362 48.71495 C81 48 81 48 84 49 C78.05152 54.48251 72.10404 59.9575 65.99219 65.25781 C63.63979 67.315 61.31965 69.40597 59 71.5 C56.01937 74.18983 53.02755 76.8631 50 79.5 C36.75955 91.04847 36.75955 91.04847 31 97 C37.98148 103.30908 44.98249 109.58487 52.15234 115.67969 C59.26969 121.73533 66.22839 127.91585 73.06641 134.28516 C76.64837 137.60002 80.30498 140.81214 84 144 C80.9031 145.54845 78.94194 144.18008 75.71436 143.09399 C74.39314 142.65346 73.07192 142.21293 71.71066 141.75905 C70.27732 141.27266 68.84397 140.78628 67.36719 140.28516 C65.90508 139.79543 64.44297 139.3057 62.93655 138.80113 C59.04507 137.4962 55.15584 136.18481 51.26758 134.8703 C47.30129 133.53117 43.33214 132.20064 39.36328 130.86914 C31.57287 128.25392 23.78538 125.63016 16 123 C12.35607 138.75082 8.95922 154.54301 5.6875 170.375 C5.22871 172.58728 4.76972 174.79952 4.31055 177.01172 C3.20486 182.3407 2.10169 187.67019 1 193 C-1 192 -1 192 -1.772 189.26024 C-1.89414 188.64846 -1.89414 188.64846 -2.51221 185.55249 C-2.79235 184.17113 -3.07249 182.78978 -3.36111 181.36656 C-3.65702 179.86243 -3.95294 178.3583 -4.25781 176.80859 C-4.56573 175.27848 -4.87364 173.74837 -5.19089 172.17189 C-6.00917 168.09763 -6.81995 164.02201 -7.6272 159.94556 C-8.45227 155.78863 -9.28708 151.63366 -10.12109 147.47852 C-11.75642 139.32079 -13.38189 131.16115 -15 123 C-16.07796 123.34985 -17.15592 123.6997 -18.26654 124.06015 C-39.83771 131.06086 -61.41358 138.04643 -83 145 C-81.72492 141.17475 -79.38926 139.57605 -76.37891 137.02344 C-73.87562 134.89421 -71.43573 132.70609 -69 130.5 C-65.38324 127.23609 -61.7361 124.01209 -58.0625 120.8125 C-55.69036 118.72789 -53.34444 116.61571 -51 114.5 C-44.41977 108.56469 -37.73788 102.75527 -31 97 C-34.65605 92.52134 -38.39749 88.62733 -42.79688 84.88281 C-45.23753 82.797 -47.61949 80.65414 -50 78.5 C-53.61888 75.23419 -57.26683 72.00695 -60.94531 68.80859 C-63.28021 66.75335 -65.5758 64.65757 -67.875 62.5625 C-72.14296 58.69218 -76.58134 55.11883 -81.16406 51.62891 C-83 50 -83 50 -83 48 C-74.95644 50.11407 -67.09312 52.55922 -59.21875 55.23047 C-56.80731 56.04108 -54.39585 56.85162 -51.98438 57.66211 C-48.22021 58.9314 -44.45655 60.20219 -40.69336 61.47437 C-37.03642 62.70936 -33.3777 63.93894 -29.71875 65.16797 C-29.15315 65.36013 -29.15315 65.36013 -26.29089 66.33257 C-25.2455 66.68326 -24.20011 67.03395 -23.12305 67.39526 C-22.20358 67.70598 -21.28412 68.0167 -20.33679 68.33684 C-18 69 -18 69 -15 69 C-14.82683 68.15031 -14.65366 67.30062 -14.47523 66.42519 C-12.67921 57.61659 -10.87791 48.80908 -9.07349 40.0022 C-8.39949 36.71122 -7.72739 33.41986 -7.05688 30.12817 C-6.09486 25.40893 -5.128 20.69071 -4.16016 15.97266 C-3.85908 14.4904 -3.55801 13.00814 -3.24782 11.48097 C-2.9676 10.11964 -2.68739 8.7583 -2.39868 7.35571 C-2.27544 6.75282 -2.27544 6.75282 -1.65175 3.7018 C-1 1 -1 1 0 0 Z " fill="currentColor" transform="translate(505,352)"/>
<path d="M0 0 C0.66 0 1.32 0 2 0 C2.28875 1.4025 2.5775 2.805 2.875 4.25 C3.90731 7.47914 4.49966 8.69303 7.42578 10.48828 C9.93055 11.46256 12.40499 12.30378 15 13 C11 16 11 16 7.9375 16.0625 C5 17 5 17 3.94922 19.28125 C3.19043 21.8417 2.54095 24.38539 2 27 C1.34 27 0.68 27 0 27 C-0.30938 25.39125 -0.61875 23.7825 -0.9375 22.125 C-1.73828 19.35156 -1.73828 19.35156 -3 17 C-7.625 15.5 -7.625 15.5 -12 15 C-12.33 14.34 -12.66 13.68 -13 13 C-6.375 10 -6.375 10 -3 10 C-2.01 6.7 -1.02 3.4 0 0 Z " fill="currentColor" transform="translate(813,412)"/>
<path d="M0 0 C0.66 0 1.32 0 2 0 C2.22172 0.95262 2.44344 1.90523 2.67188 2.88672 C5.53673 12.98636 5.53673 12.98636 9.89844 16.00781 C12.91326 17.22688 15.85103 18.19706 19 19 C19.99 19.33 20.98 19.66 22 20 C21 23 21 23 18.60156 24.16797 C17.6193 24.50441 16.63703 24.84086 15.625 25.1875 C14.64789 25.53168 13.67078 25.87586 12.66406 26.23047 C10 27 10 27 7 27 C6.54625 28.52625 6.0925 30.0525 5.625 31.625 C4.48147 35.44038 3.28943 39.23088 2 43 C1.34 43 0.68 43 0 43 C-0.83717 40.70973 -1.66963 38.41774 -2.5 36.125 C-2.96406 34.84883 -3.42812 33.57266 -3.90625 32.25781 C-5 29 -5 29 -5 27 C-5.78375 26.9175 -6.5675 26.835 -7.375 26.75 C-12.17765 25.75635 -16.49809 23.91286 -21 22 C-19.41303 18.82605 -16.58197 19.01675 -13.25 18.125 C-7.39718 16.14826 -5.02522 14.65301 -2.6875 8.875 C-2.07452 6.93188 -1.50343 4.97434 -1 3 C-0.67 2.01 -0.34 1.02 0 0 Z " fill="currentColor" transform="translate(209,427)"/>
<path d="M0 0 C1.01063 0.37125 2.02125 0.7425 3.0625 1.125 C3.70188 1.41375 4.34125 1.7025 5 2 C3.47617 5.04765 1.19021 5.23521 -1.96484 6.39844 C-3.22724 6.87168 -4.48963 7.34493 -5.79028 7.83252 C-7.15886 8.34154 -8.52745 8.85056 -9.9375 9.375 C-87.98514 39.02474 -87.98514 39.02474 -98 62 C-98.75 64.9375 -98.75 64.9375 -98 68 C-88.37581 76.15609 -76.21341 78.32753 -64 80 C-64.48855 79.26781 -64.97711 78.53562 -65.48047 77.78125 C-68.08364 73.01658 -67.5875 68.05627 -66.125 62.9375 C-65.75375 62.29813 -65.3825 61.65875 -65 61 C-64.34 61 -63.68 61 -63 61 C-62.7525 61.78375 -62.505 62.5675 -62.25 63.375 C-60.53823 66.96972 -58.69908 66.9211 -55 68 C-54.67 68.495 -54.67 68.495 -53 71 C-49.4375 71.91406 -49.4375 71.91406 -45 72.625 C-43.55625 72.86477 -42.1125 73.10453 -40.625 73.35156 C-32.3398 74.51317 -24.23238 75.15656 -15.86719 75.16797 C-14.92349 75.17202 -13.97979 75.17608 -13.00749 75.18025 C-9.96329 75.18965 -6.91921 75.18965 -3.875 75.1875 C-3.35687 75.18786 -3.35687 75.18786 -0.73483 75.1897 C17.24001 75.18831 35.08127 74.50105 53 73 C46.66213 71.14078 40.26756 69.61114 33.83984 68.09766 C30.23983 67.06856 27.21137 65.91881 24 64 C24 63.34 24 62.68 24 62 C30.47649 62.66087 36.76095 63.93233 43.12109 65.28125 C50.77959 66.70035 58.38047 67.17236 66.15625 67.23828 C67.11866 67.24817 68.08106 67.25805 69.07263 67.26823 C94.95695 67.47798 120.31578 66.28793 146 63 C146.96468 62.87839 147.92936 62.75677 148.92328 62.63147 C185.40066 58.0231 221.67449 52.08038 257.93789 46.04633 C261.62105 45.43388 265.30473 44.82466 268.98845 44.21564 C271.54758 43.79086 274.10576 43.36062 276.66394 42.93015 C278.20336 42.6754 279.74279 42.42066 281.32886 42.1582 C282.67139 41.93362 284.01392 41.70905 285.39714 41.47766 C288.65495 41.04575 291.71993 40.9058 295 41 C298.6144 54.54896 301.32697 68.24049 304 82 C299.20637 84.28837 294.15654 84.91896 288.95703 85.69922 C287.94644 85.85495 286.93584 86.01069 285.89462 86.17114 C282.53512 86.68493 279.17408 87.18747 275.8125 87.6875 C274.64498 87.8623 273.47746 88.0371 272.27457 88.21719 C214.90005 96.77301 156.97944 103.44898 99 106 C98.1073 106.04097 97.21461 106.08194 96.29486 106.12415 C76.61487 107.01074 56.94848 107.24228 37.25 107.25 C35.68928 107.25067 34.12856 107.25135 32.52054 107.25204 C-84.54531 107.17188 -84.54531 107.17188 -109 80 C-113.83418 72.62414 -115.17047 66.83795 -113.0625 58.125 C-103.55475 39.1095 -81.31512 28.62891 -63 20 C-62.29746 19.66355 -62.29746 19.66355 -58.74219 17.96094 C-47.78678 12.81143 -36.55989 8.27931 -25.3125 3.8125 C-24.57878 3.51171 -24.57878 3.51171 -20.86572 1.9895 C-7.87408 -3.07424 -7.87408 -3.07424 0 0 Z " fill="currentColor" transform="translate(195,454)"/>
<path d="M0 0 C1.21411 2.03418 1.21411 2.03418 2.58203 4.92188 C3.09459 5.9947 3.60716 7.06752 4.13525 8.17285 C4.68875 9.35331 5.24224 10.53377 5.8125 11.75 C6.39435 12.97429 6.9762 14.19857 7.57568 15.45996 C12.0174 24.832 16.36007 34.24968 20.70044 43.66895 C25.88932 54.87379 31.31668 65.95814 36.74738 77.047 C42.30472 88.39958 47.73499 99.79696 53.00781 111.28516 C57.68718 121.43163 62.58575 131.46595 67.5 141.5 C73.47549 153.70094 79.34038 165.9372 85.00781 178.28516 C89.68718 188.43163 94.58575 198.46595 99.5 208.5 C105.46653 220.68264 111.32614 232.89908 116.98145 245.23022 C122.7219 257.68402 128.775 269.98609 134.81836 282.29492 C135.22057 283.11561 135.62277 283.93629 136.03717 284.78185 C137.1393 287.02996 138.24389 289.27686 139.34863 291.52368 C142.57014 298.30533 143.33809 305.19701 140.8125 312.375 C136.26546 318.96037 130.67209 323.55749 122.45312 324.33594 C116.71899 323.90336 111.9484 322.25798 106.5625 320.3125 C105.96099 320.10037 105.96099 320.10037 102.91699 319.02686 C86.29478 313.1159 69.75462 306.96603 53.21362 300.83228 C31.90391 292.93191 31.90391 292.93191 21.50781 289.28906 C20.76161 289.02569 20.76161 289.02569 16.98535 287.69287 C14.38013 286.77835 11.77054 285.8761 9.15527 284.99072 C-5.33149 279.88433 -17.23649 271.8907 -28 261 C-28.73863 260.27168 -29.47727 259.54336 -30.23828 258.79297 C-40.47703 248.07707 -46.33569 233.56983 -52.6875 220.375 C-53.48494 218.72762 -54.28255 217.08032 -55.08032 215.43311 C-60.14924 204.94557 -65.09337 194.40476 -69.95581 183.81982 C-75.05008 172.77974 -80.40122 161.86905 -85.74875 150.95026 C-91.30563 139.59859 -96.73542 128.20211 -102.00781 116.71484 C-107.07806 105.72081 -112.40667 94.85691 -117.7319 83.98495 C-124.63841 69.87809 -131.35024 55.6909 -137.8811 41.40552 C-138.88268 39.25223 -139.93795 37.12411 -141 35 C-141 34.01 -141 33.02 -141 32 C-140.60895 31.91421 -140.60895 31.91421 -138.62997 31.48006 C-99.88932 22.97571 -61.21384 14.3012 -22.68549 4.87306 C-2.75374 0 -2.75374 0 0 0 Z " fill="currentColor" transform="translate(752,495)"/>
<path d="M0 0 C3.5828 1.74771 6.61218 3.78563 9 7 C8.6875 10 8.6875 10 8 13 C8.33 14.32 8.66 15.64 9 17 C5.73054 21.1497 2.01052 23.8862 -3.3125 24.1875 C-4.19938 24.12563 -5.08625 24.06375 -6 24 C-6.33 23.01 -6.66 22.02 -7 21 C-8.65615 20.61781 -10.32457 20.28605 -12 20 C-14.68459 17.31541 -14.32967 15.8026 -14.375 12.0625 C-14.40336 11.0016 -14.43172 9.9407 -14.46094 8.84766 C-14 6 -14 6 -10 3 C-9.01 3 -8.02 3 -7 3 C-7 2.34 -7 1.68 -7 1 C-5 0 -5 0 0 0 Z " fill="currentColor" transform="translate(148,499)"/>
<path d="M0 0 C3.32463 3.40379 5.625 5.82525 5.625 10.6875 C6.32625 10.74937 6.32625 10.74937 9.875 11.0625 C14.625 11.6875 14.625 11.6875 18.625 13.6875 C18.79 14.3475 18.79 14.3475 19.625 17.6875 C16.67162 21.15009 13.95036 21.91596 9.625 22.5625 C4.3973 23.42089 2.77505 25.39993 -0.375 29.6875 C-5.63251 33.44286 -11.14918 33.35654 -17.375 32.6875 C-21.50666 31.31028 -22.97687 30.24957 -25.5 26.6875 C-29.23059 22.79471 -32.45034 22.33619 -37.63281 21.32812 C-40.375 20.6875 -40.375 20.6875 -43.375 18.6875 C-43.5 16.25 -43.5 16.25 -42.375 13.6875 C-39.09868 11.92333 -36.331 10.79614 -32.625 10.375 C-29.20002 9.32848 -28.9176 6.83204 -27.375 3.6875 C-19.24807 -4.59878 -10.024 -6.8683 0 0 Z M-38.375 16.6875 C-32.625 18.6875 -32.625 18.6875 -30.375 18.6875 C-30.375 17.3675 -30.375 16.0475 -30.375 14.6875 C-34.375 14.6875 -34.375 14.6875 -38.375 16.6875 Z M6.625 14.6875 C6.46 15.3475 6.46 15.3475 5.625 18.6875 C7.96812 18.43189 10.30343 18.09479 12.625 17.6875 C12.955 17.0275 13.285 16.3675 13.625 15.6875 C11.315 15.3575 9.005 15.0275 6.625 14.6875 Z " fill="currentColor" transform="translate(869.375,534.3125)"/>
<path d="M0 0 C-0.63774 4.51302 -2.34596 8.08992 -4.35938 12.16016 C-5.05595 13.57845 -5.75253 14.99674 -6.47021 16.45801 C-6.84153 17.2078 -7.21284 17.95759 -7.5954 18.7301 C-9.56343 22.7057 -11.51201 26.69079 -13.46094 30.67578 C-13.85314 31.47692 -14.24535 32.27807 -14.64944 33.10349 C-17.98918 39.94125 -21.20399 46.83241 -24.375 53.75 C-29.97716 65.94321 -35.84603 77.99713 -41.74747 90.04718 C-46.79487 100.35826 -51.76907 110.6926 -56.5625 121.125 C-61.33854 131.48381 -66.18334 141.80821 -71.12595 152.08856 C-71.90422 153.71124 -72.67871 155.33574 -73.44901 156.96222 C-89.08606 189.94592 -111.41828 205.19197 -145.375 217.1875 C-147.24704 217.85736 -149.11869 218.52829 -150.98999 219.2002 C-155.07207 220.66487 -159.15588 222.12459 -163.24072 223.58154 C-174.56956 227.62811 -185.87408 231.74229 -197.18317 235.84366 C-204.46574 238.48375 -211.75027 241.11842 -219.03459 243.75368 C-219.54455 243.93821 -219.54455 243.93821 -222.12524 244.87207 C-223.1022 245.22419 -224.07916 245.5763 -225.08572 245.93909 C-227.07414 246.66295 -229.05813 247.3991 -231.03806 248.14587 C-232.00575 248.50862 -232.97344 248.87137 -233.97046 249.24512 C-234.82679 249.57067 -235.68313 249.89621 -236.56541 250.23163 C-242.24798 252.02508 -246.69728 251.48609 -252.1875 249.4375 C-258.19291 245.59798 -262.51952 241.10632 -264 234 C-265.28533 222.8605 -257.31649 211.29531 -252.5625 201.625 C-247.49666 191.25544 -242.50241 180.86343 -237.6875 170.375 C-232.06232 158.1406 -226.17399 146.04363 -220.2518 133.95135 C-215.22501 123.68259 -210.26952 113.39162 -205.5 103 C-199.94602 90.89923 -194.12349 78.93913 -188.26709 66.98294 C-181.39795 52.95268 -174.72196 38.84316 -168.23242 24.63257 C-167.82572 23.76382 -167.41902 22.89507 -167 22 C-166.67185 20.92557 -166.34371 19.85113 -166.00562 18.74414 C-164 16 -164 16 -159.37329 15.04907 C-157.39761 14.92231 -155.41983 14.82613 -153.44141 14.75391 C-151.24102 14.623 -149.04066 14.49164 -146.84033 14.35986 C-145.70396 14.30196 -144.56759 14.24405 -143.39679 14.18439 C-138.09893 13.8968 -132.81501 13.45981 -127.52734 13.02734 C-125.32349 12.85245 -123.11963 12.67756 -120.91577 12.50269 C-84.76697 9.58866 -48.7747 5.50334 -12.7644 1.24445 C-11.37125 1.08023 -9.9781 0.91602 -8.54272 0.74683 C-7.3217 0.60202 -6.10067 0.45722 -4.84264 0.30803 C-2 0 -2 0 0 0 Z " fill="currentColor" transform="translate(380,568)"/>
<path d="M0 0 C0.88688 0.68062 1.77375 1.36125 2.6875 2.0625 C3.6775 2.78437 4.6675 3.50625 5.6875 4.25 C15.10537 13.07925 18.6708 24.31922 18.6875 37.0625 C17.67033 49.54591 11.14148 60.12524 1.44141 67.85156 C-8.05918 74.18528 -20.1491 76.67317 -31.3125 74.0625 C-45.41086 69.55462 -54.91696 61.6287 -60.75 47.875 C-64.5773 36.14457 -63.26364 23.07207 -56.76953 12.56641 C-55.06619 10.25501 -53.27444 8.15766 -51.3125 6.0625 C-50.72727 5.42441 -50.14203 4.78633 -49.53906 4.12891 C-35.99879 -9.15427 -15.721 -9.1953 0 0 Z " fill="currentColor" transform="translate(567.3125,575.9375)"/>
<path d="M0 0 C2.57022 3.42696 3.79549 5.64247 5.1875 9.5625 C5.53168 10.51254 5.87586 11.46258 6.23047 12.44141 C7 15 7 15 7 18 C8.46438 18.4125 9.92875 18.825 11.4375 19.25 C16.52093 20.7656 21.19826 22.75403 26 25 C21.92425 28.05682 19.99499 28.48433 15.1875 29.5625 C9.1211 31.56144 6.95639 33.84303 4.52075 39.78296 C3.20671 43.49371 2.04833 47.20473 1 51 C-1 50 -1 50 -1.875 46.42969 C-5.06055 33.53263 -5.06055 33.53263 -11.39844 30.31641 C-15.83131 28.48846 -20.35268 27.16427 -25 26 C-23.31414 22.62827 -19.65237 22.52824 -16.1875 21.4375 C-7.12135 18.12904 -7.12135 18.12904 -5.25 13.6875 C-4.8375 12.14062 -4.425 10.59375 -4 9 C-3.27879 7.3 -2.5292 5.61172 -1.75 3.9375 C-1.1725 2.63812 -0.595 1.33875 0 0 Z " fill="currentColor" transform="translate(912,600)"/>
<path d="M0 0 C6.24068 3.00477 9.28384 7.22488 11 13.875 C11 20.07302 8.90984 24.18333 4.4375 28.4375 C-0.04397 31.31023 -3.7542 31.38572 -9 31 C-14.36265 28.67619 -17.37838 26.24324 -20 21 C-21.71228 14.36492 -20.63976 10.74699 -17 5 C-11.64316 0.02579 -7.26099 -0.79312 0 0 Z " fill="currentColor" transform="translate(146,610)"/>
<path d="M0 0 C1.32 0.99 2.64 1.98 4 3 C5.32 3.66 6.64 4.32 8 5 C9.09809 8.29428 9.11196 9.66411 8 13 C8.33 14.32 8.66 15.64 9 17 C5.73054 21.1497 2.01052 23.8862 -3.3125 24.1875 C-4.19938 24.12563 -5.08625 24.06375 -6 24 C-6.33 23.01 -6.66 22.02 -7 21 C-8.65615 20.61781 -10.32457 20.28605 -12 20 C-14.68459 17.31541 -14.32967 15.8026 -14.375 12.0625 C-14.40336 11.0016 -14.43172 9.9407 -14.46094 8.84766 C-13.77476 4.60845 -10.90973 3.62981 -7.5625 1.3125 C-5 0 -5 0 0 0 Z " fill="currentColor" transform="translate(597,681)"/>
<path d="M0 0 C0.66 0 1.32 0 2 0 C2.14695 0.58459 2.14695 0.58459 2.89062 3.54297 C6.50154 15.88025 6.50154 15.88025 10.85938 19.13672 C13.88447 20.32945 16.8481 21.21202 20 22 C22.01324 22.97307 24.02246 23.9563 26 25 C24.38351 28.23298 21.44222 28.46499 18.125 29.625 C16.86945 30.07102 15.61391 30.51703 14.32031 30.97656 C11 32 11 32 8 32 C7.5875 33.46438 7.175 34.92875 6.75 36.4375 C5.2344 41.52093 3.24597 46.19826 1 51 C-1 49 -1 49 -1.875 45.55078 C-5.05952 33.55355 -5.05952 33.55355 -11.39844 30.38672 C-15.83528 28.56111 -20.36 27.20621 -25 26 C-24 24 -24 24 -20.42969 23.125 C-7.49607 19.93042 -7.49607 19.93042 -4.38672 13.60156 C-3.0877 10.36399 -2.08134 7.08045 -1.12891 3.72656 C-0.75637 2.4968 -0.38383 1.26703 0 0 Z " fill="currentColor" transform="translate(362,704)"/>
<path d="M0 0 C9.24 0 18.48 0 28 0 C37.21844 28.08886 46.38119 56.19347 55.36328 84.35889 C56.01037 86.38771 56.6575 88.41652 57.30469 90.44531 C57.6171 91.42471 57.92952 92.4041 58.2514 93.41318 C60.29763 99.82056 62.36357 106.22126 64.44531 112.61719 C64.5775 113.02365 64.5775 113.02365 65.24643 115.0806 C66.4616 118.81562 67.68015 122.54949 68.90381 126.28174 C69.31711 127.55001 69.73042 128.81829 70.15625 130.125 C70.51525 131.2207 70.87426 132.31641 71.24414 133.44531 C72 136 72 136 72 138 C62.43 138 52.86 138 43 138 C39.7 128.43 36.4 118.86 33 109 C19.8 109 6.6 109 -7 109 C-11.4375 122.9375 -11.4375 122.9375 -12.83374 127.3396 C-13.19669 128.47406 -13.55964 129.60851 -13.93359 130.77734 C-14.1195 131.36125 -14.1195 131.36125 -15.0603 134.31616 C-16 137 -16 137 -17 138 C-18.99965 138.08758 -21.00236 138.10697 -23.00391 138.09766 C-24.21885 138.09443 -25.43379 138.09121 -26.68555 138.08789 C-27.96494 138.07951 -29.24434 138.07113 -30.5625 138.0625 C-31.84576 138.05799 -33.12902 138.05348 -34.45117 138.04883 C-37.63416 138.037 -40.81705 138.01967 -44 138 C-42.1152 130.05534 -39.91348 122.29934 -37.33203 114.55469 C-36.98 113.48605 -36.62796 112.41742 -36.26526 111.31641 C-35.51005 109.02478 -34.75301 106.73376 -33.99429 104.4433 C-31.96611 98.31941 -29.95199 92.1909 -27.9375 86.0625 C-27.52591 84.81121 -27.11432 83.55993 -26.69026 82.27072 C-21.83459 67.48761 -17.10707 52.66384 -12.39185 37.83545 C-8.36572 25.18715 -4.22193 12.58449 0 0 Z M13 40 C10.84875 45.56729 8.99007 51.15128 7.30078 56.875 C7.06087 57.68493 6.82096 58.49487 6.57378 59.32935 C5.8173 61.88544 5.06484 64.44269 4.3125 67 C3.79649 68.74617 3.28022 70.49227 2.76367 72.23828 C1.50558 76.49116 0.25293 80.74558 -1 85 C8.24 85 17.48 85 27 85 C25.14923 75.74617 22.74298 67.00481 20 58 C19.77441 57.24396 19.77441 57.24396 18.63281 53.41797 C18.41496 52.69932 18.41496 52.69932 17.3125 49.0625 C16.91676 47.7541 16.52102 46.4457 16.11328 45.09766 C15 42 15 42 13 40 Z " fill="currentColor" transform="translate(134,840)"/>
<path d="M0 0 C30.69 0 61.38 0 93 0 C93 29.75204 93 29.75204 83.64062 39.84766 C80.07035 43.85152 77.02586 48.07727 74 52.5 C73.01168 53.91065 72.02078 55.31951 71.02734 56.72656 C70.53218 57.42813 70.03702 58.12971 69.52686 58.85254 C66.90009 62.54698 64.22792 66.2084 61.5625 69.875 C56.52814 76.80865 51.63721 83.82937 46.84009 90.9292 C42.01594 98.05098 37.00704 104.99014 32 112 C52.46 112.33 72.92 112.66 94 113 C94 121.25 94 129.5 94 138 C61.99 138 29.98 138 -3 138 C-3 109.37441 -3 109.37441 5.51562 100.03125 C9.13246 95.90927 12.27806 91.5395 15.4375 87.0625 C16.52386 85.55702 17.61241 84.05311 18.70312 82.55078 C22.03447 77.95285 25.36221 73.35232 28.6875 68.75 C29.2314 67.99727 29.77531 67.24454 30.33569 66.46899 C34.36801 60.88451 38.37431 55.28185 42.37109 49.67188 C44.39668 46.84268 46.43069 44.02047 48.47266 41.20312 C49.06756 40.38199 49.66246 39.56086 50.27539 38.71484 C51.44859 37.09673 52.62303 35.47951 53.79883 33.86328 C57.89009 28.21982 57.89009 28.21982 59 26 C49.265 25.835 49.265 25.835 0 25 C0 16.75 0 8.5 0 0 Z " fill="currentColor" transform="translate(220,840)"/>
<path d="M0 0 C32.01 0 64.02 0 97 0 C97 8.25 97 16.5 97 25 C85.45 25 73.9 25 62 25 C62 54.04 62 83.08 62 113 C73.22 113 84.44 113 96 113 C101.89727 118.89727 97 129.66 97 138 C64.99 138 32.98 138 0 138 C0 129.75 0 121.5 0 113 C11.22 113 22.44 113 34 113 C34 83.96 34 54.92 34 25 C22.78 25 11.56 25 0 25 C0 16.75 0 8.5 0 0 Z " fill="currentColor" transform="translate(335,840)"/>
<path d="M0 0 C0.6123 -0.03964 0.6123 -0.03964 3.71094 -0.24023 C12.56557 -0.44627 12.56557 -0.44627 16.08618 2.60205 C17.9402 5.20898 19.41582 7.84216 20.875 10.6875 C21.92197 12.40657 22.97783 14.12026 24.04297 15.82812 C25.05333 17.52897 26.05986 19.2321 27.0625 20.9375 C28.07542 22.65187 29.08971 24.36543 30.10547 26.07812 C30.34096 26.47548 30.34096 26.47548 31.53271 28.48633 C32.71049 30.41772 33.96848 32.29971 35.23828 34.17188 C36.875 36.6875 36.875 36.6875 36.875 38.6875 C37.535 38.6875 38.195 38.6875 38.875 38.6875 C39.57409 37.03417 40.23225 35.36353 40.875 33.6875 C42.10784 31.52038 43.38178 29.37641 44.68359 27.25 C45.43061 26.02539 46.17762 24.80078 46.94727 23.53906 C47.72779 22.26805 48.50832 20.99703 49.3125 19.6875 C50.85287 17.16667 52.39323 14.64583 53.93359 12.125 C54.61736 11.00996 55.30113 9.89492 56.00562 8.74609 C57.64234 6.06816 59.26025 3.37874 60.875 0.6875 C70.115 0.6875 79.355 0.6875 88.875 0.6875 C88.875 46.2275 88.875 91.7675 88.875 138.6875 C79.965 138.6875 71.055 138.6875 61.875 138.6875 C61.875 107.9975 61.875 77.3075 61.875 45.6875 C60.21238 47.35012 59.1735 49.42282 57.96094 51.42969 C57.66252 51.92211 57.66252 51.92211 56.15234 54.41406 C55.52457 55.45305 54.8968 56.49203 54.25 57.5625 C52.41813 60.59349 50.58306 63.62187 48.72949 66.63965 C47.46948 68.71047 46.23655 70.79796 45.02832 72.89941 C44.43374 73.90456 43.83916 74.90971 43.22656 75.94531 C42.964 76.40108 42.964 76.40108 41.63525 78.70752 C39.875 80.6875 39.875 80.6875 34.875 80.6875 C32.62109 78.07422 32.62109 78.07422 30.3125 74.375 C29.45656 73.02535 28.60062 71.6757 27.71875 70.28516 C27.26371 69.54926 26.80867 68.81337 26.33984 68.05518 C24.23246 64.64894 22.0837 61.26924 19.9397 57.88599 C18.86343 56.18382 17.79093 54.47926 16.72241 52.77222 C12.97685 46.78935 12.97685 46.78935 11.875 45.6875 C11.94605 46.48177 12.01711 47.27605 12.09032 48.09439 C12.91032 58.1835 13.00484 68.21895 12.97266 78.33594 C12.97079 80.08713 12.96937 81.83832 12.96837 83.58951 C12.96459 88.14975 12.9548 92.70997 12.94366 97.2702 C12.93335 101.94315 12.92885 106.61611 12.92383 111.28906 C12.91317 120.42189 12.89562 129.55469 12.875 138.6875 C3.965 138.6875 -4.945 138.6875 -14.125 138.6875 C-14.14755 120.84219 -14.16591 102.99689 -14.17681 85.15157 C-14.18204 76.86626 -14.18914 68.58096 -14.20044 60.29565 C-14.21126 52.30754 -14.21728 44.31943 -14.21988 36.33131 C-14.22173 33.2759 -14.22535 30.22048 -14.23073 27.16507 C-14.23794 22.90243 -14.23899 18.63984 -14.23853 14.3772 C-14.24212 13.09974 -14.24572 11.82229 -14.24942 10.50612 C-14.24805 9.35201 -14.24667 8.19789 -14.24525 7.0088 C-14.24572 6.50412 -14.24572 6.50412 -14.24805 3.95013 C-13.93072 -1.88504 -4.42625 0.13032 0 0 Z " fill="currentColor" transform="translate(463.125,839.3125)"/>
<path d="M0 0 C4.47915 -0.02886 8.95828 -0.04675 13.4375 -0.0625 C14.71689 -0.07088 15.99629 -0.07926 17.31445 -0.08789 C17.92192 -0.0895 17.92192 -0.0895 20.99609 -0.09766 C22.12201 -0.10289 23.24792 -0.10813 24.40796 -0.11353 C27 0 27 0 28 1 C28.10404 3.92456 28.14361 6.82627 28.14185 9.75146 C28.14358 10.21087 28.14358 10.21087 28.15237 12.53577 C28.15975 14.53995 28.16508 16.54413 28.16866 18.54832 C28.17582 21.72716 28.19148 24.90584 28.21001 28.08463 C28.26251 37.12622 28.31038 46.16773 28.32593 55.20947 C28.33605 60.7351 28.36549 66.26034 28.40725 71.78582 C28.41951 73.88676 28.42469 75.98775 28.42245 78.08873 C28.40246 102.99379 28.40246 102.99379 35.8125 111.0625 C43.57541 115.78113 51.65947 116.06941 60.3125 113.9375 C65.83639 111.03512 68.14512 107.35091 70.25 101.5625 C71.70576 94.64762 72.13595 87.88655 72.20532 80.83008 C72.21522 79.95109 72.22512 79.0721 72.23532 78.16647 C72.26667 75.28809 72.29159 72.40969 72.31641 69.53125 C72.337 67.52486 72.358 65.51847 72.37938 63.51208 C72.43437 58.25146 72.48388 52.99079 72.53223 47.7301 C72.58261 42.35389 72.63821 36.97773 72.69336 31.60156 C72.80065 21.06775 72.90168 10.5339 73 0 C81.58 0 90.16 0 99 0 C99.06802 12.40543 99.12296 24.81074 99.15544 37.21632 C99.17103 42.97794 99.19216 48.73943 99.22632 54.50098 C99.25913 60.07069 99.2769 65.64027 99.28463 71.21006 C99.29014 73.32532 99.30088 75.44057 99.31719 77.55577 C99.45189 95.76622 98.94996 115.37446 85 129 C69.82381 140.97166 52.31819 142.44229 33.66797 139.46875 C21.37207 136.817 11.78131 130.32166 5.46484 119.32812 C0.96089 110.03134 -0.30786 100.80347 -0.22705 90.59326 C-0.22734 89.60669 -0.22763 88.62012 -0.22794 87.60365 C-0.22655 84.3789 -0.21105 81.15439 -0.19531 77.92969 C-0.19158 75.67954 -0.18873 73.42938 -0.18674 71.17923 C-0.17914 65.28397 -0.15952 59.38881 -0.13733 53.49359 C-0.1168 47.4671 -0.10772 41.44058 -0.09766 35.41406 C-0.07627 23.60933 -0.04217 11.80467 0 0 Z " fill="currentColor" transform="translate(569,840)"/>
<path d="M0 0 C35.64 0 71.28 0 108 0 C108 15.18 108 30.36 108 46 C100.74 46 93.48 46 86 46 C86 38.41 86 30.82 86 23 C80.06 23 74.12 23 68 23 C68 53.69 68 84.38 68 116 C75.26 116 82.52 116 90 116 C90 123.26 90 130.52 90 138 C66.24 138 42.48 138 18 138 C18 130.74 18 123.48 18 116 C25.26 116 32.52 116 40 116 C40 85.31 40 54.62 40 23 C34.06 23 28.12 23 22 23 C22 30.59 22 38.18 22 46 C14.74 46 7.48 46 0 46 C0 30.82 0 15.64 0 0 Z " fill="currentColor" transform="translate(682,840)"/>
<path d="M0 0 C0 18.48 0 36.96 0 56 C14.19 55.67 28.38 55.34 43 55 C42.9884 51.11348 42.9768 47.22695 42.96484 43.22266 C42.95705 39.47632 42.95098 35.72998 42.94507 31.98364 C42.94003 29.37133 42.93319 26.75903 42.92456 24.14673 C42.91249 20.4012 42.90677 16.6557 42.90234 12.91016 C42.89718 11.73413 42.89202 10.55811 42.8867 9.34645 C42.88663 8.26541 42.88655 7.18436 42.88647 6.07056 C42.88425 5.11347 42.88203 4.15639 42.87975 3.1703 C43 1 43 1 44 0 C52.91 0 61.82 0 71 0 C71 45.54 71 91.08 71 138 C44 138 44 138 43 137 C42.90641 135.28135 42.88255 133.55884 42.88647 131.83765 C42.88651 131.28711 42.88651 131.28711 42.8867 128.50108 C42.89186 127.30319 42.89703 126.10529 42.90234 124.87109 C42.90376 123.65173 42.90517 122.43236 42.90663 121.17604 C42.91225 117.26317 42.92481 113.35035 42.9375 109.4375 C42.94251 106.79232 42.94708 104.14714 42.95117 101.50195 C42.96138 95.00126 42.98095 88.50069 43 82 C28.81 81.67 14.62 81.34 0 81 C0 99.81 0 118.62 0 138 C-9.24 138 -18.48 138 -28 138 C-28.02255 120.15469 -28.04091 102.30939 -28.05181 84.46407 C-28.05704 76.17876 -28.06414 67.89346 -28.07544 59.60815 C-28.08626 51.62004 -28.09228 43.63193 -28.09488 35.64381 C-28.09673 32.5884 -28.10035 29.53298 -28.10573 26.47757 C-28.11294 22.21493 -28.11399 17.95234 -28.11353 13.6897 C-28.11712 12.41224 -28.12072 11.13479 -28.12442 9.81862 C-28.12305 8.66451 -28.12167 7.51039 -28.12025 6.3213 C-28.12072 5.81662 -28.12072 5.81662 -28.12305 3.26263 C-27.5055 -8.09288 -7.68164 0 0 0 Z " fill="currentColor" transform="translate(832,840)"/>
</svg>
