%TF.GenerationSoftware,KiCad,Pcbnew,9.0.8*%
%TF.CreationDate,2026-03-22T19:52:23-05:00*%
%TF.ProjectId,ESP32_BNO086,45535033-325f-4424-9e4f-3038362e6b69,rev?*%
%TF.SameCoordinates,Original*%
%TF.FileFunction,Soldermask,Top*%
%TF.FilePolarity,Negative*%
%FSLAX46Y46*%
G04 Gerber Fmt 4.6, Leading zero omitted, Abs format (unit mm)*
G04 Created by KiCad (PCBNEW 9.0.8) date 2026-03-22 19:52:23*
%MOMM*%
%LPD*%
G01*
G04 APERTURE LIST*
G04 Aperture macros list*
%AMRoundRect*
0 Rectangle with rounded corners*
0 $1 Rounding radius*
0 $2 $3 $4 $5 $6 $7 $8 $9 X,Y pos of 4 corners*
0 Add a 4 corners polygon primitive as box body*
4,1,4,$2,$3,$4,$5,$6,$7,$8,$9,$2,$3,0*
0 Add four circle primitives for the rounded corners*
1,1,$1+$1,$2,$3*
1,1,$1+$1,$4,$5*
1,1,$1+$1,$6,$7*
1,1,$1+$1,$8,$9*
0 Add four rect primitives between the rounded corners*
20,1,$1+$1,$2,$3,$4,$5,0*
20,1,$1+$1,$4,$5,$6,$7,0*
20,1,$1+$1,$6,$7,$8,$9,0*
20,1,$1+$1,$8,$9,$2,$3,0*%
G04 Aperture macros list end*
%ADD10RoundRect,0.200000X0.275000X-0.200000X0.275000X0.200000X-0.275000X0.200000X-0.275000X-0.200000X0*%
%ADD11RoundRect,0.250000X-1.500000X0.250000X-1.500000X-0.250000X1.500000X-0.250000X1.500000X0.250000X0*%
%ADD12RoundRect,0.250001X-1.449999X0.499999X-1.449999X-0.499999X1.449999X-0.499999X1.449999X0.499999X0*%
%ADD13RoundRect,0.225000X-0.250000X0.225000X-0.250000X-0.225000X0.250000X-0.225000X0.250000X0.225000X0*%
%ADD14RoundRect,0.152400X-0.609600X1.063600X-0.609600X-1.063600X0.609600X-1.063600X0.609600X1.063600X0*%
%ADD15C,1.524000*%
%ADD16RoundRect,0.152400X0.609600X-1.063600X0.609600X1.063600X-0.609600X1.063600X-0.609600X-1.063600X0*%
%ADD17RoundRect,0.300400X-0.300400X1.000400X-0.300400X-1.000400X0.300400X-1.000400X0.300400X1.000400X0*%
%ADD18RoundRect,0.225000X0.250000X-0.225000X0.250000X0.225000X-0.250000X0.225000X-0.250000X-0.225000X0*%
%ADD19C,1.000000*%
%ADD20RoundRect,0.102000X1.250000X-0.600000X1.250000X0.600000X-1.250000X0.600000X-1.250000X-0.600000X0*%
%ADD21C,4.500000*%
G04 APERTURE END LIST*
D10*
%TO.C,R2*%
X157050000Y-88980000D03*
X157050000Y-87330000D03*
%TD*%
D11*
%TO.C,PH2.0*%
X165670000Y-96870000D03*
X165670000Y-98870000D03*
D12*
X159920000Y-94520000D03*
X159920000Y-101220000D03*
%TD*%
D10*
%TO.C,R1*%
X158560000Y-88990000D03*
X158560000Y-87340000D03*
%TD*%
D13*
%TO.C,C1*%
X158560000Y-84410000D03*
X158560000Y-85960000D03*
%TD*%
D14*
%TO.C,U1*%
X135600000Y-101085000D03*
D15*
X135600000Y-100250000D03*
D14*
X138140000Y-101085000D03*
D15*
X138140000Y-100250000D03*
D14*
X140680000Y-101085000D03*
D15*
X140680000Y-100250000D03*
D14*
X143220000Y-101085000D03*
D15*
X143220000Y-100250000D03*
D14*
X145760000Y-101085000D03*
D15*
X145760000Y-100250000D03*
D14*
X148300000Y-101085000D03*
D15*
X148300000Y-100250000D03*
D14*
X150840000Y-101085000D03*
D15*
X150840000Y-100250000D03*
X150840000Y-85010000D03*
D16*
X150840000Y-84175000D03*
D15*
X148300000Y-85010000D03*
D16*
X148300000Y-84175000D03*
D15*
X145760000Y-85010000D03*
D16*
X145760000Y-84175000D03*
D15*
X143220000Y-85010000D03*
D16*
X143220000Y-84175000D03*
D15*
X140680000Y-85010000D03*
D16*
X140680000Y-84175000D03*
D15*
X138140000Y-85010000D03*
D16*
X138140000Y-84175000D03*
D15*
X135600000Y-85010000D03*
D16*
X135600000Y-84175000D03*
D17*
X142834000Y-97075000D03*
X140929000Y-97075000D03*
%TD*%
D18*
%TO.C,C2*%
X157060000Y-85960000D03*
X157060000Y-84410000D03*
%TD*%
D19*
%TO.C,S1*%
X166288250Y-90890000D03*
X166288250Y-84090000D03*
D20*
X163538250Y-89990000D03*
X163538250Y-87490000D03*
X163538250Y-84990000D03*
%TD*%
D21*
X156070139Y-92608803D03*
M02*
