%TF.GenerationSoftware,KiCad,Pcbnew,9.0.8*%
%TF.CreationDate,2026-03-22T19:52:23-05:00*%
%TF.ProjectId,ESP32_BNO086,45535033-325f-4424-9e4f-3038362e6b69,rev?*%
%TF.SameCoordinates,Original*%
%TF.FileFunction,Legend,Top*%
%TF.FilePolarity,Positive*%
%FSLAX46Y46*%
G04 Gerber Fmt 4.6, Leading zero omitted, Abs format (unit mm)*
G04 Created by KiCad (PCBNEW 9.0.8) date 2026-03-22 19:52:23*
%MOMM*%
%LPD*%
G01*
G04 APERTURE LIST*
%ADD10C,0.100000*%
%ADD11C,0.150000*%
%ADD12C,0.170000*%
%ADD13C,0.120000*%
%ADD14C,0.127000*%
%ADD15C,0.504000*%
G04 APERTURE END LIST*
D10*
X166143884Y-95421466D02*
X166905789Y-95421466D01*
X166524836Y-95802419D02*
X166524836Y-95040514D01*
X166143884Y-99941466D02*
X166905789Y-99941466D01*
G36*
X156036703Y-88137841D02*
G01*
X156047791Y-88145725D01*
X156054689Y-88158647D01*
X156057500Y-88181598D01*
X156057500Y-88221562D01*
X155988619Y-88269479D01*
X155942848Y-88307846D01*
X155914621Y-88338357D01*
X155899230Y-88362613D01*
X155899230Y-88431947D01*
X155987158Y-88431947D01*
X155987158Y-88406699D01*
X155989970Y-88383726D01*
X155996897Y-88370673D01*
X156007975Y-88362647D01*
X156022329Y-88359895D01*
X156036687Y-88362646D01*
X156047791Y-88370673D01*
X156054695Y-88383723D01*
X156057500Y-88406699D01*
X156057500Y-88512914D01*
X156054696Y-88535894D01*
X156047791Y-88548970D01*
X156036690Y-88556973D01*
X156022329Y-88559717D01*
X156007988Y-88556932D01*
X155996897Y-88548787D01*
X155989953Y-88535618D01*
X155987158Y-88512914D01*
X155987158Y-88501984D01*
X155713606Y-88501984D01*
X155713606Y-88512914D01*
X155710802Y-88535894D01*
X155703897Y-88548970D01*
X155692796Y-88556973D01*
X155678435Y-88559717D01*
X155664079Y-88556972D01*
X155653003Y-88548970D01*
X155646075Y-88535891D01*
X155643264Y-88512914D01*
X155643264Y-88354431D01*
X155643457Y-88351683D01*
X155713606Y-88351683D01*
X155713606Y-88431947D01*
X155828888Y-88431947D01*
X155828888Y-88377298D01*
X155826491Y-88347958D01*
X155819699Y-88323015D01*
X155805958Y-88294258D01*
X155793870Y-88279814D01*
X155779853Y-88271280D01*
X155767003Y-88268701D01*
X155754785Y-88270832D01*
X155742760Y-88277522D01*
X155730458Y-88289889D01*
X155721606Y-88304934D01*
X155715773Y-88325042D01*
X155713606Y-88351683D01*
X155643457Y-88351683D01*
X155645878Y-88317246D01*
X155653181Y-88286387D01*
X155664615Y-88260757D01*
X155679992Y-88239484D01*
X155699744Y-88221329D01*
X155720939Y-88208755D01*
X155743947Y-88201230D01*
X155769323Y-88198665D01*
X155790575Y-88200803D01*
X155810302Y-88207136D01*
X155828919Y-88217807D01*
X155845344Y-88231913D01*
X155861229Y-88250865D01*
X155876577Y-88275540D01*
X155897804Y-88253484D01*
X155926402Y-88228065D01*
X155987158Y-88185689D01*
X155989237Y-88161532D01*
X155993783Y-88150518D01*
X156007791Y-88138734D01*
X156022329Y-88135131D01*
X156036703Y-88137841D01*
G37*
G36*
X155987158Y-88005530D02*
G01*
X155987158Y-87852145D01*
X155979612Y-87839304D01*
X155977388Y-87828240D01*
X155980132Y-87813644D01*
X155988012Y-87802808D01*
X156000948Y-87796147D01*
X156024282Y-87793405D01*
X156057500Y-87793405D01*
X156057500Y-88112416D01*
X155983250Y-88112416D01*
X155874634Y-87983063D01*
X155813292Y-87914340D01*
X155782665Y-87883927D01*
X155766605Y-87872282D01*
X155752345Y-87866043D01*
X155739343Y-87864113D01*
X155723258Y-87866504D01*
X155708369Y-87873731D01*
X155694158Y-87886492D01*
X155683546Y-87902452D01*
X155676901Y-87921996D01*
X155674527Y-87946087D01*
X155677059Y-87970334D01*
X155684301Y-87990917D01*
X155696142Y-88008613D01*
X155709697Y-88019867D01*
X155730245Y-88029435D01*
X155742899Y-88035443D01*
X155750517Y-88042593D01*
X155755006Y-88051716D01*
X155756592Y-88063263D01*
X155754053Y-88076603D01*
X155746395Y-88088023D01*
X155735218Y-88095879D01*
X155722581Y-88098434D01*
X155709372Y-88096718D01*
X155692689Y-88090859D01*
X155671535Y-88079474D01*
X155652796Y-88065192D01*
X155636508Y-88046932D01*
X155622564Y-88024153D01*
X155612398Y-87999334D01*
X155606266Y-87973090D01*
X155604185Y-87945080D01*
X155606860Y-87912420D01*
X155614533Y-87883884D01*
X155626952Y-87858744D01*
X155644241Y-87836453D01*
X155665640Y-87817689D01*
X155688635Y-87804629D01*
X155713621Y-87796785D01*
X155741174Y-87794107D01*
X155769249Y-87797176D01*
X155794847Y-87806227D01*
X155820681Y-87823810D01*
X155863326Y-87864479D01*
X155904221Y-87909491D01*
X155987158Y-88005530D01*
G37*
D11*
G36*
X162110888Y-99262570D02*
G01*
X162157641Y-99280615D01*
X162198123Y-99307985D01*
X162227494Y-99339050D01*
X162261129Y-99391837D01*
X162283731Y-99444930D01*
X162293185Y-99487123D01*
X162296737Y-99543298D01*
X162296737Y-99722939D01*
X162566381Y-99722939D01*
X162566381Y-99526201D01*
X162568698Y-99507553D01*
X162574441Y-99496831D01*
X162583613Y-99490204D01*
X162595690Y-99487916D01*
X162607254Y-99490162D01*
X162616634Y-99496831D01*
X162622605Y-99507586D01*
X162625000Y-99526201D01*
X162625000Y-99857517D01*
X162622609Y-99876089D01*
X162616634Y-99886887D01*
X162607259Y-99893509D01*
X162595690Y-99895741D01*
X162583608Y-99893466D01*
X162574441Y-99886887D01*
X162568694Y-99876121D01*
X162566381Y-99857517D01*
X162566381Y-99780336D01*
X161882501Y-99780336D01*
X161882501Y-99857517D01*
X161880204Y-99876128D01*
X161874502Y-99886887D01*
X161865286Y-99893468D01*
X161853192Y-99895741D01*
X161841109Y-99893466D01*
X161831943Y-99886887D01*
X161826196Y-99876121D01*
X161823883Y-99857517D01*
X161823883Y-99524125D01*
X161824320Y-99518691D01*
X161882501Y-99518691D01*
X161882501Y-99722939D01*
X162238119Y-99722939D01*
X162238119Y-99539879D01*
X162231019Y-99478164D01*
X162209848Y-99420689D01*
X162177283Y-99371188D01*
X162140727Y-99339417D01*
X162098786Y-99319970D01*
X162057562Y-99313771D01*
X162015037Y-99319949D01*
X161975070Y-99338701D01*
X161936357Y-99371840D01*
X161906781Y-99413314D01*
X161888785Y-99461623D01*
X161882501Y-99518691D01*
X161824320Y-99518691D01*
X161828577Y-99465808D01*
X161842013Y-99415034D01*
X161863699Y-99370487D01*
X161893797Y-99331174D01*
X161931294Y-99297682D01*
X161970625Y-99274653D01*
X162012409Y-99260991D01*
X162057562Y-99256374D01*
X162110888Y-99262570D01*
G37*
G36*
X162238119Y-98564678D02*
G01*
X162238119Y-98945209D01*
X162566381Y-98945209D01*
X162566381Y-98868028D01*
X162568698Y-98849380D01*
X162574441Y-98838658D01*
X162583613Y-98832031D01*
X162595690Y-98829743D01*
X162607254Y-98831988D01*
X162616634Y-98838658D01*
X162622605Y-98849412D01*
X162625000Y-98868028D01*
X162625000Y-99067452D01*
X162622607Y-99086078D01*
X162616634Y-99096884D01*
X162607259Y-99103505D01*
X162595690Y-99105737D01*
X162583608Y-99103463D01*
X162574441Y-99096884D01*
X162568696Y-99086110D01*
X162566381Y-99067452D01*
X162566381Y-99002606D01*
X161882501Y-99002606D01*
X161882501Y-99038082D01*
X161880183Y-99057340D01*
X161874502Y-99068185D01*
X161865286Y-99074766D01*
X161853192Y-99077039D01*
X161841109Y-99074764D01*
X161831943Y-99068185D01*
X161826217Y-99057333D01*
X161823883Y-99038082D01*
X161823883Y-98868028D01*
X161826200Y-98849380D01*
X161831943Y-98838658D01*
X161841115Y-98832031D01*
X161853192Y-98829743D01*
X161865280Y-98832029D01*
X161874502Y-98838658D01*
X161880200Y-98849373D01*
X161882501Y-98868028D01*
X161882501Y-98945209D01*
X162179501Y-98945209D01*
X162179501Y-98564678D01*
X161882501Y-98564678D01*
X161882501Y-98641188D01*
X161880202Y-98659852D01*
X161874502Y-98670619D01*
X161865286Y-98677200D01*
X161853192Y-98679473D01*
X161841084Y-98677266D01*
X161831943Y-98670924D01*
X161826232Y-98660380D01*
X161823883Y-98641188D01*
X161823883Y-98471133D01*
X161826220Y-98451892D01*
X161831943Y-98441092D01*
X161841115Y-98434465D01*
X161853192Y-98432177D01*
X161865280Y-98434463D01*
X161874502Y-98441092D01*
X161880180Y-98451886D01*
X161882501Y-98471133D01*
X161882501Y-98506610D01*
X162566381Y-98506610D01*
X162566381Y-98441763D01*
X162568698Y-98423115D01*
X162574441Y-98412393D01*
X162583613Y-98405766D01*
X162595690Y-98403478D01*
X162607254Y-98405723D01*
X162616634Y-98412393D01*
X162622605Y-98423148D01*
X162625000Y-98441763D01*
X162625000Y-98641188D01*
X162622607Y-98659813D01*
X162616634Y-98670619D01*
X162607259Y-98677241D01*
X162595690Y-98679473D01*
X162583582Y-98677266D01*
X162574441Y-98670924D01*
X162568730Y-98660380D01*
X162566381Y-98641188D01*
X162566381Y-98564678D01*
X162238119Y-98564678D01*
G37*
G36*
X162566381Y-98166807D02*
G01*
X162566381Y-97726193D01*
X162542934Y-97726193D01*
X162523892Y-97723839D01*
X162512953Y-97718011D01*
X162506166Y-97708707D01*
X162503855Y-97696823D01*
X162506131Y-97685568D01*
X162512953Y-97676367D01*
X162523899Y-97670493D01*
X162542934Y-97668124D01*
X162625000Y-97668124D01*
X162625000Y-98222800D01*
X162539026Y-98222800D01*
X162380349Y-98050030D01*
X162219495Y-97882630D01*
X162108243Y-97776751D01*
X162072966Y-97751419D01*
X162045717Y-97737489D01*
X162018451Y-97729481D01*
X161991434Y-97726864D01*
X161944724Y-97733309D01*
X161901714Y-97752647D01*
X161861008Y-97786338D01*
X161829491Y-97828745D01*
X161810758Y-97876019D01*
X161804344Y-97929769D01*
X161809180Y-97978438D01*
X161823349Y-98022478D01*
X161846964Y-98062943D01*
X161878323Y-98097723D01*
X161913276Y-98122417D01*
X161952477Y-98138108D01*
X161973421Y-98148367D01*
X161980198Y-98167479D01*
X161978222Y-98178205D01*
X161972383Y-98186957D01*
X161963783Y-98192827D01*
X161953698Y-98194773D01*
X161919445Y-98187432D01*
X161865343Y-98158930D01*
X161831083Y-98132212D01*
X161801948Y-98099431D01*
X161777660Y-98059890D01*
X161759737Y-98016868D01*
X161749211Y-97973882D01*
X161745725Y-97930441D01*
X161750468Y-97878220D01*
X161764350Y-97830681D01*
X161787372Y-97786837D01*
X161820219Y-97745976D01*
X161860103Y-97711197D01*
X161901077Y-97687449D01*
X161943749Y-97673478D01*
X161988991Y-97668796D01*
X162027478Y-97672133D01*
X162061775Y-97681802D01*
X162094784Y-97698288D01*
X162134193Y-97725826D01*
X162177704Y-97763896D01*
X162252712Y-97837506D01*
X162439669Y-98031381D01*
X162562290Y-98166807D01*
X162566381Y-98166807D01*
G37*
G36*
X162464776Y-97092566D02*
G01*
X162464776Y-97068019D01*
X162471479Y-97032479D01*
X162491582Y-97002440D01*
X162521157Y-96981908D01*
X162556245Y-96975085D01*
X162592464Y-96982049D01*
X162622008Y-97002745D01*
X162641866Y-97032966D01*
X162648447Y-97068019D01*
X162648447Y-97092566D01*
X162641759Y-97128121D01*
X162621702Y-97158206D01*
X162592081Y-97178692D01*
X162556978Y-97185500D01*
X162520759Y-97178536D01*
X162491215Y-97157840D01*
X162471357Y-97127619D01*
X162464776Y-97092566D01*
G37*
G36*
X162359520Y-95984242D02*
G01*
X162437855Y-96001707D01*
X162503963Y-96029166D01*
X162559787Y-96066135D01*
X162597500Y-96103679D01*
X162623563Y-96144624D01*
X162639188Y-96189757D01*
X162644539Y-96240341D01*
X162639465Y-96289621D01*
X162624389Y-96335657D01*
X162600130Y-96377179D01*
X162567969Y-96411800D01*
X162541419Y-96430865D01*
X162495551Y-96455214D01*
X162446195Y-96476012D01*
X162403960Y-96489042D01*
X162342508Y-96500544D01*
X162266573Y-96504734D01*
X162124363Y-96504734D01*
X162031045Y-96498508D01*
X161952494Y-96481030D01*
X161886294Y-96453568D01*
X161830478Y-96416624D01*
X161792764Y-96379079D01*
X161766701Y-96338135D01*
X161751076Y-96293002D01*
X161745725Y-96242417D01*
X161745794Y-96241746D01*
X161804344Y-96241746D01*
X161810214Y-96286699D01*
X161827727Y-96325961D01*
X161857710Y-96361081D01*
X161902773Y-96392688D01*
X161970549Y-96422496D01*
X162046638Y-96440928D01*
X162132667Y-96447337D01*
X162259002Y-96447337D01*
X162338466Y-96441479D01*
X162410676Y-96424439D01*
X162476495Y-96398595D01*
X162522051Y-96372171D01*
X162543062Y-96353422D01*
X162561741Y-96328452D01*
X162579767Y-96287370D01*
X162585921Y-96240341D01*
X162579979Y-96195683D01*
X162562539Y-96156613D01*
X162532784Y-96121616D01*
X162488162Y-96090071D01*
X162421010Y-96060298D01*
X162345229Y-96041850D01*
X162259124Y-96035422D01*
X162132606Y-96035422D01*
X162053120Y-96041285D01*
X161981114Y-96058319D01*
X161915322Y-96083936D01*
X161869190Y-96109855D01*
X161847159Y-96129273D01*
X161828157Y-96154307D01*
X161810389Y-96195277D01*
X161804344Y-96241746D01*
X161745794Y-96241746D01*
X161750824Y-96192608D01*
X161765875Y-96146796D01*
X161790115Y-96105531D01*
X161822295Y-96070959D01*
X161849470Y-96051412D01*
X161895446Y-96027239D01*
X161944670Y-96006472D01*
X161986304Y-95993046D01*
X162047801Y-95982048D01*
X162124363Y-95978025D01*
X162266573Y-95978025D01*
X162359520Y-95984242D01*
G37*
D10*
G36*
X159906703Y-88177841D02*
G01*
X159917791Y-88185725D01*
X159924689Y-88198647D01*
X159927500Y-88221598D01*
X159927500Y-88261562D01*
X159858619Y-88309479D01*
X159812848Y-88347846D01*
X159784621Y-88378357D01*
X159769230Y-88402613D01*
X159769230Y-88471947D01*
X159857158Y-88471947D01*
X159857158Y-88446699D01*
X159859970Y-88423726D01*
X159866897Y-88410673D01*
X159877975Y-88402647D01*
X159892329Y-88399895D01*
X159906687Y-88402646D01*
X159917791Y-88410673D01*
X159924695Y-88423723D01*
X159927500Y-88446699D01*
X159927500Y-88552914D01*
X159924696Y-88575894D01*
X159917791Y-88588970D01*
X159906690Y-88596973D01*
X159892329Y-88599717D01*
X159877988Y-88596932D01*
X159866897Y-88588787D01*
X159859953Y-88575618D01*
X159857158Y-88552914D01*
X159857158Y-88541984D01*
X159583606Y-88541984D01*
X159583606Y-88552914D01*
X159580802Y-88575894D01*
X159573897Y-88588970D01*
X159562796Y-88596973D01*
X159548435Y-88599717D01*
X159534079Y-88596972D01*
X159523003Y-88588970D01*
X159516075Y-88575891D01*
X159513264Y-88552914D01*
X159513264Y-88394431D01*
X159513457Y-88391683D01*
X159583606Y-88391683D01*
X159583606Y-88471947D01*
X159698888Y-88471947D01*
X159698888Y-88417298D01*
X159696491Y-88387958D01*
X159689699Y-88363015D01*
X159675958Y-88334258D01*
X159663870Y-88319814D01*
X159649853Y-88311280D01*
X159637003Y-88308701D01*
X159624785Y-88310832D01*
X159612760Y-88317522D01*
X159600458Y-88329889D01*
X159591606Y-88344934D01*
X159585773Y-88365042D01*
X159583606Y-88391683D01*
X159513457Y-88391683D01*
X159515878Y-88357246D01*
X159523181Y-88326387D01*
X159534615Y-88300757D01*
X159549992Y-88279484D01*
X159569744Y-88261329D01*
X159590939Y-88248755D01*
X159613947Y-88241230D01*
X159639323Y-88238665D01*
X159660575Y-88240803D01*
X159680302Y-88247136D01*
X159698919Y-88257807D01*
X159715344Y-88271913D01*
X159731229Y-88290865D01*
X159746577Y-88315540D01*
X159767804Y-88293484D01*
X159796402Y-88268065D01*
X159857158Y-88225689D01*
X159859237Y-88201532D01*
X159863783Y-88190518D01*
X159877791Y-88178734D01*
X159892329Y-88175131D01*
X159906703Y-88177841D01*
G37*
G36*
X159474185Y-87944413D02*
G01*
X159857158Y-87944413D01*
X159857158Y-87873705D01*
X159859970Y-87850733D01*
X159866897Y-87837679D01*
X159877973Y-87829677D01*
X159892329Y-87826932D01*
X159906690Y-87829676D01*
X159917791Y-87837679D01*
X159924695Y-87850729D01*
X159927500Y-87873705D01*
X159927500Y-88085128D01*
X159924696Y-88108108D01*
X159917791Y-88121184D01*
X159906690Y-88129187D01*
X159892329Y-88131931D01*
X159877973Y-88129186D01*
X159866897Y-88121184D01*
X159859969Y-88108104D01*
X159857158Y-88085128D01*
X159857158Y-88014450D01*
X159566722Y-88014450D01*
X159583361Y-88076945D01*
X159587513Y-88099477D01*
X159584887Y-88111766D01*
X159576767Y-88122527D01*
X159564929Y-88129786D01*
X159550419Y-88132266D01*
X159537346Y-88130346D01*
X159528071Y-88125092D01*
X159521155Y-88115517D01*
X159513691Y-88095050D01*
X159474185Y-87944413D01*
G37*
G36*
X159532803Y-85279895D02*
G01*
X159524016Y-85272869D01*
X159518148Y-85265729D01*
X159514477Y-85257711D01*
X159513264Y-85249151D01*
X159515950Y-85235089D01*
X159523827Y-85224055D01*
X159536723Y-85217134D01*
X159559639Y-85214315D01*
X159618960Y-85214315D01*
X159641878Y-85217126D01*
X159654924Y-85224055D01*
X159662944Y-85235105D01*
X159665671Y-85249151D01*
X159663641Y-85262082D01*
X159657947Y-85271712D01*
X159648026Y-85278608D01*
X159629004Y-85284352D01*
X159616040Y-85288124D01*
X159607144Y-85293908D01*
X159593922Y-85310056D01*
X159582934Y-85333048D01*
X159576080Y-85358356D01*
X159573836Y-85383423D01*
X159577304Y-85413768D01*
X159587513Y-85441156D01*
X159598095Y-85457449D01*
X159612701Y-85472900D01*
X159631966Y-85487593D01*
X159653297Y-85498602D01*
X159677469Y-85505382D01*
X159705116Y-85507743D01*
X159750576Y-85507743D01*
X159775147Y-85505386D01*
X159797078Y-85498529D01*
X159816921Y-85487196D01*
X159835054Y-85471015D01*
X159849303Y-85451810D01*
X159859824Y-85428928D01*
X159866501Y-85401647D01*
X159868881Y-85369043D01*
X159866002Y-85331849D01*
X159858196Y-85303128D01*
X159849630Y-85287807D01*
X159833710Y-85269667D01*
X159819422Y-85252600D01*
X159816125Y-85238557D01*
X159818739Y-85225535D01*
X159826780Y-85213980D01*
X159838446Y-85206007D01*
X159851876Y-85203386D01*
X159865985Y-85206589D01*
X159882834Y-85217735D01*
X159904059Y-85241181D01*
X159920661Y-85271346D01*
X159930839Y-85301249D01*
X159937081Y-85333572D01*
X159939223Y-85368707D01*
X159936261Y-85409515D01*
X159927642Y-85446664D01*
X159913547Y-85480754D01*
X159897636Y-85505748D01*
X159876265Y-85528583D01*
X159848701Y-85549417D01*
X159818138Y-85565202D01*
X159786086Y-85574587D01*
X159751980Y-85577749D01*
X159704414Y-85577749D01*
X159668540Y-85574894D01*
X159634642Y-85566437D01*
X159602260Y-85552317D01*
X159572829Y-85532972D01*
X159548633Y-85509561D01*
X159529170Y-85481761D01*
X159514829Y-85450883D01*
X159506336Y-85419148D01*
X159503494Y-85386110D01*
X159505348Y-85356354D01*
X159510730Y-85329262D01*
X159519873Y-85303668D01*
X159532803Y-85279895D01*
G37*
G36*
X159474185Y-84934413D02*
G01*
X159857158Y-84934413D01*
X159857158Y-84863705D01*
X159859970Y-84840733D01*
X159866897Y-84827679D01*
X159877973Y-84819677D01*
X159892329Y-84816932D01*
X159906690Y-84819676D01*
X159917791Y-84827679D01*
X159924695Y-84840729D01*
X159927500Y-84863705D01*
X159927500Y-85075128D01*
X159924696Y-85098108D01*
X159917791Y-85111184D01*
X159906690Y-85119187D01*
X159892329Y-85121931D01*
X159877973Y-85119186D01*
X159866897Y-85111184D01*
X159859969Y-85098104D01*
X159857158Y-85075128D01*
X159857158Y-85004450D01*
X159566722Y-85004450D01*
X159583361Y-85066945D01*
X159587513Y-85089477D01*
X159584887Y-85101766D01*
X159576767Y-85112527D01*
X159564929Y-85119786D01*
X159550419Y-85122266D01*
X159537346Y-85120346D01*
X159528071Y-85115092D01*
X159521155Y-85105517D01*
X159513691Y-85085050D01*
X159474185Y-84934413D01*
G37*
D12*
G36*
X137840854Y-92494110D02*
G01*
X138039325Y-92733169D01*
X138071618Y-92737734D01*
X138092421Y-92749726D01*
X138105579Y-92768507D01*
X138110119Y-92792960D01*
X138105455Y-92817374D01*
X138091850Y-92836246D01*
X138069664Y-92847983D01*
X138030606Y-92852751D01*
X137896440Y-92852751D01*
X137857924Y-92848003D01*
X137835767Y-92836246D01*
X137822162Y-92817374D01*
X137817498Y-92792960D01*
X137821841Y-92768434D01*
X137834314Y-92749726D01*
X137854210Y-92737706D01*
X137884866Y-92733169D01*
X137764039Y-92587637D01*
X137644458Y-92733169D01*
X137674607Y-92737687D01*
X137694387Y-92749726D01*
X137706901Y-92768438D01*
X137711255Y-92792960D01*
X137706580Y-92817370D01*
X137692934Y-92836246D01*
X137670748Y-92847983D01*
X137631690Y-92852751D01*
X137498147Y-92852751D01*
X137459081Y-92847985D01*
X137436852Y-92836246D01*
X137423246Y-92817374D01*
X137418582Y-92792960D01*
X137423191Y-92768533D01*
X137436592Y-92749726D01*
X137457585Y-92737703D01*
X137489428Y-92733169D01*
X137686395Y-92494162D01*
X137498718Y-92268131D01*
X137467014Y-92263577D01*
X137446765Y-92251626D01*
X137434048Y-92232850D01*
X137429637Y-92208340D01*
X137434303Y-92183935D01*
X137447907Y-92165106D01*
X137470136Y-92153327D01*
X137509151Y-92148550D01*
X137618922Y-92148550D01*
X137657975Y-92153331D01*
X137680166Y-92165106D01*
X137693810Y-92183940D01*
X137698488Y-92208340D01*
X137695491Y-92233889D01*
X137686862Y-92255623D01*
X137675989Y-92264475D01*
X137653178Y-92268131D01*
X137763313Y-92400791D01*
X137872669Y-92268131D01*
X137849823Y-92264471D01*
X137838985Y-92255623D01*
X137830356Y-92233889D01*
X137827359Y-92208340D01*
X137832025Y-92183935D01*
X137845629Y-92165106D01*
X137867864Y-92153329D01*
X137906924Y-92148550D01*
X138016074Y-92148550D01*
X138055126Y-92153331D01*
X138077317Y-92165106D01*
X138090961Y-92183940D01*
X138095639Y-92208340D01*
X138091089Y-92232798D01*
X138077888Y-92251626D01*
X138057304Y-92263638D01*
X138026506Y-92268131D01*
X137840854Y-92494110D01*
G37*
G36*
X138535453Y-92268131D02*
G01*
X138535453Y-92733169D01*
X138655657Y-92733169D01*
X138694710Y-92737950D01*
X138716901Y-92749726D01*
X138730545Y-92768559D01*
X138735222Y-92792960D01*
X138730547Y-92817370D01*
X138716901Y-92836246D01*
X138694715Y-92847983D01*
X138655657Y-92852751D01*
X138296238Y-92852751D01*
X138257180Y-92847983D01*
X138234995Y-92836246D01*
X138221389Y-92817374D01*
X138216725Y-92792960D01*
X138221391Y-92768555D01*
X138234995Y-92749726D01*
X138257186Y-92737950D01*
X138296238Y-92733169D01*
X138416443Y-92733169D01*
X138416443Y-92268131D01*
X138296238Y-92268131D01*
X138257180Y-92263363D01*
X138234995Y-92251626D01*
X138221389Y-92232754D01*
X138216725Y-92208340D01*
X138221391Y-92183935D01*
X138234995Y-92165106D01*
X138257186Y-92153331D01*
X138296238Y-92148550D01*
X138655657Y-92148550D01*
X138694710Y-92153331D01*
X138716901Y-92165106D01*
X138730545Y-92183940D01*
X138735222Y-92208340D01*
X138730547Y-92232750D01*
X138716901Y-92251626D01*
X138694715Y-92263363D01*
X138655657Y-92268131D01*
X138535453Y-92268131D01*
G37*
G36*
X139491532Y-92733169D02*
G01*
X139529392Y-92736551D01*
X139546652Y-92743965D01*
X139567160Y-92768209D01*
X139573381Y-92792960D01*
X139568774Y-92817396D01*
X139555371Y-92836246D01*
X139533447Y-92847971D01*
X139494439Y-92852751D01*
X139334167Y-92852751D01*
X139295100Y-92847985D01*
X139272871Y-92836246D01*
X139259266Y-92817374D01*
X139254602Y-92792960D01*
X139259267Y-92768555D01*
X139272871Y-92749726D01*
X139295106Y-92737948D01*
X139334167Y-92733169D01*
X139363180Y-92733169D01*
X139334738Y-92656770D01*
X139045594Y-92656770D01*
X139016529Y-92733169D01*
X139045594Y-92733169D01*
X139084646Y-92737950D01*
X139106838Y-92749726D01*
X139120482Y-92768559D01*
X139125159Y-92792960D01*
X139120483Y-92817370D01*
X139106838Y-92836246D01*
X139084652Y-92847983D01*
X139045594Y-92852751D01*
X138885322Y-92852751D01*
X138846263Y-92847983D01*
X138824078Y-92836246D01*
X138810432Y-92817370D01*
X138805756Y-92792960D01*
X138810626Y-92768633D01*
X138824960Y-92749726D01*
X138848028Y-92737949D01*
X138888228Y-92733169D01*
X138967014Y-92537189D01*
X139093188Y-92537189D01*
X139285379Y-92537189D01*
X139189569Y-92305759D01*
X139093188Y-92537189D01*
X138967014Y-92537189D01*
X139075178Y-92268131D01*
X138997377Y-92268131D01*
X138958319Y-92263363D01*
X138936133Y-92251626D01*
X138922528Y-92232754D01*
X138917864Y-92208340D01*
X138922530Y-92183935D01*
X138936133Y-92165106D01*
X138958325Y-92153331D01*
X138997377Y-92148550D01*
X139254602Y-92148550D01*
X139491532Y-92733169D01*
G37*
G36*
X139954253Y-92136108D02*
G01*
X140002622Y-92148441D01*
X140048707Y-92169032D01*
X140093057Y-92198418D01*
X140136047Y-92237561D01*
X140172107Y-92281664D01*
X140200001Y-92329580D01*
X140220131Y-92381857D01*
X140232515Y-92439237D01*
X140236788Y-92502622D01*
X140232522Y-92565730D01*
X140220151Y-92622917D01*
X140200031Y-92675077D01*
X140172133Y-92722945D01*
X140136047Y-92767061D01*
X140093057Y-92806204D01*
X140048707Y-92835590D01*
X140002622Y-92856180D01*
X139954253Y-92868514D01*
X139902905Y-92872681D01*
X139845317Y-92867279D01*
X139790911Y-92851208D01*
X139738735Y-92824091D01*
X139688084Y-92784811D01*
X139645510Y-92738795D01*
X139612755Y-92688336D01*
X139589177Y-92632804D01*
X139574664Y-92571283D01*
X139569644Y-92502622D01*
X139688655Y-92502622D01*
X139693002Y-92555815D01*
X139705521Y-92602731D01*
X139725860Y-92644478D01*
X139754258Y-92681890D01*
X139789605Y-92714131D01*
X139825752Y-92736010D01*
X139863250Y-92748818D01*
X139902905Y-92753099D01*
X139942902Y-92748820D01*
X139980606Y-92736037D01*
X140016830Y-92714246D01*
X140052122Y-92682202D01*
X140080507Y-92644944D01*
X140100864Y-92603212D01*
X140113413Y-92556152D01*
X140117777Y-92502622D01*
X140113417Y-92449098D01*
X140100874Y-92401980D01*
X140080517Y-92360141D01*
X140052122Y-92322731D01*
X140016811Y-92290532D01*
X139980582Y-92268648D01*
X139942885Y-92255817D01*
X139902905Y-92251522D01*
X139863266Y-92255818D01*
X139825776Y-92268675D01*
X139789624Y-92290647D01*
X139754258Y-92323043D01*
X139725854Y-92360581D01*
X139705515Y-92402426D01*
X139692999Y-92449406D01*
X139688655Y-92502622D01*
X139569644Y-92502622D01*
X139574658Y-92433977D01*
X139589160Y-92372390D01*
X139612733Y-92316724D01*
X139645493Y-92266072D01*
X139688084Y-92219810D01*
X139738735Y-92180531D01*
X139790911Y-92153414D01*
X139845317Y-92137343D01*
X139902905Y-92131941D01*
X139954253Y-92136108D01*
G37*
G36*
X140865368Y-92570406D02*
G01*
X140368306Y-92570406D01*
X140368306Y-92460790D01*
X140865368Y-92460790D01*
X140865368Y-92570406D01*
G37*
G36*
X141207088Y-92560441D02*
G01*
X141207088Y-92733169D01*
X141510764Y-92733169D01*
X141510764Y-92670057D01*
X141515550Y-92630867D01*
X141527321Y-92608657D01*
X141546190Y-92595009D01*
X141570555Y-92590336D01*
X141594464Y-92594987D01*
X141613218Y-92608657D01*
X141624989Y-92630867D01*
X141629775Y-92670057D01*
X141629775Y-92852751D01*
X141069445Y-92852751D01*
X141030387Y-92847983D01*
X141008201Y-92836246D01*
X140994596Y-92817374D01*
X140989932Y-92792960D01*
X140994666Y-92768581D01*
X141008513Y-92749726D01*
X141030893Y-92737920D01*
X141069445Y-92733169D01*
X141088026Y-92733169D01*
X141088026Y-92268131D01*
X141069445Y-92268131D01*
X141030387Y-92263363D01*
X141008201Y-92251626D01*
X140994596Y-92232754D01*
X140989932Y-92208340D01*
X140994598Y-92183935D01*
X141008201Y-92165106D01*
X141030392Y-92153331D01*
X141069445Y-92148550D01*
X141603668Y-92149120D01*
X141603668Y-92331243D01*
X141598951Y-92370469D01*
X141587371Y-92392695D01*
X141568763Y-92406292D01*
X141544448Y-92410964D01*
X141520034Y-92406300D01*
X141501163Y-92392695D01*
X141489389Y-92370441D01*
X141484606Y-92331243D01*
X141484606Y-92268131D01*
X141207088Y-92268131D01*
X141207088Y-92440859D01*
X141311618Y-92440859D01*
X141314465Y-92401839D01*
X141320337Y-92386051D01*
X141333919Y-92372264D01*
X141350607Y-92364030D01*
X141371409Y-92361138D01*
X141395282Y-92365786D01*
X141414072Y-92379460D01*
X141425843Y-92401669D01*
X141430628Y-92440859D01*
X141430628Y-92560441D01*
X141427620Y-92599458D01*
X141421338Y-92615612D01*
X141407457Y-92629304D01*
X141391093Y-92637372D01*
X141371409Y-92640162D01*
X141350607Y-92637270D01*
X141333919Y-92629036D01*
X141320337Y-92615249D01*
X141314465Y-92599462D01*
X141311618Y-92560441D01*
X141207088Y-92560441D01*
G37*
G36*
X141868730Y-92822855D02*
G01*
X141843454Y-92847405D01*
X141819942Y-92852751D01*
X141795085Y-92848052D01*
X141776137Y-92834429D01*
X141764346Y-92812249D01*
X141759581Y-92773601D01*
X141759581Y-92693309D01*
X141764363Y-92654156D01*
X141776137Y-92631909D01*
X141795093Y-92618289D01*
X141819994Y-92613588D01*
X141839517Y-92616480D01*
X141855080Y-92624747D01*
X141867036Y-92638612D01*
X141876826Y-92661960D01*
X141885354Y-92685622D01*
X141892553Y-92697409D01*
X141913425Y-92714168D01*
X141952343Y-92734363D01*
X141996856Y-92748315D01*
X142046441Y-92753099D01*
X142098286Y-92748603D01*
X142141261Y-92735972D01*
X142177077Y-92715886D01*
X142195709Y-92698918D01*
X142206120Y-92680579D01*
X142209568Y-92660092D01*
X142205772Y-92639012D01*
X142193893Y-92618570D01*
X142174643Y-92601612D01*
X142142822Y-92586288D01*
X142112385Y-92577646D01*
X142038863Y-92562465D01*
X141947807Y-92540925D01*
X141891411Y-92518867D01*
X141860264Y-92499344D01*
X141834088Y-92475406D01*
X141812416Y-92446724D01*
X141796234Y-92414682D01*
X141786631Y-92381304D01*
X141783403Y-92346035D01*
X141787765Y-92305058D01*
X141800719Y-92266961D01*
X141822676Y-92230881D01*
X141854820Y-92196247D01*
X141892191Y-92168718D01*
X141934901Y-92148747D01*
X141983948Y-92136305D01*
X142040628Y-92131941D01*
X142085510Y-92134485D01*
X142125695Y-92141802D01*
X142163354Y-92154329D01*
X142196800Y-92171801D01*
X142221075Y-92153843D01*
X142243252Y-92148550D01*
X142267121Y-92153208D01*
X142285915Y-92166923D01*
X142297705Y-92189159D01*
X142302471Y-92227907D01*
X142302471Y-92317749D01*
X142297688Y-92357001D01*
X142285915Y-92379304D01*
X142267121Y-92393019D01*
X142243252Y-92397677D01*
X142222514Y-92394327D01*
X142204896Y-92384442D01*
X142194542Y-92371403D01*
X142185745Y-92345360D01*
X142177808Y-92318438D01*
X142169500Y-92303320D01*
X142149404Y-92283885D01*
X142118999Y-92266522D01*
X142083581Y-92255443D01*
X142041199Y-92251522D01*
X141999183Y-92255229D01*
X141965805Y-92265461D01*
X141939264Y-92281470D01*
X141917214Y-92303281D01*
X141905505Y-92323807D01*
X141901843Y-92343907D01*
X141905537Y-92365242D01*
X141917206Y-92386674D01*
X141935563Y-92404601D01*
X141962205Y-92418905D01*
X141990736Y-92427319D01*
X142073378Y-92445063D01*
X142159222Y-92465370D01*
X142213927Y-92484612D01*
X142244625Y-92501578D01*
X142271689Y-92523922D01*
X142295465Y-92552136D01*
X142313305Y-92584134D01*
X142324219Y-92620254D01*
X142328007Y-92661493D01*
X142323907Y-92704590D01*
X142312146Y-92741803D01*
X142292973Y-92774301D01*
X142265881Y-92802873D01*
X142222949Y-92832778D01*
X142174342Y-92854473D01*
X142119025Y-92867964D01*
X142055679Y-92872681D01*
X142006856Y-92869552D01*
X141959558Y-92860224D01*
X141913751Y-92844759D01*
X141868730Y-92822855D01*
G37*
G36*
X142883693Y-92153109D02*
G01*
X142934608Y-92165989D01*
X142977944Y-92186452D01*
X143014925Y-92214413D01*
X143046190Y-92249646D01*
X143067958Y-92287624D01*
X143081040Y-92329012D01*
X143085511Y-92374789D01*
X143079555Y-92425562D01*
X143061688Y-92473454D01*
X143038910Y-92506576D01*
X143001586Y-92542171D01*
X142958310Y-92572338D01*
X142915637Y-92593191D01*
X142868027Y-92605501D01*
X142799793Y-92610266D01*
X142687166Y-92610266D01*
X142687166Y-92733169D01*
X142807370Y-92733169D01*
X142846423Y-92737950D01*
X142868614Y-92749726D01*
X142882258Y-92768559D01*
X142886935Y-92792960D01*
X142882260Y-92817370D01*
X142868614Y-92836246D01*
X142846428Y-92847983D01*
X142807370Y-92852751D01*
X142549575Y-92852751D01*
X142510509Y-92847985D01*
X142488279Y-92836246D01*
X142474674Y-92817374D01*
X142470010Y-92792960D01*
X142474744Y-92768581D01*
X142488591Y-92749726D01*
X142510977Y-92737922D01*
X142549575Y-92733169D01*
X142568156Y-92733169D01*
X142568156Y-92490685D01*
X142687166Y-92490685D01*
X142797509Y-92490685D01*
X142848317Y-92486358D01*
X142888728Y-92474424D01*
X142920879Y-92455807D01*
X142946920Y-92430032D01*
X142961585Y-92402439D01*
X142966449Y-92371934D01*
X142962505Y-92345896D01*
X142950595Y-92321964D01*
X142929547Y-92299272D01*
X142903234Y-92282763D01*
X142868877Y-92272063D01*
X142824186Y-92268131D01*
X142687166Y-92268131D01*
X142687166Y-92490685D01*
X142568156Y-92490685D01*
X142568156Y-92268131D01*
X142549575Y-92268131D01*
X142510509Y-92263365D01*
X142488279Y-92251626D01*
X142474674Y-92232754D01*
X142470010Y-92208340D01*
X142474676Y-92183935D01*
X142488279Y-92165106D01*
X142510514Y-92153329D01*
X142549575Y-92148550D01*
X142823615Y-92148550D01*
X142883693Y-92153109D01*
G37*
G36*
X143639145Y-92455444D02*
G01*
X143672285Y-92481442D01*
X143698323Y-92509097D01*
X143718088Y-92538538D01*
X143732494Y-92570874D01*
X143741249Y-92605884D01*
X143744246Y-92644158D01*
X143740395Y-92685225D01*
X143728954Y-92723888D01*
X143709680Y-92760833D01*
X143683666Y-92793160D01*
X143650626Y-92820093D01*
X143609510Y-92841851D01*
X143564876Y-92856276D01*
X143508415Y-92865845D01*
X143437663Y-92869359D01*
X143366282Y-92866039D01*
X143309441Y-92857009D01*
X143264668Y-92843445D01*
X143229797Y-92826177D01*
X143207049Y-92807588D01*
X143194807Y-92788417D01*
X143190871Y-92767839D01*
X143195194Y-92744056D01*
X143207999Y-92724398D01*
X143226977Y-92711032D01*
X143249520Y-92706596D01*
X143266130Y-92709340D01*
X143284346Y-92718273D01*
X143310077Y-92733282D01*
X143332563Y-92741629D01*
X143370650Y-92747449D01*
X143428373Y-92749778D01*
X143497998Y-92746043D01*
X143546369Y-92736468D01*
X143578784Y-92722996D01*
X143605153Y-92702024D01*
X143620137Y-92677225D01*
X143625236Y-92647220D01*
X143618771Y-92612325D01*
X143598195Y-92577205D01*
X143567190Y-92547697D01*
X143525948Y-92525044D01*
X143495190Y-92516996D01*
X143437663Y-92510615D01*
X143410683Y-92504857D01*
X143392042Y-92492346D01*
X143380153Y-92473987D01*
X143376108Y-92451395D01*
X143380497Y-92427792D01*
X143393495Y-92408473D01*
X143413027Y-92395485D01*
X143437663Y-92391034D01*
X143500931Y-92390463D01*
X143523815Y-92385647D01*
X143547383Y-92375411D01*
X143568387Y-92360260D01*
X143584856Y-92340378D01*
X143595619Y-92317395D01*
X143599077Y-92294341D01*
X143595495Y-92270770D01*
X143584714Y-92249325D01*
X143565705Y-92229205D01*
X143541858Y-92214818D01*
X143509345Y-92205271D01*
X143465534Y-92201697D01*
X143422945Y-92205253D01*
X143387752Y-92215220D01*
X143358554Y-92230994D01*
X143334327Y-92252612D01*
X143312840Y-92271556D01*
X143300064Y-92276426D01*
X143285540Y-92278096D01*
X143262930Y-92273704D01*
X143243707Y-92260449D01*
X143230717Y-92240864D01*
X143226320Y-92216904D01*
X143231357Y-92192169D01*
X143247821Y-92166294D01*
X143279727Y-92138013D01*
X143319688Y-92114220D01*
X143364820Y-92096801D01*
X143415991Y-92085921D01*
X143474254Y-92082115D01*
X143528926Y-92086401D01*
X143575819Y-92098580D01*
X143616282Y-92118074D01*
X143651342Y-92144916D01*
X143681005Y-92178525D01*
X143701599Y-92214474D01*
X143713936Y-92253371D01*
X143718140Y-92296106D01*
X143713158Y-92340687D01*
X143698365Y-92381899D01*
X143674274Y-92419473D01*
X143639145Y-92455444D01*
G37*
G36*
X144071434Y-92733169D02*
G01*
X144332187Y-92733169D01*
X144354018Y-92720342D01*
X144372826Y-92716561D01*
X144397640Y-92721226D01*
X144416060Y-92734622D01*
X144427383Y-92756612D01*
X144432046Y-92796282D01*
X144432046Y-92852751D01*
X143889726Y-92852751D01*
X143889726Y-92726526D01*
X144109628Y-92541879D01*
X144226455Y-92437597D01*
X144278158Y-92385532D01*
X144297955Y-92358230D01*
X144308561Y-92333988D01*
X144311842Y-92311884D01*
X144307778Y-92284540D01*
X144295491Y-92259228D01*
X144273798Y-92235069D01*
X144246667Y-92217030D01*
X144213441Y-92205733D01*
X144172486Y-92201697D01*
X144131267Y-92206002D01*
X144096276Y-92218313D01*
X144066192Y-92238443D01*
X144047060Y-92261486D01*
X144030795Y-92296417D01*
X144020581Y-92317929D01*
X144008425Y-92330880D01*
X143992917Y-92338511D01*
X143973288Y-92341208D01*
X143950610Y-92336892D01*
X143931196Y-92323873D01*
X143917840Y-92304871D01*
X143913497Y-92283390D01*
X143916413Y-92260934D01*
X143926373Y-92232572D01*
X143945728Y-92196610D01*
X143970008Y-92164755D01*
X144001049Y-92137065D01*
X144039774Y-92113360D01*
X144081966Y-92096079D01*
X144126581Y-92085653D01*
X144174199Y-92082115D01*
X144229720Y-92086663D01*
X144278231Y-92099708D01*
X144320970Y-92120819D01*
X144358865Y-92150210D01*
X144390763Y-92186590D01*
X144412966Y-92225681D01*
X144426300Y-92268157D01*
X144430852Y-92314998D01*
X144425636Y-92362725D01*
X144410248Y-92406241D01*
X144380357Y-92450160D01*
X144311219Y-92522656D01*
X144234700Y-92592178D01*
X144071434Y-92733169D01*
G37*
G36*
X145145382Y-92570406D02*
G01*
X144648320Y-92570406D01*
X144648320Y-92460790D01*
X145145382Y-92460790D01*
X145145382Y-92570406D01*
G37*
G36*
X145796020Y-92181767D02*
G01*
X145807964Y-92166828D01*
X145820103Y-92156854D01*
X145833732Y-92150613D01*
X145848285Y-92148550D01*
X145872189Y-92153117D01*
X145890948Y-92166507D01*
X145902713Y-92188431D01*
X145907505Y-92227388D01*
X145907505Y-92328233D01*
X145902727Y-92367194D01*
X145890948Y-92389373D01*
X145872163Y-92403007D01*
X145848285Y-92407642D01*
X145826301Y-92404191D01*
X145809930Y-92394511D01*
X145798208Y-92377645D01*
X145788443Y-92345309D01*
X145782031Y-92323269D01*
X145772198Y-92308147D01*
X145744745Y-92285668D01*
X145705660Y-92266989D01*
X145662636Y-92255338D01*
X145620022Y-92251522D01*
X145568436Y-92257418D01*
X145521876Y-92274774D01*
X145494178Y-92292763D01*
X145467911Y-92317593D01*
X145442934Y-92350343D01*
X145424217Y-92386607D01*
X145412691Y-92427698D01*
X145408679Y-92474699D01*
X145408679Y-92551981D01*
X145412686Y-92593752D01*
X145424342Y-92631034D01*
X145443608Y-92664767D01*
X145471116Y-92695592D01*
X145503765Y-92719816D01*
X145542664Y-92737702D01*
X145589042Y-92749054D01*
X145644468Y-92753099D01*
X145707697Y-92748205D01*
X145756523Y-92734934D01*
X145782570Y-92720372D01*
X145813407Y-92693309D01*
X145842420Y-92669019D01*
X145866295Y-92663413D01*
X145888432Y-92667858D01*
X145908076Y-92681527D01*
X145921629Y-92701359D01*
X145926086Y-92724190D01*
X145920640Y-92748176D01*
X145901692Y-92776818D01*
X145861834Y-92812901D01*
X145810553Y-92841125D01*
X145759718Y-92858428D01*
X145704768Y-92869039D01*
X145645039Y-92872681D01*
X145575666Y-92867646D01*
X145512512Y-92852993D01*
X145454560Y-92829031D01*
X145412069Y-92801983D01*
X145373250Y-92765652D01*
X145337833Y-92718792D01*
X145310997Y-92666836D01*
X145295044Y-92612347D01*
X145289668Y-92554368D01*
X145289668Y-92473505D01*
X145294522Y-92412520D01*
X145308899Y-92354893D01*
X145332902Y-92299843D01*
X145365789Y-92249810D01*
X145405588Y-92208678D01*
X145452847Y-92175590D01*
X145505340Y-92151211D01*
X145559290Y-92136773D01*
X145615455Y-92131941D01*
X145666040Y-92135094D01*
X145712095Y-92144242D01*
X145755605Y-92159786D01*
X145796020Y-92181767D01*
G37*
G36*
X146492488Y-92455444D02*
G01*
X146525627Y-92481442D01*
X146551666Y-92509097D01*
X146571430Y-92538538D01*
X146585837Y-92570874D01*
X146594592Y-92605884D01*
X146597589Y-92644158D01*
X146593738Y-92685225D01*
X146582297Y-92723888D01*
X146563022Y-92760833D01*
X146537009Y-92793160D01*
X146503969Y-92820093D01*
X146462852Y-92841851D01*
X146418218Y-92856276D01*
X146361757Y-92865845D01*
X146291006Y-92869359D01*
X146219625Y-92866039D01*
X146162784Y-92857009D01*
X146118010Y-92843445D01*
X146083140Y-92826177D01*
X146060392Y-92807588D01*
X146048150Y-92788417D01*
X146044214Y-92767839D01*
X146048537Y-92744056D01*
X146061341Y-92724398D01*
X146080319Y-92711032D01*
X146102863Y-92706596D01*
X146119472Y-92709340D01*
X146137689Y-92718273D01*
X146163420Y-92733282D01*
X146185905Y-92741629D01*
X146223993Y-92747449D01*
X146281716Y-92749778D01*
X146351340Y-92746043D01*
X146399711Y-92736468D01*
X146432126Y-92722996D01*
X146458496Y-92702024D01*
X146473479Y-92677225D01*
X146478578Y-92647220D01*
X146472114Y-92612325D01*
X146451538Y-92577205D01*
X146420533Y-92547697D01*
X146379291Y-92525044D01*
X146348533Y-92516996D01*
X146291006Y-92510615D01*
X146264025Y-92504857D01*
X146245384Y-92492346D01*
X146233496Y-92473987D01*
X146229451Y-92451395D01*
X146233840Y-92427792D01*
X146246838Y-92408473D01*
X146266370Y-92395485D01*
X146291006Y-92391034D01*
X146354274Y-92390463D01*
X146377157Y-92385647D01*
X146400726Y-92375411D01*
X146421729Y-92360260D01*
X146438199Y-92340378D01*
X146448961Y-92317395D01*
X146452420Y-92294341D01*
X146448837Y-92270770D01*
X146438056Y-92249325D01*
X146419047Y-92229205D01*
X146395200Y-92214818D01*
X146362688Y-92205271D01*
X146318877Y-92201697D01*
X146276288Y-92205253D01*
X146241095Y-92215220D01*
X146211897Y-92230994D01*
X146187670Y-92252612D01*
X146166183Y-92271556D01*
X146153406Y-92276426D01*
X146138882Y-92278096D01*
X146116273Y-92273704D01*
X146097050Y-92260449D01*
X146084059Y-92240864D01*
X146079663Y-92216904D01*
X146084699Y-92192169D01*
X146101164Y-92166294D01*
X146133069Y-92138013D01*
X146173031Y-92114220D01*
X146218162Y-92096801D01*
X146269333Y-92085921D01*
X146327597Y-92082115D01*
X146382269Y-92086401D01*
X146429162Y-92098580D01*
X146469625Y-92118074D01*
X146504685Y-92144916D01*
X146534348Y-92178525D01*
X146554941Y-92214474D01*
X146567279Y-92253371D01*
X146571482Y-92296106D01*
X146566500Y-92340687D01*
X146551708Y-92381899D01*
X146527616Y-92419473D01*
X146492488Y-92455444D01*
G37*
G36*
X147281289Y-92114554D02*
G01*
X146899812Y-92936468D01*
X146884637Y-92964084D01*
X146873705Y-92976692D01*
X146857237Y-92985800D01*
X146837115Y-92988940D01*
X146814445Y-92984601D01*
X146795022Y-92971501D01*
X146781615Y-92952646D01*
X146777324Y-92932056D01*
X146780147Y-92914984D01*
X146791234Y-92886175D01*
X147173904Y-92064106D01*
X147188938Y-92036820D01*
X147199440Y-92024453D01*
X147216298Y-92015425D01*
X147236030Y-92012360D01*
X147258671Y-92016641D01*
X147277811Y-92029487D01*
X147291006Y-92048108D01*
X147295250Y-92068673D01*
X147292417Y-92085743D01*
X147281289Y-92114554D01*
G37*
G36*
X147575415Y-92822855D02*
G01*
X147550139Y-92847405D01*
X147526627Y-92852751D01*
X147501771Y-92848052D01*
X147482823Y-92834429D01*
X147471031Y-92812249D01*
X147466266Y-92773601D01*
X147466266Y-92693309D01*
X147471048Y-92654156D01*
X147482823Y-92631909D01*
X147501778Y-92618289D01*
X147526679Y-92613588D01*
X147546202Y-92616480D01*
X147561765Y-92624747D01*
X147573721Y-92638612D01*
X147583512Y-92661960D01*
X147592039Y-92685622D01*
X147599238Y-92697409D01*
X147620110Y-92714168D01*
X147659028Y-92734363D01*
X147703541Y-92748315D01*
X147753126Y-92753099D01*
X147804972Y-92748603D01*
X147847946Y-92735972D01*
X147883762Y-92715886D01*
X147902394Y-92698918D01*
X147912806Y-92680579D01*
X147916253Y-92660092D01*
X147912458Y-92639012D01*
X147900579Y-92618570D01*
X147881328Y-92601612D01*
X147849507Y-92586288D01*
X147819070Y-92577646D01*
X147745548Y-92562465D01*
X147654492Y-92540925D01*
X147598096Y-92518867D01*
X147566949Y-92499344D01*
X147540773Y-92475406D01*
X147519102Y-92446724D01*
X147502919Y-92414682D01*
X147493316Y-92381304D01*
X147490089Y-92346035D01*
X147494451Y-92305058D01*
X147507404Y-92266961D01*
X147529361Y-92230881D01*
X147561505Y-92196247D01*
X147598876Y-92168718D01*
X147641586Y-92148747D01*
X147690633Y-92136305D01*
X147747313Y-92131941D01*
X147792195Y-92134485D01*
X147832380Y-92141802D01*
X147870039Y-92154329D01*
X147903485Y-92171801D01*
X147927761Y-92153843D01*
X147949937Y-92148550D01*
X147973806Y-92153208D01*
X147992600Y-92166923D01*
X148004390Y-92189159D01*
X148009157Y-92227907D01*
X148009157Y-92317749D01*
X148004374Y-92357001D01*
X147992600Y-92379304D01*
X147973806Y-92393019D01*
X147949937Y-92397677D01*
X147929199Y-92394327D01*
X147911582Y-92384442D01*
X147901227Y-92371403D01*
X147892430Y-92345360D01*
X147884493Y-92318438D01*
X147876185Y-92303320D01*
X147856089Y-92283885D01*
X147825685Y-92266522D01*
X147790266Y-92255443D01*
X147747884Y-92251522D01*
X147705868Y-92255229D01*
X147672491Y-92265461D01*
X147645949Y-92281470D01*
X147623899Y-92303281D01*
X147612190Y-92323807D01*
X147608528Y-92343907D01*
X147612222Y-92365242D01*
X147623891Y-92386674D01*
X147642248Y-92404601D01*
X147668890Y-92418905D01*
X147697422Y-92427319D01*
X147780063Y-92445063D01*
X147865907Y-92465370D01*
X147920613Y-92484612D01*
X147951310Y-92501578D01*
X147978375Y-92523922D01*
X148002150Y-92552136D01*
X148019990Y-92584134D01*
X148030905Y-92620254D01*
X148034692Y-92661493D01*
X148030592Y-92704590D01*
X148018831Y-92741803D01*
X147999658Y-92774301D01*
X147972566Y-92802873D01*
X147929634Y-92832778D01*
X147881028Y-92854473D01*
X147825711Y-92867964D01*
X147762365Y-92872681D01*
X147713541Y-92869552D01*
X147666243Y-92860224D01*
X147620437Y-92844759D01*
X147575415Y-92822855D01*
G37*
G36*
X148632495Y-92455444D02*
G01*
X148665634Y-92481442D01*
X148691673Y-92509097D01*
X148711437Y-92538538D01*
X148725844Y-92570874D01*
X148734599Y-92605884D01*
X148737596Y-92644158D01*
X148733745Y-92685225D01*
X148722304Y-92723888D01*
X148703029Y-92760833D01*
X148677016Y-92793160D01*
X148643976Y-92820093D01*
X148602859Y-92841851D01*
X148558225Y-92856276D01*
X148501764Y-92865845D01*
X148431013Y-92869359D01*
X148359632Y-92866039D01*
X148302791Y-92857009D01*
X148258017Y-92843445D01*
X148223147Y-92826177D01*
X148200399Y-92807588D01*
X148188157Y-92788417D01*
X148184221Y-92767839D01*
X148188544Y-92744056D01*
X148201348Y-92724398D01*
X148220326Y-92711032D01*
X148242870Y-92706596D01*
X148259479Y-92709340D01*
X148277696Y-92718273D01*
X148303427Y-92733282D01*
X148325912Y-92741629D01*
X148364000Y-92747449D01*
X148421723Y-92749778D01*
X148491347Y-92746043D01*
X148539718Y-92736468D01*
X148572133Y-92722996D01*
X148598503Y-92702024D01*
X148613486Y-92677225D01*
X148618585Y-92647220D01*
X148612121Y-92612325D01*
X148591545Y-92577205D01*
X148560540Y-92547697D01*
X148519298Y-92525044D01*
X148488540Y-92516996D01*
X148431013Y-92510615D01*
X148404032Y-92504857D01*
X148385391Y-92492346D01*
X148373503Y-92473987D01*
X148369458Y-92451395D01*
X148373847Y-92427792D01*
X148386845Y-92408473D01*
X148406377Y-92395485D01*
X148431013Y-92391034D01*
X148494281Y-92390463D01*
X148517164Y-92385647D01*
X148540733Y-92375411D01*
X148561736Y-92360260D01*
X148578206Y-92340378D01*
X148588968Y-92317395D01*
X148592427Y-92294341D01*
X148588844Y-92270770D01*
X148578063Y-92249325D01*
X148559054Y-92229205D01*
X148535207Y-92214818D01*
X148502695Y-92205271D01*
X148458884Y-92201697D01*
X148416295Y-92205253D01*
X148381102Y-92215220D01*
X148351904Y-92230994D01*
X148327677Y-92252612D01*
X148306190Y-92271556D01*
X148293413Y-92276426D01*
X148278889Y-92278096D01*
X148256280Y-92273704D01*
X148237057Y-92260449D01*
X148224066Y-92240864D01*
X148219670Y-92216904D01*
X148224706Y-92192169D01*
X148241171Y-92166294D01*
X148273076Y-92138013D01*
X148313038Y-92114220D01*
X148358169Y-92096801D01*
X148409340Y-92085921D01*
X148467604Y-92082115D01*
X148522276Y-92086401D01*
X148569169Y-92098580D01*
X148609632Y-92118074D01*
X148644692Y-92144916D01*
X148674355Y-92178525D01*
X148694948Y-92214474D01*
X148707286Y-92253371D01*
X148711489Y-92296106D01*
X148706507Y-92340687D01*
X148691715Y-92381899D01*
X148667623Y-92419473D01*
X148632495Y-92455444D01*
G37*
D10*
G36*
X155612803Y-85299895D02*
G01*
X155604016Y-85292869D01*
X155598148Y-85285729D01*
X155594477Y-85277711D01*
X155593264Y-85269151D01*
X155595950Y-85255089D01*
X155603827Y-85244055D01*
X155616723Y-85237134D01*
X155639639Y-85234315D01*
X155698960Y-85234315D01*
X155721878Y-85237126D01*
X155734924Y-85244055D01*
X155742944Y-85255105D01*
X155745671Y-85269151D01*
X155743641Y-85282082D01*
X155737947Y-85291712D01*
X155728026Y-85298608D01*
X155709004Y-85304352D01*
X155696040Y-85308124D01*
X155687144Y-85313908D01*
X155673922Y-85330056D01*
X155662934Y-85353048D01*
X155656080Y-85378356D01*
X155653836Y-85403423D01*
X155657304Y-85433768D01*
X155667513Y-85461156D01*
X155678095Y-85477449D01*
X155692701Y-85492900D01*
X155711966Y-85507593D01*
X155733297Y-85518602D01*
X155757469Y-85525382D01*
X155785116Y-85527743D01*
X155830576Y-85527743D01*
X155855147Y-85525386D01*
X155877078Y-85518529D01*
X155896921Y-85507196D01*
X155915054Y-85491015D01*
X155929303Y-85471810D01*
X155939824Y-85448928D01*
X155946501Y-85421647D01*
X155948881Y-85389043D01*
X155946002Y-85351849D01*
X155938196Y-85323128D01*
X155929630Y-85307807D01*
X155913710Y-85289667D01*
X155899422Y-85272600D01*
X155896125Y-85258557D01*
X155898739Y-85245535D01*
X155906780Y-85233980D01*
X155918446Y-85226007D01*
X155931876Y-85223386D01*
X155945985Y-85226589D01*
X155962834Y-85237735D01*
X155984059Y-85261181D01*
X156000661Y-85291346D01*
X156010839Y-85321249D01*
X156017081Y-85353572D01*
X156019223Y-85388707D01*
X156016261Y-85429515D01*
X156007642Y-85466664D01*
X155993547Y-85500754D01*
X155977636Y-85525748D01*
X155956265Y-85548583D01*
X155928701Y-85569417D01*
X155898138Y-85585202D01*
X155866086Y-85594587D01*
X155831980Y-85597749D01*
X155784414Y-85597749D01*
X155748540Y-85594894D01*
X155714642Y-85586437D01*
X155682260Y-85572317D01*
X155652829Y-85552972D01*
X155628633Y-85529561D01*
X155609170Y-85501761D01*
X155594829Y-85470883D01*
X155586336Y-85439148D01*
X155583494Y-85406110D01*
X155585348Y-85376354D01*
X155590730Y-85349262D01*
X155599873Y-85323668D01*
X155612803Y-85299895D01*
G37*
G36*
X155937158Y-85055530D02*
G01*
X155937158Y-84902145D01*
X155929612Y-84889304D01*
X155927388Y-84878240D01*
X155930132Y-84863644D01*
X155938012Y-84852808D01*
X155950948Y-84846147D01*
X155974282Y-84843405D01*
X156007500Y-84843405D01*
X156007500Y-85162416D01*
X155933250Y-85162416D01*
X155824634Y-85033063D01*
X155763292Y-84964340D01*
X155732665Y-84933927D01*
X155716605Y-84922282D01*
X155702345Y-84916043D01*
X155689343Y-84914113D01*
X155673258Y-84916504D01*
X155658369Y-84923731D01*
X155644158Y-84936492D01*
X155633546Y-84952452D01*
X155626901Y-84971996D01*
X155624527Y-84996087D01*
X155627059Y-85020334D01*
X155634301Y-85040917D01*
X155646142Y-85058613D01*
X155659697Y-85069867D01*
X155680245Y-85079435D01*
X155692899Y-85085443D01*
X155700517Y-85092593D01*
X155705006Y-85101716D01*
X155706592Y-85113263D01*
X155704053Y-85126603D01*
X155696395Y-85138023D01*
X155685218Y-85145879D01*
X155672581Y-85148434D01*
X155659372Y-85146718D01*
X155642689Y-85140859D01*
X155621535Y-85129474D01*
X155602796Y-85115192D01*
X155586508Y-85096932D01*
X155572564Y-85074153D01*
X155562398Y-85049334D01*
X155556266Y-85023090D01*
X155554185Y-84995080D01*
X155556860Y-84962420D01*
X155564533Y-84933884D01*
X155576952Y-84908744D01*
X155594241Y-84886453D01*
X155615640Y-84867689D01*
X155638635Y-84854629D01*
X155663621Y-84846785D01*
X155691174Y-84844107D01*
X155719249Y-84847176D01*
X155744847Y-84856227D01*
X155770681Y-84873810D01*
X155813326Y-84914479D01*
X155854221Y-84959491D01*
X155937158Y-85055530D01*
G37*
D13*
%TO.C,R2*%
X156527500Y-88392258D02*
X156527500Y-87917742D01*
X157572500Y-88392258D02*
X157572500Y-87917742D01*
%TO.C,PH2.0*%
X158310000Y-95530000D02*
X158310000Y-100210000D01*
X161880000Y-93810000D02*
X166130000Y-93810000D01*
X161880000Y-101930000D02*
X166130000Y-101930000D01*
X164530000Y-94830000D02*
X164530000Y-96110000D01*
X164530000Y-96110000D02*
X167420000Y-96110000D01*
X164530000Y-100910000D02*
X164530000Y-99630000D01*
X166130000Y-93810000D02*
X166130000Y-94830000D01*
X166130000Y-94830000D02*
X164530000Y-94830000D01*
X166130000Y-100910000D02*
X164530000Y-100910000D01*
X166130000Y-101930000D02*
X166130000Y-100910000D01*
%TO.C,R1*%
X158037500Y-88402258D02*
X158037500Y-87927742D01*
X159082500Y-88402258D02*
X159082500Y-87927742D01*
%TO.C,C1*%
X158050000Y-85044420D02*
X158050000Y-85325580D01*
X159070000Y-85044420D02*
X159070000Y-85325580D01*
D14*
%TO.C,U1*%
X131169000Y-96621272D02*
X131169000Y-88626000D01*
X131669000Y-88126000D02*
X132679000Y-88126000D01*
D10*
X132679000Y-85645000D02*
X132679000Y-99615000D01*
X132679000Y-85645000D02*
X132679000Y-99615000D01*
D14*
X132679000Y-85645000D02*
X132679000Y-99615000D01*
X132679000Y-97125000D02*
X131668728Y-97121272D01*
X151729000Y-83740000D02*
X134584000Y-83740000D01*
X151729000Y-101520000D02*
X134584000Y-101520000D01*
X153634000Y-99615000D02*
X153634000Y-85645000D01*
X131169000Y-88626000D02*
G75*
G02*
X131669000Y-88126000I500000J0D01*
G01*
X131668728Y-97121272D02*
G75*
G02*
X131169028Y-96621272I272J499972D01*
G01*
X132679000Y-85645000D02*
G75*
G02*
X134584000Y-83740000I1905000J0D01*
G01*
X134584000Y-101520000D02*
G75*
G02*
X132679000Y-99615000I0J1905000D01*
G01*
X151729000Y-83740000D02*
G75*
G02*
X153634000Y-85645000I-1J-1905001D01*
G01*
X153634000Y-99615000D02*
G75*
G02*
X151729000Y-101520000I-1905001J1D01*
G01*
D15*
X133222000Y-101630000D02*
G75*
G02*
X132718000Y-101630000I-252000J0D01*
G01*
X132718000Y-101630000D02*
G75*
G02*
X133222000Y-101630000I252000J0D01*
G01*
X134102000Y-100487000D02*
G75*
G02*
X133598000Y-100487000I-252000J0D01*
G01*
X133598000Y-100487000D02*
G75*
G02*
X134102000Y-100487000I252000J0D01*
G01*
D13*
%TO.C,C2*%
X156550000Y-85325580D02*
X156550000Y-85044420D01*
X157570000Y-85325580D02*
X157570000Y-85044420D01*
D14*
%TO.C,S1*%
X164488250Y-82990000D02*
X168088250Y-82990000D01*
X164488250Y-91990000D02*
X168088250Y-91990000D01*
X168088250Y-91990000D02*
X168088250Y-82990000D01*
%TD*%
M02*
