%TF.GenerationSoftware,KiCad,Pcbnew,9.0.8*%
%TF.CreationDate,2026-03-22T19:52:23-05:00*%
%TF.ProjectId,ESP32_BNO086,45535033-325f-4424-9e4f-3038362e6b69,rev?*%
%TF.SameCoordinates,Original*%
%TF.FileFunction,Soldermask,Bot*%
%TF.FilePolarity,Negative*%
%FSLAX46Y46*%
G04 Gerber Fmt 4.6, Leading zero omitted, Abs format (unit mm)*
G04 Created by KiCad (PCBNEW 9.0.8) date 2026-03-22 19:52:23*
%MOMM*%
%LPD*%
G01*
G04 APERTURE LIST*
G04 Aperture macros list*
%AMRoundRect*
0 Rectangle with rounded corners*
0 $1 Rounding radius*
0 $2 $3 $4 $5 $6 $7 $8 $9 X,Y pos of 4 corners*
0 Add a 4 corners polygon primitive as box body*
4,1,4,$2,$3,$4,$5,$6,$7,$8,$9,$2,$3,0*
0 Add four circle primitives for the rounded corners*
1,1,$1+$1,$2,$3*
1,1,$1+$1,$4,$5*
1,1,$1+$1,$6,$7*
1,1,$1+$1,$8,$9*
0 Add four rect primitives between the rounded corners*
20,1,$1+$1,$2,$3,$4,$5,0*
20,1,$1+$1,$4,$5,$6,$7,0*
20,1,$1+$1,$6,$7,$8,$9,0*
20,1,$1+$1,$8,$9,$2,$3,0*%
G04 Aperture macros list end*
%ADD10C,1.524000*%
%ADD11C,1.000000*%
%ADD12RoundRect,0.140000X-0.170000X0.140000X-0.170000X-0.140000X0.170000X-0.140000X0.170000X0.140000X0*%
%ADD13RoundRect,0.140000X0.140000X0.170000X-0.140000X0.170000X-0.140000X-0.170000X0.140000X-0.170000X0*%
%ADD14RoundRect,0.135000X-0.135000X-0.185000X0.135000X-0.185000X0.135000X0.185000X-0.135000X0.185000X0*%
%ADD15RoundRect,0.250000X0.475000X0.250000X-0.475000X0.250000X-0.475000X-0.250000X0.475000X-0.250000X0*%
%ADD16RoundRect,0.147500X-0.172500X0.147500X-0.172500X-0.147500X0.172500X-0.147500X0.172500X0.147500X0*%
%ADD17R,0.254000X0.675000*%
%ADD18R,0.675000X0.254000*%
%ADD19RoundRect,0.135000X-0.185000X0.135000X-0.185000X-0.135000X0.185000X-0.135000X0.185000X0.135000X0*%
%ADD20RoundRect,0.102000X0.850000X-1.125000X0.850000X1.125000X-0.850000X1.125000X-0.850000X-1.125000X0*%
%ADD21C,4.500000*%
G04 APERTURE END LIST*
D10*
%TO.C,U1*%
X135600000Y-100250000D03*
X138140000Y-100250000D03*
X140680000Y-100250000D03*
X143220000Y-100250000D03*
X145760000Y-100250000D03*
X148300000Y-100250000D03*
X150840000Y-100250000D03*
X150840000Y-85010000D03*
X148300000Y-85010000D03*
X145760000Y-85010000D03*
X143220000Y-85010000D03*
X140680000Y-85010000D03*
X138140000Y-85010000D03*
X135600000Y-85010000D03*
%TD*%
D11*
%TO.C,S1*%
X166288250Y-90890000D03*
X166288250Y-84090000D03*
%TD*%
D12*
%TO.C,C5*%
X142470000Y-88990000D03*
X142470000Y-89950000D03*
%TD*%
D13*
%TO.C,C4*%
X138730000Y-88840000D03*
X137770000Y-88840000D03*
%TD*%
D14*
%TO.C,R4*%
X138740000Y-92370000D03*
X139760000Y-92370000D03*
%TD*%
D15*
%TO.C,FUNC1*%
X164950000Y-86500000D03*
X159800000Y-86500000D03*
X164950000Y-88200000D03*
X159800000Y-88200000D03*
%TD*%
D13*
%TO.C,C3*%
X138730000Y-87880000D03*
X137770000Y-87880000D03*
%TD*%
D16*
%TO.C,LED1*%
X135940000Y-92125000D03*
X135940000Y-93095000D03*
%TD*%
D17*
%TO.C,IC1*%
X140970000Y-94285000D03*
D18*
X140832500Y-93372500D03*
X140832500Y-92872500D03*
X140832500Y-92372500D03*
X140832500Y-91872500D03*
D17*
X140970000Y-90960000D03*
X141470000Y-90960000D03*
X141970000Y-90960000D03*
X142470000Y-90960000D03*
X142970000Y-90960000D03*
X143470000Y-90960000D03*
X143970000Y-90960000D03*
X144470000Y-90960000D03*
X144970000Y-90960000D03*
X145470000Y-90960000D03*
D18*
X145607500Y-91872500D03*
X145607500Y-92372500D03*
X145607500Y-92872500D03*
X145607500Y-93372500D03*
D17*
X145470000Y-94285000D03*
X144970000Y-94285000D03*
X144470000Y-94285000D03*
X143970000Y-94285000D03*
X143470000Y-94285000D03*
X142970000Y-94285000D03*
X142470000Y-94285000D03*
X141970000Y-94285000D03*
X141470000Y-94285000D03*
%TD*%
D19*
%TO.C,R3*%
X138130000Y-96250000D03*
X138130000Y-97270000D03*
%TD*%
D20*
%TO.C,LS1*%
X160670000Y-98810000D03*
X160670000Y-94560000D03*
X164170000Y-98810000D03*
%TD*%
D21*
X156070139Y-92608803D03*
M02*
