%TF.GenerationSoftware,KiCad,Pcbnew,9.0.8*%
%TF.CreationDate,2026-03-22T19:52:23-05:00*%
%TF.ProjectId,ESP32_BNO086,45535033-325f-4424-9e4f-3038362e6b69,rev?*%
%TF.SameCoordinates,Original*%
%TF.FileFunction,Copper,L1,Top*%
%TF.FilePolarity,Positive*%
%FSLAX46Y46*%
G04 Gerber Fmt 4.6, Leading zero omitted, Abs format (unit mm)*
G04 Created by KiCad (PCBNEW 9.0.8) date 2026-03-22 19:52:23*
%MOMM*%
%LPD*%
G01*
G04 APERTURE LIST*
G04 Aperture macros list*
%AMRoundRect*
0 Rectangle with rounded corners*
0 $1 Rounding radius*
0 $2 $3 $4 $5 $6 $7 $8 $9 X,Y pos of 4 corners*
0 Add a 4 corners polygon primitive as box body*
4,1,4,$2,$3,$4,$5,$6,$7,$8,$9,$2,$3,0*
0 Add four circle primitives for the rounded corners*
1,1,$1+$1,$2,$3*
1,1,$1+$1,$4,$5*
1,1,$1+$1,$6,$7*
1,1,$1+$1,$8,$9*
0 Add four rect primitives between the rounded corners*
20,1,$1+$1,$2,$3,$4,$5,0*
20,1,$1+$1,$4,$5,$6,$7,0*
20,1,$1+$1,$6,$7,$8,$9,0*
20,1,$1+$1,$8,$9,$2,$3,0*%
G04 Aperture macros list end*
%TA.AperFunction,SMDPad,CuDef*%
%ADD10RoundRect,0.200000X0.275000X-0.200000X0.275000X0.200000X-0.275000X0.200000X-0.275000X-0.200000X0*%
%TD*%
%TA.AperFunction,SMDPad,CuDef*%
%ADD11RoundRect,0.250000X-1.500000X0.250000X-1.500000X-0.250000X1.500000X-0.250000X1.500000X0.250000X0*%
%TD*%
%TA.AperFunction,SMDPad,CuDef*%
%ADD12RoundRect,0.250001X-1.449999X0.499999X-1.449999X-0.499999X1.449999X-0.499999X1.449999X0.499999X0*%
%TD*%
%TA.AperFunction,SMDPad,CuDef*%
%ADD13RoundRect,0.225000X-0.250000X0.225000X-0.250000X-0.225000X0.250000X-0.225000X0.250000X0.225000X0*%
%TD*%
%TA.AperFunction,SMDPad,CuDef*%
%ADD14RoundRect,0.152400X-0.609600X1.063600X-0.609600X-1.063600X0.609600X-1.063600X0.609600X1.063600X0*%
%TD*%
%TA.AperFunction,ComponentPad*%
%ADD15C,1.524000*%
%TD*%
%TA.AperFunction,SMDPad,CuDef*%
%ADD16RoundRect,0.152400X0.609600X-1.063600X0.609600X1.063600X-0.609600X1.063600X-0.609600X-1.063600X0*%
%TD*%
%TA.AperFunction,SMDPad,CuDef*%
%ADD17RoundRect,0.275000X-0.275000X0.975000X-0.275000X-0.975000X0.275000X-0.975000X0.275000X0.975000X0*%
%TD*%
%TA.AperFunction,SMDPad,CuDef*%
%ADD18RoundRect,0.225000X0.250000X-0.225000X0.250000X0.225000X-0.250000X0.225000X-0.250000X-0.225000X0*%
%TD*%
%TA.AperFunction,SMDPad,CuDef*%
%ADD19R,2.500000X1.200000*%
%TD*%
%TA.AperFunction,ViaPad*%
%ADD20C,0.600000*%
%TD*%
%TA.AperFunction,ViaPad*%
%ADD21C,4.500000*%
%TD*%
%TA.AperFunction,Conductor*%
%ADD22C,0.200000*%
%TD*%
G04 APERTURE END LIST*
D10*
%TO.P,R2,1*%
%TO.N,Net-(U1-GPIO2_A0_D0)*%
X157050000Y-88980000D03*
%TO.P,R2,2*%
%TO.N,/Bat+*%
X157050000Y-87330000D03*
%TD*%
D11*
%TO.P,PH2.0,1,Pin_1*%
%TO.N,/Bat+*%
X165670000Y-96870000D03*
%TO.P,PH2.0,2,Pin_2*%
%TO.N,GND*%
X165670000Y-98870000D03*
D12*
%TO.P,PH2.0,MP*%
%TO.N,N/C*%
X159920000Y-94520000D03*
X159920000Y-101220000D03*
%TD*%
D10*
%TO.P,R1,1*%
%TO.N,Net-(U1-GPIO2_A0_D0)*%
X158560000Y-88990000D03*
%TO.P,R1,2*%
%TO.N,GND*%
X158560000Y-87340000D03*
%TD*%
D13*
%TO.P,C1,1*%
%TO.N,GND*%
X158560000Y-84410000D03*
%TO.P,C1,2*%
%TO.N,/Bat+*%
X158560000Y-85960000D03*
%TD*%
D14*
%TO.P,U1,1,GPIO2_A0_D0*%
%TO.N,Net-(U1-GPIO2_A0_D0)*%
X135600000Y-101085000D03*
D15*
X135600000Y-100250000D03*
D14*
%TO.P,U1,2,GPIO3_A1_D1*%
%TO.N,Net-(U1-GPIO3_A1_D1)*%
X138140000Y-101085000D03*
D15*
X138140000Y-100250000D03*
D14*
%TO.P,U1,3,GPIO4_A2_D2*%
%TO.N,Net-(IC1-PS0{slash}WAKE)*%
X140680000Y-101085000D03*
D15*
X140680000Y-100250000D03*
D14*
%TO.P,U1,4,GPIO5_A3_D3*%
%TO.N,Net-(IC1-H_CSN)*%
X143220000Y-101085000D03*
D15*
X143220000Y-100250000D03*
D14*
%TO.P,U1,5,GPIO6_D4_SDA*%
%TO.N,Net-(IC1-H_INTN)*%
X145760000Y-101085000D03*
D15*
X145760000Y-100250000D03*
D14*
%TO.P,U1,6,GPIO7_D5_SCL*%
%TO.N,Net-(U1-GPIO7_D5_SCL)*%
X148300000Y-101085000D03*
D15*
X148300000Y-100250000D03*
D14*
%TO.P,U1,7,GPIO21_D6_TX*%
%TO.N,Net-(U1-GPIO21_D6_TX)*%
X150840000Y-101085000D03*
D15*
X150840000Y-100250000D03*
%TO.P,U1,8,GPIO20_D7_RX*%
%TO.N,Net-(IC1-NRST)*%
X150840000Y-85010000D03*
D16*
X150840000Y-84175000D03*
D15*
%TO.P,U1,9,GPIO8_D8_SCK*%
%TO.N,Net-(IC1-H_SCL{slash}SCK{slash}RX)*%
X148300000Y-85010000D03*
D16*
X148300000Y-84175000D03*
D15*
%TO.P,U1,10,GPIO9_D9_MISO*%
%TO.N,Net-(IC1-H_SDA{slash}H_MISO{slash}TX)*%
X145760000Y-85010000D03*
D16*
X145760000Y-84175000D03*
D15*
%TO.P,U1,11,GPIO10_D10_MOSI*%
%TO.N,Net-(IC1-SA0{slash}H_MOSI)*%
X143220000Y-85010000D03*
D16*
X143220000Y-84175000D03*
D15*
%TO.P,U1,12,3V3*%
%TO.N,Net-(IC1-PS1)*%
X140680000Y-85010000D03*
D16*
X140680000Y-84175000D03*
D15*
%TO.P,U1,13,GND*%
%TO.N,GND*%
X138140000Y-85010000D03*
D16*
X138140000Y-84175000D03*
D15*
%TO.P,U1,14,VBUS*%
%TO.N,unconnected-(U1-VBUS-Pad14)*%
X135600000Y-85010000D03*
D16*
X135600000Y-84175000D03*
D17*
%TO.P,U1,15,Bat+*%
%TO.N,/Bat+*%
X142834000Y-97075000D03*
%TO.P,U1,16,Bat-*%
%TO.N,GND*%
X140929000Y-97075000D03*
%TD*%
D18*
%TO.P,C2,1*%
%TO.N,/Bat+*%
X157060000Y-85960000D03*
%TO.P,C2,2*%
%TO.N,GND*%
X157060000Y-84410000D03*
%TD*%
D19*
%TO.P,S1,1*%
%TO.N,unconnected-(S1-Pad1)*%
X163538250Y-89990000D03*
%TO.P,S1,2*%
%TO.N,/Bat+*%
X163538250Y-87490000D03*
%TO.P,S1,3*%
X163538250Y-84990000D03*
%TD*%
D20*
%TO.N,Net-(IC1-PS0{slash}WAKE)*%
X140960000Y-89980000D03*
X139030000Y-94680000D03*
%TO.N,Net-(IC1-PS1)*%
X138730000Y-93330000D03*
X141470000Y-95200000D03*
%TO.N,GND*%
X135940000Y-96920000D03*
X145630000Y-89120000D03*
X141940000Y-86300000D03*
X145070000Y-95870000D03*
X163830000Y-92110000D03*
D21*
X156070139Y-92608803D03*
D20*
X150400000Y-90030000D03*
X136030000Y-88230000D03*
X160530000Y-84360000D03*
%TO.N,Net-(IC1-SA0{slash}H_MOSI)*%
X146700000Y-91000000D03*
%TO.N,Net-(IC1-H_SCL{slash}SCK{slash}RX)*%
X147500000Y-95500000D03*
%TO.N,Net-(IC1-H_SDA{slash}H_MISO{slash}TX)*%
X146580000Y-94210000D03*
%TD*%
D22*
%TO.N,Net-(IC1-PS0{slash}WAKE)*%
X139030000Y-94680000D02*
X137950000Y-93600000D01*
X137950000Y-91490000D02*
X139460000Y-89980000D01*
X137950000Y-93600000D02*
X137950000Y-91490000D01*
X139460000Y-89980000D02*
X140960000Y-89980000D01*
%TO.N,Net-(IC1-PS1)*%
X140600000Y-95200000D02*
X138730000Y-93330000D01*
X141470000Y-95200000D02*
X140600000Y-95200000D01*
%TO.N,GND*%
X140902000Y-97102000D02*
X139800000Y-96000000D01*
X139800000Y-96000000D02*
X139800000Y-95980000D01*
%TO.N,Net-(IC1-SA0{slash}H_MOSI)*%
X143220000Y-85010000D02*
X146700000Y-88490000D01*
X146700000Y-88490000D02*
X146700000Y-91000000D01*
%TO.N,Net-(IC1-H_SCL{slash}SCK{slash}RX)*%
X148300000Y-85010000D02*
X148800000Y-85510000D01*
X148800000Y-85510000D02*
X148800000Y-94200000D01*
X148800000Y-94200000D02*
X147500000Y-95500000D01*
%TO.N,Net-(IC1-H_SDA{slash}H_MISO{slash}TX)*%
X148100000Y-92690000D02*
X146580000Y-94210000D01*
X148100000Y-88500000D02*
X148100000Y-92690000D01*
X148100000Y-88500000D02*
X145760000Y-86160000D01*
X145760000Y-86160000D02*
X145760000Y-85010000D01*
%TO.N,/Bat+*%
X156518529Y-87330000D02*
X157050000Y-87330000D01*
X162140000Y-84980000D02*
X161200000Y-85920000D01*
X146773529Y-97075000D02*
X156518529Y-87330000D01*
X160750000Y-92030000D02*
X160750000Y-88760000D01*
X157060000Y-87320000D02*
X157050000Y-87330000D01*
X142834000Y-97075000D02*
X146773529Y-97075000D01*
X163078250Y-87950000D02*
X163538250Y-87490000D01*
X165670000Y-96870000D02*
X160840000Y-92040000D01*
X157060000Y-85960000D02*
X157060000Y-87320000D01*
X160750000Y-88760000D02*
X161570000Y-87940000D01*
X158560000Y-85960000D02*
X157060000Y-85960000D01*
X163538250Y-84990000D02*
X162230000Y-84990000D01*
X163752500Y-87707500D02*
X163900000Y-87560000D01*
X161200000Y-85920000D02*
X158950000Y-85920000D01*
X161660000Y-87950000D02*
X163078250Y-87950000D01*
X158920000Y-86320000D02*
X158560000Y-85960000D01*
X163740000Y-87720000D02*
X163900000Y-87560000D01*
%TO.N,Net-(U1-GPIO2_A0_D0)*%
X155820000Y-88980000D02*
X157050000Y-88980000D01*
X146000000Y-98800000D02*
X155820000Y-88980000D01*
X158560000Y-88990000D02*
X157060000Y-88990000D01*
X137050000Y-98800000D02*
X146000000Y-98800000D01*
X135600000Y-100250000D02*
X137050000Y-98800000D01*
%TD*%
%TA.AperFunction,Conductor*%
%TO.N,GND*%
G36*
X134305620Y-82810185D02*
G01*
X134351375Y-82862989D01*
X134361319Y-82932147D01*
X134357658Y-82949094D01*
X134340412Y-83008453D01*
X134337500Y-83045458D01*
X134337500Y-85304541D01*
X134340412Y-85341546D01*
X134340413Y-85341552D01*
X134386434Y-85499954D01*
X134386435Y-85499957D01*
X134470405Y-85641943D01*
X134470406Y-85641944D01*
X134470408Y-85641947D01*
X134566608Y-85738147D01*
X134579240Y-85752938D01*
X134637019Y-85832464D01*
X134777536Y-85972981D01*
X134938306Y-86089787D01*
X135025149Y-86134035D01*
X135115367Y-86180005D01*
X135115370Y-86180006D01*
X135209866Y-86210709D01*
X135304364Y-86241413D01*
X135500639Y-86272500D01*
X135500640Y-86272500D01*
X135699360Y-86272500D01*
X135699361Y-86272500D01*
X135895636Y-86241413D01*
X136084632Y-86180005D01*
X136261694Y-86089787D01*
X136422464Y-85972981D01*
X136562981Y-85832464D01*
X136620762Y-85752933D01*
X136626007Y-85746213D01*
X136629518Y-85742019D01*
X136729592Y-85641947D01*
X136768718Y-85575787D01*
X136775220Y-85568024D01*
X136796198Y-85554035D01*
X136814626Y-85536830D01*
X136824772Y-85534984D01*
X136833353Y-85529263D01*
X136858565Y-85528837D01*
X136883368Y-85524326D01*
X136892899Y-85528258D01*
X136903212Y-85528084D01*
X136924650Y-85541356D01*
X136947958Y-85550971D01*
X136956956Y-85561355D01*
X136962620Y-85564862D01*
X136965838Y-85571606D01*
X136977022Y-85584513D01*
X137010803Y-85641634D01*
X137010807Y-85641639D01*
X137082807Y-85713638D01*
X137702352Y-85094093D01*
X137725792Y-85181571D01*
X137784311Y-85282930D01*
X137867070Y-85365689D01*
X137968429Y-85424208D01*
X138055905Y-85447647D01*
X137441283Y-86062268D01*
X137441283Y-86062269D01*
X137478567Y-86089358D01*
X137655562Y-86179542D01*
X137844477Y-86240924D01*
X138040679Y-86272000D01*
X138239321Y-86272000D01*
X138435520Y-86240924D01*
X138435523Y-86240924D01*
X138624437Y-86179542D01*
X138801425Y-86089362D01*
X138838716Y-86062268D01*
X138224095Y-85447647D01*
X138311571Y-85424208D01*
X138412930Y-85365689D01*
X138495689Y-85282930D01*
X138554208Y-85181571D01*
X138577647Y-85094094D01*
X139197191Y-85713639D01*
X139269195Y-85641635D01*
X139302976Y-85584514D01*
X139354045Y-85536830D01*
X139422787Y-85524326D01*
X139487376Y-85550971D01*
X139504779Y-85568024D01*
X139511283Y-85575791D01*
X139550408Y-85641947D01*
X139650480Y-85742019D01*
X139653992Y-85746213D01*
X139654509Y-85747399D01*
X139659240Y-85752938D01*
X139717019Y-85832464D01*
X139857536Y-85972981D01*
X140018306Y-86089787D01*
X140105149Y-86134035D01*
X140195367Y-86180005D01*
X140195370Y-86180006D01*
X140289866Y-86210709D01*
X140384364Y-86241413D01*
X140580639Y-86272500D01*
X140580640Y-86272500D01*
X140779360Y-86272500D01*
X140779361Y-86272500D01*
X140975636Y-86241413D01*
X141164632Y-86180005D01*
X141341694Y-86089787D01*
X141502464Y-85972981D01*
X141642981Y-85832464D01*
X141700762Y-85752933D01*
X141706039Y-85746175D01*
X141709537Y-85742000D01*
X141809592Y-85641947D01*
X141848439Y-85576259D01*
X141854962Y-85568477D01*
X141875927Y-85554509D01*
X141894337Y-85537321D01*
X141904505Y-85535471D01*
X141913110Y-85529739D01*
X141938299Y-85529324D01*
X141963079Y-85524817D01*
X141972634Y-85528759D01*
X141982970Y-85528589D01*
X142004379Y-85541854D01*
X142027668Y-85551462D01*
X142036691Y-85561875D01*
X142042363Y-85565390D01*
X142045575Y-85572128D01*
X142056732Y-85585004D01*
X142090405Y-85641943D01*
X142090408Y-85641947D01*
X142186608Y-85738147D01*
X142199240Y-85752938D01*
X142257019Y-85832464D01*
X142397536Y-85972981D01*
X142558306Y-86089787D01*
X142645149Y-86134035D01*
X142735367Y-86180005D01*
X142735370Y-86180006D01*
X142829866Y-86210709D01*
X142924364Y-86241413D01*
X143120639Y-86272500D01*
X143120640Y-86272500D01*
X143319360Y-86272500D01*
X143319361Y-86272500D01*
X143515636Y-86241413D01*
X143515646Y-86241409D01*
X143517891Y-86240871D01*
X143518778Y-86240915D01*
X143520448Y-86240651D01*
X143520503Y-86241001D01*
X143587674Y-86244357D01*
X143634527Y-86273762D01*
X146063181Y-88702416D01*
X146096666Y-88763739D01*
X146099500Y-88790097D01*
X146099500Y-90420234D01*
X146079815Y-90487273D01*
X146078602Y-90489125D01*
X145990609Y-90620814D01*
X145990602Y-90620827D01*
X145930264Y-90766498D01*
X145930261Y-90766510D01*
X145899500Y-90921153D01*
X145899500Y-91078846D01*
X145930261Y-91233489D01*
X145930264Y-91233501D01*
X145990602Y-91379172D01*
X145990609Y-91379185D01*
X146078210Y-91510288D01*
X146078213Y-91510292D01*
X146189707Y-91621786D01*
X146189711Y-91621789D01*
X146320814Y-91709390D01*
X146320827Y-91709397D01*
X146466498Y-91769735D01*
X146466503Y-91769737D01*
X146621153Y-91800499D01*
X146621156Y-91800500D01*
X146621158Y-91800500D01*
X146778844Y-91800500D01*
X146778845Y-91800499D01*
X146933497Y-91769737D01*
X147079179Y-91709394D01*
X147210289Y-91621789D01*
X147220422Y-91611656D01*
X147287819Y-91544260D01*
X147349142Y-91510775D01*
X147418834Y-91515759D01*
X147474767Y-91557631D01*
X147499184Y-91623095D01*
X147499500Y-91631941D01*
X147499500Y-92389902D01*
X147479815Y-92456941D01*
X147463181Y-92477583D01*
X146565339Y-93375425D01*
X146504016Y-93408910D01*
X146501850Y-93409361D01*
X146346508Y-93440261D01*
X146346498Y-93440264D01*
X146200827Y-93500602D01*
X146200814Y-93500609D01*
X146069711Y-93588210D01*
X146069707Y-93588213D01*
X145958213Y-93699707D01*
X145958210Y-93699711D01*
X145870609Y-93830814D01*
X145870602Y-93830827D01*
X145810264Y-93976498D01*
X145810261Y-93976510D01*
X145779500Y-94131153D01*
X145779500Y-94288846D01*
X145810261Y-94443489D01*
X145810264Y-94443501D01*
X145870602Y-94589172D01*
X145870609Y-94589185D01*
X145958210Y-94720288D01*
X145958213Y-94720292D01*
X146069707Y-94831786D01*
X146069711Y-94831789D01*
X146200814Y-94919390D01*
X146200827Y-94919397D01*
X146314541Y-94966498D01*
X146346503Y-94979737D01*
X146501153Y-95010499D01*
X146501156Y-95010500D01*
X146650723Y-95010500D01*
X146717762Y-95030185D01*
X146763517Y-95082989D01*
X146773461Y-95152147D01*
X146765284Y-95181952D01*
X146730264Y-95266498D01*
X146730261Y-95266510D01*
X146699500Y-95421153D01*
X146699500Y-95578846D01*
X146730261Y-95733489D01*
X146730264Y-95733501D01*
X146790602Y-95879172D01*
X146790609Y-95879185D01*
X146866051Y-95992091D01*
X146886929Y-96058769D01*
X146868445Y-96126149D01*
X146850630Y-96148663D01*
X146561113Y-96438181D01*
X146499790Y-96471666D01*
X146473432Y-96474500D01*
X144008500Y-96474500D01*
X143941461Y-96454815D01*
X143895706Y-96402011D01*
X143884500Y-96350500D01*
X143884500Y-96056445D01*
X143884499Y-96056441D01*
X143881214Y-96027289D01*
X143871588Y-95941848D01*
X143869842Y-95926351D01*
X143869841Y-95926349D01*
X143869841Y-95926343D01*
X143812122Y-95761394D01*
X143719147Y-95613424D01*
X143595576Y-95489853D01*
X143447606Y-95396878D01*
X143447605Y-95396877D01*
X143447604Y-95396877D01*
X143282658Y-95339159D01*
X143282648Y-95339157D01*
X143152558Y-95324500D01*
X143152552Y-95324500D01*
X142515448Y-95324500D01*
X142515441Y-95324500D01*
X142408383Y-95336562D01*
X142339561Y-95324507D01*
X142288182Y-95277158D01*
X142270500Y-95213342D01*
X142270500Y-95121155D01*
X142270499Y-95121153D01*
X142260327Y-95070015D01*
X142239737Y-94966503D01*
X142239735Y-94966498D01*
X142179397Y-94820827D01*
X142179390Y-94820814D01*
X142091789Y-94689711D01*
X142091786Y-94689707D01*
X141980292Y-94578213D01*
X141980288Y-94578210D01*
X141849185Y-94490609D01*
X141849172Y-94490602D01*
X141703501Y-94430264D01*
X141703489Y-94430261D01*
X141548845Y-94399500D01*
X141548842Y-94399500D01*
X141391158Y-94399500D01*
X141391155Y-94399500D01*
X141236510Y-94430261D01*
X141236498Y-94430264D01*
X141090827Y-94490602D01*
X141090809Y-94490612D01*
X140965036Y-94574651D01*
X140898359Y-94595529D01*
X140830979Y-94577044D01*
X140808465Y-94559230D01*
X139564574Y-93315339D01*
X139531089Y-93254016D01*
X139530638Y-93251849D01*
X139499738Y-93096510D01*
X139499737Y-93096503D01*
X139483714Y-93057819D01*
X139439397Y-92950827D01*
X139439390Y-92950814D01*
X139351789Y-92819711D01*
X139351786Y-92819707D01*
X139240292Y-92708213D01*
X139240288Y-92708210D01*
X139109185Y-92620609D01*
X139109172Y-92620602D01*
X138963501Y-92560264D01*
X138963489Y-92560261D01*
X138808845Y-92529500D01*
X138808842Y-92529500D01*
X138674500Y-92529500D01*
X138607461Y-92509815D01*
X138561706Y-92457011D01*
X138550500Y-92405500D01*
X138550500Y-91790097D01*
X138570185Y-91723058D01*
X138586819Y-91702416D01*
X139672416Y-90616819D01*
X139733739Y-90583334D01*
X139760097Y-90580500D01*
X140380234Y-90580500D01*
X140447273Y-90600185D01*
X140449125Y-90601398D01*
X140580814Y-90689390D01*
X140580827Y-90689397D01*
X140726498Y-90749735D01*
X140726503Y-90749737D01*
X140881153Y-90780499D01*
X140881156Y-90780500D01*
X140881158Y-90780500D01*
X141038844Y-90780500D01*
X141038845Y-90780499D01*
X141193497Y-90749737D01*
X141339179Y-90689394D01*
X141470289Y-90601789D01*
X141581789Y-90490289D01*
X141669394Y-90359179D01*
X141729737Y-90213497D01*
X141760500Y-90058842D01*
X141760500Y-89901158D01*
X141760500Y-89901155D01*
X141760499Y-89901153D01*
X141755115Y-89874086D01*
X141729737Y-89746503D01*
X141708676Y-89695657D01*
X141669397Y-89600827D01*
X141669390Y-89600814D01*
X141581789Y-89469711D01*
X141581786Y-89469707D01*
X141470292Y-89358213D01*
X141470288Y-89358210D01*
X141339185Y-89270609D01*
X141339172Y-89270602D01*
X141193501Y-89210264D01*
X141193489Y-89210261D01*
X141038845Y-89179500D01*
X141038842Y-89179500D01*
X140881158Y-89179500D01*
X140881155Y-89179500D01*
X140726510Y-89210261D01*
X140726498Y-89210264D01*
X140580827Y-89270602D01*
X140580814Y-89270609D01*
X140449125Y-89358602D01*
X140382447Y-89379480D01*
X140380234Y-89379500D01*
X139380940Y-89379500D01*
X139340019Y-89390464D01*
X139340019Y-89390465D01*
X139302751Y-89400451D01*
X139228214Y-89420423D01*
X139228209Y-89420426D01*
X139091290Y-89499475D01*
X139091282Y-89499481D01*
X137469481Y-91121282D01*
X137469480Y-91121284D01*
X137429955Y-91189744D01*
X137390423Y-91258215D01*
X137349499Y-91410943D01*
X137349499Y-91410945D01*
X137349499Y-91579046D01*
X137349500Y-91579059D01*
X137349500Y-93513330D01*
X137349499Y-93513348D01*
X137349499Y-93679054D01*
X137349498Y-93679054D01*
X137390422Y-93831783D01*
X137410871Y-93867201D01*
X137410873Y-93867204D01*
X137469479Y-93968714D01*
X137469481Y-93968717D01*
X137588349Y-94087585D01*
X137588355Y-94087590D01*
X138195425Y-94694660D01*
X138228910Y-94755983D01*
X138229361Y-94758149D01*
X138260261Y-94913491D01*
X138260264Y-94913501D01*
X138320602Y-95059172D01*
X138320609Y-95059185D01*
X138408210Y-95190288D01*
X138408213Y-95190292D01*
X138519707Y-95301786D01*
X138519711Y-95301789D01*
X138650814Y-95389390D01*
X138650827Y-95389397D01*
X138796498Y-95449735D01*
X138796503Y-95449737D01*
X138951153Y-95480499D01*
X138951156Y-95480500D01*
X138951158Y-95480500D01*
X139108844Y-95480500D01*
X139108845Y-95480499D01*
X139263497Y-95449737D01*
X139409179Y-95389394D01*
X139540289Y-95301789D01*
X139608741Y-95233336D01*
X139670061Y-95199852D01*
X139739753Y-95204836D01*
X139784102Y-95233337D01*
X140020727Y-95469962D01*
X140054212Y-95531285D01*
X140049228Y-95600977D01*
X140038040Y-95623615D01*
X139958212Y-95750660D01*
X141018095Y-96810543D01*
X141051580Y-96871866D01*
X141046596Y-96941558D01*
X141018095Y-96985905D01*
X140839905Y-97164094D01*
X140778582Y-97197579D01*
X140708890Y-97192595D01*
X140664543Y-97164094D01*
X139879000Y-96378551D01*
X139879000Y-98075500D01*
X139859315Y-98142539D01*
X139806511Y-98188294D01*
X139755000Y-98199500D01*
X137136670Y-98199500D01*
X137136654Y-98199499D01*
X137129058Y-98199499D01*
X136970943Y-98199499D01*
X136894579Y-98219961D01*
X136818214Y-98240423D01*
X136818209Y-98240426D01*
X136681290Y-98319475D01*
X136681282Y-98319481D01*
X136014526Y-98986237D01*
X135953203Y-99019722D01*
X135900478Y-99019158D01*
X135900448Y-99019349D01*
X135899156Y-99019144D01*
X135897903Y-99019131D01*
X135895636Y-99018586D01*
X135726196Y-98991750D01*
X135699361Y-98987500D01*
X135500639Y-98987500D01*
X135435214Y-98997862D01*
X135304362Y-99018587D01*
X135115370Y-99079993D01*
X135115367Y-99079994D01*
X134938305Y-99170213D01*
X134777533Y-99287021D01*
X134637018Y-99427536D01*
X134579239Y-99507061D01*
X134566604Y-99521854D01*
X134470413Y-99618046D01*
X134470405Y-99618056D01*
X134386435Y-99760042D01*
X134386434Y-99760045D01*
X134340413Y-99918447D01*
X134340412Y-99918453D01*
X134337500Y-99955458D01*
X134337500Y-102214541D01*
X134340412Y-102251546D01*
X134357658Y-102310906D01*
X134357458Y-102380775D01*
X134319515Y-102439445D01*
X134255877Y-102468288D01*
X134238581Y-102469500D01*
X132904500Y-102469500D01*
X132837461Y-102449815D01*
X132791706Y-102397011D01*
X132780500Y-102345500D01*
X132780500Y-82914500D01*
X132800185Y-82847461D01*
X132852989Y-82801706D01*
X132904500Y-82790500D01*
X134238581Y-82790500D01*
X134305620Y-82810185D01*
G37*
%TD.AperFunction*%
%TA.AperFunction,Conductor*%
G36*
X168262539Y-82810185D02*
G01*
X168308294Y-82862989D01*
X168319500Y-82914500D01*
X168319500Y-102345500D01*
X168299815Y-102412539D01*
X168247011Y-102458294D01*
X168195500Y-102469500D01*
X161981228Y-102469500D01*
X161914189Y-102449815D01*
X161868434Y-102397011D01*
X161858490Y-102327853D01*
X161887515Y-102264297D01*
X161893547Y-102257819D01*
X161899820Y-102251546D01*
X161962711Y-102188655D01*
X162054814Y-102039334D01*
X162109999Y-101872797D01*
X162120500Y-101770008D01*
X162120500Y-100669992D01*
X162109999Y-100567203D01*
X162054814Y-100400666D01*
X161962711Y-100251345D01*
X161838655Y-100127289D01*
X161838651Y-100127286D01*
X161689337Y-100035187D01*
X161689335Y-100035186D01*
X161606065Y-100007593D01*
X161522797Y-99980001D01*
X161522795Y-99980000D01*
X161420015Y-99969500D01*
X161420008Y-99969500D01*
X158419992Y-99969500D01*
X158419984Y-99969500D01*
X158317204Y-99980000D01*
X158317203Y-99980001D01*
X158150664Y-100035186D01*
X158150662Y-100035187D01*
X158001348Y-100127286D01*
X158001344Y-100127289D01*
X157877289Y-100251344D01*
X157877286Y-100251348D01*
X157785187Y-100400662D01*
X157785186Y-100400664D01*
X157730001Y-100567203D01*
X157730000Y-100567204D01*
X157719500Y-100669984D01*
X157719500Y-101770015D01*
X157730000Y-101872795D01*
X157730001Y-101872796D01*
X157785186Y-102039335D01*
X157785187Y-102039337D01*
X157877286Y-102188651D01*
X157877289Y-102188655D01*
X157946453Y-102257819D01*
X157979938Y-102319142D01*
X157974954Y-102388834D01*
X157933082Y-102444767D01*
X157867618Y-102469184D01*
X157858772Y-102469500D01*
X152201419Y-102469500D01*
X152134380Y-102449815D01*
X152088625Y-102397011D01*
X152078681Y-102327853D01*
X152082342Y-102310906D01*
X152097765Y-102257819D01*
X152099587Y-102251548D01*
X152102500Y-102214534D01*
X152102500Y-99955466D01*
X152099587Y-99918452D01*
X152082461Y-99859506D01*
X152065701Y-99801816D01*
X152053564Y-99760041D01*
X151969592Y-99618053D01*
X151873390Y-99521851D01*
X151860758Y-99507060D01*
X151802984Y-99427539D01*
X151662466Y-99287021D01*
X151662464Y-99287019D01*
X151501694Y-99170213D01*
X151501248Y-99169986D01*
X163420001Y-99169986D01*
X163430494Y-99272697D01*
X163485641Y-99439119D01*
X163485643Y-99439124D01*
X163577684Y-99588345D01*
X163701654Y-99712315D01*
X163850875Y-99804356D01*
X163850880Y-99804358D01*
X164017302Y-99859505D01*
X164017309Y-99859506D01*
X164120019Y-99869999D01*
X165419999Y-99869999D01*
X165920000Y-99869999D01*
X167219972Y-99869999D01*
X167219986Y-99869998D01*
X167322697Y-99859505D01*
X167489119Y-99804358D01*
X167489124Y-99804356D01*
X167638345Y-99712315D01*
X167762315Y-99588345D01*
X167854356Y-99439124D01*
X167854358Y-99439119D01*
X167909505Y-99272697D01*
X167909506Y-99272690D01*
X167919999Y-99169986D01*
X167920000Y-99169973D01*
X167920000Y-99120000D01*
X165920000Y-99120000D01*
X165920000Y-99869999D01*
X165419999Y-99869999D01*
X165420000Y-99869998D01*
X165420000Y-99120000D01*
X163420001Y-99120000D01*
X163420001Y-99169986D01*
X151501248Y-99169986D01*
X151471313Y-99154733D01*
X151324632Y-99079994D01*
X151324629Y-99079993D01*
X151135637Y-99018587D01*
X151037498Y-99003043D01*
X150939361Y-98987500D01*
X150740639Y-98987500D01*
X150675214Y-98997862D01*
X150544362Y-99018587D01*
X150355370Y-99079993D01*
X150355367Y-99079994D01*
X150178305Y-99170213D01*
X150017533Y-99287021D01*
X149877018Y-99427536D01*
X149819239Y-99507061D01*
X149813960Y-99513821D01*
X149810446Y-99518013D01*
X149710408Y-99618053D01*
X149671564Y-99683733D01*
X149665038Y-99691521D01*
X149644076Y-99705485D01*
X149625662Y-99722679D01*
X149615492Y-99724528D01*
X149606891Y-99730259D01*
X149581703Y-99730674D01*
X149556921Y-99735182D01*
X149547366Y-99731240D01*
X149537031Y-99731411D01*
X149515616Y-99718142D01*
X149492331Y-99708536D01*
X149483308Y-99698123D01*
X149477638Y-99694610D01*
X149474426Y-99687873D01*
X149463268Y-99674996D01*
X149429592Y-99618053D01*
X149333390Y-99521851D01*
X149320758Y-99507060D01*
X149262984Y-99427539D01*
X149122466Y-99287021D01*
X149122464Y-99287019D01*
X148961694Y-99170213D01*
X148931313Y-99154733D01*
X148784632Y-99079994D01*
X148784629Y-99079993D01*
X148595637Y-99018587D01*
X148497498Y-99003043D01*
X148399361Y-98987500D01*
X148200639Y-98987500D01*
X148135214Y-98997862D01*
X148004362Y-99018587D01*
X147815370Y-99079993D01*
X147815367Y-99079994D01*
X147638305Y-99170213D01*
X147477533Y-99287021D01*
X147337018Y-99427536D01*
X147279239Y-99507061D01*
X147273960Y-99513821D01*
X147270446Y-99518013D01*
X147170408Y-99618053D01*
X147131564Y-99683733D01*
X147125038Y-99691521D01*
X147104076Y-99705485D01*
X147085662Y-99722679D01*
X147075492Y-99724528D01*
X147066891Y-99730259D01*
X147041703Y-99730674D01*
X147016921Y-99735182D01*
X147007366Y-99731240D01*
X146997031Y-99731411D01*
X146975616Y-99718142D01*
X146952331Y-99708536D01*
X146943308Y-99698123D01*
X146937638Y-99694610D01*
X146934426Y-99687873D01*
X146923268Y-99674996D01*
X146889592Y-99618053D01*
X146793390Y-99521851D01*
X146780758Y-99507060D01*
X146722984Y-99427539D01*
X146582463Y-99287018D01*
X146579329Y-99284741D01*
X146572353Y-99279673D01*
X146529689Y-99224346D01*
X146523708Y-99154733D01*
X146556313Y-99092937D01*
X146557484Y-99091749D01*
X151679250Y-93969984D01*
X157719500Y-93969984D01*
X157719500Y-95070015D01*
X157730000Y-95172795D01*
X157730001Y-95172797D01*
X157738966Y-95199852D01*
X157785186Y-95339335D01*
X157785187Y-95339337D01*
X157877286Y-95488651D01*
X157877289Y-95488655D01*
X158001344Y-95612710D01*
X158001348Y-95612713D01*
X158150662Y-95704812D01*
X158150664Y-95704813D01*
X158150666Y-95704814D01*
X158317203Y-95759999D01*
X158419992Y-95770500D01*
X158419997Y-95770500D01*
X161420003Y-95770500D01*
X161420008Y-95770500D01*
X161522797Y-95759999D01*
X161689334Y-95704814D01*
X161838655Y-95612711D01*
X161962711Y-95488655D01*
X162054814Y-95339334D01*
X162109999Y-95172797D01*
X162120500Y-95070008D01*
X162120500Y-94469097D01*
X162140185Y-94402058D01*
X162192989Y-94356303D01*
X162262147Y-94346359D01*
X162325703Y-94375384D01*
X162332181Y-94381416D01*
X163761598Y-95810833D01*
X163795083Y-95872156D01*
X163790099Y-95941848D01*
X163748227Y-95997781D01*
X163739015Y-96004052D01*
X163701344Y-96027287D01*
X163577289Y-96151342D01*
X163485187Y-96300663D01*
X163485185Y-96300668D01*
X163459377Y-96378551D01*
X163430001Y-96467203D01*
X163430001Y-96467204D01*
X163430000Y-96467204D01*
X163419500Y-96569983D01*
X163419500Y-97170001D01*
X163419501Y-97170019D01*
X163430000Y-97272796D01*
X163430001Y-97272799D01*
X163485185Y-97439331D01*
X163485187Y-97439336D01*
X163577289Y-97588657D01*
X163701344Y-97712712D01*
X163785718Y-97764754D01*
X163832443Y-97816702D01*
X163843666Y-97885664D01*
X163815822Y-97949747D01*
X163785720Y-97975831D01*
X163701656Y-98027682D01*
X163577684Y-98151654D01*
X163485643Y-98300875D01*
X163485641Y-98300880D01*
X163430494Y-98467302D01*
X163430493Y-98467309D01*
X163420000Y-98570013D01*
X163420000Y-98620000D01*
X167919999Y-98620000D01*
X167919999Y-98570028D01*
X167919998Y-98570013D01*
X167909505Y-98467302D01*
X167854358Y-98300880D01*
X167854356Y-98300875D01*
X167762315Y-98151654D01*
X167638344Y-98027683D01*
X167638340Y-98027680D01*
X167554280Y-97975831D01*
X167507555Y-97923883D01*
X167496334Y-97854921D01*
X167524177Y-97790839D01*
X167554278Y-97764756D01*
X167638656Y-97712712D01*
X167762712Y-97588656D01*
X167854814Y-97439334D01*
X167909999Y-97272797D01*
X167920500Y-97170009D01*
X167920499Y-96569992D01*
X167909999Y-96467203D01*
X167854814Y-96300666D01*
X167762712Y-96151344D01*
X167638656Y-96027288D01*
X167489334Y-95935186D01*
X167322797Y-95880001D01*
X167322795Y-95880000D01*
X167220016Y-95869500D01*
X167220009Y-95869500D01*
X165570098Y-95869500D01*
X165503059Y-95849815D01*
X165482417Y-95833181D01*
X161386819Y-91737583D01*
X161353334Y-91676260D01*
X161350500Y-91649902D01*
X161350500Y-89342135D01*
X161787750Y-89342135D01*
X161787750Y-90637870D01*
X161787751Y-90637876D01*
X161794158Y-90697483D01*
X161844452Y-90832328D01*
X161844456Y-90832335D01*
X161930702Y-90947544D01*
X161930705Y-90947547D01*
X162045914Y-91033793D01*
X162045921Y-91033797D01*
X162180767Y-91084091D01*
X162180766Y-91084091D01*
X162187694Y-91084835D01*
X162240377Y-91090500D01*
X164836122Y-91090499D01*
X164895733Y-91084091D01*
X165030581Y-91033796D01*
X165123923Y-90963920D01*
X165537749Y-90963920D01*
X165566590Y-91108907D01*
X165566593Y-91108917D01*
X165623162Y-91245488D01*
X165623169Y-91245501D01*
X165705298Y-91368415D01*
X165705301Y-91368419D01*
X165809830Y-91472948D01*
X165809834Y-91472951D01*
X165932748Y-91555080D01*
X165932761Y-91555087D01*
X166069332Y-91611656D01*
X166069337Y-91611658D01*
X166069341Y-91611658D01*
X166069342Y-91611659D01*
X166214329Y-91640500D01*
X166214332Y-91640500D01*
X166362170Y-91640500D01*
X166459712Y-91621096D01*
X166507163Y-91611658D01*
X166643745Y-91555084D01*
X166766666Y-91472951D01*
X166871201Y-91368416D01*
X166953334Y-91245495D01*
X167009908Y-91108913D01*
X167029687Y-91009480D01*
X167038750Y-90963920D01*
X167038750Y-90816079D01*
X167009909Y-90671092D01*
X167009908Y-90671091D01*
X167009908Y-90671087D01*
X167009906Y-90671082D01*
X166953337Y-90534511D01*
X166953330Y-90534498D01*
X166871201Y-90411584D01*
X166871198Y-90411580D01*
X166766669Y-90307051D01*
X166766665Y-90307048D01*
X166643751Y-90224919D01*
X166643738Y-90224912D01*
X166507167Y-90168343D01*
X166507157Y-90168340D01*
X166362170Y-90139500D01*
X166362168Y-90139500D01*
X166214332Y-90139500D01*
X166214330Y-90139500D01*
X166069342Y-90168340D01*
X166069332Y-90168343D01*
X165932761Y-90224912D01*
X165932748Y-90224919D01*
X165809834Y-90307048D01*
X165809830Y-90307051D01*
X165705301Y-90411580D01*
X165705298Y-90411584D01*
X165623169Y-90534498D01*
X165623162Y-90534511D01*
X165566593Y-90671082D01*
X165566590Y-90671092D01*
X165537750Y-90816079D01*
X165537750Y-90816082D01*
X165537750Y-90963918D01*
X165537750Y-90963920D01*
X165537749Y-90963920D01*
X165123923Y-90963920D01*
X165145796Y-90947546D01*
X165232046Y-90832331D01*
X165282341Y-90697483D01*
X165288750Y-90637873D01*
X165288749Y-89342128D01*
X165282341Y-89282517D01*
X165277898Y-89270606D01*
X165232047Y-89147671D01*
X165232043Y-89147664D01*
X165145797Y-89032455D01*
X165145794Y-89032452D01*
X165030585Y-88946206D01*
X165030578Y-88946202D01*
X164895732Y-88895908D01*
X164895733Y-88895908D01*
X164836133Y-88889501D01*
X164836131Y-88889500D01*
X164836123Y-88889500D01*
X164836114Y-88889500D01*
X162240379Y-88889500D01*
X162240373Y-88889501D01*
X162180766Y-88895908D01*
X162045921Y-88946202D01*
X162045914Y-88946206D01*
X161930705Y-89032452D01*
X161930702Y-89032455D01*
X161844456Y-89147664D01*
X161844452Y-89147671D01*
X161794158Y-89282517D01*
X161790430Y-89317196D01*
X161787751Y-89342123D01*
X161787750Y-89342135D01*
X161350500Y-89342135D01*
X161350500Y-89060097D01*
X161370185Y-88993058D01*
X161386819Y-88972416D01*
X161772416Y-88586819D01*
X161833739Y-88553334D01*
X161860097Y-88550500D01*
X162068333Y-88550500D01*
X162111666Y-88558318D01*
X162180767Y-88584091D01*
X162180766Y-88584091D01*
X162187694Y-88584835D01*
X162240377Y-88590500D01*
X164836122Y-88590499D01*
X164895733Y-88584091D01*
X165030581Y-88533796D01*
X165145796Y-88447546D01*
X165232046Y-88332331D01*
X165282341Y-88197483D01*
X165288750Y-88137873D01*
X165288749Y-86842128D01*
X165282341Y-86782517D01*
X165277167Y-86768646D01*
X165232047Y-86647671D01*
X165232043Y-86647664D01*
X165145797Y-86532455D01*
X165145794Y-86532452D01*
X165030585Y-86446206D01*
X165030578Y-86446202D01*
X164895732Y-86395908D01*
X164895733Y-86395908D01*
X164836133Y-86389501D01*
X164836131Y-86389500D01*
X164836123Y-86389500D01*
X164836114Y-86389500D01*
X162240379Y-86389500D01*
X162240373Y-86389501D01*
X162180766Y-86395908D01*
X162045921Y-86446202D01*
X162045914Y-86446206D01*
X161930705Y-86532452D01*
X161930702Y-86532455D01*
X161844456Y-86647664D01*
X161844452Y-86647671D01*
X161794158Y-86782517D01*
X161790274Y-86818647D01*
X161787751Y-86842123D01*
X161787750Y-86842135D01*
X161787750Y-87216364D01*
X161768065Y-87283403D01*
X161715261Y-87329158D01*
X161657184Y-87337863D01*
X161657184Y-87339500D01*
X161490943Y-87339500D01*
X161338213Y-87380423D01*
X161201284Y-87459481D01*
X161201281Y-87459483D01*
X160381286Y-88279478D01*
X160269481Y-88391282D01*
X160269479Y-88391285D01*
X160219361Y-88478094D01*
X160219359Y-88478096D01*
X160190425Y-88528209D01*
X160190424Y-88528210D01*
X160183692Y-88553334D01*
X160149499Y-88680943D01*
X160149499Y-88680945D01*
X160149499Y-88849046D01*
X160149500Y-88849059D01*
X160149500Y-92109056D01*
X160190423Y-92261783D01*
X160190426Y-92261790D01*
X160269475Y-92398709D01*
X160269479Y-92398714D01*
X160269480Y-92398716D01*
X160381284Y-92510520D01*
X160381286Y-92510521D01*
X160381290Y-92510524D01*
X160518213Y-92589576D01*
X160525728Y-92592689D01*
X160525124Y-92594146D01*
X160571935Y-92621170D01*
X161008584Y-93057819D01*
X161042069Y-93119142D01*
X161037085Y-93188834D01*
X160995213Y-93244767D01*
X160929749Y-93269184D01*
X160920903Y-93269500D01*
X158419984Y-93269500D01*
X158317204Y-93280000D01*
X158317203Y-93280001D01*
X158150664Y-93335186D01*
X158150662Y-93335187D01*
X158001348Y-93427286D01*
X158001344Y-93427289D01*
X157877289Y-93551344D01*
X157877286Y-93551348D01*
X157785187Y-93700662D01*
X157785186Y-93700664D01*
X157730001Y-93867203D01*
X157730000Y-93867204D01*
X157719500Y-93969984D01*
X151679250Y-93969984D01*
X156032416Y-89616819D01*
X156059343Y-89602115D01*
X156085162Y-89585523D01*
X156091362Y-89584631D01*
X156093739Y-89583334D01*
X156120097Y-89580500D01*
X156133480Y-89580500D01*
X156200519Y-89600185D01*
X156221161Y-89616819D01*
X156339811Y-89735469D01*
X156339813Y-89735470D01*
X156339815Y-89735472D01*
X156485394Y-89823478D01*
X156647804Y-89874086D01*
X156718384Y-89880500D01*
X156718387Y-89880500D01*
X157381613Y-89880500D01*
X157381616Y-89880500D01*
X157452196Y-89874086D01*
X157614606Y-89823478D01*
X157732581Y-89752159D01*
X157800133Y-89734323D01*
X157860876Y-89752159D01*
X157995394Y-89833478D01*
X158157804Y-89884086D01*
X158228384Y-89890500D01*
X158228387Y-89890500D01*
X158891613Y-89890500D01*
X158891616Y-89890500D01*
X158962196Y-89884086D01*
X159124606Y-89833478D01*
X159270185Y-89745472D01*
X159390472Y-89625185D01*
X159478478Y-89479606D01*
X159529086Y-89317196D01*
X159535500Y-89246616D01*
X159535500Y-88733384D01*
X159529086Y-88662804D01*
X159478478Y-88500394D01*
X159390472Y-88354815D01*
X159390470Y-88354813D01*
X159390469Y-88354811D01*
X159287984Y-88252326D01*
X159254499Y-88191003D01*
X159259483Y-88121311D01*
X159287985Y-88076963D01*
X159390071Y-87974878D01*
X159390072Y-87974877D01*
X159478019Y-87829395D01*
X159528590Y-87667106D01*
X159535000Y-87596572D01*
X159535000Y-87590000D01*
X158684000Y-87590000D01*
X158616961Y-87570315D01*
X158571206Y-87517511D01*
X158560000Y-87466000D01*
X158560000Y-87214000D01*
X158579685Y-87146961D01*
X158632489Y-87101206D01*
X158684000Y-87090000D01*
X159534999Y-87090000D01*
X159534999Y-87083417D01*
X159528591Y-87012897D01*
X159528590Y-87012892D01*
X159478018Y-86850603D01*
X159428474Y-86768646D01*
X159425093Y-86755840D01*
X159417410Y-86745051D01*
X159416346Y-86722711D01*
X159410638Y-86701091D01*
X159414642Y-86686927D01*
X159414087Y-86675260D01*
X159427203Y-86642497D01*
X159451821Y-86599860D01*
X159461845Y-86582498D01*
X159512413Y-86534283D01*
X159569231Y-86520500D01*
X161113331Y-86520500D01*
X161113347Y-86520501D01*
X161120943Y-86520501D01*
X161279054Y-86520501D01*
X161279057Y-86520501D01*
X161431785Y-86479577D01*
X161507411Y-86435914D01*
X161568716Y-86400520D01*
X161680520Y-86288716D01*
X161680520Y-86288714D01*
X161690724Y-86278511D01*
X161690727Y-86278506D01*
X161909104Y-86060129D01*
X161970424Y-86026647D01*
X162040115Y-86031631D01*
X162045918Y-86033795D01*
X162045919Y-86033796D01*
X162180767Y-86084091D01*
X162180766Y-86084091D01*
X162187694Y-86084835D01*
X162240377Y-86090500D01*
X164836122Y-86090499D01*
X164895733Y-86084091D01*
X165030581Y-86033796D01*
X165145796Y-85947546D01*
X165232046Y-85832331D01*
X165282341Y-85697483D01*
X165288750Y-85637873D01*
X165288749Y-84342128D01*
X165282341Y-84282517D01*
X165238107Y-84163920D01*
X165537749Y-84163920D01*
X165566590Y-84308907D01*
X165566593Y-84308917D01*
X165623162Y-84445488D01*
X165623169Y-84445501D01*
X165705298Y-84568415D01*
X165705301Y-84568419D01*
X165809830Y-84672948D01*
X165809834Y-84672951D01*
X165932748Y-84755080D01*
X165932761Y-84755087D01*
X166069332Y-84811656D01*
X166069337Y-84811658D01*
X166069341Y-84811658D01*
X166069342Y-84811659D01*
X166214329Y-84840500D01*
X166214332Y-84840500D01*
X166362170Y-84840500D01*
X166459712Y-84821096D01*
X166507163Y-84811658D01*
X166643745Y-84755084D01*
X166766666Y-84672951D01*
X166871201Y-84568416D01*
X166953334Y-84445495D01*
X167009908Y-84308913D01*
X167038750Y-84163918D01*
X167038750Y-84016082D01*
X167038750Y-84016079D01*
X167009909Y-83871092D01*
X167009908Y-83871091D01*
X167009908Y-83871087D01*
X167009906Y-83871082D01*
X166953337Y-83734511D01*
X166953330Y-83734498D01*
X166871201Y-83611584D01*
X166871198Y-83611580D01*
X166766669Y-83507051D01*
X166766665Y-83507048D01*
X166643751Y-83424919D01*
X166643738Y-83424912D01*
X166507167Y-83368343D01*
X166507157Y-83368340D01*
X166362170Y-83339500D01*
X166362168Y-83339500D01*
X166214332Y-83339500D01*
X166214330Y-83339500D01*
X166069342Y-83368340D01*
X166069332Y-83368343D01*
X165932761Y-83424912D01*
X165932748Y-83424919D01*
X165809834Y-83507048D01*
X165809830Y-83507051D01*
X165705301Y-83611580D01*
X165705298Y-83611584D01*
X165623169Y-83734498D01*
X165623162Y-83734511D01*
X165566593Y-83871082D01*
X165566590Y-83871092D01*
X165537750Y-84016079D01*
X165537750Y-84016082D01*
X165537750Y-84163918D01*
X165537750Y-84163920D01*
X165537749Y-84163920D01*
X165238107Y-84163920D01*
X165238106Y-84163918D01*
X165232047Y-84147671D01*
X165232045Y-84147668D01*
X165232042Y-84147664D01*
X165145796Y-84032454D01*
X165122959Y-84015358D01*
X165030585Y-83946206D01*
X165030578Y-83946202D01*
X164895732Y-83895908D01*
X164895733Y-83895908D01*
X164836133Y-83889501D01*
X164836131Y-83889500D01*
X164836123Y-83889500D01*
X164836114Y-83889500D01*
X162240379Y-83889500D01*
X162240373Y-83889501D01*
X162180766Y-83895908D01*
X162045921Y-83946202D01*
X162045914Y-83946206D01*
X161930705Y-84032452D01*
X161930702Y-84032455D01*
X161844456Y-84147664D01*
X161844452Y-84147671D01*
X161794158Y-84282517D01*
X161787751Y-84342116D01*
X161787751Y-84342123D01*
X161787750Y-84342135D01*
X161787750Y-84431651D01*
X161768065Y-84498690D01*
X161751431Y-84519332D01*
X160987584Y-85283181D01*
X160926261Y-85316666D01*
X160899903Y-85319500D01*
X159471875Y-85319500D01*
X159442434Y-85310855D01*
X159412448Y-85304332D01*
X159407432Y-85300577D01*
X159404836Y-85299815D01*
X159384194Y-85283181D01*
X159373340Y-85272327D01*
X159339855Y-85211004D01*
X159344839Y-85141312D01*
X159373343Y-85096962D01*
X159382572Y-85087732D01*
X159382573Y-85087731D01*
X159471542Y-84943492D01*
X159471547Y-84943481D01*
X159524855Y-84782606D01*
X159534999Y-84683322D01*
X159535000Y-84683309D01*
X159535000Y-84660000D01*
X156085001Y-84660000D01*
X156085001Y-84683322D01*
X156095144Y-84782607D01*
X156148452Y-84943481D01*
X156148457Y-84943492D01*
X156237424Y-85087728D01*
X156237427Y-85087732D01*
X156246660Y-85096965D01*
X156280145Y-85158288D01*
X156275161Y-85227980D01*
X156246663Y-85272324D01*
X156237033Y-85281953D01*
X156237029Y-85281959D01*
X156148001Y-85426294D01*
X156147996Y-85426305D01*
X156094651Y-85587290D01*
X156084500Y-85686647D01*
X156084500Y-86233337D01*
X156084501Y-86233355D01*
X156094650Y-86332707D01*
X156094651Y-86332710D01*
X156147996Y-86493694D01*
X156147998Y-86493699D01*
X156205772Y-86587364D01*
X156209191Y-86599860D01*
X156216848Y-86610308D01*
X156218234Y-86632910D01*
X156224212Y-86654756D01*
X156220431Y-86668728D01*
X156221126Y-86680046D01*
X156209758Y-86708177D01*
X156208457Y-86712988D01*
X156207406Y-86714866D01*
X156131522Y-86840394D01*
X156124375Y-86863326D01*
X156118060Y-86874619D01*
X156107937Y-86884538D01*
X156097519Y-86901772D01*
X156038010Y-86961283D01*
X156038009Y-86961282D01*
X156038007Y-86961286D01*
X149612181Y-93387112D01*
X149550858Y-93420597D01*
X149481166Y-93415613D01*
X149425233Y-93373741D01*
X149400816Y-93308277D01*
X149400500Y-93299431D01*
X149400500Y-85721907D01*
X149405194Y-85705351D01*
X149404894Y-85689191D01*
X149416184Y-85666593D01*
X149418956Y-85656820D01*
X149425772Y-85645766D01*
X149429592Y-85641947D01*
X149463843Y-85584030D01*
X149464456Y-85583038D01*
X149489612Y-85560406D01*
X149514337Y-85537321D01*
X149515510Y-85537107D01*
X149516399Y-85536308D01*
X149549827Y-85530865D01*
X149583079Y-85524817D01*
X149584181Y-85525271D01*
X149585361Y-85525080D01*
X149616384Y-85538556D01*
X149647668Y-85551462D01*
X149648618Y-85552558D01*
X149649445Y-85552918D01*
X149651194Y-85555531D01*
X149676732Y-85585004D01*
X149710405Y-85641943D01*
X149710408Y-85641947D01*
X149806608Y-85738147D01*
X149819240Y-85752938D01*
X149877019Y-85832464D01*
X150017536Y-85972981D01*
X150178306Y-86089787D01*
X150265149Y-86134035D01*
X150355367Y-86180005D01*
X150355370Y-86180006D01*
X150449866Y-86210709D01*
X150544364Y-86241413D01*
X150740639Y-86272500D01*
X150740640Y-86272500D01*
X150939360Y-86272500D01*
X150939361Y-86272500D01*
X151135636Y-86241413D01*
X151324632Y-86180005D01*
X151501694Y-86089787D01*
X151662464Y-85972981D01*
X151802981Y-85832464D01*
X151860760Y-85752936D01*
X151873389Y-85738148D01*
X151969592Y-85641947D01*
X152053564Y-85499959D01*
X152099587Y-85341548D01*
X152102500Y-85304534D01*
X152102500Y-84136677D01*
X156085000Y-84136677D01*
X156085000Y-84160000D01*
X156810000Y-84160000D01*
X156810000Y-83460000D01*
X157310000Y-83460000D01*
X157310000Y-84160000D01*
X158310000Y-84160000D01*
X158810000Y-84160000D01*
X159534999Y-84160000D01*
X159534999Y-84136692D01*
X159534998Y-84136677D01*
X159524855Y-84037392D01*
X159471547Y-83876518D01*
X159471542Y-83876507D01*
X159382575Y-83732271D01*
X159382572Y-83732267D01*
X159262732Y-83612427D01*
X159262728Y-83612424D01*
X159118492Y-83523457D01*
X159118481Y-83523452D01*
X158957606Y-83470144D01*
X158858322Y-83460000D01*
X158810000Y-83460000D01*
X158810000Y-84160000D01*
X158310000Y-84160000D01*
X158310000Y-83460000D01*
X158309999Y-83459999D01*
X158261693Y-83460000D01*
X158261675Y-83460001D01*
X158162392Y-83470144D01*
X158001518Y-83523452D01*
X158001507Y-83523457D01*
X157875097Y-83601429D01*
X157807705Y-83619870D01*
X157744903Y-83601429D01*
X157618492Y-83523457D01*
X157618481Y-83523452D01*
X157457606Y-83470144D01*
X157358322Y-83460000D01*
X157310000Y-83460000D01*
X156810000Y-83460000D01*
X156809999Y-83459999D01*
X156761693Y-83460000D01*
X156761675Y-83460001D01*
X156662392Y-83470144D01*
X156501518Y-83523452D01*
X156501507Y-83523457D01*
X156357271Y-83612424D01*
X156357267Y-83612427D01*
X156237427Y-83732267D01*
X156237424Y-83732271D01*
X156148457Y-83876507D01*
X156148452Y-83876518D01*
X156095144Y-84037393D01*
X156085000Y-84136677D01*
X152102500Y-84136677D01*
X152102500Y-83045466D01*
X152099587Y-83008452D01*
X152082342Y-82949094D01*
X152082542Y-82879225D01*
X152120485Y-82820555D01*
X152184123Y-82791712D01*
X152201419Y-82790500D01*
X168195500Y-82790500D01*
X168262539Y-82810185D01*
G37*
%TD.AperFunction*%
%TD*%
M02*
