%TF.GenerationSoftware,KiCad,Pcbnew,9.0.8*%
%TF.CreationDate,2026-03-22T19:52:23-05:00*%
%TF.ProjectId,ESP32_BNO086,45535033-325f-4424-9e4f-3038362e6b69,rev?*%
%TF.SameCoordinates,Original*%
%TF.FileFunction,Copper,L2,Bot*%
%TF.FilePolarity,Positive*%
%FSLAX46Y46*%
G04 Gerber Fmt 4.6, Leading zero omitted, Abs format (unit mm)*
G04 Created by KiCad (PCBNEW 9.0.8) date 2026-03-22 19:52:23*
%MOMM*%
%LPD*%
G01*
G04 APERTURE LIST*
G04 Aperture macros list*
%AMRoundRect*
0 Rectangle with rounded corners*
0 $1 Rounding radius*
0 $2 $3 $4 $5 $6 $7 $8 $9 X,Y pos of 4 corners*
0 Add a 4 corners polygon primitive as box body*
4,1,4,$2,$3,$4,$5,$6,$7,$8,$9,$2,$3,0*
0 Add four circle primitives for the rounded corners*
1,1,$1+$1,$2,$3*
1,1,$1+$1,$4,$5*
1,1,$1+$1,$6,$7*
1,1,$1+$1,$8,$9*
0 Add four rect primitives between the rounded corners*
20,1,$1+$1,$2,$3,$4,$5,0*
20,1,$1+$1,$4,$5,$6,$7,0*
20,1,$1+$1,$6,$7,$8,$9,0*
20,1,$1+$1,$8,$9,$2,$3,0*%
G04 Aperture macros list end*
%TA.AperFunction,ComponentPad*%
%ADD10C,1.524000*%
%TD*%
%TA.AperFunction,SMDPad,CuDef*%
%ADD11RoundRect,0.140000X-0.170000X0.140000X-0.170000X-0.140000X0.170000X-0.140000X0.170000X0.140000X0*%
%TD*%
%TA.AperFunction,SMDPad,CuDef*%
%ADD12RoundRect,0.140000X0.140000X0.170000X-0.140000X0.170000X-0.140000X-0.170000X0.140000X-0.170000X0*%
%TD*%
%TA.AperFunction,SMDPad,CuDef*%
%ADD13RoundRect,0.135000X-0.135000X-0.185000X0.135000X-0.185000X0.135000X0.185000X-0.135000X0.185000X0*%
%TD*%
%TA.AperFunction,SMDPad,CuDef*%
%ADD14RoundRect,0.250000X0.475000X0.250000X-0.475000X0.250000X-0.475000X-0.250000X0.475000X-0.250000X0*%
%TD*%
%TA.AperFunction,SMDPad,CuDef*%
%ADD15RoundRect,0.147500X-0.172500X0.147500X-0.172500X-0.147500X0.172500X-0.147500X0.172500X0.147500X0*%
%TD*%
%TA.AperFunction,SMDPad,CuDef*%
%ADD16R,0.254000X0.675000*%
%TD*%
%TA.AperFunction,SMDPad,CuDef*%
%ADD17R,0.675000X0.254000*%
%TD*%
%TA.AperFunction,SMDPad,CuDef*%
%ADD18RoundRect,0.135000X-0.185000X0.135000X-0.185000X-0.135000X0.185000X-0.135000X0.185000X0.135000X0*%
%TD*%
%TA.AperFunction,SMDPad,CuDef*%
%ADD19R,1.700000X2.250000*%
%TD*%
%TA.AperFunction,ViaPad*%
%ADD20C,0.600000*%
%TD*%
%TA.AperFunction,ViaPad*%
%ADD21C,4.500000*%
%TD*%
%TA.AperFunction,Conductor*%
%ADD22C,0.200000*%
%TD*%
G04 APERTURE END LIST*
D10*
%TO.P,U1,1,GPIO2_A0_D0*%
%TO.N,Net-(U1-GPIO2_A0_D0)*%
X135600000Y-100250000D03*
%TO.P,U1,2,GPIO3_A1_D1*%
%TO.N,Net-(U1-GPIO3_A1_D1)*%
X138140000Y-100250000D03*
%TO.P,U1,3,GPIO4_A2_D2*%
%TO.N,Net-(IC1-PS0{slash}WAKE)*%
X140680000Y-100250000D03*
%TO.P,U1,4,GPIO5_A3_D3*%
%TO.N,Net-(IC1-H_CSN)*%
X143220000Y-100250000D03*
%TO.P,U1,5,GPIO6_D4_SDA*%
%TO.N,Net-(IC1-H_INTN)*%
X145760000Y-100250000D03*
%TO.P,U1,6,GPIO7_D5_SCL*%
%TO.N,Net-(U1-GPIO7_D5_SCL)*%
X148300000Y-100250000D03*
%TO.P,U1,7,GPIO21_D6_TX*%
%TO.N,Net-(U1-GPIO21_D6_TX)*%
X150840000Y-100250000D03*
%TO.P,U1,8,GPIO20_D7_RX*%
%TO.N,Net-(IC1-NRST)*%
X150840000Y-85010000D03*
%TO.P,U1,9,GPIO8_D8_SCK*%
%TO.N,Net-(IC1-H_SCL{slash}SCK{slash}RX)*%
X148300000Y-85010000D03*
%TO.P,U1,10,GPIO9_D9_MISO*%
%TO.N,Net-(IC1-H_SDA{slash}H_MISO{slash}TX)*%
X145760000Y-85010000D03*
%TO.P,U1,11,GPIO10_D10_MOSI*%
%TO.N,Net-(IC1-SA0{slash}H_MOSI)*%
X143220000Y-85010000D03*
%TO.P,U1,12,3V3*%
%TO.N,Net-(IC1-PS1)*%
X140680000Y-85010000D03*
%TO.P,U1,13,GND*%
%TO.N,GND*%
X138140000Y-85010000D03*
%TO.P,U1,14,VBUS*%
%TO.N,unconnected-(U1-VBUS-Pad14)*%
X135600000Y-85010000D03*
%TD*%
D11*
%TO.P,C5,1*%
%TO.N,GND*%
X142470000Y-88990000D03*
%TO.P,C5,2*%
%TO.N,Net-(IC1-CAP)*%
X142470000Y-89950000D03*
%TD*%
D12*
%TO.P,C4,1*%
%TO.N,Net-(IC1-PS1)*%
X138730000Y-88840000D03*
%TO.P,C4,2*%
%TO.N,GND*%
X137770000Y-88840000D03*
%TD*%
D13*
%TO.P,R4,1*%
%TO.N,Net-(IC1-PS1)*%
X138740000Y-92370000D03*
%TO.P,R4,2*%
%TO.N,Net-(IC1-BOOTN)*%
X139760000Y-92370000D03*
%TD*%
D14*
%TO.P,FUNC1,1,1*%
%TO.N,GND*%
X164950000Y-86500000D03*
X159800000Y-86500000D03*
%TO.P,FUNC1,2,2*%
%TO.N,Net-(U1-GPIO7_D5_SCL)*%
X164950000Y-88200000D03*
X159800000Y-88200000D03*
%TD*%
D12*
%TO.P,C3,1*%
%TO.N,Net-(IC1-PS1)*%
X138730000Y-87880000D03*
%TO.P,C3,2*%
%TO.N,GND*%
X137770000Y-87880000D03*
%TD*%
D15*
%TO.P,LED1,1,K*%
%TO.N,GND*%
X135940000Y-92125000D03*
%TO.P,LED1,2,A*%
%TO.N,Net-(LED1-A)*%
X135940000Y-93095000D03*
%TD*%
D16*
%TO.P,IC1,1,RESV_NC_1*%
%TO.N,unconnected-(IC1-RESV_NC_1-Pad1)*%
X140970000Y-94285000D03*
D17*
%TO.P,IC1,2,GND_1*%
%TO.N,GND*%
X140832500Y-93372500D03*
%TO.P,IC1,3,VDD*%
%TO.N,Net-(IC1-PS1)*%
X140832500Y-92872500D03*
%TO.P,IC1,4,BOOTN*%
%TO.N,Net-(IC1-BOOTN)*%
X140832500Y-92372500D03*
%TO.P,IC1,5,PS1*%
%TO.N,Net-(IC1-PS1)*%
X140832500Y-91872500D03*
D16*
%TO.P,IC1,6,PS0/WAKE*%
%TO.N,Net-(IC1-PS0{slash}WAKE)*%
X140970000Y-90960000D03*
%TO.P,IC1,7,RESV_NC_2*%
%TO.N,unconnected-(IC1-RESV_NC_2-Pad7)*%
X141470000Y-90960000D03*
%TO.P,IC1,8,RESV_NC_3*%
%TO.N,unconnected-(IC1-RESV_NC_3-Pad8)*%
X141970000Y-90960000D03*
%TO.P,IC1,9,CAP*%
%TO.N,Net-(IC1-CAP)*%
X142470000Y-90960000D03*
%TO.P,IC1,10,CLKSEL0*%
%TO.N,unconnected-(IC1-CLKSEL0-Pad10)*%
X142970000Y-90960000D03*
%TO.P,IC1,11,NRST*%
%TO.N,Net-(IC1-NRST)*%
X143470000Y-90960000D03*
%TO.P,IC1,12,RESV_NC_4*%
%TO.N,unconnected-(IC1-RESV_NC_4-Pad12)*%
X143970000Y-90960000D03*
%TO.P,IC1,13,RESV_NC_5*%
%TO.N,unconnected-(IC1-RESV_NC_5-Pad13)*%
X144470000Y-90960000D03*
%TO.P,IC1,14,H_INTN*%
%TO.N,Net-(IC1-H_INTN)*%
X144970000Y-90960000D03*
%TO.P,IC1,15,ENV_SCL*%
%TO.N,unconnected-(IC1-ENV_SCL-Pad15)*%
X145470000Y-90960000D03*
D17*
%TO.P,IC1,16,ENV_SDA*%
%TO.N,unconnected-(IC1-ENV_SDA-Pad16)*%
X145607500Y-91872500D03*
%TO.P,IC1,17,SA0/H_MOSI*%
%TO.N,Net-(IC1-SA0{slash}H_MOSI)*%
X145607500Y-92372500D03*
%TO.P,IC1,18,H_CSN*%
%TO.N,Net-(IC1-H_CSN)*%
X145607500Y-92872500D03*
%TO.P,IC1,19,H_SCL/SCK/RX*%
%TO.N,Net-(IC1-H_SCL{slash}SCK{slash}RX)*%
X145607500Y-93372500D03*
D16*
%TO.P,IC1,20,H_SDA/H_MISO/TX*%
%TO.N,Net-(IC1-H_SDA{slash}H_MISO{slash}TX)*%
X145470000Y-94285000D03*
%TO.P,IC1,21,RESV_NC_6*%
%TO.N,unconnected-(IC1-RESV_NC_6-Pad21)*%
X144970000Y-94285000D03*
%TO.P,IC1,22,RESV_NC_7*%
%TO.N,unconnected-(IC1-RESV_NC_7-Pad22)*%
X144470000Y-94285000D03*
%TO.P,IC1,23,RESV_NC_8*%
%TO.N,unconnected-(IC1-RESV_NC_8-Pad23)*%
X143970000Y-94285000D03*
%TO.P,IC1,24,RESV_NC_9*%
%TO.N,unconnected-(IC1-RESV_NC_9-Pad24)*%
X143470000Y-94285000D03*
%TO.P,IC1,25,GND_2*%
%TO.N,GND*%
X142970000Y-94285000D03*
%TO.P,IC1,26,XOUT32/CLKSEL1*%
%TO.N,unconnected-(IC1-XOUT32{slash}CLKSEL1-Pad26)*%
X142470000Y-94285000D03*
%TO.P,IC1,27,XIN32*%
%TO.N,unconnected-(IC1-XIN32-Pad27)*%
X141970000Y-94285000D03*
%TO.P,IC1,28,VDDIO*%
%TO.N,Net-(IC1-PS1)*%
X141470000Y-94285000D03*
%TD*%
D18*
%TO.P,R3,1*%
%TO.N,Net-(LED1-A)*%
X138130000Y-96250000D03*
%TO.P,R3,2*%
%TO.N,Net-(U1-GPIO3_A1_D1)*%
X138130000Y-97270000D03*
%TD*%
D19*
%TO.P,LS1,LOAD+*%
%TO.N,Net-(U1-GPIO21_D6_TX)*%
X160670000Y-98810000D03*
%TO.P,LS1,LOAD-*%
%TO.N,GND*%
X160670000Y-94560000D03*
%TO.P,LS1,S1*%
%TO.N,N/C*%
X164170000Y-98810000D03*
%TD*%
D20*
%TO.N,Net-(IC1-PS0{slash}WAKE)*%
X140960000Y-89980000D03*
X139030000Y-94680000D03*
%TO.N,Net-(IC1-PS1)*%
X138730000Y-93330000D03*
X141470000Y-95200000D03*
%TO.N,GND*%
X135940000Y-96920000D03*
X145630000Y-89120000D03*
X141940000Y-86300000D03*
X145070000Y-95870000D03*
X163830000Y-92110000D03*
D21*
X156070139Y-92608803D03*
D20*
X150400000Y-90030000D03*
X136030000Y-88230000D03*
X160530000Y-84360000D03*
%TO.N,Net-(IC1-SA0{slash}H_MOSI)*%
X146700000Y-91000000D03*
%TO.N,Net-(IC1-H_SCL{slash}SCK{slash}RX)*%
X147500000Y-95500000D03*
%TO.N,Net-(IC1-H_SDA{slash}H_MISO{slash}TX)*%
X146580000Y-94210000D03*
%TD*%
D22*
%TO.N,Net-(IC1-PS0{slash}WAKE)*%
X140960000Y-90950000D02*
X140970000Y-90960000D01*
X140960000Y-89980000D02*
X140960000Y-90950000D01*
X139030000Y-98600000D02*
X140680000Y-100250000D01*
X139030000Y-94680000D02*
X139030000Y-98600000D01*
%TO.N,Net-(IC1-PS1)*%
X140810000Y-92850000D02*
X140832500Y-92872500D01*
X138730000Y-93330000D02*
X138730000Y-92380000D01*
X140680000Y-85010000D02*
X140960000Y-85290000D01*
X140970000Y-85300000D02*
X140680000Y-85010000D01*
X138730000Y-87880000D02*
X138730000Y-88840000D01*
X138730000Y-90140000D02*
X138730000Y-90920000D01*
X138730000Y-93330000D02*
X139810500Y-93330000D01*
X141470000Y-95200000D02*
X141470000Y-94285000D01*
X138730000Y-93330000D02*
X138720000Y-93320000D01*
X138740000Y-90930000D02*
X138730000Y-90920000D01*
X138730000Y-87880000D02*
X140680000Y-85930000D01*
X139810500Y-93330000D02*
X140268000Y-92872500D01*
X138740000Y-92370000D02*
X138740000Y-90930000D01*
X140462500Y-91872500D02*
X138730000Y-90140000D01*
X140268000Y-92872500D02*
X140832500Y-92872500D01*
X138730000Y-92380000D02*
X138740000Y-92370000D01*
X138730000Y-88840000D02*
X138730000Y-90140000D01*
X140832500Y-91872500D02*
X140462500Y-91872500D01*
X140680000Y-85930000D02*
X140680000Y-85010000D01*
%TO.N,Net-(IC1-CAP)*%
X142470000Y-90960000D02*
X142470000Y-89950000D01*
%TO.N,GND*%
X140557500Y-93372500D02*
X140832500Y-93372500D01*
X139990000Y-93940000D02*
X140557500Y-93372500D01*
X142970000Y-94285000D02*
X142970000Y-95290000D01*
%TO.N,Net-(IC1-SA0{slash}H_MOSI)*%
X146172000Y-92372500D02*
X145607500Y-92372500D01*
X146700000Y-91000000D02*
X146700000Y-91844500D01*
X146700000Y-91844500D02*
X146172000Y-92372500D01*
%TO.N,Net-(IC1-H_SCL{slash}SCK{slash}RX)*%
X147500000Y-95500000D02*
X147500000Y-93900000D01*
X146972500Y-93372500D02*
X145607500Y-93372500D01*
X147500000Y-93900000D02*
X146972500Y-93372500D01*
%TO.N,Net-(IC1-H_SDA{slash}H_MISO{slash}TX)*%
X145545000Y-94210000D02*
X145470000Y-94285000D01*
X146580000Y-94210000D02*
X145545000Y-94210000D01*
%TO.N,Net-(IC1-NRST)*%
X146485500Y-86700000D02*
X143470000Y-89715500D01*
X150840000Y-85010000D02*
X149150000Y-86700000D01*
X149150000Y-86700000D02*
X146485500Y-86700000D01*
X143470000Y-89715500D02*
X143470000Y-90960000D01*
%TO.N,Net-(IC1-H_INTN)*%
X145760000Y-100250000D02*
X149940000Y-96070000D01*
X144970000Y-90370000D02*
X144970000Y-90960000D01*
X147040000Y-90190000D02*
X145150000Y-90190000D01*
X149940000Y-96070000D02*
X149940000Y-93090000D01*
X145150000Y-90190000D02*
X144970000Y-90370000D01*
X149940000Y-93090000D02*
X147040000Y-90190000D01*
%TO.N,Net-(IC1-H_CSN)*%
X148500000Y-93830000D02*
X147542500Y-92872500D01*
X143220000Y-100250000D02*
X144164215Y-100250000D01*
X147542500Y-92872500D02*
X145607500Y-92872500D01*
X148500000Y-95914215D02*
X148500000Y-93830000D01*
X144164215Y-100250000D02*
X148500000Y-95914215D01*
%TO.N,Net-(LED1-A)*%
X138130000Y-96250000D02*
X138130000Y-95305000D01*
X138140000Y-95295000D02*
X135940000Y-93095000D01*
X138130000Y-95305000D02*
X138140000Y-95295000D01*
%TO.N,Net-(IC1-BOOTN)*%
X140830000Y-92370000D02*
X140832500Y-92372500D01*
X139760000Y-92370000D02*
X140830000Y-92370000D01*
%TO.N,Net-(U1-GPIO21_D6_TX)*%
X150840000Y-100250000D02*
X158730000Y-100250000D01*
X160140000Y-98840000D02*
X160560000Y-98840000D01*
X158730000Y-100250000D02*
X160140000Y-98840000D01*
%TO.N,Net-(U1-GPIO7_D5_SCL)*%
X155730000Y-88200000D02*
X159800000Y-88200000D01*
X152150000Y-91780000D02*
X155730000Y-88200000D01*
X152150000Y-96400000D02*
X152150000Y-91780000D01*
X148300000Y-100250000D02*
X152150000Y-96400000D01*
%TO.N,Net-(U1-GPIO3_A1_D1)*%
X138140000Y-97280000D02*
X138130000Y-97270000D01*
X138140000Y-100250000D02*
X138140000Y-97280000D01*
%TD*%
%TA.AperFunction,Conductor*%
%TO.N,GND*%
G36*
X140132815Y-93873641D02*
G01*
X140148406Y-93873810D01*
X140180350Y-93888818D01*
X140286664Y-93958778D01*
X140331845Y-94012073D01*
X140342500Y-94062362D01*
X140342500Y-94670370D01*
X140342501Y-94670376D01*
X140348908Y-94729983D01*
X140399202Y-94864828D01*
X140399206Y-94864835D01*
X140485452Y-94980044D01*
X140485455Y-94980047D01*
X140600663Y-95066292D01*
X140600665Y-95066293D01*
X140600669Y-95066296D01*
X140600673Y-95066297D01*
X140604924Y-95068619D01*
X140654331Y-95118023D01*
X140669500Y-95177453D01*
X140669500Y-95278846D01*
X140700261Y-95433489D01*
X140700264Y-95433501D01*
X140760602Y-95579172D01*
X140760609Y-95579185D01*
X140848210Y-95710288D01*
X140848213Y-95710292D01*
X140959707Y-95821786D01*
X140959711Y-95821789D01*
X141090814Y-95909390D01*
X141090827Y-95909397D01*
X141133550Y-95927093D01*
X141236503Y-95969737D01*
X141354821Y-95993272D01*
X141391153Y-96000499D01*
X141391156Y-96000500D01*
X141391158Y-96000500D01*
X141548844Y-96000500D01*
X141548845Y-96000499D01*
X141703497Y-95969737D01*
X141849179Y-95909394D01*
X141980289Y-95821789D01*
X142091789Y-95710289D01*
X142179394Y-95579179D01*
X142239737Y-95433497D01*
X142270500Y-95278842D01*
X142270500Y-95246999D01*
X142290185Y-95179960D01*
X142342989Y-95134205D01*
X142394496Y-95122999D01*
X142644872Y-95122999D01*
X142704483Y-95116591D01*
X142704483Y-95116590D01*
X142709095Y-95116095D01*
X142735605Y-95116096D01*
X142795155Y-95122499D01*
X142795172Y-95122500D01*
X142843000Y-95122500D01*
X142844282Y-95121217D01*
X142843316Y-95116778D01*
X142854039Y-95088021D01*
X142862685Y-95058579D01*
X142866578Y-95054396D01*
X142867729Y-95051312D01*
X142892685Y-95026355D01*
X142895685Y-95024109D01*
X142961148Y-94999688D01*
X143029422Y-95014537D01*
X143044315Y-95024109D01*
X143047315Y-95026355D01*
X143065389Y-95050501D01*
X143078829Y-95063940D01*
X143080214Y-95070306D01*
X143089184Y-95082290D01*
X143096313Y-95121813D01*
X143097000Y-95122500D01*
X143144828Y-95122500D01*
X143144839Y-95122499D01*
X143204396Y-95116095D01*
X143230911Y-95116095D01*
X143235513Y-95116589D01*
X143235517Y-95116591D01*
X143295127Y-95123000D01*
X143644872Y-95122999D01*
X143704483Y-95116591D01*
X143704486Y-95116589D01*
X143706744Y-95116347D01*
X143733254Y-95116347D01*
X143735514Y-95116589D01*
X143735517Y-95116591D01*
X143795127Y-95123000D01*
X144144872Y-95122999D01*
X144204483Y-95116591D01*
X144204486Y-95116589D01*
X144206744Y-95116347D01*
X144233254Y-95116347D01*
X144235514Y-95116589D01*
X144235517Y-95116591D01*
X144295127Y-95123000D01*
X144644872Y-95122999D01*
X144704483Y-95116591D01*
X144704486Y-95116589D01*
X144706744Y-95116347D01*
X144733254Y-95116347D01*
X144735514Y-95116589D01*
X144735517Y-95116591D01*
X144795127Y-95123000D01*
X145144872Y-95122999D01*
X145204483Y-95116591D01*
X145204486Y-95116589D01*
X145206744Y-95116347D01*
X145233254Y-95116347D01*
X145235514Y-95116589D01*
X145235517Y-95116591D01*
X145295127Y-95123000D01*
X145644872Y-95122999D01*
X145704483Y-95116591D01*
X145839331Y-95066296D01*
X145954546Y-94980046D01*
X145996492Y-94924012D01*
X146052422Y-94882144D01*
X146122113Y-94877160D01*
X146164647Y-94895224D01*
X146200814Y-94919390D01*
X146200827Y-94919397D01*
X146319186Y-94968422D01*
X146346503Y-94979737D01*
X146446803Y-94999688D01*
X146501153Y-95010499D01*
X146501156Y-95010500D01*
X146650723Y-95010500D01*
X146717762Y-95030185D01*
X146763517Y-95082989D01*
X146773461Y-95152147D01*
X146765284Y-95181952D01*
X146730264Y-95266498D01*
X146730261Y-95266510D01*
X146699500Y-95421153D01*
X146699500Y-95578846D01*
X146730261Y-95733489D01*
X146730264Y-95733501D01*
X146790602Y-95879172D01*
X146790609Y-95879185D01*
X146878210Y-96010288D01*
X146878213Y-96010292D01*
X146989707Y-96121786D01*
X146989711Y-96121789D01*
X147120814Y-96209390D01*
X147126191Y-96212264D01*
X147124863Y-96214748D01*
X147169866Y-96251110D01*
X147191845Y-96317433D01*
X147174478Y-96385109D01*
X147155599Y-96409379D01*
X144247893Y-99317086D01*
X144186570Y-99350571D01*
X144116878Y-99345587D01*
X144072531Y-99317086D01*
X144042466Y-99287021D01*
X144042464Y-99287019D01*
X143881694Y-99170213D01*
X143875763Y-99167191D01*
X143704632Y-99079994D01*
X143704629Y-99079993D01*
X143515637Y-99018587D01*
X143417498Y-99003043D01*
X143319361Y-98987500D01*
X143120639Y-98987500D01*
X143055214Y-98997862D01*
X142924362Y-99018587D01*
X142735370Y-99079993D01*
X142735367Y-99079994D01*
X142558305Y-99170213D01*
X142397533Y-99287021D01*
X142257021Y-99427533D01*
X142140213Y-99588305D01*
X142060485Y-99744780D01*
X142012510Y-99795576D01*
X141944689Y-99812371D01*
X141878554Y-99789833D01*
X141839515Y-99744780D01*
X141780937Y-99629815D01*
X141759787Y-99588306D01*
X141642981Y-99427536D01*
X141502464Y-99287019D01*
X141341694Y-99170213D01*
X141335763Y-99167191D01*
X141164632Y-99079994D01*
X141164629Y-99079993D01*
X140975637Y-99018587D01*
X140877498Y-99003043D01*
X140779361Y-98987500D01*
X140580639Y-98987500D01*
X140566768Y-98989697D01*
X140384360Y-99018587D01*
X140382087Y-99019133D01*
X140381197Y-99019088D01*
X140379552Y-99019349D01*
X140379497Y-99019003D01*
X140312305Y-99015635D01*
X140265472Y-98986237D01*
X139666819Y-98387584D01*
X139633334Y-98326261D01*
X139630500Y-98299903D01*
X139630500Y-95259765D01*
X139650185Y-95192726D01*
X139651398Y-95190874D01*
X139700908Y-95116778D01*
X139739394Y-95059179D01*
X139799737Y-94913497D01*
X139830500Y-94758842D01*
X139830500Y-94601158D01*
X139830500Y-94601155D01*
X139830499Y-94601153D01*
X139799737Y-94446503D01*
X139791082Y-94425607D01*
X139739397Y-94300827D01*
X139739390Y-94300814D01*
X139651789Y-94169711D01*
X139651786Y-94169707D01*
X139624260Y-94142181D01*
X139613647Y-94122744D01*
X139599147Y-94106011D01*
X139597230Y-94092679D01*
X139590775Y-94080858D01*
X139592354Y-94058771D01*
X139589203Y-94036853D01*
X139594798Y-94024601D01*
X139595759Y-94011166D01*
X139609029Y-93993439D01*
X139618228Y-93973297D01*
X139629559Y-93966014D01*
X139637631Y-93955233D01*
X139658376Y-93947495D01*
X139677006Y-93935523D01*
X139698924Y-93932371D01*
X139703095Y-93930816D01*
X139711941Y-93930500D01*
X139723831Y-93930500D01*
X139723847Y-93930501D01*
X139731443Y-93930501D01*
X139889554Y-93930501D01*
X139889557Y-93930501D01*
X140042285Y-93889577D01*
X140050181Y-93885017D01*
X140065333Y-93881341D01*
X140078540Y-93873054D01*
X140098591Y-93873270D01*
X140118080Y-93868542D01*
X140132815Y-93873641D01*
G37*
%TD.AperFunction*%
%TA.AperFunction,Conductor*%
G36*
X144507228Y-85451689D02*
G01*
X144519807Y-85451150D01*
X144539670Y-85462744D01*
X144561446Y-85470165D01*
X144570720Y-85480868D01*
X144580149Y-85486372D01*
X144600483Y-85515217D01*
X144680213Y-85671694D01*
X144797019Y-85832464D01*
X144937536Y-85972981D01*
X145098306Y-86089787D01*
X145151359Y-86116819D01*
X145275367Y-86180005D01*
X145275370Y-86180006D01*
X145336993Y-86200028D01*
X145464364Y-86241413D01*
X145660639Y-86272500D01*
X145660640Y-86272500D01*
X145764402Y-86272500D01*
X145831441Y-86292185D01*
X145877196Y-86344989D01*
X145887140Y-86414147D01*
X145858115Y-86477703D01*
X145852083Y-86484181D01*
X143489959Y-88846303D01*
X143428636Y-88879788D01*
X143358944Y-88874804D01*
X143303011Y-88832932D01*
X143278660Y-88768346D01*
X143277145Y-88749089D01*
X143232030Y-88593803D01*
X143149721Y-88454625D01*
X143149714Y-88454616D01*
X143035383Y-88340285D01*
X143035374Y-88340278D01*
X142896195Y-88257968D01*
X142896190Y-88257966D01*
X142740918Y-88212855D01*
X142740912Y-88212854D01*
X142720000Y-88211209D01*
X142720000Y-88866000D01*
X142700315Y-88933039D01*
X142647511Y-88978794D01*
X142596000Y-88990000D01*
X142470000Y-88990000D01*
X142470000Y-89045500D01*
X142450315Y-89112539D01*
X142397511Y-89158294D01*
X142346000Y-89169500D01*
X142235302Y-89169500D01*
X142199008Y-89172356D01*
X142199002Y-89172357D01*
X142043610Y-89217503D01*
X142043605Y-89217506D01*
X142034766Y-89222732D01*
X141971648Y-89240000D01*
X141665495Y-89240000D01*
X141660141Y-89247130D01*
X141660013Y-89291693D01*
X141622070Y-89350362D01*
X141558431Y-89379204D01*
X141489301Y-89369062D01*
X141472246Y-89359518D01*
X141339185Y-89270609D01*
X141339172Y-89270602D01*
X141193501Y-89210264D01*
X141193489Y-89210261D01*
X141038845Y-89179500D01*
X141038842Y-89179500D01*
X140881158Y-89179500D01*
X140881155Y-89179500D01*
X140726510Y-89210261D01*
X140726498Y-89210264D01*
X140580827Y-89270602D01*
X140580814Y-89270609D01*
X140449711Y-89358210D01*
X140449707Y-89358213D01*
X140338213Y-89469707D01*
X140338210Y-89469711D01*
X140250609Y-89600814D01*
X140250602Y-89600827D01*
X140190264Y-89746498D01*
X140190261Y-89746510D01*
X140159500Y-89901153D01*
X140159500Y-90058846D01*
X140190261Y-90213489D01*
X140190264Y-90213501D01*
X140250602Y-90359172D01*
X140250609Y-90359185D01*
X140324719Y-90470098D01*
X140331235Y-90490909D01*
X140342133Y-90509801D01*
X140343447Y-90529910D01*
X140345597Y-90536776D01*
X140345474Y-90544936D01*
X140345297Y-90548604D01*
X140342500Y-90574627D01*
X140342500Y-90606871D01*
X140342357Y-90609850D01*
X140331853Y-90640161D01*
X140322815Y-90670942D01*
X140320488Y-90672958D01*
X140319480Y-90675868D01*
X140294251Y-90695692D01*
X140270011Y-90716697D01*
X140266963Y-90717135D01*
X140264542Y-90719038D01*
X140232607Y-90722075D01*
X140200853Y-90726641D01*
X140198051Y-90725361D01*
X140194987Y-90725653D01*
X140166488Y-90710947D01*
X140137297Y-90697616D01*
X140133124Y-90693731D01*
X140132896Y-90693613D01*
X140132777Y-90693407D01*
X140130819Y-90691584D01*
X139366819Y-89927584D01*
X139333334Y-89866261D01*
X139330500Y-89839903D01*
X139330500Y-89506666D01*
X139350185Y-89439627D01*
X139366816Y-89418987D01*
X139380117Y-89405687D01*
X139462494Y-89266395D01*
X139507643Y-89110993D01*
X139510500Y-89074690D01*
X139510500Y-88740000D01*
X141665496Y-88740000D01*
X142220000Y-88740000D01*
X142220000Y-88211210D01*
X142219999Y-88211209D01*
X142199087Y-88212854D01*
X142199081Y-88212855D01*
X142043809Y-88257966D01*
X142043804Y-88257968D01*
X141904625Y-88340278D01*
X141904616Y-88340285D01*
X141790285Y-88454616D01*
X141790278Y-88454625D01*
X141707968Y-88593804D01*
X141665496Y-88740000D01*
X139510500Y-88740000D01*
X139510500Y-88605310D01*
X139507643Y-88569007D01*
X139462494Y-88413605D01*
X139462491Y-88413600D01*
X139460610Y-88409252D01*
X139452047Y-88339909D01*
X139460610Y-88310748D01*
X139462489Y-88306402D01*
X139462494Y-88306395D01*
X139507643Y-88150993D01*
X139510500Y-88114690D01*
X139510500Y-88000096D01*
X139530185Y-87933057D01*
X139546814Y-87912420D01*
X141038506Y-86420727D01*
X141038511Y-86420724D01*
X141048714Y-86410520D01*
X141048716Y-86410520D01*
X141160520Y-86298716D01*
X141237545Y-86165302D01*
X141288109Y-86117090D01*
X141288234Y-86117025D01*
X141341694Y-86089787D01*
X141502464Y-85972981D01*
X141642981Y-85832464D01*
X141759787Y-85671694D01*
X141839515Y-85515218D01*
X141887490Y-85464423D01*
X141955311Y-85447628D01*
X142021446Y-85470165D01*
X142060484Y-85515218D01*
X142140213Y-85671694D01*
X142257019Y-85832464D01*
X142397536Y-85972981D01*
X142558306Y-86089787D01*
X142611359Y-86116819D01*
X142735367Y-86180005D01*
X142735370Y-86180006D01*
X142796993Y-86200028D01*
X142924364Y-86241413D01*
X143120639Y-86272500D01*
X143120640Y-86272500D01*
X143319360Y-86272500D01*
X143319361Y-86272500D01*
X143515636Y-86241413D01*
X143704632Y-86180005D01*
X143881694Y-86089787D01*
X144042464Y-85972981D01*
X144182981Y-85832464D01*
X144299787Y-85671694D01*
X144379515Y-85515218D01*
X144388159Y-85506065D01*
X144392895Y-85494399D01*
X144411696Y-85481144D01*
X144427490Y-85464423D01*
X144439710Y-85461396D01*
X144450002Y-85454142D01*
X144472984Y-85453156D01*
X144495311Y-85447628D01*
X144507228Y-85451689D01*
G37*
%TD.AperFunction*%
%TA.AperFunction,Conductor*%
G36*
X168262539Y-82810185D02*
G01*
X168308294Y-82862989D01*
X168319500Y-82914500D01*
X168319500Y-102345500D01*
X168299815Y-102412539D01*
X168247011Y-102458294D01*
X168195500Y-102469500D01*
X132904500Y-102469500D01*
X132837461Y-102449815D01*
X132791706Y-102397011D01*
X132780500Y-102345500D01*
X132780500Y-91874998D01*
X135123005Y-91874998D01*
X135123007Y-91875000D01*
X135690000Y-91875000D01*
X136190000Y-91875000D01*
X136756993Y-91875000D01*
X136756994Y-91874998D01*
X136711471Y-91718307D01*
X136711469Y-91718304D01*
X136628193Y-91577491D01*
X136628187Y-91577483D01*
X136512516Y-91461812D01*
X136512508Y-91461806D01*
X136371697Y-91378531D01*
X136371692Y-91378529D01*
X136214603Y-91332890D01*
X136214591Y-91332888D01*
X136190000Y-91330952D01*
X136190000Y-91875000D01*
X135690000Y-91875000D01*
X135690000Y-91330954D01*
X135665402Y-91332889D01*
X135508307Y-91378529D01*
X135508302Y-91378531D01*
X135367491Y-91461806D01*
X135367483Y-91461812D01*
X135251812Y-91577483D01*
X135251806Y-91577491D01*
X135168530Y-91718304D01*
X135168528Y-91718307D01*
X135123005Y-91874998D01*
X132780500Y-91874998D01*
X132780500Y-89090000D01*
X136991210Y-89090000D01*
X136992854Y-89110910D01*
X137037968Y-89266195D01*
X137120278Y-89405374D01*
X137120285Y-89405383D01*
X137234616Y-89519714D01*
X137234625Y-89519721D01*
X137373804Y-89602031D01*
X137520000Y-89644504D01*
X137520000Y-89090000D01*
X136991210Y-89090000D01*
X132780500Y-89090000D01*
X132780500Y-88589999D01*
X136991209Y-88589999D01*
X136991210Y-88590000D01*
X137520000Y-88590000D01*
X137520000Y-88130000D01*
X136991210Y-88130000D01*
X136992854Y-88150910D01*
X137037968Y-88306195D01*
X137039942Y-88310756D01*
X137048499Y-88380099D01*
X137039942Y-88409244D01*
X137037966Y-88413809D01*
X136992855Y-88569081D01*
X136992854Y-88569087D01*
X136991209Y-88589999D01*
X132780500Y-88589999D01*
X132780500Y-87629999D01*
X136991209Y-87629999D01*
X136991210Y-87630000D01*
X137520000Y-87630000D01*
X137520000Y-87075494D01*
X137519998Y-87075493D01*
X137373809Y-87117965D01*
X137373806Y-87117967D01*
X137234625Y-87200278D01*
X137234616Y-87200285D01*
X137120285Y-87314616D01*
X137120278Y-87314625D01*
X137037968Y-87453804D01*
X137037966Y-87453809D01*
X136992855Y-87609081D01*
X136992854Y-87609087D01*
X136991209Y-87629999D01*
X132780500Y-87629999D01*
X132780500Y-84910639D01*
X134337500Y-84910639D01*
X134337500Y-85109360D01*
X134368587Y-85305637D01*
X134429993Y-85494629D01*
X134429994Y-85494632D01*
X134520074Y-85671422D01*
X134520213Y-85671694D01*
X134637019Y-85832464D01*
X134777536Y-85972981D01*
X134938306Y-86089787D01*
X134991359Y-86116819D01*
X135115367Y-86180005D01*
X135115370Y-86180006D01*
X135176993Y-86200028D01*
X135304364Y-86241413D01*
X135500639Y-86272500D01*
X135500640Y-86272500D01*
X135699360Y-86272500D01*
X135699361Y-86272500D01*
X135895636Y-86241413D01*
X136084632Y-86180005D01*
X136261694Y-86089787D01*
X136422464Y-85972981D01*
X136562981Y-85832464D01*
X136679787Y-85671694D01*
X136759796Y-85514667D01*
X136807769Y-85463872D01*
X136875590Y-85447077D01*
X136941725Y-85469614D01*
X136980765Y-85514668D01*
X137060641Y-85671432D01*
X137087730Y-85708715D01*
X137087731Y-85708716D01*
X137702352Y-85094094D01*
X137725792Y-85181571D01*
X137784311Y-85282930D01*
X137867070Y-85365689D01*
X137968429Y-85424208D01*
X138055905Y-85447647D01*
X137441283Y-86062268D01*
X137441283Y-86062269D01*
X137478567Y-86089358D01*
X137655562Y-86179542D01*
X137844477Y-86240924D01*
X138040679Y-86272000D01*
X138239321Y-86272000D01*
X138435520Y-86240924D01*
X138435523Y-86240924D01*
X138624437Y-86179542D01*
X138801425Y-86089362D01*
X138838716Y-86062268D01*
X138224095Y-85447647D01*
X138311571Y-85424208D01*
X138412930Y-85365689D01*
X138495689Y-85282930D01*
X138554208Y-85181571D01*
X138577647Y-85094094D01*
X139192268Y-85708715D01*
X139219364Y-85671422D01*
X139299234Y-85514669D01*
X139347208Y-85463872D01*
X139415029Y-85447077D01*
X139481164Y-85469614D01*
X139520203Y-85514667D01*
X139600213Y-85671694D01*
X139717019Y-85832464D01*
X139717021Y-85832466D01*
X139734979Y-85850424D01*
X139768464Y-85911747D01*
X139763480Y-85981439D01*
X139734979Y-86025786D01*
X138727584Y-87033181D01*
X138666261Y-87066666D01*
X138639903Y-87069500D01*
X138525302Y-87069500D01*
X138489008Y-87072356D01*
X138489002Y-87072357D01*
X138333609Y-87117504D01*
X138333604Y-87117506D01*
X138312628Y-87129911D01*
X138244903Y-87147092D01*
X138186389Y-87129911D01*
X138166191Y-87117966D01*
X138166190Y-87117965D01*
X138020001Y-87075493D01*
X138020000Y-87075494D01*
X138020000Y-87381645D01*
X138002734Y-87444763D01*
X137997507Y-87453600D01*
X137997504Y-87453608D01*
X137952357Y-87609002D01*
X137952356Y-87609008D01*
X137949500Y-87645302D01*
X137949500Y-88114697D01*
X137952356Y-88150991D01*
X137952357Y-88150997D01*
X137997504Y-88306390D01*
X137999393Y-88310756D01*
X138007950Y-88380100D01*
X137999394Y-88409240D01*
X137997506Y-88413603D01*
X137952357Y-88569002D01*
X137952356Y-88569008D01*
X137949500Y-88605302D01*
X137949500Y-89074697D01*
X137952356Y-89110991D01*
X137952357Y-89110997D01*
X137997503Y-89266389D01*
X137997505Y-89266393D01*
X137997506Y-89266395D01*
X138002732Y-89275233D01*
X138020000Y-89338352D01*
X138020000Y-89644504D01*
X138039256Y-89658962D01*
X138040771Y-89658967D01*
X138099442Y-89696907D01*
X138128287Y-89760545D01*
X138129500Y-89777845D01*
X138129500Y-90060939D01*
X138129499Y-90060943D01*
X138129499Y-90219057D01*
X138129500Y-90219060D01*
X138129500Y-90833330D01*
X138129499Y-90833348D01*
X138129499Y-90999057D01*
X138135275Y-91020613D01*
X138139500Y-91052706D01*
X138139500Y-91700404D01*
X138119815Y-91767443D01*
X138103181Y-91788085D01*
X138098869Y-91792396D01*
X138098863Y-91792404D01*
X138017131Y-91930606D01*
X138017129Y-91930611D01*
X137972335Y-92084791D01*
X137972334Y-92084797D01*
X137969500Y-92120811D01*
X137969500Y-92619169D01*
X137969501Y-92619191D01*
X137972335Y-92655205D01*
X138017130Y-92809391D01*
X138017131Y-92809395D01*
X138023421Y-92820030D01*
X138040602Y-92887755D01*
X138022159Y-92944748D01*
X138023476Y-92945452D01*
X138020604Y-92950823D01*
X137960264Y-93096498D01*
X137960261Y-93096510D01*
X137929500Y-93251153D01*
X137929500Y-93408846D01*
X137960261Y-93563489D01*
X137960264Y-93563501D01*
X138020602Y-93709172D01*
X138020609Y-93709185D01*
X138108210Y-93840288D01*
X138108213Y-93840292D01*
X138219710Y-93951789D01*
X138347593Y-94037237D01*
X138350373Y-94040564D01*
X138354416Y-94042138D01*
X138372581Y-94067137D01*
X138392398Y-94090849D01*
X138392938Y-94095152D01*
X138395488Y-94098661D01*
X138397254Y-94129512D01*
X138401105Y-94160174D01*
X138399303Y-94165311D01*
X138399481Y-94168417D01*
X138392819Y-94183796D01*
X138386678Y-94201307D01*
X138384381Y-94205375D01*
X138320606Y-94300821D01*
X138293394Y-94366515D01*
X138289687Y-94373082D01*
X138269817Y-94392394D01*
X138252430Y-94413971D01*
X138245114Y-94416405D01*
X138239585Y-94421780D01*
X138212427Y-94427284D01*
X138186136Y-94436035D01*
X138178665Y-94434128D01*
X138171108Y-94435660D01*
X138145282Y-94425607D01*
X138118437Y-94418755D01*
X138109154Y-94411544D01*
X138105997Y-94410315D01*
X138103955Y-94407505D01*
X138094030Y-94399795D01*
X136796819Y-93102584D01*
X136763334Y-93041261D01*
X136760500Y-93014903D01*
X136760500Y-92882067D01*
X136760499Y-92882052D01*
X136758623Y-92858216D01*
X136757609Y-92845325D01*
X136757608Y-92845320D01*
X136711933Y-92688107D01*
X136711931Y-92688104D01*
X136711931Y-92688103D01*
X136702779Y-92672628D01*
X136685597Y-92604906D01*
X136702781Y-92546386D01*
X136711470Y-92531693D01*
X136711471Y-92531692D01*
X136756994Y-92375001D01*
X136756993Y-92375000D01*
X136451357Y-92375000D01*
X136388236Y-92357732D01*
X136371895Y-92348068D01*
X136371892Y-92348066D01*
X136214679Y-92302391D01*
X136214673Y-92302390D01*
X136177947Y-92299500D01*
X136177940Y-92299500D01*
X135702060Y-92299500D01*
X135702052Y-92299500D01*
X135665326Y-92302390D01*
X135665320Y-92302391D01*
X135508107Y-92348066D01*
X135508104Y-92348068D01*
X135491764Y-92357732D01*
X135428643Y-92375000D01*
X135123007Y-92375000D01*
X135123005Y-92375001D01*
X135168529Y-92531691D01*
X135168534Y-92531704D01*
X135177220Y-92546392D01*
X135194400Y-92614116D01*
X135177221Y-92672625D01*
X135168068Y-92688102D01*
X135168068Y-92688103D01*
X135122391Y-92845320D01*
X135122390Y-92845326D01*
X135119500Y-92882052D01*
X135119500Y-93307947D01*
X135122390Y-93344673D01*
X135122391Y-93344679D01*
X135168066Y-93501892D01*
X135168068Y-93501895D01*
X135168069Y-93501897D01*
X135173701Y-93511420D01*
X135251408Y-93642817D01*
X135251414Y-93642825D01*
X135367174Y-93758585D01*
X135367178Y-93758588D01*
X135367180Y-93758590D01*
X135508103Y-93841931D01*
X135508104Y-93841931D01*
X135508107Y-93841933D01*
X135665320Y-93887608D01*
X135665323Y-93887608D01*
X135665325Y-93887609D01*
X135702060Y-93890500D01*
X135834903Y-93890500D01*
X135901942Y-93910185D01*
X135922584Y-93926819D01*
X137490834Y-95495069D01*
X137524319Y-95556392D01*
X137519335Y-95626084D01*
X137490835Y-95670430D01*
X137438870Y-95722395D01*
X137438863Y-95722404D01*
X137357131Y-95860606D01*
X137357129Y-95860611D01*
X137312335Y-96014791D01*
X137312334Y-96014797D01*
X137309500Y-96050811D01*
X137309500Y-96449169D01*
X137309501Y-96449191D01*
X137312335Y-96485205D01*
X137357129Y-96639388D01*
X137357132Y-96639395D01*
X137391128Y-96696881D01*
X137408309Y-96764605D01*
X137391128Y-96823119D01*
X137357132Y-96880604D01*
X137357129Y-96880611D01*
X137312335Y-97034791D01*
X137312334Y-97034797D01*
X137309500Y-97070811D01*
X137309500Y-97469169D01*
X137309501Y-97469191D01*
X137312335Y-97505205D01*
X137357129Y-97659388D01*
X137357131Y-97659393D01*
X137438865Y-97797598D01*
X137503182Y-97861915D01*
X137536666Y-97923236D01*
X137539500Y-97949595D01*
X137539500Y-99063270D01*
X137519815Y-99130309D01*
X137482133Y-99167191D01*
X137482248Y-99167349D01*
X137481176Y-99168127D01*
X137480285Y-99169000D01*
X137478309Y-99170210D01*
X137317533Y-99287021D01*
X137177021Y-99427533D01*
X137060213Y-99588305D01*
X136980485Y-99744780D01*
X136932510Y-99795576D01*
X136864689Y-99812371D01*
X136798554Y-99789833D01*
X136759515Y-99744780D01*
X136700937Y-99629815D01*
X136679787Y-99588306D01*
X136562981Y-99427536D01*
X136422464Y-99287019D01*
X136261694Y-99170213D01*
X136255763Y-99167191D01*
X136084632Y-99079994D01*
X136084629Y-99079993D01*
X135895637Y-99018587D01*
X135797498Y-99003043D01*
X135699361Y-98987500D01*
X135500639Y-98987500D01*
X135435214Y-98997862D01*
X135304362Y-99018587D01*
X135115370Y-99079993D01*
X135115367Y-99079994D01*
X134938305Y-99170213D01*
X134777533Y-99287021D01*
X134637021Y-99427533D01*
X134520213Y-99588305D01*
X134429994Y-99765367D01*
X134429993Y-99765370D01*
X134368587Y-99954362D01*
X134337500Y-100150639D01*
X134337500Y-100349360D01*
X134368587Y-100545637D01*
X134429993Y-100734629D01*
X134429994Y-100734632D01*
X134475167Y-100823287D01*
X134520213Y-100911694D01*
X134637019Y-101072464D01*
X134777536Y-101212981D01*
X134938306Y-101329787D01*
X135025149Y-101374035D01*
X135115367Y-101420005D01*
X135115370Y-101420006D01*
X135209866Y-101450709D01*
X135304364Y-101481413D01*
X135500639Y-101512500D01*
X135500640Y-101512500D01*
X135699360Y-101512500D01*
X135699361Y-101512500D01*
X135895636Y-101481413D01*
X136084632Y-101420005D01*
X136261694Y-101329787D01*
X136422464Y-101212981D01*
X136562981Y-101072464D01*
X136679787Y-100911694D01*
X136759515Y-100755218D01*
X136807490Y-100704423D01*
X136875311Y-100687628D01*
X136941446Y-100710165D01*
X136980484Y-100755218D01*
X137060213Y-100911694D01*
X137177019Y-101072464D01*
X137317536Y-101212981D01*
X137478306Y-101329787D01*
X137565149Y-101374035D01*
X137655367Y-101420005D01*
X137655370Y-101420006D01*
X137749866Y-101450709D01*
X137844364Y-101481413D01*
X138040639Y-101512500D01*
X138040640Y-101512500D01*
X138239360Y-101512500D01*
X138239361Y-101512500D01*
X138435636Y-101481413D01*
X138624632Y-101420005D01*
X138801694Y-101329787D01*
X138962464Y-101212981D01*
X139102981Y-101072464D01*
X139219787Y-100911694D01*
X139299515Y-100755218D01*
X139347490Y-100704423D01*
X139415311Y-100687628D01*
X139481446Y-100710165D01*
X139520484Y-100755218D01*
X139600213Y-100911694D01*
X139717019Y-101072464D01*
X139857536Y-101212981D01*
X140018306Y-101329787D01*
X140105149Y-101374035D01*
X140195367Y-101420005D01*
X140195370Y-101420006D01*
X140289866Y-101450709D01*
X140384364Y-101481413D01*
X140580639Y-101512500D01*
X140580640Y-101512500D01*
X140779360Y-101512500D01*
X140779361Y-101512500D01*
X140975636Y-101481413D01*
X141164632Y-101420005D01*
X141341694Y-101329787D01*
X141502464Y-101212981D01*
X141642981Y-101072464D01*
X141759787Y-100911694D01*
X141839515Y-100755218D01*
X141887490Y-100704423D01*
X141955311Y-100687628D01*
X142021446Y-100710165D01*
X142060484Y-100755218D01*
X142140213Y-100911694D01*
X142257019Y-101072464D01*
X142397536Y-101212981D01*
X142558306Y-101329787D01*
X142645149Y-101374035D01*
X142735367Y-101420005D01*
X142735370Y-101420006D01*
X142829866Y-101450709D01*
X142924364Y-101481413D01*
X143120639Y-101512500D01*
X143120640Y-101512500D01*
X143319360Y-101512500D01*
X143319361Y-101512500D01*
X143515636Y-101481413D01*
X143704632Y-101420005D01*
X143881694Y-101329787D01*
X144042464Y-101212981D01*
X144182981Y-101072464D01*
X144299787Y-100911694D01*
X144319768Y-100872477D01*
X144367739Y-100821683D01*
X144371965Y-100819325D01*
X144384466Y-100812667D01*
X144396000Y-100809577D01*
X144446119Y-100780639D01*
X144464115Y-100770249D01*
X144465954Y-100769270D01*
X144498168Y-100762613D01*
X144530137Y-100754857D01*
X144532220Y-100755577D01*
X144534378Y-100755132D01*
X144565079Y-100766949D01*
X144596164Y-100777707D01*
X144597722Y-100779514D01*
X144599584Y-100780231D01*
X144606590Y-100789797D01*
X144634725Y-100822421D01*
X144680211Y-100911692D01*
X144738616Y-100992079D01*
X144797019Y-101072464D01*
X144937536Y-101212981D01*
X145098306Y-101329787D01*
X145185149Y-101374035D01*
X145275367Y-101420005D01*
X145275370Y-101420006D01*
X145369866Y-101450709D01*
X145464364Y-101481413D01*
X145660639Y-101512500D01*
X145660640Y-101512500D01*
X145859360Y-101512500D01*
X145859361Y-101512500D01*
X146055636Y-101481413D01*
X146244632Y-101420005D01*
X146421694Y-101329787D01*
X146582464Y-101212981D01*
X146722981Y-101072464D01*
X146839787Y-100911694D01*
X146919515Y-100755218D01*
X146967490Y-100704423D01*
X147035311Y-100687628D01*
X147101446Y-100710165D01*
X147140484Y-100755218D01*
X147220213Y-100911694D01*
X147337019Y-101072464D01*
X147477536Y-101212981D01*
X147638306Y-101329787D01*
X147725149Y-101374035D01*
X147815367Y-101420005D01*
X147815370Y-101420006D01*
X147909866Y-101450709D01*
X148004364Y-101481413D01*
X148200639Y-101512500D01*
X148200640Y-101512500D01*
X148399360Y-101512500D01*
X148399361Y-101512500D01*
X148595636Y-101481413D01*
X148784632Y-101420005D01*
X148961694Y-101329787D01*
X149122464Y-101212981D01*
X149262981Y-101072464D01*
X149379787Y-100911694D01*
X149459515Y-100755218D01*
X149507490Y-100704423D01*
X149575311Y-100687628D01*
X149641446Y-100710165D01*
X149680484Y-100755218D01*
X149760213Y-100911694D01*
X149877019Y-101072464D01*
X150017536Y-101212981D01*
X150178306Y-101329787D01*
X150265149Y-101374035D01*
X150355367Y-101420005D01*
X150355370Y-101420006D01*
X150449866Y-101450709D01*
X150544364Y-101481413D01*
X150740639Y-101512500D01*
X150740640Y-101512500D01*
X150939360Y-101512500D01*
X150939361Y-101512500D01*
X151135636Y-101481413D01*
X151324632Y-101420005D01*
X151501694Y-101329787D01*
X151662464Y-101212981D01*
X151802981Y-101072464D01*
X151919787Y-100911694D01*
X151919789Y-100911689D01*
X151921000Y-100909715D01*
X151921656Y-100909121D01*
X151922651Y-100907752D01*
X151922938Y-100907960D01*
X151972810Y-100862837D01*
X152026730Y-100850500D01*
X158643331Y-100850500D01*
X158643347Y-100850501D01*
X158650943Y-100850501D01*
X158809054Y-100850501D01*
X158809057Y-100850501D01*
X158961785Y-100809577D01*
X159011904Y-100780639D01*
X159098716Y-100730520D01*
X159210520Y-100618716D01*
X159210520Y-100618714D01*
X159220728Y-100608507D01*
X159220730Y-100608504D01*
X159429738Y-100399495D01*
X159491059Y-100366012D01*
X159560751Y-100370996D01*
X159576845Y-100378346D01*
X159577671Y-100378797D01*
X159712517Y-100429091D01*
X159712516Y-100429091D01*
X159719444Y-100429835D01*
X159772127Y-100435500D01*
X161567872Y-100435499D01*
X161627483Y-100429091D01*
X161762331Y-100378796D01*
X161877546Y-100292546D01*
X161963796Y-100177331D01*
X162014091Y-100042483D01*
X162020500Y-99982873D01*
X162020499Y-97637135D01*
X162819500Y-97637135D01*
X162819500Y-99982870D01*
X162819501Y-99982876D01*
X162825908Y-100042483D01*
X162876202Y-100177328D01*
X162876206Y-100177335D01*
X162962452Y-100292544D01*
X162962455Y-100292547D01*
X163077664Y-100378793D01*
X163077671Y-100378797D01*
X163212517Y-100429091D01*
X163212516Y-100429091D01*
X163219444Y-100429835D01*
X163272127Y-100435500D01*
X165067872Y-100435499D01*
X165127483Y-100429091D01*
X165262331Y-100378796D01*
X165377546Y-100292546D01*
X165463796Y-100177331D01*
X165514091Y-100042483D01*
X165520500Y-99982873D01*
X165520499Y-97637128D01*
X165514091Y-97577517D01*
X165487120Y-97505205D01*
X165463797Y-97442671D01*
X165463793Y-97442664D01*
X165377547Y-97327455D01*
X165377544Y-97327452D01*
X165262335Y-97241206D01*
X165262328Y-97241202D01*
X165127482Y-97190908D01*
X165127483Y-97190908D01*
X165067883Y-97184501D01*
X165067881Y-97184500D01*
X165067873Y-97184500D01*
X165067864Y-97184500D01*
X163272129Y-97184500D01*
X163272123Y-97184501D01*
X163212516Y-97190908D01*
X163077671Y-97241202D01*
X163077664Y-97241206D01*
X162962455Y-97327452D01*
X162962452Y-97327455D01*
X162876206Y-97442664D01*
X162876202Y-97442671D01*
X162825908Y-97577517D01*
X162819501Y-97637116D01*
X162819501Y-97637123D01*
X162819500Y-97637135D01*
X162020499Y-97637135D01*
X162020499Y-97637128D01*
X162014091Y-97577517D01*
X161987120Y-97505205D01*
X161963797Y-97442671D01*
X161963793Y-97442664D01*
X161877547Y-97327455D01*
X161877544Y-97327452D01*
X161762335Y-97241206D01*
X161762328Y-97241202D01*
X161627482Y-97190908D01*
X161627483Y-97190908D01*
X161567883Y-97184501D01*
X161567881Y-97184500D01*
X161567873Y-97184500D01*
X161567864Y-97184500D01*
X159772129Y-97184500D01*
X159772123Y-97184501D01*
X159712516Y-97190908D01*
X159577671Y-97241202D01*
X159577664Y-97241206D01*
X159462455Y-97327452D01*
X159462452Y-97327455D01*
X159376206Y-97442664D01*
X159376202Y-97442671D01*
X159325908Y-97577517D01*
X159319501Y-97637116D01*
X159319501Y-97637123D01*
X159319500Y-97637135D01*
X159319500Y-98759902D01*
X159299815Y-98826941D01*
X159283181Y-98847583D01*
X158517584Y-99613181D01*
X158456261Y-99646666D01*
X158429903Y-99649500D01*
X152026730Y-99649500D01*
X151959691Y-99629815D01*
X151922808Y-99592133D01*
X151922651Y-99592248D01*
X151921872Y-99591176D01*
X151921000Y-99590285D01*
X151919789Y-99588309D01*
X151919786Y-99588305D01*
X151802981Y-99427536D01*
X151662464Y-99287019D01*
X151501694Y-99170213D01*
X151495763Y-99167191D01*
X151324632Y-99079994D01*
X151324629Y-99079993D01*
X151135637Y-99018587D01*
X151037498Y-99003043D01*
X150939361Y-98987500D01*
X150740639Y-98987500D01*
X150736920Y-98988089D01*
X150726765Y-98989697D01*
X150657472Y-98980739D01*
X150604022Y-98935741D01*
X150583385Y-98868989D01*
X150602113Y-98801676D01*
X150619687Y-98779546D01*
X152508506Y-96890728D01*
X152508511Y-96890724D01*
X152518714Y-96880520D01*
X152518716Y-96880520D01*
X152630520Y-96768716D01*
X152687225Y-96670500D01*
X152709577Y-96631785D01*
X152750500Y-96479058D01*
X152750500Y-96320943D01*
X152750500Y-95732844D01*
X159320000Y-95732844D01*
X159326401Y-95792372D01*
X159326403Y-95792379D01*
X159376645Y-95927086D01*
X159376649Y-95927093D01*
X159462809Y-96042187D01*
X159462812Y-96042190D01*
X159577906Y-96128350D01*
X159577913Y-96128354D01*
X159712620Y-96178596D01*
X159712627Y-96178598D01*
X159772155Y-96184999D01*
X159772172Y-96185000D01*
X160420000Y-96185000D01*
X160920000Y-96185000D01*
X161567828Y-96185000D01*
X161567844Y-96184999D01*
X161627372Y-96178598D01*
X161627379Y-96178596D01*
X161762086Y-96128354D01*
X161762093Y-96128350D01*
X161877187Y-96042190D01*
X161877190Y-96042187D01*
X161963350Y-95927093D01*
X161963354Y-95927086D01*
X162013596Y-95792379D01*
X162013598Y-95792372D01*
X162019999Y-95732844D01*
X162020000Y-95732827D01*
X162020000Y-94810000D01*
X160920000Y-94810000D01*
X160920000Y-96185000D01*
X160420000Y-96185000D01*
X160420000Y-94810000D01*
X159320000Y-94810000D01*
X159320000Y-95732844D01*
X152750500Y-95732844D01*
X152750500Y-93387155D01*
X159320000Y-93387155D01*
X159320000Y-94310000D01*
X160420000Y-94310000D01*
X160920000Y-94310000D01*
X162020000Y-94310000D01*
X162020000Y-93387172D01*
X162019999Y-93387155D01*
X162013598Y-93327627D01*
X162013596Y-93327620D01*
X161963354Y-93192913D01*
X161963350Y-93192906D01*
X161877190Y-93077812D01*
X161877187Y-93077809D01*
X161762093Y-92991649D01*
X161762086Y-92991645D01*
X161627379Y-92941403D01*
X161627372Y-92941401D01*
X161567844Y-92935000D01*
X160920000Y-92935000D01*
X160920000Y-94310000D01*
X160420000Y-94310000D01*
X160420000Y-92935000D01*
X159772155Y-92935000D01*
X159712627Y-92941401D01*
X159712620Y-92941403D01*
X159577913Y-92991645D01*
X159577906Y-92991649D01*
X159462812Y-93077809D01*
X159462809Y-93077812D01*
X159376649Y-93192906D01*
X159376645Y-93192913D01*
X159326403Y-93327620D01*
X159326401Y-93327627D01*
X159320000Y-93387155D01*
X152750500Y-93387155D01*
X152750500Y-92080097D01*
X152770185Y-92013058D01*
X152786819Y-91992416D01*
X153815315Y-90963920D01*
X165537749Y-90963920D01*
X165566590Y-91108907D01*
X165566593Y-91108917D01*
X165623162Y-91245488D01*
X165623169Y-91245501D01*
X165705298Y-91368415D01*
X165705301Y-91368419D01*
X165809830Y-91472948D01*
X165809834Y-91472951D01*
X165932748Y-91555080D01*
X165932761Y-91555087D01*
X165986850Y-91577491D01*
X166069337Y-91611658D01*
X166069341Y-91611658D01*
X166069342Y-91611659D01*
X166214329Y-91640500D01*
X166214332Y-91640500D01*
X166362170Y-91640500D01*
X166459712Y-91621096D01*
X166507163Y-91611658D01*
X166643745Y-91555084D01*
X166766666Y-91472951D01*
X166871201Y-91368416D01*
X166953334Y-91245495D01*
X167009908Y-91108913D01*
X167024336Y-91036380D01*
X167038750Y-90963920D01*
X167038750Y-90816079D01*
X167009909Y-90671092D01*
X167009908Y-90671091D01*
X167009908Y-90671087D01*
X166954275Y-90536776D01*
X166953337Y-90534511D01*
X166953330Y-90534498D01*
X166871201Y-90411584D01*
X166871198Y-90411580D01*
X166766669Y-90307051D01*
X166766665Y-90307048D01*
X166643751Y-90224919D01*
X166643738Y-90224912D01*
X166507167Y-90168343D01*
X166507157Y-90168340D01*
X166362170Y-90139500D01*
X166362168Y-90139500D01*
X166214332Y-90139500D01*
X166214330Y-90139500D01*
X166069342Y-90168340D01*
X166069332Y-90168343D01*
X165932761Y-90224912D01*
X165932748Y-90224919D01*
X165809834Y-90307048D01*
X165809830Y-90307051D01*
X165705301Y-90411580D01*
X165705298Y-90411584D01*
X165623169Y-90534498D01*
X165623162Y-90534511D01*
X165566593Y-90671082D01*
X165566590Y-90671092D01*
X165537750Y-90816079D01*
X165537750Y-90816082D01*
X165537750Y-90963918D01*
X165537750Y-90963920D01*
X165537749Y-90963920D01*
X153815315Y-90963920D01*
X154056926Y-90722309D01*
X154367652Y-90411584D01*
X155942417Y-88836819D01*
X156003740Y-88803334D01*
X156030098Y-88800500D01*
X158590202Y-88800500D01*
X158657241Y-88820185D01*
X158695739Y-88859401D01*
X158732288Y-88918656D01*
X158856344Y-89042712D01*
X159005666Y-89134814D01*
X159172203Y-89189999D01*
X159274991Y-89200500D01*
X160325008Y-89200499D01*
X160325016Y-89200498D01*
X160325019Y-89200498D01*
X160381302Y-89194748D01*
X160427797Y-89189999D01*
X160594334Y-89134814D01*
X160743656Y-89042712D01*
X160867712Y-88918656D01*
X160959814Y-88769334D01*
X161014999Y-88602797D01*
X161025500Y-88500009D01*
X161025499Y-87899992D01*
X161025498Y-87899983D01*
X163724500Y-87899983D01*
X163724500Y-88500001D01*
X163724501Y-88500019D01*
X163735000Y-88602796D01*
X163735001Y-88602799D01*
X163780466Y-88740000D01*
X163790186Y-88769334D01*
X163882288Y-88918656D01*
X164006344Y-89042712D01*
X164155666Y-89134814D01*
X164322203Y-89189999D01*
X164424991Y-89200500D01*
X165475008Y-89200499D01*
X165475016Y-89200498D01*
X165475019Y-89200498D01*
X165531302Y-89194748D01*
X165577797Y-89189999D01*
X165744334Y-89134814D01*
X165893656Y-89042712D01*
X166017712Y-88918656D01*
X166109814Y-88769334D01*
X166164999Y-88602797D01*
X166175500Y-88500009D01*
X166175499Y-87899992D01*
X166164999Y-87797203D01*
X166109814Y-87630666D01*
X166017712Y-87481344D01*
X165973694Y-87437326D01*
X165940210Y-87376004D01*
X165945194Y-87306312D01*
X165973696Y-87261964D01*
X166017315Y-87218345D01*
X166109356Y-87069124D01*
X166109358Y-87069119D01*
X166164505Y-86902697D01*
X166164506Y-86902690D01*
X166174999Y-86799986D01*
X166175000Y-86799973D01*
X166175000Y-86750000D01*
X163725001Y-86750000D01*
X163725001Y-86799986D01*
X163735494Y-86902697D01*
X163790641Y-87069119D01*
X163790643Y-87069124D01*
X163882684Y-87218345D01*
X163926304Y-87261965D01*
X163959789Y-87323288D01*
X163954805Y-87392980D01*
X163926305Y-87437326D01*
X163882289Y-87481342D01*
X163790187Y-87630663D01*
X163790186Y-87630666D01*
X163735001Y-87797203D01*
X163735001Y-87797204D01*
X163735000Y-87797204D01*
X163724500Y-87899983D01*
X161025498Y-87899983D01*
X161014999Y-87797203D01*
X160959814Y-87630666D01*
X160867712Y-87481344D01*
X160823694Y-87437326D01*
X160790210Y-87376004D01*
X160795194Y-87306312D01*
X160823696Y-87261964D01*
X160867315Y-87218345D01*
X160959356Y-87069124D01*
X160959358Y-87069119D01*
X161014505Y-86902697D01*
X161014506Y-86902690D01*
X161024999Y-86799986D01*
X161025000Y-86799973D01*
X161025000Y-86750000D01*
X158575001Y-86750000D01*
X158575001Y-86799986D01*
X158585494Y-86902697D01*
X158640641Y-87069119D01*
X158640643Y-87069124D01*
X158732684Y-87218345D01*
X158776304Y-87261965D01*
X158776954Y-87263157D01*
X158778133Y-87263833D01*
X158793651Y-87293733D01*
X158809789Y-87323288D01*
X158809692Y-87324642D01*
X158810318Y-87325848D01*
X158807208Y-87359376D01*
X158804805Y-87392980D01*
X158803949Y-87394507D01*
X158803865Y-87395420D01*
X158801001Y-87399774D01*
X158786301Y-87426033D01*
X158781644Y-87431987D01*
X158732288Y-87481344D01*
X158692124Y-87546458D01*
X158687880Y-87551887D01*
X158664852Y-87568379D01*
X158643793Y-87587321D01*
X158635900Y-87589114D01*
X158631076Y-87592570D01*
X158617741Y-87593241D01*
X158590202Y-87599500D01*
X155816670Y-87599500D01*
X155816654Y-87599499D01*
X155809058Y-87599499D01*
X155650943Y-87599499D01*
X155574579Y-87619961D01*
X155498214Y-87640423D01*
X155498209Y-87640426D01*
X155361290Y-87719475D01*
X155361282Y-87719481D01*
X151669481Y-91411282D01*
X151669480Y-91411284D01*
X151626169Y-91486303D01*
X151624279Y-91489576D01*
X151624277Y-91489578D01*
X151590425Y-91548209D01*
X151590424Y-91548210D01*
X151582578Y-91577491D01*
X151549499Y-91700943D01*
X151549499Y-91700945D01*
X151549499Y-91869046D01*
X151549500Y-91869059D01*
X151549500Y-96099902D01*
X151529815Y-96166941D01*
X151513181Y-96187583D01*
X148714526Y-98986237D01*
X148653203Y-99019722D01*
X148600478Y-99019158D01*
X148600448Y-99019349D01*
X148599156Y-99019144D01*
X148597903Y-99019131D01*
X148595636Y-99018586D01*
X148413232Y-98989697D01*
X148399361Y-98987500D01*
X148200639Y-98987500D01*
X148190476Y-98989109D01*
X148186767Y-98989697D01*
X148117474Y-98980740D01*
X148064023Y-98935742D01*
X148043386Y-98868990D01*
X148062113Y-98801677D01*
X148079687Y-98779547D01*
X150420520Y-96438716D01*
X150499577Y-96301784D01*
X150540501Y-96149057D01*
X150540501Y-95990942D01*
X150540501Y-95983347D01*
X150540500Y-95983329D01*
X150540500Y-93010944D01*
X150540500Y-93010943D01*
X150530333Y-92973001D01*
X150524588Y-92951558D01*
X150499577Y-92858216D01*
X150492135Y-92845326D01*
X150420524Y-92721290D01*
X150420521Y-92721286D01*
X150420520Y-92721284D01*
X150308716Y-92609480D01*
X150308715Y-92609479D01*
X150304385Y-92605149D01*
X150304374Y-92605139D01*
X147527590Y-89828355D01*
X147527588Y-89828352D01*
X147408717Y-89709481D01*
X147408709Y-89709475D01*
X147306560Y-89650500D01*
X147271788Y-89630424D01*
X147271787Y-89630423D01*
X147210693Y-89614053D01*
X147119057Y-89589499D01*
X146960943Y-89589499D01*
X146953347Y-89589499D01*
X146953331Y-89589500D01*
X145070940Y-89589500D01*
X145030019Y-89600464D01*
X145030019Y-89600465D01*
X144992751Y-89610451D01*
X144918214Y-89630423D01*
X144918209Y-89630426D01*
X144781290Y-89709475D01*
X144781282Y-89709481D01*
X144489481Y-90001282D01*
X144489477Y-90001287D01*
X144455580Y-90060000D01*
X144449468Y-90065827D01*
X144446407Y-90073696D01*
X144424561Y-90089576D01*
X144405013Y-90108216D01*
X144395252Y-90110882D01*
X144389892Y-90114779D01*
X144365569Y-90118991D01*
X144355302Y-90121796D01*
X144351740Y-90122000D01*
X144295128Y-90122001D01*
X144235517Y-90128409D01*
X144234674Y-90128723D01*
X144227105Y-90129158D01*
X144224927Y-90128652D01*
X144206746Y-90128652D01*
X144200431Y-90127973D01*
X144192963Y-90127170D01*
X144160285Y-90113636D01*
X144159048Y-90113349D01*
X144158681Y-90112972D01*
X144128413Y-90100436D01*
X144088562Y-90043045D01*
X144086065Y-89973220D01*
X144118532Y-89916202D01*
X146697916Y-87336819D01*
X146759239Y-87303334D01*
X146785597Y-87300500D01*
X149063331Y-87300500D01*
X149063347Y-87300501D01*
X149070943Y-87300501D01*
X149229054Y-87300501D01*
X149229057Y-87300501D01*
X149381785Y-87259577D01*
X149431904Y-87230639D01*
X149518716Y-87180520D01*
X149630520Y-87068716D01*
X149630520Y-87068714D01*
X149640728Y-87058507D01*
X149640730Y-87058504D01*
X150425473Y-86273760D01*
X150486794Y-86240277D01*
X150539521Y-86240841D01*
X150539552Y-86240651D01*
X150540843Y-86240855D01*
X150542099Y-86240869D01*
X150544352Y-86241409D01*
X150544364Y-86241413D01*
X150740639Y-86272500D01*
X150740640Y-86272500D01*
X150939360Y-86272500D01*
X150939361Y-86272500D01*
X151135636Y-86241413D01*
X151263053Y-86200013D01*
X158575000Y-86200013D01*
X158575000Y-86250000D01*
X159550000Y-86250000D01*
X160050000Y-86250000D01*
X161024999Y-86250000D01*
X161024999Y-86200029D01*
X161024998Y-86200013D01*
X163725000Y-86200013D01*
X163725000Y-86250000D01*
X164700000Y-86250000D01*
X165200000Y-86250000D01*
X166174999Y-86250000D01*
X166174999Y-86200028D01*
X166174998Y-86200013D01*
X166164505Y-86097302D01*
X166109358Y-85930880D01*
X166109356Y-85930875D01*
X166017315Y-85781654D01*
X165893345Y-85657684D01*
X165744124Y-85565643D01*
X165744119Y-85565641D01*
X165577697Y-85510494D01*
X165577690Y-85510493D01*
X165474986Y-85500000D01*
X165200000Y-85500000D01*
X165200000Y-86250000D01*
X164700000Y-86250000D01*
X164700000Y-85500000D01*
X164425029Y-85500000D01*
X164425012Y-85500001D01*
X164322302Y-85510494D01*
X164155880Y-85565641D01*
X164155875Y-85565643D01*
X164006654Y-85657684D01*
X163882684Y-85781654D01*
X163790643Y-85930875D01*
X163790641Y-85930880D01*
X163735494Y-86097302D01*
X163735493Y-86097309D01*
X163725000Y-86200013D01*
X161024998Y-86200013D01*
X161024998Y-86200012D01*
X161014505Y-86097302D01*
X160959358Y-85930880D01*
X160959356Y-85930875D01*
X160867315Y-85781654D01*
X160743345Y-85657684D01*
X160594124Y-85565643D01*
X160594119Y-85565641D01*
X160427697Y-85510494D01*
X160427690Y-85510493D01*
X160324986Y-85500000D01*
X160050000Y-85500000D01*
X160050000Y-86250000D01*
X159550000Y-86250000D01*
X159550000Y-85500000D01*
X159275029Y-85500000D01*
X159275012Y-85500001D01*
X159172302Y-85510494D01*
X159005880Y-85565641D01*
X159005875Y-85565643D01*
X158856654Y-85657684D01*
X158732684Y-85781654D01*
X158640643Y-85930875D01*
X158640641Y-85930880D01*
X158585494Y-86097302D01*
X158585493Y-86097309D01*
X158575000Y-86200013D01*
X151263053Y-86200013D01*
X151324632Y-86180005D01*
X151501694Y-86089787D01*
X151662464Y-85972981D01*
X151802981Y-85832464D01*
X151919787Y-85671694D01*
X152010005Y-85494632D01*
X152071413Y-85305636D01*
X152102500Y-85109361D01*
X152102500Y-84910639D01*
X152071413Y-84714364D01*
X152010005Y-84525368D01*
X152010005Y-84525367D01*
X151964035Y-84435149D01*
X151919787Y-84348306D01*
X151802981Y-84187536D01*
X151779365Y-84163920D01*
X165537749Y-84163920D01*
X165566590Y-84308907D01*
X165566593Y-84308917D01*
X165623162Y-84445488D01*
X165623169Y-84445501D01*
X165705298Y-84568415D01*
X165705301Y-84568419D01*
X165809830Y-84672948D01*
X165809834Y-84672951D01*
X165932748Y-84755080D01*
X165932761Y-84755087D01*
X166069332Y-84811656D01*
X166069337Y-84811658D01*
X166069341Y-84811658D01*
X166069342Y-84811659D01*
X166214329Y-84840500D01*
X166214332Y-84840500D01*
X166362170Y-84840500D01*
X166459712Y-84821096D01*
X166507163Y-84811658D01*
X166643745Y-84755084D01*
X166766666Y-84672951D01*
X166871201Y-84568416D01*
X166953334Y-84445495D01*
X167009908Y-84308913D01*
X167038750Y-84163918D01*
X167038750Y-84016082D01*
X167038750Y-84016079D01*
X167009909Y-83871092D01*
X167009908Y-83871091D01*
X167009908Y-83871087D01*
X166997029Y-83839994D01*
X166953337Y-83734511D01*
X166953330Y-83734498D01*
X166871201Y-83611584D01*
X166871198Y-83611580D01*
X166766669Y-83507051D01*
X166766665Y-83507048D01*
X166643751Y-83424919D01*
X166643738Y-83424912D01*
X166507167Y-83368343D01*
X166507157Y-83368340D01*
X166362170Y-83339500D01*
X166362168Y-83339500D01*
X166214332Y-83339500D01*
X166214330Y-83339500D01*
X166069342Y-83368340D01*
X166069332Y-83368343D01*
X165932761Y-83424912D01*
X165932748Y-83424919D01*
X165809834Y-83507048D01*
X165809830Y-83507051D01*
X165705301Y-83611580D01*
X165705298Y-83611584D01*
X165623169Y-83734498D01*
X165623162Y-83734511D01*
X165566593Y-83871082D01*
X165566590Y-83871092D01*
X165537750Y-84016079D01*
X165537750Y-84016082D01*
X165537750Y-84163918D01*
X165537750Y-84163920D01*
X165537749Y-84163920D01*
X151779365Y-84163920D01*
X151662464Y-84047019D01*
X151501694Y-83930213D01*
X151324632Y-83839994D01*
X151324629Y-83839993D01*
X151135637Y-83778587D01*
X151037498Y-83763043D01*
X150939361Y-83747500D01*
X150740639Y-83747500D01*
X150675214Y-83757862D01*
X150544362Y-83778587D01*
X150355370Y-83839993D01*
X150355367Y-83839994D01*
X150178305Y-83930213D01*
X150017533Y-84047021D01*
X149877021Y-84187533D01*
X149760213Y-84348305D01*
X149680485Y-84504780D01*
X149632510Y-84555576D01*
X149564689Y-84572371D01*
X149498554Y-84549833D01*
X149459515Y-84504780D01*
X149440179Y-84466832D01*
X149379787Y-84348306D01*
X149262981Y-84187536D01*
X149122464Y-84047019D01*
X148961694Y-83930213D01*
X148784632Y-83839994D01*
X148784629Y-83839993D01*
X148595637Y-83778587D01*
X148497498Y-83763043D01*
X148399361Y-83747500D01*
X148200639Y-83747500D01*
X148135214Y-83757862D01*
X148004362Y-83778587D01*
X147815370Y-83839993D01*
X147815367Y-83839994D01*
X147638305Y-83930213D01*
X147477533Y-84047021D01*
X147337021Y-84187533D01*
X147220213Y-84348305D01*
X147140485Y-84504780D01*
X147092510Y-84555576D01*
X147024689Y-84572371D01*
X146958554Y-84549833D01*
X146919515Y-84504780D01*
X146900179Y-84466832D01*
X146839787Y-84348306D01*
X146722981Y-84187536D01*
X146582464Y-84047019D01*
X146421694Y-83930213D01*
X146244632Y-83839994D01*
X146244629Y-83839993D01*
X146055637Y-83778587D01*
X145957498Y-83763043D01*
X145859361Y-83747500D01*
X145660639Y-83747500D01*
X145595214Y-83757862D01*
X145464362Y-83778587D01*
X145275370Y-83839993D01*
X145275367Y-83839994D01*
X145098305Y-83930213D01*
X144937533Y-84047021D01*
X144797021Y-84187533D01*
X144680213Y-84348305D01*
X144600485Y-84504780D01*
X144552510Y-84555576D01*
X144484689Y-84572371D01*
X144418554Y-84549833D01*
X144379515Y-84504780D01*
X144360179Y-84466832D01*
X144299787Y-84348306D01*
X144182981Y-84187536D01*
X144042464Y-84047019D01*
X143881694Y-83930213D01*
X143704632Y-83839994D01*
X143704629Y-83839993D01*
X143515637Y-83778587D01*
X143417498Y-83763043D01*
X143319361Y-83747500D01*
X143120639Y-83747500D01*
X143055214Y-83757862D01*
X142924362Y-83778587D01*
X142735370Y-83839993D01*
X142735367Y-83839994D01*
X142558305Y-83930213D01*
X142397533Y-84047021D01*
X142257021Y-84187533D01*
X142140213Y-84348305D01*
X142060485Y-84504780D01*
X142012510Y-84555576D01*
X141944689Y-84572371D01*
X141878554Y-84549833D01*
X141839515Y-84504780D01*
X141820179Y-84466832D01*
X141759787Y-84348306D01*
X141642981Y-84187536D01*
X141502464Y-84047019D01*
X141341694Y-83930213D01*
X141164632Y-83839994D01*
X141164629Y-83839993D01*
X140975637Y-83778587D01*
X140877498Y-83763043D01*
X140779361Y-83747500D01*
X140580639Y-83747500D01*
X140515214Y-83757862D01*
X140384362Y-83778587D01*
X140195370Y-83839993D01*
X140195367Y-83839994D01*
X140018305Y-83930213D01*
X139857533Y-84047021D01*
X139717021Y-84187533D01*
X139600213Y-84348305D01*
X139520204Y-84505331D01*
X139472229Y-84556127D01*
X139404408Y-84572922D01*
X139338273Y-84550384D01*
X139299234Y-84505331D01*
X139219358Y-84348567D01*
X139192268Y-84311283D01*
X138577647Y-84925904D01*
X138554208Y-84838429D01*
X138495689Y-84737070D01*
X138412930Y-84654311D01*
X138311571Y-84595792D01*
X138224094Y-84572352D01*
X138838716Y-83957731D01*
X138838715Y-83957730D01*
X138801432Y-83930641D01*
X138624437Y-83840457D01*
X138435522Y-83779075D01*
X138239321Y-83748000D01*
X138040679Y-83748000D01*
X137844479Y-83779075D01*
X137844476Y-83779075D01*
X137655562Y-83840457D01*
X137478564Y-83930643D01*
X137441283Y-83957729D01*
X137441282Y-83957730D01*
X138055906Y-84572352D01*
X137968429Y-84595792D01*
X137867070Y-84654311D01*
X137784311Y-84737070D01*
X137725792Y-84838429D01*
X137702352Y-84925905D01*
X137087730Y-84311282D01*
X137087729Y-84311283D01*
X137060641Y-84348566D01*
X136980764Y-84505332D01*
X136932790Y-84556127D01*
X136864969Y-84572922D01*
X136798834Y-84550384D01*
X136759796Y-84505332D01*
X136679787Y-84348306D01*
X136562981Y-84187536D01*
X136422464Y-84047019D01*
X136261694Y-83930213D01*
X136084632Y-83839994D01*
X136084629Y-83839993D01*
X135895637Y-83778587D01*
X135797498Y-83763043D01*
X135699361Y-83747500D01*
X135500639Y-83747500D01*
X135435214Y-83757862D01*
X135304362Y-83778587D01*
X135115370Y-83839993D01*
X135115367Y-83839994D01*
X134938305Y-83930213D01*
X134777533Y-84047021D01*
X134637021Y-84187533D01*
X134520213Y-84348305D01*
X134429994Y-84525367D01*
X134429993Y-84525370D01*
X134368587Y-84714362D01*
X134337500Y-84910639D01*
X132780500Y-84910639D01*
X132780500Y-82914500D01*
X132800185Y-82847461D01*
X132852989Y-82801706D01*
X132904500Y-82790500D01*
X168195500Y-82790500D01*
X168262539Y-82810185D01*
G37*
%TD.AperFunction*%
%TD*%
M02*
