M48
; DRILL file {KiCad 9.0.8} date 2026-03-22T19:52:19-0500
; FORMAT={-:-/ absolute / metric / decimal}
; #@! TF.CreationDate,2026-03-22T19:52:19-05:00
; #@! TF.GenerationSoftware,Kicad,Pcbnew,9.0.8
; #@! TF.FileFunction,Plated,1,2,PTH
FMAT,2
METRIC
; #@! TA.AperFunction,Plated,PTH,ViaDrill
T1C0.300
; #@! TA.AperFunction,Plated,PTH,ComponentDrill
T2C0.889
; #@! TA.AperFunction,Plated,PTH,ViaDrill
T3C2.400
%
G90
G05
T1
X135.94Y-96.92
X136.03Y-88.23
X138.73Y-93.33
X139.03Y-94.68
X140.96Y-89.98
X141.47Y-95.2
X141.94Y-86.3
X145.07Y-95.87
X145.63Y-89.12
X146.58Y-94.21
X146.7Y-91.0
X147.5Y-95.5
X150.4Y-90.03
X160.53Y-84.36
X163.83Y-92.11
T2
X135.6Y-85.01
X135.6Y-100.25
X138.14Y-85.01
X138.14Y-100.25
X140.68Y-85.01
X140.68Y-100.25
X143.22Y-85.01
X143.22Y-100.25
X145.76Y-85.01
X145.76Y-100.25
X148.3Y-85.01
X148.3Y-100.25
X150.84Y-85.01
X150.84Y-100.25
T3
X156.07Y-92.609
M30
